<?xml version="1.0" encoding="UTF-8"?><svg id="_レイヤー_2" xmlns="http://www.w3.org/2000/svg" viewBox="0 0 1272.2215 947.4209"><defs><style>.cls-1{stroke:#494949;stroke-width:12px;}.cls-1,.cls-2,.cls-3,.cls-4,.cls-5,.cls-6,.cls-7,.cls-8,.cls-9,.cls-10{stroke-miterlimit:10;}.cls-1,.cls-2,.cls-3,.cls-7{fill:none;}.cls-2{stroke-dasharray:13.9195 13.9195;}.cls-2,.cls-3,.cls-4,.cls-5,.cls-6,.cls-7,.cls-8,.cls-9{stroke-width:5px;}.cls-2,.cls-3,.cls-7{stroke:#bfbfbf;}.cls-4{fill:#c47e2a;}.cls-4,.cls-5,.cls-6,.cls-8,.cls-9{stroke:#bcb451;}.cls-11,.cls-10{fill:#efefef;}.cls-5{fill:#aa6111;}.cls-6{fill:#c6782a;}.cls-12{fill:#fffaa1;}.cls-13{fill:#c44;}.cls-14{fill:#494949;}.cls-7{stroke-dasharray:13.9555 13.9555;}.cls-15{fill:#493117;}.cls-16{fill:#afafaf;}.cls-8{fill:#d17613;}.cls-9{fill:#a8662a;}.cls-10{stroke:#afafaf;stroke-width:3px;}</style></defs><g id="user_info"><rect class="cls-5" x="39.6739" y="35.6352" width="1192.8736" height="905.7858" rx="35.7241" ry="35.7241"/><rect class="cls-4" x="39.6739" y="93.898" width="1192.8736" height="114.1603"/><rect class="cls-6" x="39.6739" y="318.9312" width="1192.8736" height="114.1603"/><rect class="cls-9" x="39.6739" y="543.9645" width="1192.8736" height="114.1603"/><rect class="cls-8" x="39.6739" y="768.9978" width="1192.8736" height="114.1603"/><rect class="cls-1" x="39.6739" y="35.6352" width="1192.8736" height="905.7858" rx="35.7241" ry="35.7241"/><path class="cls-13" d="M721.9959,184.2958c-24.6309,0-48.958-10.335-65.0732-27.6455-7.7881-8.7598-13.874-15.0029-20.8027-15.0029-6.4375,0-12.1738,5.1494-20.5078,14.6533-16.2842,17.708-40.0771,27.8994-65.2227,27.8994-19.1143,0-37.7598-6.083-52.502-17.1279l-.0996-.0723c-5.6963-3.9629-10.8066-9.3691-15.749-14.5967-1.2178-1.2881-2.4219-2.5615-3.6191-3.7979-4.6387-4.7285-8.8311-6.9219-13.209-6.9219-4.4971,0-8.8633,2.3604-13.7402,7.4277-1.3545,1.3486-2.792,2.9092-4.1826,4.4189-1.3232,1.4365-2.6914,2.9219-4.0605,4.3018-6.7246,6.7959-14.4297,12.4307-22.9033,16.75-12.2373,6.3301-26.2568,9.6709-40.5625,9.6709-14.5791,0-28.8398-3.4609-41.2412-10.0088-8.5566-4.4531-16.2998-10.2422-23.0322-17.2168-1.1211-1.1494-2.2559-2.3916-3.3535-3.5928-5.2754-5.7734-10.7295-11.7432-17.9678-11.7432-4.1094,0-8.0332,1.9219-11.9941,5.874-1.9541,1.8057-3.873,3.8887-5.9033,6.0928l-1.1885,1.2871c-6.7852,7.4365-14.5645,13.5879-23.1406,18.3027-12.7861,7.1875-27.624,10.9785-42.9375,10.9785-19.1777,0-37.8193-5.9785-52.4912-16.835-.7314-.5342-1.4502-1.0684-2.1758-1.6084-6.0742-4.5186-12.96-9.6396-20.9297-9.6396-2.6631,0-5.2969.583-7.8291,1.7324-4.4385,1.8594-8.749,5.0664-12.5527,7.8965l-.6387.4746c-13.4922,10.1768-29.8516,16.4248-46.0859,17.6104-2.1064.1592-4.1777.2393-6.1641.2393-21.0566,0-35.7354-8.7646-44.873-26.7939-7.0928-13.9941-10.7305-32.8799-11.4473-59.4336l-.0293-1.4102c-.2754-13.4932-.5615-27.4443.2275-40.6416l.0039-.1025c.5322-17.4287,9.5615-32.7393,23.5645-39.9561,11.9209-6.3281,22.126-7.1201,37.5723-8.3203l1.1338-.0879c5.9707-.4561,12.1855-.9443,18.4014-1.4326,5.999-.4717,11.999-.9434,17.7861-1.3857l2.3877-.1768c6.4727-.4805,11.1484-.8271,17.1113-.8271.5947,0,1.2031.0029,1.8271.0107l122.2568-.0068c13.4883,0,26.4502.001,38.2754.0049l609.7188.001c14.6191-.0068,29.5146-.0098,44.5879-.0098,23.3564,0,47.1279.0068,70.8936.0127,23.7559.0068,47.5068.0127,70.833.0127,18.8389,0,37.4014-.0039,55.4688-.0156,2.4658-.0244,4.7861-.0381,7.0293-.0381,11.2236,0,19.8965.3672,29.9355,1.2686,5.7871.5312,11.958.9707,18.4902,1.4355,11.293.8047,22.9717,1.6357,33.2744,3.0127l.0938.0156c26.2949,3.8525,42.5635,21.3916,43.5566,46.9238.8516,19.8105.6309,38.8467-.6562,56.5957-1.5557,18.0938-4.5146,31.4805-9.3066,42.082-6.0547,13.3945-14.9561,21.9697-27.2119,26.2178-5.9072,2-12.4902,3.0186-19.543,3.0186-11.5547,0-23.9814-2.792-34.9932-7.8623-6.1338-2.7402-12.4521-6.6553-19.9189-12.335-5.1758-3.8369-11.3389-7.7334-18.0723-7.7334-.8535,0-1.7061.0635-2.5371.1904-6.2559.7969-11.8867,4.9297-16.8555,8.5771-.9756.7158-1.9385,1.4229-2.8887,2.0918-6.2354,4.5586-12.8945,8.2461-19.8457,10.998-10.168,4.1689-21.083,6.2754-32.4805,6.2754-25.2627,0-49.9678-10.6826-66.0859-28.5752-7.7295-8.8799-13.4932-14.0469-19.959-14.0469-6.9014,0-12.6152,5.834-20.5352,14.7383-11.8096,12.5098-27.4492,21.5479-44.0439,25.4512-6.6689,1.6309-13.5723,2.4551-20.5479,2.4551-24.3887,0-47.7646-9.7832-64.1318-26.8398l-.0713-.0723c-1.1084-1.0898-2.3047-2.4072-3.5723-3.8027-5.0879-5.6016-10.8545-11.9512-17.9863-11.9512-7.0566.0449-12.5986,6.1387-17.4873,11.5146-1.3154,1.4463-2.5586,2.8135-3.7217,3.9375l-.0811.0811c-3.6211,3.7363-7.5908,7.1758-11.7979,10.2217-8.126,5.8877-17.0898,10.3135-26.6455,13.1572-8.0742,2.4951-16.5557,3.7549-25.2432,3.7549Z"/><path class="cls-14" d="M1142.8558,7c11.113,0,19.698.3635,29.6172,1.2532,5.8284.535,12.0129.9752,18.561,1.4414,11.2166.7985,22.8137,1.624,32.9944,2.9816l.0862.0135.0369.006.0374.0052c11.9836,1.7556,22.0164,6.6107,29.0134,14.0404,7.074,7.5111,11.0562,17.73,11.5171,29.5802.8442,19.6458.627,38.5308-.6467,56.132-1.5266,17.7094-4.3896,30.719-9.0093,40.9387-5.6375,12.4713-13.8699,20.4369-25.1218,24.3364-5.5674,1.8856-11.7725,2.8418-18.4431,2.8418-11.0588,0-22.9668-2.6782-33.5298-7.5415l-.0359-.0164-.0359-.016c-5.8474-2.6129-11.946-6.3971-19.1926-11.9093l-.0344-.0261-.0347-.0256c-5.6008-4.152-12.3716-8.3966-20.1223-8.3966-1.0127,0-2.0264.0752-3.0149.2231-7.1379.922-13.146,5.332-18.4495,9.2249-.9871.7246-1.9192,1.4089-2.8311,2.0508l-.0513.0361-.0508.0371c-5.9431,4.3458-12.3416,7.8893-19.0171,10.5319l-.0398.0156-.0396.0164c-9.7048,3.9796-20.1726,5.9974-31.1125,5.9974-24.2666,0-47.9807-10.2332-63.4475-27.3746-8.4119-9.6572-14.8108-15.2468-22.5977-15.2468-8.3315,0-14.844,6.5758-23.1179,15.8751-11.3391,11.9957-26.3442,20.662-42.2629,24.4067l-.03.0071-.03.0072c-6.3674,1.5575-12.991,2.3472-19.6865,2.3472-23.4402,0-45.8948-9.3903-61.606-25.7628l-.0701-.073-.0723-.0712c-1.0376-1.0203-2.2024-2.3029-3.4355-3.6605-5.3-5.8354-11.896-13.098-20.5781-13.098h-.0532l-.0227.0002c-8.5376.0553-14.8943,7.0454-20.002,12.662-1.2764,1.4033-2.4814,2.7288-3.5637,3.775l-.0813.0786-.0786.0813c-3.4832,3.593-7.2979,6.8983-11.3401,9.8248-7.8027,5.6531-16.4121,9.9044-25.5894,12.6357l-.0354.0103-.0352.011c-7.7036,2.3811-15.8369,3.5884-24.1741,3.5884-23.6499,0-46.9905-9.8938-62.4563-26.4717-8.4282-9.4755-15.0503-16.1771-23.4199-16.1771-7.7549,0-14.1013,5.5464-23.0833,15.7826-15.677,17.0142-38.5061,26.7705-62.647,26.7705-18.3625,0-36.2627-5.8347-50.4031-16.4294l-.0984-.0739-.1013-.0706c-5.3975-3.7549-10.3804-9.025-15.1992-14.1216-1.2295-1.3-2.4453-2.5859-3.6863-3.8669-5.252-5.3529-10.3848-7.9551-15.6914-7.9551-7.2078,0-12.6956,4.8043-16.2095,8.4475-1.4417,1.4391-2.886,3.0071-4.2832,4.5242-1.3027,1.4143-2.6499,2.8768-3.9805,4.2185-6.458,6.5262-13.8606,11.9402-22.0388,16.11-11.7241,6.0642-25.1882,9.2695-38.9368,9.2695-14.0112,0-27.7065-3.3208-39.6423-9.6224-8.2053-4.2708-15.6453-9.8336-22.1389-16.5603-1.0676-1.0946-2.1331-2.2606-3.2607-3.4951-5.5171-6.0389-11.7703-12.8837-20.5522-12.8837-4.9941,0-9.843,2.3027-14.4143,6.845-2.0508,1.9001-4.0984,4.1233-6.0796,6.2745l-1.1606,1.2578-.0176.0189-.0173.0189c-6.5098,7.1339-13.9868,13.0469-22.2234,17.5748l-.0291.016-.0291.0162c-12.2349,6.8778-26.4792,10.5131-41.1934,10.5131-18.4333,0-36.3359-5.7351-50.4473-16.176-.7048-.5142-1.4153-1.0427-2.1318-1.5758-6.5105-4.8427-13.8899-10.3314-23.0188-10.3314-3.147,0-6.25.6804-9.2249,2.0226-4.8105,2.0249-9.2832,5.3513-13.2327,8.2887l-.6477.4814-.0215.016-.0215.016c-12.9392,9.761-28.6406,15.7622-44.231,16.8997-2.01.1522-3.9919.2295-5.8904.2295-34.9839,0-51.2749-25.5435-52.8208-82.776l-.0291-1.4274c-.2749-13.4258-.5591-27.3087.2209-40.3682l.0063-.1019.0029-.1021c.4929-16.1582,8.7964-30.3173,21.6699-36.9517l.0378-.0195.0376-.02c11.2383-5.9661,21.1538-6.7358,36.1628-7.9015l1.1255-.0874c5.9563-.4552,12.1497-.9419,18.345-1.4288,6.0193-.473,12.0408-.9463,17.8257-1.389l2.3853-.1764c6.3997-.4752,11.0237-.8185,16.8555-.8185.5867,0,1.1855.0034,1.7998.0105l.04.0006h.04l18.6885.0012c15.231,0,31.9656-.002,49.0806-.0042,17.9097-.0022,36.2358-.0046,53.6902-.0046,13.7627,0,26.9841.0015,39.0344.0055l107.675.001,174.7561-.0013,175.9109-.0012,151.3792.0018c14.4121-.007,29.0986-.0096,43.9553-.0096,23.365,0,47.1438.0065,70.9209.0131,23.7754.0066,47.5488.0131,70.9053.0131,19.0164,0,37.7681-.0044,56.0017-.0165h.0317l.0317-.0004c2.5737-.0251,4.8484-.0374,6.9536-.0374M1142.8558,0c-2.252,0-4.5796.0138-7.0217.0377-18.2322.0121-36.9824.0164-55.9971.0164-46.7151,0-95.0981-.026-141.8262-.026-14.8579,0-29.5454.0027-43.9585.0096-50.1987-.0013-100.7361-.0018-151.376-.0018-116.9199,0-234.5156.0024-350.667.0024-36.0554,0-71.9683-.0002-107.6748-.0009-12.0488-.0039-25.271-.0054-39.0349-.0054-34.134,0-71.6013.0087-102.7705.0087-6.5359,0-12.7942-.0004-18.6873-.0012-.6418-.0076-1.2681-.0112-1.8809-.0112-6.8152,0-12.0366.4479-19.7529,1.0137-11.7839.9019-24.4485,1.9222-36.1919,2.8195-16.2036,1.2617-27.2102,1.9764-40.0374,8.7859C10.0191,20.8722,1.0511,38.1627.5191,55.6079c-.8252,13.8096-.4873,28.4056-.2031,42.3553,1.1599,42.9456,10.4307,89.6334,59.8193,89.6334,2.0696,0,4.2061-.0818,6.4192-.2494,17.3276-1.2642,34.1826-7.9299,47.9177-18.2913,3.853-2.8606,8.2085-6.1832,12.5049-7.9728,2.2019-1.0071,4.3433-1.4403,6.4277-1.4403,7.6704,0,14.5835,5.8621,21.0244,10.5618,15.6829,11.604,35.1306,17.5215,54.5732,17.5215,15.5129,0,31.021-3.7643,44.6238-11.411,9.0073-4.9517,17.1057-11.4114,24.022-18.9906,2.3911-2.5818,4.7083-5.1704,6.9514-7.2362,3.4941-3.5024,6.6443-4.8973,9.5674-4.8973,7.0276,0,12.7466,8.059,18.8022,14.2666,6.9434,7.193,15.0337,13.2577,23.9177,17.8817,13.1499,6.9426,28.0178,10.4131,42.8743,10.4131,14.6045,0,29.1978-3.3512,42.1528-10.052,8.812-4.4929,16.8545-10.3866,23.7983-17.4038,2.8804-2.9042,5.6204-6.1097,8.2803-8.7589,4.0256-4.1835,7.5999-6.355,11.2173-6.355,3.3914,0,6.8206,1.9087,10.6946,5.8574,6.146,6.3451,12.4556,13.6642,19.8848,18.8326,15.9985,11.9868,35.3159,17.8274,54.6001,17.8274,25.1414,0,50.2288-9.9236,67.8547-29.0916,7.9609-9.0792,12.968-13.4614,17.8757-13.4614,5.1108,0,10.1143,4.7477,18.2412,13.8873,17.249,18.5289,42.4751,28.7614,67.635,28.7614,8.874,0,17.7346-1.2714,26.2412-3.9006,9.927-2.9543,19.3337-7.6149,27.6997-13.6761,4.3909-3.1791,8.4922-6.7352,12.2593-10.6212,5.3599-5.1833,11.6235-14.4231,18.7449-14.4694h.0305c7.1606,0,13.7554,9.488,19.1052,14.7495,17.2366,17.962,41.8943,27.916,66.657,27.916,7.168,0,14.3401-.8331,21.3494-2.5475,17.448-4.1045,33.5476-13.4731,45.8257-26.4956,7.8745-8.8542,12.8218-13.6002,17.9521-13.6002,4.7842,0,9.7278,4.1239,17.3582,12.889,17.324,19.2307,43.0393,29.7323,68.687,29.7323,11.5259,0,23.0354-2.1196,33.7683-6.5208,7.3228-2.8988,14.2393-6.7589,20.5725-11.3899,5.6472-3.9758,11.7312-9.2605,18.2183-10.0659.6838-.1063,1.3672-.1566,2.0474-.1566,5.6851,0,11.208,3.502,15.9536,7.0199,6.3508,4.8307,13.207,9.4365,20.5747,12.7286,11.0735,5.0981,23.9407,8.183,36.4573,8.183,7.1431,0,14.1704-1.0042,20.6887-3.2118,28.7947-9.9784,36.2637-41.1251,38.8638-71.3539,1.3672-18.8638,1.4666-38.2637.6619-56.9838-1.0845-27.8854-19.1846-46.2432-46.5095-50.2461l-.1743-.0275c-16.3186-2.1814-36.0095-3.0046-51.9158-4.4651-10.9592-.9828-19.7827-1.2823-30.2573-1.2823h0Z"/><g id="score_history"><rect class="cls-15" x="157.8777" y="539.6171" width="981.3474" height="312.4395" rx="21.4249" ry="21.4249"/><rect class="cls-12" x="132.9964" y="532.0401" width="999.074" height="311.3631" rx="21.4249" ry="21.4249"/><line class="cls-3" x1="186.4253" y1="654.0337" x2="193.4253" y2="654.0337"/><line class="cls-2" x1="207.3448" y1="654.0337" x2="1063.3943" y2="654.0337"/><line class="cls-3" x1="1070.354" y1="654.0337" x2="1077.354" y2="654.0337"/><circle class="cls-11" cx="165.5805" cy="564.5036" r="14.7435"/><path class="cls-16" d="M165.5807,580.7472c-8.957,0-16.2441-7.2871-16.2441-16.2432s7.2871-16.2441,16.2441-16.2441,16.2432,7.2871,16.2432,16.2441-7.2871,16.2432-16.2432,16.2432ZM165.5807,551.2599c-7.3027,0-13.2441,5.9414-13.2441,13.2441s5.9414,13.2432,13.2441,13.2432,13.2432-5.9404,13.2432-13.2432-5.9404-13.2441-13.2432-13.2441Z"/><path class="cls-16" d="M167.8728,564.533l2.4073-2.407c.6354-.6348.6354-1.6647,0-2.3001s-1.6647-.6354-2.3001,0l-2.4073,2.407-2.3924-2.3924c-.6354-.6354-1.6647-.6354-2.3001,0s-.6354,1.6647,0,2.3001l2.3924,2.3924-2.3339,2.3336c-.6354.6348-.6354,1.6647,0,2.3001.3177.3177.7339.4765,1.15.4765s.8324-.1588,1.15-.4765l2.3339-2.3336,2.3482,2.3482c.3177.3177.7339.4765,1.15.4765s.8324-.1588,1.15-.4765c.6354-.6354.6354-1.6647,0-2.3001l-2.3482-2.3482Z"/><circle class="cls-11" cx="165.5805" cy="811.701" r="14.7435"/><path class="cls-16" d="M165.5807,827.9446c-8.957,0-16.2441-7.2871-16.2441-16.2432s7.2871-16.2441,16.2441-16.2441,16.2432,7.2871,16.2432,16.2441-7.2871,16.2432-16.2432,16.2432ZM165.5807,798.4573c-7.3027,0-13.2441,5.9414-13.2441,13.2441s5.9414,13.2432,13.2441,13.2432,13.2432-5.9404,13.2432-13.2432-5.9404-13.2441-13.2432-13.2441Z"/><path class="cls-16" d="M167.8728,811.7304l2.4073-2.407c.6354-.6348.6354-1.6647,0-2.3001s-1.6647-.6354-2.3001,0l-2.4073,2.407-2.3924-2.3924c-.6354-.6354-1.6647-.6354-2.3001,0s-.6354,1.6647,0,2.3001l2.3924,2.3924-2.3339,2.3336c-.6354.6348-.6354,1.6647,0,2.3001.3177.3177.7339.4765,1.15.4765s.8324-.1588,1.15-.4765l2.3339-2.3336,2.3482,2.3482c.3177.3177.7339.4765,1.15.4765s.8324-.1588,1.15-.4765c.6354-.6354.6354-1.6647,0-2.3001l-2.3482-2.3482Z"/><circle class="cls-11" cx="1103.5371" cy="564.5036" r="14.7435"/><path class="cls-16" d="M1103.5373,580.7472c-8.957,0-16.2441-7.2871-16.2441-16.2432s7.2871-16.2441,16.2441-16.2441,16.2432,7.2871,16.2432,16.2441-7.2871,16.2432-16.2432,16.2432ZM1103.5373,551.2599c-7.3027,0-13.2441,5.9414-13.2441,13.2441s5.9414,13.2432,13.2441,13.2432,13.2432-5.9404,13.2432-13.2432-5.9404-13.2441-13.2432-13.2441Z"/><path class="cls-16" d="M1105.8294,564.533l2.4073-2.407c.6354-.6348.6354-1.6647,0-2.3001s-1.6647-.6354-2.3001,0l-2.4073,2.407-2.3924-2.3924c-.6354-.6354-1.6647-.6354-2.3001,0s-.6354,1.6647,0,2.3001l2.3924,2.3924-2.3339,2.3336c-.6354.6348-.6354,1.6647,0,2.3001.3177.3177.7339.4765,1.15.4765s.8324-.1588,1.15-.4765l2.3339-2.3336,2.3482,2.3482c.3177.3177.7339.4765,1.15.4765s.8324-.1588,1.15-.4765c.6354-.6354.6354-1.6647,0-2.3001l-2.3482-2.3482Z"/><circle class="cls-11" cx="1103.5371" cy="811.701" r="14.7435"/><path class="cls-16" d="M1103.5373,827.9446c-8.957,0-16.2441-7.2871-16.2441-16.2432s7.2871-16.2441,16.2441-16.2441,16.2432,7.2871,16.2432,16.2441-7.2871,16.2432-16.2432,16.2432ZM1103.5373,798.4573c-7.3027,0-13.2441,5.9414-13.2441,13.2441s5.9414,13.2432,13.2441,13.2432,13.2432-5.9404,13.2432-13.2432-5.9404-13.2441-13.2432-13.2441Z"/><path class="cls-16" d="M1105.8294,811.7304l2.4073-2.407c.6354-.6348.6354-1.6647,0-2.3001s-1.6647-.6354-2.3001,0l-2.4073,2.407-2.3924-2.3924c-.6354-.6354-1.6647-.6354-2.3001,0s-.6354,1.6647,0,2.3001l2.3924,2.3924-2.3339,2.3336c-.6354.6348-.6354,1.6647,0,2.3001.3177.3177.7339.4765,1.15.4765s.8324-.1588,1.15-.4765l2.3339-2.3336,2.3482,2.3482c.3177.3177.7339.4765,1.15.4765s.8324-.1588,1.15-.4765c.6354-.6354.6354-1.6647,0-2.3001l-2.3482-2.3482Z"/><rect class="cls-15" x="141.4924" y="272.3496" width="282.1886" height="216.9173" rx="21.4249" ry="21.4249"/><rect class="cls-12" x="134.3377" y="264.7725" width="282.1886" height="216.9173" rx="21.4249" ry="21.4249"/><circle class="cls-10" cx="271.5226" cy="304.2767" r="14.7435"/><path class="cls-16" d="M273.8153,304.3061l2.4073-2.407c.6354-.6348.6354-1.6647,0-2.3001s-1.6647-.6354-2.3001,0l-2.4073,2.407-2.3924-2.3924c-.6354-.6354-1.6647-.6354-2.3001,0s-.6354,1.6647,0,2.3001l2.3924,2.3924-2.3339,2.3336c-.6354.6348-.6354,1.6647,0,2.3001.3177.3177.7339.4765,1.15.4765s.8324-.1588,1.15-.4765l2.3339-2.3336,2.3482,2.3482c.3177.3177.7339.4765,1.15.4765s.8324-.1588,1.15-.4765c.6354-.6354.6354-1.6647,0-2.3001l-2.3482-2.3482Z"/><line class="cls-3" x1="164.6606" y1="387.7168" x2="171.6606" y2="387.7168"/><line class="cls-7" x1="185.6162" y1="387.7168" x2="374.0149" y2="387.7168"/><line class="cls-3" x1="380.9927" y1="387.7168" x2="387.9927" y2="387.7168"/><rect class="cls-15" x="855.6951" y="272.3496" width="282.1886" height="216.9173" rx="21.4249" ry="21.4249"/><rect class="cls-12" x="848.5404" y="264.7725" width="282.1886" height="216.9173" rx="21.4249" ry="21.4249"/><circle class="cls-10" cx="985.7254" cy="304.2767" r="14.7435"/><path class="cls-16" d="M988.018,304.3061l2.4073-2.407c.6354-.6348.6354-1.6647,0-2.3001s-1.6647-.6354-2.3001,0l-2.4073,2.407-2.3924-2.3924c-.6354-.6354-1.6647-.6354-2.3001,0s-.6354,1.6647,0,2.3001l2.3924,2.3924-2.3339,2.3336c-.6354.6348-.6354,1.6647,0,2.3001.3177.3177.7339.4765,1.15.4765s.8324-.1588,1.15-.4765l2.3339-2.3336,2.3482,2.3482c.3177.3177.7339.4765,1.15.4765s.8324-.1588,1.15-.4765c.6354-.6354.6354-1.6647,0-2.3001l-2.3482-2.3482Z"/><line class="cls-3" x1="878.8633" y1="387.7168" x2="885.8633" y2="387.7168"/><line class="cls-7" x1="899.8188" y1="387.7168" x2="1088.2178" y2="387.7168"/><line class="cls-3" x1="1095.1953" y1="387.7168" x2="1102.1953" y2="387.7168"/><rect class="cls-15" x="498.5938" y="265.6783" width="282.1886" height="216.9173" rx="21.4249" ry="21.4249"/><rect class="cls-12" x="491.4391" y="258.1012" width="282.1886" height="216.9173" rx="21.4249" ry="21.4249"/><circle class="cls-10" cx="628.624" cy="297.6054" r="14.7435"/><line class="cls-3" x1="521.762" y1="381.0455" x2="528.762" y2="381.0455"/><line class="cls-7" x1="542.7175" y1="381.0455" x2="731.1162" y2="381.0455"/><line class="cls-3" x1="738.094" y1="381.0455" x2="745.094" y2="381.0455"/><path class="cls-16" d="M630.9166,297.6348l2.4073-2.407c.6354-.6348.6354-1.6647,0-2.3001s-1.6647-.6354-2.3001,0l-2.4073,2.407-2.3924-2.3924c-.6354-.6354-1.6647-.6354-2.3001,0s-.6354,1.6647,0,2.3001l2.3924,2.3924-2.3339,2.3336c-.6354.6348-.6354,1.6647,0,2.3001.3177.3177.7339.4765,1.15.4765s.8324-.1588,1.15-.4765l2.3339-2.3336,2.3482,2.3482c.3177.3177.7339.4765,1.15.4765s.8324-.1588,1.15-.4765c.6354-.6354.6354-1.6647,0-2.3001l-2.3482-2.3482Z"/></g></g></svg>