<svg xmlns="http://www.w3.org/2000/svg" id="start" viewBox="0 0 1417.3 1190.6"><defs><linearGradient id="_名称未設定グラデーション_997" x1="708.7" x2="708.7" y1="1190.6" y2="0" gradientUnits="userSpaceOnUse"><stop offset="0" stop-color="#f7ff1f"/><stop offset="1" stop-color="#ff791f"/></linearGradient><linearGradient id="_名称未設定グラデーション_253" x1="-11.9" x2="1429.2" y1="595.3" y2="595.3" gradientUnits="userSpaceOnUse"><stop offset="0" stop-color="#f7ff1f"/><stop offset="1" stop-color="#ffd31f"/></linearGradient><linearGradient id="_名称未設定グラデーション_214" x1="708.7" x2="708.7" y1="1407" y2="740.4" gradientUnits="userSpaceOnUse"><stop offset="0" stop-color="#ff9c31"/><stop offset="1" stop-color="#ffdd3f"/></linearGradient><style>.cls-2{fill:#a6a6a6}.cls-4{fill:url(#_名称未設定グラデーション_253)}</style></defs><path d="M0 0h1417v1191H0z" style="fill:url(#_名称未設定グラデーション_997)"/><path d="M528 301c-31-31 20-76 47-40 23 30-20 67-47 40M830 585c0 22-9-32-34-29 80-31-17-130-48-47-3-18-18-30-35-34 54-9 37-89-15-74-40 12-33 67 5 76-18 0-30 16-35 32-27-84-129 17-47 47-35 1-30 56-37 23-23-44-89-14-69 32 16 37 70 25 73-14 1 19 15 34 33 38-83 34 20 130 47 45 3 18 19 34 38 35-47 4-46 76 2 77 50-1 51-72 2-77 19 0 34-15 38-33 33 81 128-15 48-47 18-4 32-20 32-39 3 49 76 49 77-1 0-43-61-52-75-10Zm-156 69c-8 32-12-21-38-18l11-4c19-5 16-39 28-11 29 24 16 8-1 33m-5-71-11-16c-40-20 10-11 9-44 30 54 31 10 2 60m76-48c7-23 3 10 34 22-15 1-23 13-31 25-14-38-39-11-3-47Zm14 112c-17 35-10-4-37-11q20-7 27-28c5 30 53 20 10 39Z" class="cls-2"/><path d="M644 471c39-16 23-78-22-71-52 8-31 94 22 71M554 554c46-5 42-76-5-75-50 0-47 80 5 75M789 475c50-1 47-83-8-75-44 7-38 77 8 75M623 717c-54 7-33 93 21 71 38-16 24-77-21-71M548 637c-50 3-45 79 5 75s42-78-5-75M783 717c-46 5-41 76 6 74 51-2 46-80-6-74M871 554c46-4 42-78-6-75-50 3-45 79 6 75M867 637c-51 3-47 75 0 75 50 0 48-77 0-75" class="cls-2"/><path d="M551 473c51-2 42-79-8-71-42 6-36 73 8 71M888 466c30-22 11-70-27-64-57 10-21 98 27 64M544 718c-44 7-38 79 14 71 42-7 33-79-14-71M861 718c-57 11-21 98 27 65 30-22 10-70-27-65M710 394c49-2 43-80-8-71-42 7-35 73 8 71M469 560c-47 1-44 75 6 71 44-4 40-72-6-71M702 798c-46 8-32 83 17 69 41-12 29-77-17-69M945 560c-48 1-45 76 5 71 43-5 41-73-5-71" class="cls-2"/><path d="M818 376c26-45-48-77-64-28-12 40 43 63 64 28M637 392c42-7 32-76-14-69-44 7-36 78 14 69M477 551c43-6 35-75-10-70-46 6-39 77 10 70M625 798c-46 5-39 76 10 69 43-6 35-75-10-69M967 545c28-22 11-67-24-64-58 8-25 97 24 64M467 640c-46 5-39 76 10 69 43-6 35-75-10-69M784 798c-52 5-33 87 17 67 36-14 25-71-17-67M941 640c-65 13-9 107 33 55 18-25-2-60-33-55" class="cls-2"/><path d="M545 799c-37 5-38 61-3 67 55 9 53-74 3-67M861 799c-41 6-35 75 14 67 40-7 31-74-14-67M462 721c-33 5-33 61 3 66 52 7 53-76-3-66M542 391c55 9 53-73 3-66-38 5-38 60-3 66M875 391c39-7 31-73-14-66-41 6-35 74 14 66M937 721c-47 14-19 86 26 62 32-17 16-71-26-62M465 471c51 7 53-76-3-67-32 6-34 61 3 67M949 471c44-4 39-75-11-67-38 7-32 71 11 67M717 311c60-21-6-101-38-47a33 33 0 0 0 38 47M372 569c-38 28 11 82 43 50 28-28-10-74-43-50M1025 563c-54 2-33 84 14 61 32-15 19-63-14-61M703 880c-38 6-34 67 6 65 45-1 41-71-6-65M399 548c38-7 30-70-12-64s-34 72 12 64M631 312c44-4 38-72-9-64-37 6-31 67 9 64M1008 544c37 21 67-30 38-53-38-29-75 31-38 53M791 312c42-4 37-73-11-64-36 6-31 67 11 63M388 642c-42 5-36 70 9 64 40-5 33-69-9-64M651 889c-30-28-73 16-46 45 30 33 78-15 46-45M1047 651c-31-30-75 19-44 48 31 28 75-19 44-48M766 889c-29 27 8 73 40 50 37-27-8-81-41-50" class="cls-2"/><path d="M470 390c44 0 41-65 1-64-43 1-41 64-1 64M469 801c-43 3-37 68 6 64 39-4 35-67-6-64M949 390c40-3 37-68-5-64s-38 67 5 64M938 802c-32 5-32 60 6 63 45 3 46-72-6-63M391 723c-42 1-39 66 4 62 38-4 36-63-4-62M889 301c27-26-9-70-41-47-35 27 10 79 41 47M524 895c-22 31 23 67 49 39 29-31-22-76-49-39M1029 723c-26-3-43 22-31 45 33 53 93-32 31-45M415 416c-26-28-71 7-49 39 26 37 78-8 49-39M1051 455c22-31-24-67-49-39-29 31 22 76 49 39M863 882c-36 5-34 56-2 61 50 7 47-67 2-61M398 387c35-5 28-63-10-58-38 4-33 64 9 58M473 309c40-4 34-66-9-59-34 6-28 62 9 59M306 567c-34 6-28 61 9 58 40-3 34-66-9-58M945 309c41 1 40-66-5-59-33 6-29 58 5 59M943 883c-38 5-33 64 9 58 35-4 28-63-10-58M390 803c-40 3-35 64 7 59 34-5 30-61-7-59M1098 567c-34 6-28 61 8 58 40-3 35-66-8-58M467 883c-37 5-32 64 9 58 37-5 29-63-9-58M1030 387c37-5 29-64-9-58-37 5-32 64 9 58M702 963c-31 5-29 56 5 58 42 2 41-66-5-58M720 226c31-12 20-61-17-55-40 6-24 72 17 55" class="cls-2"/><path d="M1022 803c-38 4-34 64 8 59 36-5 30-62-8-59M631 228c39-3 33-64-8-57-34 5-29 61 8 57M317 545c34-3 33-58-5-58-40 0-37 62 5 58M311 646c-41 3-33 63 7 58 35-6 29-62-7-58M796 227c36-11 22-63-15-56-36 6-24 68 15 56M1096 647c-30 6-27 56 7 57 42 1 39-67-7-57M1103 546c41 1 40-66-7-58-29 6-28 57 7 58M623 963c-30 5-30 53 0 57 47 6 44-65 0-57M783 963c-36 6-30 64 12 57 34-6 26-63-12-57M302 463c45 17 55-62 4-53-25 4-30 44-4 53M306 726c-40 11-17 72 21 52 27-15 13-58-21-52M559 226c32-10 21-62-17-54-35 10-19 66 17 54M869 227c39-3 32-64-9-55-31 6-26 58 9 55M1106 466c38-2 33-63-8-56-32 5-27 57 8 55M544 964c-33 6-27 58 7 56 38-2 34-63-8-56M860 964c-35 7-23 68 17 54 30-11 20-61-17-54M1098 726c-26 5-30 45-3 54 44 15 51-62 3-54M395 306c34-3 30-56-4-54-37 1-34 57 4 54M387 886c-32 5-28 55 6 54 36-2 33-61-6-54M1019 886c-31 5-26 55 7 54 38-2 32-61-7-54M1031 305c30-6 27-52-5-53-40-1-35 62 5 53M489 218c31-31-31-68-44-26-6 27 26 45 44 26M313 806c-37 1-34 57 3 53 32-4 29-53-3-53M318 384c31-5 26-54-7-52-36 2-31 58 7 52M948 226c36-3 30-61-8-53-30 7-24 55 8 53M465 966c-36 8-19 65 16 50 28-12 16-56-16-50M1107 384c33-3 29-54-4-52-35 1-33 56 4 52M936 1016c27 11 49-23 29-43-30-30-67 28-29 43M1114 809c-22-9-42 11-34 34 21 44 79-13 34-35M217 575c-27 23 9 63 34 40 25-24-10-61-34-40M703 1046c-28 4-25 52 6 51 36-2 32-58-6-52M1180 570c-33 4-28 55 7 51 33-4 25-55-7-52M707 146c36 3 37-56-2-51-28 4-29 48 2 51M228 541c43 6 38-57 1-50-28 5-27 47-1 50M783 1046c-27 5-27 46 0 49 42 6 37-57 0-49M1190 541c29-5 22-55-11-50-31 5-27 56 11 50M625 1046c-31 5-27 56 10 49 30-5 23-55-10-49M230 649c-28 3-29 46-2 50 41 6 40-54 2-50M783 145c40 6 39-54 1-50-28 3-28 46-1 50M1181 649c-34 4-29 57 9 50 28-5 23-53-10-50M635 145c29-6 24-54-9-50-33 3-28 57 9 50M238 461c29-4 25-52-7-48-32 3-28 53 7 48M868 145c33-2 30-55-7-49-27 5-23 51 7 49M551 145c34-2 28-56-8-49-27 6-21 51 8 49M230 729c-51 14 6 82 27 31 5-16-10-33-27-31M1188 461c29-4 24-51-7-48-32 3-28 54 7 48M545 1047c-33 6-20 61 15 46 25-10 15-51-15-46M1170 733c-29 19 4 62 30 39 21-20-5-55-30-39M848 1085c20 28 59-7 37-31-20-22-56 6-37 31M391 968c-32 1-30 49 1 48 32-1 31-50-1-49M310 303c35 4 36-55-4-47-23 5-23 44 4 47M1100 303c38 5 37-56-4-47-22 5-21 44 4 47M396 223c30-5 25-53-11-47-27 5-21 52 11 47M308 889c-29 5-25 53 11 47 27-5 21-53-11-47M1021 223c37 6 38-55-3-47-22 5-23 43 3 47M1101 889c-31 5-27 53 9 47 28-5 21-52-9-47M1018 969c-22 4-23 43 4 46 36 4 36-55-4-47M253 346c-18-28-59 5-36 28 18 19 51-5 36-28M487 136c32-44-58-53-35-3 7 12 26 13 35 3M945 143c33 1 30-51-4-45-25 4-23 44 4 45M229 810c-25 5-23 44 4 45 33 2 28-52-4-45M1179 810c-50 19 17 76 27 24 1-15-13-26-27-24M1179 380c36 5 35-48 1-44-25 2-25 41-1 44M943 1048c-29 5-24 50 9 44 26-5 19-48-9-44M467 1048c-24 4-25 41-1 45 37 5 35-50 1-45M154 574c-30 0-26 50 6 42 23-6 20-42-6-42M714 61c23-5 20-41-6-41-30 0-26 49 6 41M693 1135c-18 20 11 50 31 30 21-20-12-50-31-30M1257 575c-19 4-21 38 3 42 31 4 33-48-3-42M316 220c27-4 22-47-9-41-23 5-19 45 9 41M638 60c22-9 13-45-15-39-26 5-15 52 15 39M1106 221c28-3 24-48-7-42-24 4-19 44 7 42M150 537c34 5 32-46 2-42-24 3-24 38-2 42M789 62c28-2 25-47-6-41-25 4-19 43 6 41M152 654c-28 3-23 46 7 41 26-5 19-45-7-42M307 971c-27 6-15 52 14 40 22-9 13-45-14-40M783 1130c-25 5-19 43 6 41 28-2 25-48-6-42M623 1130c-27 5-14 53 15 38 22-10 11-44-15-38M1247 502c-18 21 12 48 31 29 20-20-13-50-31-29M1089 977c-19 19 11 49 30 30 20-20-10-50-30-30M1262 654c-23 1-27 36-4 41 32 6 34-43 4-41M408 133c16-20-13-46-31-27-19 19 13 49 31 27M248 264c-19-18-47 9-30 29 18 20 50-9 30-29M387 1051c-22 4-19 42 6 40 27-2 25-46-6-40M229 893c-23 4-19 41 5 40 28 0 25-46-5-40M1178 298c32 7 33-42 4-39-22 1-26 35-4 39M1021 1051c-30 5-13 54 15 36 18-11 7-40-15-36M1179 893c-28 4-16 51 14 37 20-9 10-41-14-37M1034 138c21-10 11-41-13-37-28 4-16 51 13 37M149 457c30 7 35-40 5-40-24 0-26 35-5 40M555 60c22-5 18-38-5-39-30 0-25 46 5 39M149 735c-22 4-18 43 9 38 25-4 21-44-9-38M1260 457c30 4 31-46-3-39-18 4-19 36 3 39M881 26c-18-17-46 11-29 29 20 19 48-10 29-29M852 1164c20 19 48-10 29-29-19-17-46 11-29 29M536 1135c-19 19 9 48 28 29 18-18-10-46-28-29M1257 735c-21 4-16 42 10 38 25-3 20-44-10-38M467 59c28 6 30-43-2-35-16 3-17 31 2 35M158 376c22-3 17-38-5-36-24 2-21 40 5 36M152 815c-21 3-21 33-1 36 30 3 26-40 1-36M467 1132c-20 4-19 35 3 36 27 0 23-41-4-36M941 1132c-20 5-16 40 8 35 25-4 16-40-8-35M949 58c25-4 16-40-8-34-20 4-16 39 8 34M1276 371c16-16-7-42-25-26-18 15 7 43 25 26M1263 815c-24 0-23 35 0 36 23 0 24-37 0-36M236 216c21-3 18-38-7-33-21 4-14 37 7 33M318 136c19-4 14-36-8-33-21 4-18 38 8 33M298 1062c-11 18 14 35 27 21 16-18-13-43-27-21M1107 136c22-2 16-35-5-33-22 3-19 37 5 33M1102 1054c-21 2-19 36 5 33 22-3 16-35-5-33M222 978c-19 17 13 45 26 22 10-17-12-33-26-22M1192 185c-18-11-34 14-21 27 18 16 43-13 21-27M1179 976c-23 4-11 43 13 30 16-8 7-35-13-30M69 581c-16 4-12 34 9 30 19-4 15-36-9-30M1337 581c-15 3-14 29 4 30 22 2 22-36-4-30M163 292c19-13-3-39-19-25-13 12 2 35 19 25M400 28c-16-10-32 12-19 24 15 16 38-11 19-24M72 659c-19 3-15 36 8 30 16-4 11-33-8-30M152 897c-19 3-16 36 7 30 17-3 12-33-7-30M72 531c24 4 23-32 1-30-18 1-18 28-1 30M1026 56c20 0 18-35-5-30-16 4-15 30 5 30M388 1135c-17 4-14 29 3 30 23 0 19-35-3-30M1339 531c22 5 25-31 2-30-16 1-19 27-2 30M1263 294c22 0 19-35-4-30-15 4-15 30 4 30M1021 1135c-15 3-15 28 2 29 25 2 21-34-2-29M1342 660c-23-1-18 36 5 29 16-5 12-29-5-29M1263 898c-17 0-21 24-5 29 23 7 28-30 5-29M77 451c18-2 15-32-7-27-15 3-11 30 7 27M64 763c13 14 33-5 21-19-11-14-34 6-21 19M1341 451c21 1 19-32-2-27-15 3-14 26 2 27M1339 740c-14 3-14 27 3 27 20 0 17-31-3-27M237 132c15-5 10-29-8-23-12 3-9 28 8 23M225 1080c11 10 28-6 17-18-10-11-29 7-17 18M1174 1062c-10 12 6 28 18 18 11-11-7-29-18-18M1185 132c17-3 11-28-6-23-13 4-9 26 6 23M72 821c-12 3-12 23 2 23 17 1 16-26-2-23M69 368c22 7 22-25 3-21-11 2-12 18-3 21M1337 368c20 9 22-25 3-21-10 2-13 17-3 21M1340 821c-10 2-13 17-3 21 20 9 22-24 3-21M315 52c14-2 11-27-7-22-11 4-8 25 7 22M157 211c14-3 10-28-7-22-11 3-8 24 7 21M305 1158c10 10 25-5 16-16s-27 6-16 16M1112 49c11-10-7-27-16-16s5 26 16 16M154 1003c10 0 15-12 9-19-13-15-31 17-9 19M1263 210c15 1 13-25-3-21-12 2-9 21 3 21M1101 1139c-9 3-10 18-2 21 21 6 20-26 2-21M1260 981c-13 3-9 26 8 21 10-3 6-24-8-21M74 286c9 1 11-9 6-13-10-9-22 13-6 13M1348 285c7-7-4-19-11-12-9 7 4 19 11 12M74 905c-16 0-3 23 6 14 4-4 3-14-6-14M1339 906c-8 2-4 19 7 14 8-5 3-18-8-14M0 589c-10-8-19 15-4 14 7 0 10-10 4-14M1427 601c9-10-12-20-14-6 0 7 10 10 14 6M-8 523c14 4 14-17 1-14-5 2-7 12-1 14M-7 667c-11 4 0 23 8 11 5-6-1-12-8-11M1425 522c7-6-2-17-9-11-5 5 1 17 9 11M1420 667c-7 2-8 16 2 14 8-1 6-16-2-14" class="cls-2"/><path d="M528 301c-31-31 20-76 47-40 23 30-20 67-47 40" class="cls-4"/><path d="M551 247v1q14 1 23 13 10 16 3 31c-5 10-17 18-28 18s-15-4-21-10q-13-14-7-31c5-12 18-21 30-21zm0 0c-24 0-46 31-23 54q10 10 21 9c23 1 43-26 26-50q-11-13-24-13" class="cls-4"/><path d="M830 585c0 22-9-32-34-29 80-31-17-130-48-47-3-18-18-30-35-34 54-9 37-89-15-74-40 12-33 67 5 76-18 0-30 16-35 32-27-84-129 17-47 47-35 1-30 56-37 23-23-44-89-14-69 32 16 37 70 25 73-14 1 19 15 34 33 38-83 34 20 130 47 45 3 18 19 34 38 35-47 4-46 76 2 77 50-1 51-72 2-77 19 0 34-15 38-33 33 81 128-15 48-47 18-4 32-20 32-39 3 49 76 49 77-1 0-43-61-52-75-10Zm-156 69c-8 32-12-21-38-18l11-4c19-5 16-39 28-11 29 24 16 8-1 33m-5-71-11-16c-40-20 10-11 9-44 30 54 31 10 2 60m76-48c7-23 3 10 34 22-15 1-23 13-31 25-14-38-39-11-3-47Zm14 112c-17 35-10-4-37-11q20-7 27-28c5 30 53 20 10 39Z" class="cls-4"/><path d="M710 399v1c21 0 34 17 35 35q2 14-6 25-9 12-26 14l-5 1 5 1q28 7 34 33l1 4 1-4q12-30 36-31c18 0 37 16 40 35q5 28-30 43l-8 3 9-1 2-1c14 0 22 18 27 27q3 8 4 7 2-1 2-6c7-19 23-26 36-26s37 13 37 36q0 18-12 28-10 9-25 9c-17 0-37-11-38-36h-2c0 18-13 34-32 38l-3 1 3 1q35 15 31 43c-4 19-22 34-41 34s-28-11-36-31l-1-3-1 3c-4 18-19 32-37 32v2c25 2 36 22 35 40-1 17-13 34-37 35-24 0-35-18-36-35q0-15 8-26 9-12 26-14v-2q-14 0-24-11-10-9-13-23v-4l-2 3q-11 33-36 34c-25 1-37-16-40-34q-3-12 4-23 8-12 26-20l3-1-3-1q-14-3-22-13-9-10-10-24h-2c-2 23-21 35-39 35s-26-8-32-21q-8-20 2-36 11-16 32-17 22 1 33 21c2 10 3 11 5 11s2-2 4-6c3-9 10-26 29-27h5l-5-1q-18-7-26-19-6-11-4-23c4-19 23-37 42-37q23 1 34 32v3l1-3q5-13 13-21 10-10 22-10l8-1-8-1q-14-4-23-15-8-10-8-24 0-12 6-21 6-11 20-14 6-3 12-2zm-52 169 10 16 1 1v-1c10-17 17-23 20-26l2-3-2-4q-4-1-21-28l-2-4v4c0 15-10 21-17 25q-7 3-8 7 1 4 16 13m87-34-2 2c-13 14-17 17-17 20q1 3 5 4c4 3 12 7 17 22l1 2 1-2c7-11 15-23 30-24l5-1-5-1c-16-6-23-19-26-25l-4-5q-3 0-5 8m5 128q4 1 11-15c15-6 18-9 18-11q0-4-8-6c-7-4-18-9-20-22l-1-3-1 3q-7 21-27 27l-3 1 3 1c12 3 17 12 21 19q3 7 7 7m-116-25 3-1h3c11 0 17 11 22 19q4 8 8 9 5 1 6-11 9-12 15-14 3-2 3-4 1-1-8-9l-9-7q-5-11-8-11-4 0-6 7c-3 5-7 13-15 14l-11 5zm77-239-12 2c-40 12-33 67 6 76-18 0-31 16-36 32q-13-35-35-33c-35 0-71 59-12 81-27 0-30 32-33 32s-2-3-4-10q-13-22-33-22c-25 0-49 24-36 54q12 23 33 22c21-1 38-13 41-36 0 19 14 34 32 38-59 24-25 79 10 79s29-9 37-34c3 18 19 34 38 35-47 5-46 76 2 77 50-1 51-72 2-77 19 0 35-15 38-32q15 32 38 31c35 0 68-56 10-79 18-4 32-20 32-39 2 24 21 37 39 37s38-13 38-38c0-24-19-37-38-37s-31 8-37 27l-1 5c-2 0-11-34-31-34l-2 1c57-23 24-81-11-81q-22-1-37 33c-3-18-18-30-35-34 50-8 40-76-3-76Zm-41 184-11-16c-40-20 10-11 9-44 30 54 31 10 2 60m79-1c-14-38-39-11-3-47l4-8c3 0 6 21 30 30-15 1-23 13-31 25m1 79c-6 0-8-21-27-25q20-7 27-28c5 30 53 20 10 39q-7 15-10 14Zm-113-25 11-4c14-4 16-22 21-22q3 0 7 11c29 24 16 8-1 33q-3 10-5 10c-6 0-12-28-30-28z" class="cls-4"/><path d="M644 471c39-16 23-78-22-71-52 8-31 94 22 71" class="cls-4"/><path d="M629 401c20 0 32 14 35 29q3 13-2 24-6 11-18 17l-17 3q-14 0-24-11-9-10-10-24t6-24q8-11 23-14zm0 0h-7c-46 7-35 75 5 75s11-1 17-4c37-15 25-71-15-71" class="cls-4"/><path d="M554 554c46-5 42-76-5-75-50 0-47 80 5 75" class="cls-4"/><path d="M550 480c23 0 35 18 36 35 1 16-9 36-32 38h-5q-15 0-26-11-8-11-9-25c0-18 11-37 35-37zm0-1zc-49 0-47 75 0 75s4 0 5 0c46-5 42-75-4-75" class="cls-4"/><path d="M789 475c50-1 47-83-8-75-44 7-38 77 8 75" class="cls-4"/><path d="M789 401c23 0 34 18 35 36q0 14-9 25-9 12-26 12h-1c-23 0-35-18-36-34q-1-14 6-25 9-11 24-14zm0-1h-7c-45 7-39 75 6 75h1c48-1 47-75 0-75" class="cls-4"/><path d="M623 717c-54 7-33 93 21 71 38-16 24-77-21-71" class="cls-4"/><path d="M629 717c20 0 32 15 35 30q3 12-2 23-6 12-18 17-8 3-17 3-17-2-24-11-9-10-10-25c-1-15 6-33 30-36zm0-1-6 1c-47 6-36 75 4 75s11-2 17-4c36-15 25-72-15-72" class="cls-4"/><path d="M548 637c-50 3-45 79 5 75s42-78-5-75" class="cls-4"/><path d="M551 638c22 0 34 18 35 36 0 17-10 35-33 37h-4q-15 0-26-11-8-10-9-24 0-16 8-25 9-12 26-13zm0-1h-3c-48 3-45 75 1 75s3 0 4 0c48-4 42-75-2-75Z" class="cls-4"/><path d="M783 717c-46 5-41 76 6 74 51-2 46-80-6-74" class="cls-4"/><path d="M788 717q16 0 27 11 8 11 9 25c0 17-11 36-35 37h-2q-15 0-25-10-9-10-10-24c-1-17 9-36 31-38zm0-1-5 1c-45 5-42 74 4 74h2c49-2 47-75-1-75" class="cls-4"/><path d="M871 554c46-4 42-78-6-75-50 3-45 79 6 75" class="cls-4"/><path d="M868 480c23 0 34 18 34 35 1 17-9 36-31 38h-4q-17 0-26-11-9-10-10-25 0-14 8-25 9-10 26-12zm0-1h-3c-49 3-45 75 2 75s2 0 4 0c45-4 42-75-3-75" class="cls-4"/><path d="M867 637c-51 3-47 75 0 75 50 0 48-77 0-75" class="cls-4"/><path d="M869 637c23 0 35 19 35 38 0-19-12-38-35-38m34 38c0 18-12 37-36 37 24 0 36-19 36-37" class="cls-4"/><path d="M551 473c51-2 42-79-8-71-42 6-36 73 8 71" class="cls-4"/><path d="M550 402q15 0 25 11 9 10 9 24c1 17-10 35-33 35h-2q-15 0-24-10-8-8-10-22 0-13 6-24 8-11 23-13zm0-1-7 1c-42 6-36 72 6 72h2c48-2 43-73-1-73Z" class="cls-4"/><path d="M888 466c30-22 11-70-27-64-57 10-21 98 27 64" class="cls-4"/><path d="M867 402q24 1 33 24c4 12 2 28-13 39q-10 8-21 8c-11 0-16-4-23-11q-8-11-10-24-1-13 5-22a34 34 0 0 1 29-14m0-1-6 1c-48 8-30 72 5 72s14-2 22-8c28-21 13-65-21-65" class="cls-4"/><path d="M544 718c-44 7-38 79 14 71 42-7 33-79-14-71" class="cls-4"/><path d="M550 718c22 0 33 17 34 33q1 14-5 23-7 12-21 14h-8c-22 0-33-16-34-32q-1-13 6-23 7-12 22-14zm-1-1-7 1c-41 7-37 72 7 72s5-1 8-1c40-7 34-72-8-72Z" class="cls-4"/><path d="M861 718c-57 11-21 98 27 65 30-22 10-70-27-65" class="cls-4"/><path d="M867 719q24 1 33 24c4 11 2 28-12 39q-11 7-22 7-15 0-22-11-9-10-11-24-2-12 6-22a35 35 0 0 1 28-14m0 0h-6c-48 9-30 72 5 72s14-2 22-7c28-21 12-65-21-65Z" class="cls-4"/><path d="M710 394c49-2 43-80-8-71-42 7-35 73 8 71" class="cls-4"/><path d="M710 323q15 0 24 11 8 10 9 24 0 14-8 24-9 11-25 11h-2q-13 0-24-10-8-9-9-22-1-14 5-23 8-11 22-14zm0-1-8 1c-41 7-35 71 6 71h2c46-2 44-72 0-72" class="cls-4"/><path d="M469 560c-47 1-44 75 6 71 44-4 40-72-6-71" class="cls-4"/><path d="M471 561c22 0 33 17 34 33q0 14-7 24-9 11-23 12h-4q-16 0-25-11-9-9-9-23c0-17 10-35 33-35zm0-1h-2c-45 1-44 71 2 71s2 0 4 0c44-4 40-71-4-71" class="cls-4"/><path d="M702 798c-46 8-32 83 17 69 41-12 29-77-17-69" class="cls-4"/><path d="M709 798c20 0 31 15 34 30 2 15-5 32-24 38l-12 2q-14-1-23-10-7-9-9-23c-1-15 7-33 27-36zm0-1-7 1c-42 7-34 71 5 71s8-1 12-2c39-11 30-70-10-70" class="cls-4"/><path d="M945 560c-48 1-45 76 5 71 43-5 41-73-5-71" class="cls-4"/><path d="M947 561q14 0 24 10 7 9 9 22 0 14-7 24-8 12-23 13h-4c-23 0-34-18-34-34 0-17 10-35 33-35zm0-1h-2c-46 1-45 71 1 71s3 0 4 0c43-5 41-71-4-71" class="cls-4"/><path d="M818 376c26-45-48-77-64-28-12 40 43 63 64 28" class="cls-4"/><path d="M786 325q21 1 32 18 9 15-1 33-9 16-28 16c-19 0-22-5-29-14q-9-13-5-30 8-23 31-23m0-1q-21-1-32 24c-7 26 14 45 35 45s22-5 29-17c17-29-8-52-32-52" class="cls-4"/><path d="M637 392c42-7 32-76-14-69-44 7-36 78 14 69" class="cls-4"/><path d="M630 324c20 0 31 16 32 32 2 15-6 32-25 35l-8 1q-15 0-24-10-8-8-9-21-2-13 6-24 7-10 22-13zm0-1h-7c-41 6-37 70 6 70s5 0 8-1c40-6 33-69-7-69Z" class="cls-4"/><path d="M477 551c43-6 35-75-10-70-46 6-39 77 10 70" class="cls-4"/><path d="M472 482c20 0 31 17 32 33q1 13-6 22-7 11-21 13h-6c-22 0-33-17-34-32q0-14 7-23 8-11 23-13zm1-1h-5c-44 5-39 70 4 70s4 0 6 0c41-6 36-70-5-70" class="cls-4"/><path d="M625 798c-46 5-39 76 10 69 43-6 35-75-10-69" class="cls-4"/><path d="M630 798c21 0 31 17 32 33q1 12-5 23-8 11-22 12l-6 1c-22 0-33-17-34-33q0-12 7-23 8-10 23-12zm0-1-5 1c-44 5-39 70 4 70s4 0 7-1c40-6 35-70-6-70" class="cls-4"/><path d="M967 545c28-22 11-67-24-64-58 8-25 97 24 64" class="cls-4"/><path d="M946 482q23 1 32 23c4 12 3 28-12 39q-11 7-21 7c-18 0-31-18-32-35q0-13 6-21a34 34 0 0 1 27-13m0-1h-4c-48 7-32 71 3 71s14-2 22-7c27-21 12-64-21-64" class="cls-4"/><path d="M467 640c-46 5-39 76 10 69 43-6 35-75-10-69" class="cls-4"/><path d="M472 640c20 0 31 17 32 33q2 13-6 22-7 11-21 13h-6c-22 0-33-16-34-32q0-13 7-23 8-10 23-13zm1-1-5 1c-44 5-39 70 4 70s4-1 6-1c41-6 35-70-6-70Z" class="cls-4"/><path d="M784 798c-52 5-33 87 17 67 36-14 25-71-17-67" class="cls-4"/><path d="M788 799c20 0 30 14 33 27 2 14-3 31-20 38q-7 4-15 4c-19 0-31-18-32-35 0-14 7-32 30-34zm0-1h-4c-46 4-36 70 2 70s10-1 15-3c34-13 25-67-13-67" class="cls-4"/><path d="M941 640c-65 13-9 107 33 55 18-25-2-60-33-55" class="cls-4"/><path d="M946 640q20 1 30 19 9 18-3 36-12 14-26 15c-14 1-17-4-23-11q-9-11-11-25-1-12 5-20a38 38 0 0 1 28-14m0-1-5 1c-51 10-27 70 6 70s18-4 27-15c17-24 0-56-28-56Z" class="cls-4"/><path d="M545 799c-37 5-38 61-3 67 55 9 53-74 3-67" class="cls-4"/><path d="M551 799c21 0 32 17 32 34 0-17-11-34-32-34m32 34c0 17-11 33-33 33 22 0 33-16 33-33" class="cls-4"/><path d="M861 799c-41 6-35 75 14 67 40-7 31-74-14-67" class="cls-4"/><path d="M868 800c20 0 30 16 31 31q1 11-5 21t-20 13h-7c-21 0-31-15-32-30q-1-12 5-22 7-11 21-13zm1-1h-7c-39 6-36 67 6 67s5 0 8 0c38-7 32-67-8-67" class="cls-4"/><path d="M462 721c-33 5-33 61 3 66 52 7 53-76-3-66" class="cls-4"/><path d="M471 720c22 0 33 17 33 34 0-17-11-34-33-34m33 34c0 17-11 34-33 34 22 0 33-17 33-34" class="cls-4"/><path d="M542 391c55 9 53-73 3-66-38 5-38 60-3 66" class="cls-4"/><path d="M551 324c21 0 32 17 32 34 0-17-11-34-32-34m32 34c0 17-11 34-33 34 22 0 33-17 33-34" class="cls-4"/><path d="M875 391c39-7 31-73-14-66-41 6-35 74 14 66" class="cls-4"/><path d="M868 325q13 0 22 10 8 8 9 21t-5 22q-7 10-20 12l-8 1c-20 0-30-15-31-30-2-15 6-32 26-35zm1-1-7 1c-39 6-36 67 6 67s5-1 8-1c37-6 32-67-8-67Z" class="cls-4"/><path d="M937 721c-47 14-19 86 26 62 32-17 16-71-26-62" class="cls-4"/><path d="M946 721c19 0 29 13 32 25q2 11-1 20-4 11-15 16-8 5-17 5-13 0-21-9-8-8-10-21a31 31 0 0 1 31-36m1-1-9 1c-40 12-25 67 8 67s12-2 18-5c29-16 18-63-18-63Z" class="cls-4"/><path d="M465 471c51 7 53-76-3-67-32 6-34 61 3 67" class="cls-4"/><path d="M471 404c22 0 33 16 33 33 0-17-11-33-33-33m33 33c0 17-11 34-32 34 21 0 32-17 32-34" class="cls-4"/><path d="M949 471c44-4 39-75-11-67-38 7-32 71 11 67" class="cls-4"/><path d="M946 405q15 0 24 9 8 10 8 22c1 15-8 32-29 34h-4q-13 0-22-9-8-9-9-21t5-22 19-13zm0-1h-8c-37 7-32 67 7 67s3 0 4 0c42-4 40-67-3-67" class="cls-4"/><path d="M717 311c60-21-6-101-38-47a33 33 0 0 0 38 47" class="cls-4"/><path d="M707 247c15 0 30 14 33 31q4 22-23 32l-8 1q-17-1-27-15-9-14-2-31 10-18 27-18m0-1q-16-1-27 19c-11 23 5 47 29 47s5-1 8-1c46-16 19-65-10-65Z" class="cls-4"/><path d="M372 569c-38 28 11 82 43 50 28-28-10-74-43-50" class="cls-4"/><path d="M392 563q20 1 29 21 7 19-7 34-9 10-21 10c-14 0-27-11-32-25q-6-19 12-33 9-7 19-7m0-1q-10 0-20 7c-29 22-6 60 21 60s15-3 22-10c22-23 2-57-23-57" class="cls-4"/><path d="M1025 563c-54 2-33 84 14 61 32-15 19-63-14-61" class="cls-4"/><path d="M1026 564c17 0 27 12 30 25 2 11-1 27-17 35q-8 4-15 4-13 0-22-11-8-9-8-22t7-21q7-9 24-10zm0-1h-1c-48 2-37 65-1 65s10-1 15-3c32-15 19-62-13-62" class="cls-4"/><path d="M703 880c-38 6-34 67 6 65 45-1 41-71-6-65" class="cls-4"/><path d="M709 881c21 0 30 16 31 31 0 15-9 32-31 32h-1q-13 0-22-9-8-8-8-20c-1-14 6-31 25-34zm0-1h-6c-37 6-34 65 5 65l1 1c43-2 41-66 0-66Z" class="cls-4"/><path d="M399 548c38-7 30-70-12-64s-34 72 12 64" class="cls-4"/><path d="M393 485c18 0 28 15 29 29q1 12-5 21t-18 12h-8c-19 1-29-15-30-29q-1-11 5-21 7-10 21-12zm0-1h-6c-40 6-35 64 4 64s5 0 8 0c36-6 30-64-7-64" class="cls-4"/><path d="M631 312c44-4 38-72-9-64-37 6-31 67 9 64" class="cls-4"/><path d="M629 248q14 0 23 9 7 9 8 21 0 13-7 21-8 11-22 11l-3 1q-13 0-21-9-7-8-9-20 0-13 5-21 7-11 19-12zm0-1-7 1c-36 6-31 64 6 64s2 0 3 0c42-4 38-65-2-65" class="cls-4"/><path d="M1008 544c37 21 67-30 38-53-38-29-75 31-38 53" class="cls-4"/><path d="M1025 485q11 0 20 7 16 14 10 33c-4 12-15 23-29 23s-12-2-17-5q-20-12-14-33c3-13 15-26 30-26m0 0c-29 0-47 42-17 60q9 5 18 5c27 0 44-39 20-58q-11-7-21-7Z" class="cls-4"/><path d="M791 312c42-4 37-73-11-64-36 6-31 67 11 63" class="cls-4"/><path d="M788 248c20 0 30 15 30 30 1 14-7 31-27 32l-4 1c-19 0-29-15-30-29q-1-12 5-22 6-9 18-12zm0-1-8 1c-35 6-31 64 7 64s3 0 4 0c40-4 38-65-3-65" class="cls-4"/><path d="M388 642c-42 5-36 70 9 64 40-5 33-69-9-64" class="cls-4"/><path d="M393 643c19 0 28 16 29 30q1 12-5 21t-20 11l-5 1c-20 0-30-16-31-30q-1-11 6-21 7-9 21-12zm0-1h-5c-40 5-36 65 4 65s3 0 5-1c38-5 33-64-4-64" class="cls-4"/><path d="M651 889c-30-28-73 16-46 45 30 33 78-15 46-45" class="cls-4"/><path d="M630 881q11 0 20 9 15 15 8 32c-4 13-17 22-30 22s-16-3-22-10q-13-16-6-33 9-19 30-20m0-1c-25 0-46 31-25 54q11 12 23 11c25 0 48-33 23-56q-10-9-21-9Z" class="cls-4"/><path d="M1047 651c-31-30-75 19-44 48 31 28 75-19 44-48" class="cls-4"/><path d="M1026 643q11 0 21 9 14 14 8 33c-5 12-18 21-31 21s-14-3-20-8q-15-14-8-33 9-21 30-22m0-1c-26 0-47 34-23 57q11 9 21 8c25 0 47-33 23-56q-10-10-21-9Z" class="cls-4"/><path d="M766 889c-29 27 8 73 40 50 37-27-8-81-41-50" class="cls-4"/><path d="M787 881c13 0 26 10 31 23q6 20-12 34-9 6-18 6-20-1-29-21-7-20 7-33 10-9 21-9m0-1q-10-1-21 9c-23 22-4 56 22 56s12-2 18-6c29-21 8-59-19-59Z" class="cls-4"/><path d="M470 390c44 0 41-65 1-64-43 1-41 64-1 64" class="cls-4"/><path d="M471 327c20 0 30 16 30 31q-1 13-7 22-9 9-24 9-13 0-22-9-8-9-8-22c0-15 10-31 31-31zm-1-1c-43 1-41 64-1 64 44 0 41-64 1-64" class="cls-4"/><path d="M469 801c-43 3-37 68 6 64 39-4 35-67-6-64" class="cls-4"/><path d="M472 802c19 0 28 15 29 29 1 15-7 31-26 32l-4 1q-14 0-22-10-7-8-9-21c0-14 9-30 29-31zm0-1h-3c-42 3-38 64 2 64s2 0 4-1c38-3 35-63-3-63Z" class="cls-4"/><path d="M949 390c40-3 37-68-5-64s-38 67 5 64" class="cls-4"/><path d="M947 327c19 0 29 16 29 30 1 15-8 31-27 32h-3c-20 0-30-15-30-29-1-15 7-31 28-33zm0-1h-3c-41 4-38 64 2 64h3c39-2 37-64-2-64Z" class="cls-4"/><path d="M938 802c-32 5-32 60 6 63 45 3 46-72-6-63" class="cls-4"/><path d="M946 801c21 0 31 16 31 31 0-15-10-31-31-31m31 31c0 16-10 33-31 33 21 0 31-17 31-33" class="cls-4"/><path d="M391 723c-42 1-39 66 4 62 38-4 36-63-4-62" class="cls-4"/><path d="M392 724q13 0 21 8t8 20q1 12-6 21-8 9-20 11h-4q-13 0-22-9-6-9-7-21 0-12 7-21 8-9 21-9zm0-1h-1c-41 1-39 62 0 62s3 0 4 0c38-4 36-62-3-62" class="cls-4"/><path d="M889 301c27-26-9-70-41-47-35 27 10 79 41 47" class="cls-4"/><path d="M867 249q19 1 28 19 7 19-7 33-9 9-20 9c-13 0-26-10-30-23q-6-19 11-32 9-6 18-6m0-1q-9 0-19 6c-27 21-6 57 20 57s14-3 21-10c21-21 2-54-22-54" class="cls-4"/><path d="M524 895c-22 31 23 67 49 39 29-31-22-76-49-39" class="cls-4"/><path d="M549 882q20 1 29 20 8 17-6 31-9 10-21 10-19-1-29-18-8-15 3-30 13-15 24-13m0-1q-14-1-25 14c-16 23 5 49 27 49s15-3 22-10c21-23-1-53-24-53Z" class="cls-4"/><path d="M1029 723c-26-3-43 22-31 45 33 53 93-32 31-45" class="cls-4"/><path d="M1025 724h4c26 5 27 22 26 29-2 15-15 32-32 32s-18-6-24-17q-8-16 1-31 8-13 25-13m0-1c-23 0-38 24-27 45q13 19 25 18c29 0 54-53 6-63z" class="cls-4"/><path d="M415 416c-26-28-71 7-49 39 26 37 78-8 49-39" class="cls-4"/><path d="M393 407q12 0 21 9 13 15 6 32-9 18-30 20c-20 2-15-2-23-13q-10-16-3-30 10-17 29-18m0-1c-23 0-44 25-27 49q11 15 24 14c24 0 46-30 25-53q-11-10-22-10" class="cls-4"/><path d="M1051 455c22-31-24-67-49-39-29 31 22 76 49 39" class="cls-4"/><path d="M1024 407q18 1 29 18 8 15-3 30-13 15-24 13-20-1-29-20-7-17 6-32 9-9 21-9m0-1q-13 0-22 10c-21 23 1 53 24 53s18-4 25-14c16-23-5-49-27-49" class="cls-4"/><path d="M863 882c-36 5-34 56-2 61 50 7 47-67 2-61" class="cls-4"/><path d="M868 881c19 0 29 16 29 32 0-16-10-32-29-32m29 32c0 15-9 30-30 30 21 0 30-15 30-30" class="cls-4"/><path d="M398 387c35-5 28-63-10-58-38 4-33 64 9 58" class="cls-4"/><path d="M393 330c17 0 26 14 27 27q0 11-5 19-6 8-17 10h-6c-18 0-28-13-28-26q-1-11 5-20 7-9 20-10zm0 0h-5c-36 4-33 59 4 59s3-1 5-1c34-4 30-58-4-58" class="cls-4"/><path d="M473 309c40-4 34-66-9-59-34 6-28 62 9 59" class="cls-4"/><path d="M471 251q12 0 20 8t8 19q0 12-6 20-7 9-20 10h-3q-11 0-19-8-6-8-8-19 0-11 4-19 6-9 17-11zm0-1h-7c-33 6-28 59 6 59s2 0 3 0c38-3 34-59-2-59Z" class="cls-4"/><path d="M306 567c-34 6-28 61 9 58 40-3 34-66-9-58" class="cls-4"/><path d="M313 567c18 0 27 14 28 28q0 11-6 19-8 9-20 10h-3q-12 0-19-8t-8-19 4-19q6-8 17-10zm0-1-7 1c-33 5-28 58 6 58s2 0 3 0c37-3 34-59-3-59Z" class="cls-4"/><path d="M945 309c41 1 40-66-5-59-33 6-29 58 5 59" class="cls-4"/><path d="M947 250c19 0 28 14 28 29 0-15-9-29-28-29m28 29c0 15-10 30-29 30 19 0 29-15 29-30" class="cls-4"/><path d="M943 883c-38 5-33 64 9 58 35-4 28-63-10-58" class="cls-4"/><path d="M947 884c17 0 26 14 27 27q0 11-5 19-6 9-17 10l-6 1q-12 0-20-8t-8-19c-1-13 6-28 24-30zm0-1h-5c-35 5-33 59 4 59s4 0 6-1c34-4 29-58-5-58" class="cls-4"/><path d="M390 803c-40 3-35 64 7 59 34-5 30-61-7-59" class="cls-4"/><path d="M392 804q12 0 20 8 6 8 7 19c1 13-5 27-22 30h-5c-19 0-28-14-28-27-1-14 7-28 26-30zm0-1h-2c-38 3-36 59 2 59s3 0 5 0c33-5 30-59-5-59Z" class="cls-4"/><path d="M1098 567c-34 6-28 61 8 58 40-3 35-66-8-58" class="cls-4"/><path d="M1105 567c18 0 27 14 27 27 1 14-7 29-26 30h-3c-17 0-25-14-27-26q0-11 5-19 6-9 17-11zm0-1-7 1c-33 5-29 58 5 58h3c37-2 36-59-1-59Z" class="cls-4"/><path d="M467 883c-37 5-32 64 9 58 37-5 29-63-9-58" class="cls-4"/><path d="M471 884q12 0 20 8 7 8 7 19c1 13-5 27-22 29l-6 1c-17 0-26-13-27-26q-1-11 5-20t19-11zm0-1h-4c-35 5-33 59 3 59s4 0 6-1c35-4 29-58-5-58Z" class="cls-4"/><path d="M1030 387c37-5 29-64-9-58-37 5-32 64 9 58" class="cls-4"/><path d="M1026 329q11 0 19 9 7 8 8 19c1 13-6 27-23 29h-5c-18 0-27-13-28-26q-1-11 5-19 7-9 19-11zm0-1-5 1c-35 5-32 58 4 58s3 0 5 0c35-5 30-59-4-59" class="cls-4"/><path d="M702 963c-31 5-29 56 5 58 42 2 41-66-5-58" class="cls-4"/><path d="M709 962c19 0 29 15 29 30 0-15-10-30-29-30m29 30c0 14-10 29-29 29 19 0 29-15 29-29" class="cls-4"/><path d="M720 226c31-12 20-61-17-55-40 6-24 72 17 55" class="cls-4"/><path d="M709 171a27 27 0 0 1 27 23c3 12-2 26-17 31l-12 3q-14-2-18-8-8-8-8-20c-1-11 4-26 22-28zm0-1-6 1c-36 5-27 58 4 58s8-1 13-2c29-12 21-57-11-57" class="cls-4"/><path d="M1022 803c-38 4-34 64 8 59 36-5 30-62-8-59" class="cls-4"/><path d="M1026 804c17 0 26 14 27 27q1 11-5 19-6 9-18 11h-5c-18 0-27-14-28-27 0-13 7-28 25-30zm0-1h-4c-36 3-34 59 3 59s3 0 5 0c34-5 31-59-4-59" class="cls-4"/><path d="M631 228c39-3 33-64-8-57-34 5-29 61 8 57" class="cls-4"/><path d="M630 171c17 0 26 14 27 27q0 11-6 19-8 9-20 10h-3q-12 1-19-8-7-7-8-17 0-11 5-20 6-9 17-11zm0-1-7 1c-33 5-29 57 5 57s2 0 3 0c37-3 34-58-1-58" class="cls-4"/><path d="M317 545c34-3 33-58-5-58-40 0-37 62 5 58" class="cls-4"/><path d="M312 488c19 0 28 14 28 27q0 11-5 19-7 9-19 10l-3 1c-19 0-28-15-28-29q0-11 7-19 8-8 20-8m0-2c-38 0-37 59 1 59s2 0 4-1c34-3 33-58-5-58" class="cls-4"/><path d="M311 646c-41 3-33 63 7 58 35-6 29-62-7-58" class="cls-4"/><path d="M314 646c17 0 25 14 26 27q1 10-5 19-5 9-17 10l-6 1q-11 0-19-9-8-8-8-19t6-19 20-10zm0-1h-3c-39 4-33 59 2 59s3 0 5-1c34-5 29-58-4-58Z" class="cls-4"/><path d="M796 227c36-11 22-63-15-56-36 6-24 68 15 56" class="cls-4"/><path d="M788 171c16 0 26 13 28 25 1 11-3 25-20 30l-10 1q-10 1-18-8-6-8-7-18c-1-13 5-27 21-29zm0-1-6 1c-34 5-27 57 4 57s6 0 10-1c34-10 23-57-9-57" class="cls-4"/><path d="M1096 647c-30 6-27 56 7 57 42 1 39-67-7-57" class="cls-4"/><path d="M1105 646c18 0 28 14 28 29 0-15-10-29-28-29m28 29c0 14-10 29-29 29 19 0 29-15 29-29" class="cls-4"/><path d="M1103 546c41 1 40-66-7-58-29 6-28 57 7 58" class="cls-4"/><path d="M1104 488c19 0 29 14 29 28 0-14-10-28-29-28m29 28c0 15-10 30-29 30 19 0 29-15 29-30" class="cls-4"/><path d="M623 963c-30 5-30 53 0 57 47 6 44-65 0-57" class="cls-4"/><path d="M629 962c19 0 28 15 28 30 0-15-9-30-28-30m28 30c0 14-9 28-28 28 19 0 28-14 28-28" class="cls-4"/><path d="M783 963c-36 6-30 64 12 57 34-6 26-63-12-57" class="cls-4"/><path d="M789 963c16 0 25 14 26 27q1 10-4 18-6 9-16 11h-7c-18 0-26-12-27-25s5-27 22-30zm0-1-6 1c-34 6-31 57 5 57s4 0 7 0c32-6 27-58-6-58Z" class="cls-4"/><path d="M302 463c45 17 55-62 4-53-25 4-30 44-4 53" class="cls-4"/><path d="M313 409c19 0 27 14 27 27 0-13-8-27-27-27m27 27c0 15-9 30-26 30 17 0 26-15 26-30" class="cls-4"/><path d="M306 726c-40 11-17 72 21 52 27-15 13-58-21-52" class="cls-4"/><path d="M312 727c16 0 24 11 27 20q4 20-13 30-8 4-14 4-10 0-17-7-7-8-9-17a25 25 0 0 1 26-30m0-1h-6c-34 10-22 56 6 56s9-1 15-4c25-14 14-52-15-52Z" class="cls-4"/><path d="M559 226c32-10 21-62-17-54-35 10-19 66 17 54" class="cls-4"/><path d="M550 172c16 0 25 12 26 23 2 12-3 26-18 30l-9 2q-9 0-17-8-6-6-8-16c-2-11 2-25 18-30zm0-1-8 1c-32 10-22 56 7 56s6-1 10-2c30-9 22-55-9-55" class="cls-4"/><path d="M869 227c39-3 32-64-9-55-31 6-26 58 9 55" class="cls-4"/><path d="M867 172q12 0 19 8t7 19c1 12-6 26-24 27l-2 1q-12 0-19-8-6-6-7-17-1-10 3-18 6-9 16-11zm0-1-7 1c-31 6-26 56 6 56s2 0 3 0c36-3 32-57-2-57" class="cls-4"/><path d="M1106 466c38-2 33-63-8-56-32 5-27 57 8 55" class="cls-4"/><path d="M1104 410q12 0 20 9 6 7 6 18c1 13-7 27-24 27h-2q-12 0-19-7-6-7-8-18 0-10 5-18t16-10zm0-1-6 1c-32 5-27 56 6 56h2c35-2 33-57-2-57" class="cls-4"/><path d="M544 964c-33 6-27 58 7 56 38-2 34-63-8-56" class="cls-4"/><path d="M550 965q13 0 19 8 7 8 7 18c1 13-7 27-25 28h-1q-12 0-19-8-7-7-8-18 0-9 4-17 6-9 17-11zm0-1h-6c-32 6-27 56 6 56h1c36-2 34-56-1-56" class="cls-4"/><path d="M860 964c-35 7-23 68 17 54 30-11 20-61-17-54" class="cls-4"/><path d="M867 965c16 0 24 11 26 22s-2 25-16 30l-11 2c-16 0-24-13-25-25-2-12 4-26 19-29zm0-1h-7c-31 7-25 56 6 56s7-1 11-2c28-10 21-54-10-54Z" class="cls-4"/><path d="M1098 726c-26 5-30 45-3 54 44 15 51-62 3-54" class="cls-4"/><path d="M1105 726c18 0 26 13 26 27 0-14-8-27-26-27m26 27c0 14-9 29-25 29 16 0 25-15 25-29" class="cls-4"/><path d="M395 306c34-3 30-56-4-54-37 1-34 57 4 54" class="cls-4"/><path d="M392 253q12-1 18 8 7 6 7 17 1 11-5 18-6 8-17 9h-3a25 25 0 0 1-26-26c0-12 8-25 25-26zm0-1h-1c-36 1-34 54 1 54s2 0 3 0c33-3 30-54-3-54" class="cls-4"/><path d="M387 886c-32 5-28 55 6 54 36-2 33-61-6-54" class="cls-4"/><path d="M393 886c16 0 24 14 24 26s-7 26-24 27h-1c-17 0-25-12-26-24s5-26 21-28zm0-1-6 1c-32 5-28 54 5 54h1c34-2 33-55 0-55" class="cls-4"/><path d="M1019 886c-31 5-26 55 7 54 38-2 32-61-7-54" class="cls-4"/><path d="M1025 886c17 0 25 13 26 26 0 13-8 26-25 27h-1c-16 0-24-13-25-25q-1-9 4-17t16-10zm0-1-6 1c-31 5-26 54 5 54h2c36-2 33-55-1-55" class="cls-4"/><path d="M1031 305c30-6 27-52-5-53-40-1-35 62 5 53" class="cls-4"/><path d="M1025 252c-18 0-26 13-26 27 0-14 8-27 26-27m-26 27c0 13 8 27 25 27-17 0-26-14-26-27" class="cls-4"/><path d="M489 218c31-31-31-68-44-26-6 27 26 45 44 26" class="cls-4"/><path d="M468 174c11 0 23 8 27 18q5 13-6 26-7 6-18 7c-11 1-15-4-20-10q-8-9-5-22c5-17 16-19 22-19m0-1q-15 0-23 20c-4 19 11 33 26 33s13-2 18-7c21-22 0-46-21-46" class="cls-4"/><path d="M313 806c-37 1-34 57 3 53 32-4 29-53-3-53" class="cls-4"/><path d="M313 807c16 0 24 13 25 25 0 11-6 24-22 26h-3q-12 0-19-8-6-6-6-17c0-12 7-25 25-26m0-1c-35 1-35 53-1 53s3 0 4 0c32-3 29-53-3-53" class="cls-4"/><path d="M318 384c31-5 26-54-7-52-36 2-31 58 7 52" class="cls-4"/><path d="M313 333c16 0 24 12 25 24q1 9-5 17-5 8-15 9l-6 1q-10 0-18-8-6-7-6-17-1-10 5-18 7-8 18-8zm0-1h-2c-34 2-32 53 1 53s4 0 6-1c30-5 26-53-5-53Z" class="cls-4"/><path d="M948 226c36-3 30-61-8-53-30 7-24 55 8 53" class="cls-4"/><path d="M947 174q11 0 17 7 6 8 7 17 0 11-6 18-6 8-18 9h-2q-9 0-17-7-6-6-7-16 0-11 4-18 4-8 15-10zm1 0h-7c-29 6-24 53 6 53h2c34-2 31-54-1-54Z" class="cls-4"/><path d="M465 966c-36 8-19 65 16 50 28-12 16-56-16-50" class="cls-4"/><path d="M471 966c14 0 22 11 24 21 2 9 0 22-14 28l-11 2c-14 0-22-12-24-24-1-10 3-23 19-26zm0-1-6 1c-32 7-22 52 5 52s7 0 12-2c26-12 17-51-11-51" class="cls-4"/><path d="M1107 384c33-3 29-54-4-52-35 1-33 56 4 52" class="cls-4"/><path d="M1105 333q11 0 17 7 7 8 7 17 0 11-5 17-6 9-17 9l-3 1c-17 0-25-13-25-25 0-13 8-26 24-27zm1 0h-2c-34 1-33 53 1 53s2 0 3-1c33-3 30-53-2-53" class="cls-4"/><path d="M936 1016c27 11 49-23 29-43-30-30-67 28-29 43" class="cls-4"/><path d="M947 965q9 0 17 9 11 11 5 27-7 16-23 16c-16 0-6-1-9-2q-18-8-16-26 2-10 9-16 8-8 16-8m1-1c-24 0-42 40-11 52q6 3 10 2c22 0 36-28 19-45q-10-9-18-9" class="cls-4"/><path d="M1114 809c-22-9-42 11-34 34 21 44 79-13 34-35" class="cls-4"/><path d="M1104 808q5 0 10 2c17 7 17 19 15 25-3 13-15 23-27 23s-15-2-21-15q-4-14 3-25 7-10 20-10m0-1c-18 0-31 17-24 36q10 17 22 16c22 0 45-35 12-51z" class="cls-4"/><path d="M217 575c-27 23 9 63 34 40 25-24-10-61-34-40" class="cls-4"/><path d="M233 570q17 1 24 17 5 15-6 27-8 7-17 7-17-1-24-18-6-16 7-27 7-6 16-6m0-1q-8 0-16 6c-21 18-3 47 17 47s12-2 17-7c20-19 2-46-18-46" class="cls-4"/><path d="M703 1046c-28 4-25 52 6 51 36-2 32-58-6-52" class="cls-4"/><path d="M709 1046q11 0 18 8 6 7 6 16c0 12-7 25-24 26h-1c-15 0-22-12-23-23s4-24 18-27zm0-1-6 1c-28 4-25 51 5 51h1c34-2 33-52 0-52" class="cls-4"/><path d="M1180 570c-33 4-28 55 7 51 33-4 25-55-7-52" class="cls-4"/><path d="M1184 570q9 0 17 8 5 6 6 17c1 10-4 23-20 25h-4c-16 0-23-12-24-23q0-11 5-17 6-9 16-10zm0-1h-4c-31 4-28 52 3 52s2 0 4 0c32-4 26-52-3-52" class="cls-4"/><path d="M707 146c36 3 37-56-2-51-28 4-29 48 2 51" class="cls-4"/><path d="M709 95c17 0 25 12 25 25 0-13-8-25-25-25m25 25c0 13-8 26-24 26 16 0 24-13 24-26" class="cls-4"/><path d="M228 541c43 6 38-57 1-50-28 5-27 47-1 50" class="cls-4"/><path d="M234 491c16 0 24 13 24 26 0-13-8-26-24-26m24 26c0 12-7 24-24 24 17 1 24-12 24-24" class="cls-4"/><path d="M783 1046c-27 5-27 46 0 49 42 6 37-57 0-49" class="cls-4"/><path d="M789 1045c15 0 24 13 24 26 0-13-9-26-24-26m24 26c0 13-8 25-25 25 17 0 25-12 25-25" class="cls-4"/><path d="M1190 541c29-5 22-55-11-50-31 5-27 56 11 50" class="cls-4"/><path d="M1184 492c15 0 22 12 23 23q1 9-3 16-5 8-15 9h-6c-15 0-23-11-24-22q-1-9 5-16 5-8 15-10zm0-1h-5c-29 5-27 50 4 50s4 0 7 0c27-5 23-50-6-50" class="cls-4"/><path d="M625 1046c-31 5-27 56 10 49 30-5 23-55-10-49" class="cls-4"/><path d="M630 1046c14 0 22 12 23 23q0 10-4 16-5 8-14 9l-6 1c-15 0-23-11-24-22q0-9 4-17 6-8 16-10zm0-1h-5c-30 5-28 51 4 51s4 0 6-1c28-5 24-50-5-50" class="cls-4"/><path d="M230 649c-28 3-29 46-2 50 41 6 40-54 2-50" class="cls-4"/><path d="M234 649c16 0 24 13 24 26 0-13-8-26-24-26m24 26c0 12-8 25-24 25 16 0 24-13 24-25" class="cls-4"/><path d="M783 145c40 6 39-54 1-50-28 3-28 46-1 50" class="cls-4"/><path d="M788 95c16 0 25 13 25 25 0-12-9-25-25-25m25 25c0 13-8 25-25 25 17 0 25-12 25-25" class="cls-4"/><path d="M1181 649c-34 4-29 57 9 50 28-5 23-53-10-50" class="cls-4"/><path d="M1184 650c15 0 22 11 23 22s-4 24-18 26l-6 1c-15 0-23-12-24-23 0-11 6-24 22-26zm0-1h-3c-32 4-29 51 2 51s4 0 7-1c27-5 24-50-6-50Z" class="cls-4"/><path d="M635 145c29-6 24-54-9-50-33 3-28 57 9 50" class="cls-4"/><path d="M630 96c14 0 22 11 23 22s-4 23-18 26h-6c-16 0-23-11-24-22 0-12 6-24 21-26zm0-1h-4c-31 3-29 50 3 50s4 0 6 0c28-5 24-50-5-50Z" class="cls-4"/><path d="M238 461c29-4 25-52-7-48-32 3-28 53 7 48" class="cls-4"/><path d="M234 414c15 0 22 11 23 22q0 9-4 16-6 6-15 8l-5 1c-15 0-22-12-23-22 0-11 6-24 22-25zm0-1h-3c-30 3-28 49 2 49s3 0 5-1c28-4 25-49-4-49" class="cls-4"/><path d="M868 145c33-2 30-55-7-49-27 5-23 51 7 49" class="cls-4"/><path d="M867 97c15 0 23 12 23 22 0 12-7 24-22 25h-2q-9 0-16-7-4-6-6-15 0-9 4-16 5-7 14-9zm0-1h-6c-27 5-23 49 5 49h2c31-2 30-49-1-49" class="cls-4"/><path d="M551 145c34-2 28-56-8-49-27 6-21 51 8 49" class="cls-4"/><path d="M550 97q11 0 17 7 5 6 6 16 0 9-5 16-6 7-17 8h-2c-13 0-21-11-22-22q-1-9 3-16 5-7 14-9zm0 0h-6c-27 6-22 49 5 49h2c32-2 29-49-1-49" class="cls-4"/><path d="M230 729c-51 14 6 82 27 31 5-16-10-33-27-31" class="cls-4"/><path d="M233 730q12 0 20 10 6 9 3 20c-6 15-14 18-20 18-12 0-24-12-25-24q-3-17 19-24zm0-1h-3c-38 10-17 50 6 50s16-5 21-19c5-15-8-31-24-31" class="cls-4"/><path d="M1188 461c29-4 24-51-7-48-32 3-28 54 7 48" class="cls-4"/><path d="M1183 414c15 0 22 11 23 22q1 9-4 15-5 7-14 9l-5 1c-15 0-22-12-23-23 0-11 6-23 20-24zm0 0h-2c-30 3-28 49 2 49s4 0 5-1c28-4 24-49-5-49" class="cls-4"/><path d="M545 1047c-33 6-20 61 15 46 25-10 15-51-15-46" class="cls-4"/><path d="M550 1048c14 0 21 10 23 18q3 17-13 26-6 3-11 2c-13 0-21-11-22-22q-1-8 3-15 6-7 15-9zm0-1h-5c-29 5-23 48 4 48s7 0 11-2c23-10 16-46-10-46" class="cls-4"/><path d="M1170 733c-29 19 4 62 30 39 21-20-5-55-30-39" class="cls-4"/><path d="M1183 730q15 1 22 16 5 14-6 25-7 7-15 7-17-1-23-19-4-15 10-25 6-4 12-4m0-1q-6 0-13 4c-23 15-7 46 14 46s11-2 16-7c17-17 3-43-17-43" class="cls-4"/><path d="M848 1085c20 28 59-7 37-31-20-22-56 6-37 31" class="cls-4"/><path d="M868 1047q10 0 16 8 10 11 5 24-8 14-23 15c-15 1-13-3-18-9q-8-12-2-24 7-13 22-14m0-1c-18 0-34 20-20 39q8 10 18 10c18 0 36-23 19-41q-8-8-17-8" class="cls-4"/><path d="M391 968c-32 1-30 49 1 48 32-1 31-50-1-49" class="cls-4"/><path d="M392 969q10 0 16 7 6 6 6 16c0 11-7 23-22 23h-1q-10-1-16-7-6-7-6-16c0-11 6-23 22-24zm0-1h-1c-32 1-30 48 0 48h1c32-1 31-49 0-49" class="cls-4"/><path d="M310 303c35 4 36-55-4-47-23 5-23 44 4 47" class="cls-4"/><path d="M313 255c16 0 23 12 23 24 0-12-7-24-23-24m23 24c0 12-8 24-23 24 15 0 23-12 23-24" class="cls-4"/><path d="M1100 303c38 5 37-56-4-47-22 5-21 44 4 47" class="cls-4"/><path d="M1104 255c16 0 24 12 24 24 0-12-8-24-24-24m24 24c0 12-8 24-24 24 16 0 24-12 24-24" class="cls-4"/><path d="M396 223c30-5 25-53-11-47-27 5-21 52 11 47" class="cls-4"/><path d="M392 177c14 0 21 10 22 20 1 11-4 23-18 25h-5c-14 1-21-11-22-21q0-8 3-15 5-7 14-9zm0 0h-7c-26 5-21 47 6 47s3 0 5 0c28-5 25-47-4-47" class="cls-4"/><path d="M308 889c-29 5-25 53 11 47 27-5 21-53-11-47" class="cls-4"/><path d="M313 889c14 0 21 11 22 22q1 8-3 15-5 7-13 9h-7c-14 0-21-10-22-21-1-10 4-22 18-24zm0-1-5 1c-27 4-25 47 5 47s4 0 6 0c26-5 22-48-6-48Z" class="cls-4"/><path d="M1021 223c37 6 38-55-3-47-22 5-23 43 3 47" class="cls-4"/><path d="M1026 175c15 0 23 12 23 24 0-12-8-24-23-24m23 24c0 12-8 25-23 25 15 0 23-13 23-25" class="cls-4"/><path d="M1101 889c-31 5-27 53 9 47 28-5 21-52-9-47" class="cls-4"/><path d="M1105 889c14 0 21 12 22 22 0 10-4 21-17 24h-6c-14 0-22-10-23-20 0-11 5-23 20-25zm0-1-4 1c-29 4-27 47 3 47s4 0 6 0c26-5 22-48-5-48Z" class="cls-4"/><path d="M1018 969c-22 4-23 43 4 46 36 4 36-55-4-47" class="cls-4"/><path d="M1025 968c16 0 24 12 24 23 0-12-8-23-24-23m24 23c0 12-8 25-23 25 15 0 23-13 23-25" class="cls-4"/><path d="M253 346c-18-28-59 5-36 28 18 19 51-5 36-28" class="cls-4"/><path d="M235 336q8-1 17 10 7 11 1 22-7 11-20 12c-13 1-11-2-16-7-8-9-6-18-4-22 3-9 13-15 22-15m0-1c-18 0-35 22-18 39q7 7 16 7c16 0 31-18 20-35q-8-11-18-11" class="cls-4"/><path d="M487 136c32-44-58-53-35-3 7 12 26 13 35 3" class="cls-4"/><path d="M470 100q15 1 21 11 5 10-4 24-6 7-16 7-14-1-18-10-7-15-1-24 5-8 18-8m0-1c-15 0-29 10-18 34q7 10 19 10c12 0 12-3 16-7 17-23-1-37-17-37" class="cls-4"/><path d="M945 143c33 1 30-51-4-45-25 4-23 44 4 45" class="cls-4"/><path d="M946 97c15 0 22 12 22 24 0-12-7-24-22-24m22 24c0 11-7 22-21 22 14 0 21-11 21-22" class="cls-4"/><path d="M229 810c-25 5-23 44 4 45 33 2 28-52-4-45" class="cls-4"/><path d="M234 810c14 0 22 12 22 24 0-12-8-24-22-24m22 24c0 11-7 21-22 21 15 0 22-10 22-22" class="cls-4"/><path d="M1179 810c-50 19 17 76 27 24 1-15-13-26-27-24" class="cls-4"/><path d="M1183 811q9 1 16 7 6 7 6 16-4 20-19 20-22-2-24-20c-1-6 0-16 17-23zm0-1h-4c-35 13-13 45 7 45s17-5 20-21c1-13-10-24-23-24" class="cls-4"/><path d="M1179 380c36 5 35-48 1-44-25 2-25 41-1 44" class="cls-4"/><path d="M1184 336c14 0 21 11 21 22 1-11-7-23-21-23m22 22c0 11-8 22-23 22 15 0 23-11 23-22" class="cls-4"/><path d="M943 1048c-29 5-24 50 9 44 26-5 19-48-9-44" class="cls-4"/><path d="M947 1049c12 0 19 10 20 20s-4 20-16 22l-5 1c-14 0-21-10-22-20 0-9 5-21 18-23zm1-1h-5c-27 5-24 45 4 45s3 0 5-1c25-4 21-44-5-44Z" class="cls-4"/><path d="M467 1048c-24 4-25 41-1 45 37 5 35-50 1-45" class="cls-4"/><path d="M471 1048c14 0 22 12 22 23 0-11-7-23-22-23m22 23c0 11-7 22-22 22 15 0 22-11 22-22" class="cls-4"/><path d="M154 574c-30 0-26 50 6 42 23-6 20-42-6-42" class="cls-4"/><path d="M154 574c-14 0-20 11-20 21 0-10 6-21 20-21m-20 21c0 11 6 22 19 22-13 0-19-11-19-22" class="cls-4"/><path d="M714 61c23-5 20-41-6-41-30 0-26 49 6 41" class="cls-4"/><path d="M708 20c-14 0-20 10-20 21 0-11 6-21 20-21m-20 21c0 10 7 21 20 21-13 0-20-11-20-21" class="cls-4"/><path d="M693 1135c-18 20 11 50 31 30 21-20-12-50-31-30" class="cls-4"/><path d="M708 1129q14 1 20 14c2 5 4 13-5 22q-6 6-14 6-12-1-19-14-5-11 4-21 6-6 14-7m0-1q-8 0-15 7c-14 16 0 37 16 37s10-2 15-7c16-15 0-37-16-37" class="cls-4"/><path d="M1257 575c-19 4-21 38 3 42 31 4 33-48-3-42" class="cls-4"/><path d="M1263 575c14 0 21 10 21 20 0-10-7-20-21-20m21 20c0 11-7 22-20 22 13 0 20-11 20-22" class="cls-4"/><path d="M316 220c27-4 22-47-9-41-23 5-19 45 9 41" class="cls-4"/><path d="M313 179c12 0 19 10 19 19q1 8-3 14t-13 7l-4 1c-12 0-18-10-19-19-1-8 3-19 14-21zm0-1-6 1c-22 5-19 42 5 42s3 0 4-1c25-3 22-42-3-42" class="cls-4"/><path d="M638 60c22-9 13-45-15-39-26 5-15 52 15 39" class="cls-4"/><path d="M629 21c12 0 18 9 19 16 2 8-1 18-11 22q-4 2-9 2c-11 0-18-9-18-19q-1-7 2-13 5-6 12-7zm0-1-6 1c-23 5-17 41 5 41s6 0 10-2c20-9 14-40-9-40Z" class="cls-4"/><path d="M1106 221c28-3 24-48-7-42-24 4-19 44 7 42" class="cls-4"/><path d="M1104 179c13 0 19 10 20 20 0 9-5 19-18 21h-3c-11 0-18-10-18-19-1-9 3-19 14-21zm0-1-5 1c-23 4-19 42 5 42s1 0 2 0c27-3 24-43-2-43" class="cls-4"/><path d="M150 537c34 5 32-46 2-42-24 3-24 38-2 42" class="cls-4"/><path d="M155 495c13 0 20 11 20 22 0-11-7-22-20-22m20 22c0 10-6 20-20 20 14 0 20-10 20-20" class="cls-4"/><path d="M789 62c28-2 25-47-6-41-25 4-19 43 6 41" class="cls-4"/><path d="M788 21c13 0 19 10 19 19 1 10-5 20-18 21h-1q-9 0-14-6-5-5-6-13-1-15 15-20zm0-1-5 1c-24 4-19 41 5 41h1c27-1 25-42-1-42Z" class="cls-4"/><path d="M152 654c-28 3-23 46 7 41 26-5 19-45-7-42" class="cls-4"/><path d="M155 654c11 0 18 10 19 19q0 8-3 13-4 6-12 8h-5q-8 0-14-5-5-6-5-13c-1-9 4-20 17-22zm0-1h-3c-26 4-23 42 2 42s3 0 5 0c25-5 19-42-4-42Z" class="cls-4"/><path d="M307 971c-27 6-15 52 14 40 22-9 13-45-14-40" class="cls-4"/><path d="M313 972c12 0 18 8 19 16 2 8-1 18-11 22l-9 2c-11 0-18-10-19-19-1-8 3-18 14-21zm0-1h-6c-24 5-17 42 5 42s6-1 9-2c20-9 14-40-8-40" class="cls-4"/><path d="M783 1130c-25 5-19 43 6 41 28-2 25-48-6-42" class="cls-4"/><path d="M789 1130c12 0 18 10 18 19 1 10-5 20-18 21h-1c-13 0-19-10-20-18-1-9 3-19 15-22zm1-1-6 1c-24 5-19 41 5 41h1c26-2 25-42-1-42" class="cls-4"/><path d="M623 1130c-27 5-14 53 15 38 22-10 11-44-15-38" class="cls-4"/><path d="M629 1130c11 0 18 8 20 16 1 7-1 17-11 22l-10 2c-11 0-18-9-19-19 0-8 3-18 15-20zm0-1-6 1c-23 4-17 41 5 41s7-1 10-2c21-11 12-40-9-40" class="cls-4"/><path d="M1247 502c-18 21 12 48 31 29 20-20-13-50-31-29" class="cls-4"/><path d="M1262 496q13 1 20 14c1 4 3 13-5 20q-5 6-13 6-13-1-19-12-5-11 3-21 6-7 14-7m0-1q-7 0-15 7c-13 16 1 35 16 35s11-2 15-6c15-15 0-36-16-36" class="cls-4"/><path d="M1089 977c-19 19 11 49 30 30 20-20-10-50-30-30" class="cls-4"/><path d="M1104 972q13 1 19 13 4 11-5 21-6 6-13 6-13-1-20-14-4-11 4-20 7-6 14-6m1-1q-8-1-15 6c-15 15 0 36 16 36s9-2 14-6c15-15 1-37-16-37Z" class="cls-4"/><path d="M1262 654c-23 1-27 36-4 41 32 6 34-43 4-41" class="cls-4"/><path d="M1263 654c14 0 20 10 20 21 0-11-6-21-20-21m20 21c0 10-6 20-19 20 13 0 19-10 19-20" class="cls-4"/><path d="M408 133c16-20-13-46-31-27-19 19 13 49 31 27" class="cls-4"/><path d="M391 101q13 1 19 12 5 10-3 20-6 7-14 7-13-1-20-13-4-11 4-20 6-6 14-6m0-1q-8-1-14 6c-14 14 0 35 16 35s10-2 15-8c12-15-2-33-17-33Z" class="cls-4"/><path d="M248 264c-19-18-47 9-30 29 18 20 50-9 30-29" class="cls-4"/><path d="M234 259q7 0 13 6c8 8 7 16 5 20q-6 13-20 14c-14 1-9-2-13-7q-8-9-3-20 5-12 18-13m0-1c-15 0-29 20-16 35q6 7 14 7c16 0 31-21 16-36q-6-6-14-6Z" class="cls-4"/><path d="M387 1051c-22 4-19 42 6 40 27-2 25-46-6-40" class="cls-4"/><path d="M392 1052q9 0 14 5 4 5 5 13 0 7-4 13-5 7-14 7h-2c-11 0-17-9-18-17q-2-8 3-13 3-7 11-8zm0-1h-5c-22 4-20 40 4 40h2c26-2 25-40-1-40" class="cls-4"/><path d="M229 893c-23 4-19 41 5 40 28 0 25-46-5-40" class="cls-4"/><path d="M234 893c13 0 18 10 18 19 0 10-5 20-18 20h-1q-8 0-13-5-5-6-5-13-1-6 2-13 5-6 12-7zm0-1-5 1c-23 4-19 40 4 40h1c26 0 26-41 0-41" class="cls-4"/><path d="M1178 298c32 7 33-42 4-39-22 1-26 35-4 39" class="cls-4"/><path d="M1184 259c13 0 19 10 19 20 0-10-6-20-19-20m19 20c0 10-6 20-19 20 13 0 19-10 19-20" class="cls-4"/><path d="M1021 1051c-30 5-13 54 15 36 18-11 7-40-15-36" class="cls-4"/><path d="M1025 1052q16 2 19 14 3 11-8 21l-12 3c-10 0-17-10-18-19 0-8 3-17 15-19zm0-1h-4c-26 4-17 40 3 40s8-1 12-4c17-10 9-36-11-36Z" class="cls-4"/><path d="M1179 893c-28 4-16 51 14 37 20-9 10-41-14-37" class="cls-4"/><path d="M1183 894q16 2 19 15c2 6 0 16-10 20q-5 3-10 3-9-1-12-6-4-5-6-13c0-7 3-17 15-19zm0-1h-4c-24 4-18 40 3 40s7-1 11-3c19-9 11-37-10-37Z" class="cls-4"/><path d="M1034 138c21-10 11-41-13-37-28 4-16 51 13 37" class="cls-4"/><path d="M1025 101c11 0 17 8 19 16q3 11-10 20-5 3-10 2-9-1-12-5-4-6-6-13c0-8 3-18 15-19zm0-1-4 1c-24 4-18 39 3 39s7 0 11-2c19-9 11-38-10-38Z" class="cls-4"/><path d="M149 457c30 7 35-40 5-40-24 0-26 35-5 40" class="cls-4"/><path d="M154 417v1q9 0 14 6 6 5 5 13c0 9-6 19-18 19s-4 0-6-1c-10-2-14-12-13-20s6-17 18-17zm0 0c-24 0-26 35-5 40h6c24 0 27-40-1-40" class="cls-4"/><path d="M555 60c22-5 18-38-5-39-30 0-25 46 5 39" class="cls-4"/><path d="M550 21c-14 0-20 10-20 20 0-10 6-20 20-20m-20 20c0 10 7 20 19 20-12 0-19-10-19-20" class="cls-4"/><path d="M149 735c-22 4-18 43 9 38 25-4 21-44-9-38" class="cls-4"/><path d="M155 735c12 0 18 9 18 17q2 7-3 13-4 6-12 7l-4 1c-11 0-17-9-18-17q0-7 3-13t10-7zm0-1-6 1c-21 4-18 39 5 39s3 0 4-1c23-3 22-39-3-39Z" class="cls-4"/><path d="M1260 457c30 4 31-46-3-39-18 4-19 36 3 39" class="cls-4"/><path d="M1264 418c12 0 19 9 19 19 0-10-7-19-19-19m19 19c0 10-7 20-19 20 12 0 19-10 19-20" class="cls-4"/><path d="M881 26c-18-17-46 11-29 29 20 19 48-10 29-29" class="cls-4"/><path d="M868 22q6 0 12 5 9 9 5 20-6 12-18 13c-12 1-10-2-14-6q-8-8-4-19 6-12 19-13m0-1c-16 0-29 20-16 34q8 6 14 6c16 0 29-20 15-35q-6-5-13-5Z" class="cls-4"/><path d="M852 1164c20 19 48-10 29-29-19-17-46 11-29 29" class="cls-4"/><path d="M868 1131q6 0 12 5 9 9 5 20-6 13-18 13c-12 0-10-2-14-6q-8-8-4-19 6-12 19-13m0-1c-16 0-29 20-16 34q8 6 14 6c16 0 29-21 15-35q-6-6-13-5Z" class="cls-4"/><path d="M536 1135c-19 19 9 48 28 29 18-18-10-46-28-29" class="cls-4"/><path d="M549 1131q12 1 19 13 3 11-4 19-6 6-14 6-12 0-18-13-4-11 5-20 5-5 12-5m0-1q-7 0-13 5c-15 14-1 35 14 35s10-2 14-6c14-14 0-34-15-34Z" class="cls-4"/><path d="M1257 735c-21 4-16 42 10 38 25-3 20-44-10-38" class="cls-4"/><path d="M1263 735c12 0 18 9 19 18 0 8-4 18-16 19l-3 1q-8 0-13-6-5-5-5-12-1-7 2-12 4-6 10-7zm0-1-6 1c-21 4-17 39 6 39s2 0 3-1c24-3 21-39-3-39Z" class="cls-4"/><path d="M467 59c28 6 30-43-2-35-16 3-17 31 2 35" class="cls-4"/><path d="M471 23c12 0 17 9 17 18 1-9-5-18-17-18m17 18c0 9-6 19-17 19 12 0 17-10 17-19" class="cls-4"/><path d="M158 376c22-3 17-38-5-36-24 2-21 40 5 36" class="cls-4"/><path d="M155 341q16 2 16 17 1 6-2 11-4 5-11 6h-3c-12 0-17-8-17-16-1-8 4-17 15-18zm0-1h-2c-23 2-21 36 2 36s2 0 3 0c22-3 17-36-3-36Z" class="cls-4"/><path d="M152 815c-21 3-21 33-1 36 30 3 26-40 1-36" class="cls-4"/><path d="M155 814c11 0 17 10 17 19 0-9-6-19-17-19m17 19c0 9-5 18-17 18 12 0 17-9 17-18" class="cls-4"/><path d="M467 1132c-20 4-19 35 3 36 27 0 23-41-4-36" class="cls-4"/><path d="M471 1132c11 0 17 9 17 18 1-9-5-18-17-18m18 18c0 9-6 18-18 18 12 0 18-9 18-18" class="cls-4"/><path d="M941 1132c-20 5-16 40 8 35 25-4 16-40-8-35" class="cls-4"/><path d="M946 1133q7 0 12 5 4 5 5 11 0 6-3 11t-11 6l-4 1q-6 0-11-5-4-4-5-10l3-12q3-5 9-7zm0-1h-5c-18 4-17 36 4 36s3-1 4-1c23-4 17-35-3-35" class="cls-4"/><path d="M949 58c25-4 16-40-8-34-20 4-16 39 8 34" class="cls-4"/><path d="M946 24q7 0 12 5 4 5 5 11 0 6-3 11t-11 6l-4 1q-6 0-11-5-4-3-5-10l3-12q3-5 9-7zm0-1h-5c-18 5-17 36 4 36s3 0 4-1c23-4 17-35-3-35" class="cls-4"/><path d="M1276 371c16-16-7-42-25-26-18 15 7 43 25 26" class="cls-4"/><path d="M1263 341q11 1 16 11 4 11-4 19-5 4-11 4-11-1-17-12-4-11 5-18 5-4 11-4m0-1q-6 0-12 5c-14 12-2 31 13 31s8-1 12-5c13-12 1-31-13-31Z" class="cls-4"/><path d="M1263 815c-24 0-23 35 0 36 23 0 24-37 0-36" class="cls-4"/><path d="M1263 815c12 0 18 9 18 18 0-9-6-18-18-18m18 18c0 9-6 18-18 18 12 0 18-9 18-18" class="cls-4"/><path d="M236 216c21-3 18-38-7-33-21 4-14 37 7 33" class="cls-4"/><path d="M234 184q15 2 15 14 0 5-3 11-3 4-10 6h-3q-14-1-16-15c0-6 2-14 12-16zm0-1h-6c-19 4-13 33 5 33s2 0 3 0c20-3 19-33-2-33" class="cls-4"/><path d="M318 136c19-4 14-36-8-33-21 4-18 38 8 33" class="cls-4"/><path d="M313 104c10 0 15 8 15 15q2 12-11 16l-5 1q-15-2-15-14 0-6 3-11 4-6 10-7zm0-1h-3c-20 3-19 34 2 34s4 0 6-1c18-3 14-33-5-33Z" class="cls-4"/><path d="M298 1062c-11 18 14 35 27 21 16-18-13-43-27-21" class="cls-4"/><path d="M312 1055q10 1 16 10 3 6-4 17-5 5-11 5-10-1-15-9-3-7 1-15 7-9 13-8m0-1q-8 0-14 8c-8 13 3 26 15 26s8-2 12-5c12-13 0-29-13-29" class="cls-4"/><path d="M1107 136c22-2 16-35-5-33-22 3-19 37 5 33" class="cls-4"/><path d="M1104 104q9 1 11 5 4 5 5 11c0 6-3 14-13 16h-3c-10 0-15-8-16-15 0-7 4-16 14-17zm0-1h-2c-21 3-19 34 2 34s2 0 3-1c21-2 16-33-3-33" class="cls-4"/><path d="M1102 1054c-21 2-19 36 5 33 22-3 16-35-5-33" class="cls-4"/><path d="M1104 1055q9 0 11 5 4 4 5 11c0 6-3 14-13 15h-3q-15-2-16-14-1-14 14-17zm0-1h-2c-20 2-19 33 2 33s2 0 3 0c21-3 16-33-3-33" class="cls-4"/><path d="M222 978c-19 17 13 45 26 22 10-17-12-33-26-22" class="cls-4"/><path d="M233 976q8 0 14 8 5 8 0 16-6 8-13 8-12-1-16-12c-1-4-2-10 5-17zm1-1q-6 0-11 4c-14 12-1 30 12 30s10-3 14-9c7-13-4-25-15-25" class="cls-4"/><path d="M1192 185c-18-11-34 14-21 27 18 16 43-13 21-27" class="cls-4"/><path d="M1183 183q5 0 8 3 11 6 8 17-4 11-16 12c-12 1-8-1-11-4q-8-7-3-17 4-11 14-11m0-1c-13 0-23 19-12 30q6 4 12 4c14 0 26-20 9-31z" class="cls-4"/><path d="M1179 976c-23 4-11 43 13 30 16-8 7-35-13-30" class="cls-4"/><path d="M1183 976q13 2 16 12t-8 17l-8 3c-9 0-14-8-15-15q0-6 2-10 3-5 9-6zm0-1-4 1c-19 4-13 33 4 33s5-1 9-3c15-8 8-31-9-31Z" class="cls-4"/><path d="M69 581c-16 4-12 34 9 30 19-4 15-36-9-30" class="cls-4"/><path d="M75 581c9 0 14 7 14 13q0 6-2 10-3 5-9 6h-4q-12-1-13-13c-1-6 1-14 8-15zm0-1-6 1c-15 4-12 30 6 30s2 0 3 0c18-4 15-31-3-31" class="cls-4"/><path d="M1337 581c-15 3-14 29 4 30 22 2 22-36-4-30" class="cls-4"/><path d="M1342 580c10 0 15 8 15 15 0-7-5-15-15-15m15 15c0 8-5 16-14 16 9 0 14-8 14-16" class="cls-4"/><path d="M163 292c19-13-3-39-19-25-13 12 2 35 19 25" class="cls-4"/><path d="M154 264q11 1 14 12 3 9-6 15-4 3-8 3-10 0-13-10-3-9 4-16 3-4 9-4m0-1q-5 1-10 4c-11 10-2 28 10 28s6-1 8-3c16-10 5-29-8-29" class="cls-4"/><path d="M400 28c-16-10-32 12-19 24 15 16 38-11 19-24" class="cls-4"/><path d="M392 27q4 0 7 2 9 6 7 15-4 11-15 12c-11 1-7-2-10-5q-6-6-3-15 4-9 14-9m0-1c-13 0-22 16-11 26q5 5 10 5c13 0 24-19 9-29q-5-2-8-2Z" class="cls-4"/><path d="M72 659c-19 3-15 36 8 30 16-4 11-33-8-30" class="cls-4"/><path d="M75 660q12 2 14 14 1 11-10 14l-4 1c-9 0-14-7-14-13q-1-12 11-16zm0-1h-3c-18 3-16 31 3 31s3 0 5-1c16-3 12-30-5-30Z" class="cls-4"/><path d="M152 897c-19 3-16 36 7 30 17-3 12-33-7-30" class="cls-4"/><path d="M155 898q12 2 13 14 2 11-9 14l-4 1c-9 0-14-7-14-13q-2-12 11-16zm0-1h-3c-18 3-16 31 3 31s3 0 4-1c16-3 12-30-4-30" class="cls-4"/><path d="M72 531c24 4 23-32 1-30-18 1-18 28-1 30" class="cls-4"/><path d="M75 501c10 0 15 8 15 16 0-8-5-16-15-16m15 16c0 7-5 15-15 15 10 0 15-8 15-15" class="cls-4"/><path d="M1026 56c20 0 18-35-5-30-16 4-15 30 5 30" class="cls-4"/><path d="M1025 27q6 0 10 4 3 4 4 10 0 12-13 14-14-1-15-12 0-6 2-10t8-6zm0-1h-4c-15 4-15 30 4 30h1c19 0 18-30-1-30" class="cls-4"/><path d="M388 1135c-17 4-14 29 3 30 23 0 19-35-3-30" class="cls-4"/><path d="M392 1135c9 0 15 8 15 15q-1-14-15-15m15 15q0 14-16 15 16-1 16-15" class="cls-4"/><path d="M1339 531c22 5 25-31 2-30-16 1-19 27-2 30" class="cls-4"/><path d="M1342 501c10 0 15 8 15 15 0-7-5-15-15-15m15 15c0 8-5 16-14 16 9 0 14-8 14-16" class="cls-4"/><path d="M1263 294c22 0 19-35-4-30-15 4-15 30 4 30" class="cls-4"/><path d="M1263 264q15 1 15 15 0-13-15-15m15 15q0 14-15 15 15-1 15-15" class="cls-4"/><path d="M1021 1135c-15 3-15 28 2 29 25 2 21-34-2-29" class="cls-4"/><path d="M1025 1135q15 2 15 15 0-13-15-15m15 15q0 12-16 14 16-2 16-14" class="cls-4"/><path d="M1342 660c-23-1-18 36 5 29 16-5 12-29-5-29" class="cls-4"/><path d="M1342 660q-15 2-15 14c0-7 5-15 15-15m-15 14q0 14 14 16c-9 0-14-8-14-16" class="cls-4"/><path d="M1263 898c-17 0-21 24-5 29 23 7 28-30 5-29" class="cls-4"/><path d="M1263 898q15 2 15 14c0-7-5-15-15-15m15 14c0 8-5 16-14 16 9 0 14-8 14-16" class="cls-4"/><path d="M77 451c18-2 15-32-7-27-15 3-11 30 7 27" class="cls-4"/><path d="M75 424q12 2 13 12 1 11-11 14h-2q-12-2-13-12 0-11 9-13zm0-1-5 1c-14 3-11 28 5 28l2-1c16-2 15-28-2-28Z" class="cls-4"/><path d="M64 763c13 14 33-5 21-19-11-14-34 6-21 19" class="cls-4"/><path d="M76 741q5 0 9 4 5 6 2 13-5 9-13 9c-8 0-6-2-9-5q-6-8-3-12 4-9 14-10m0 0c-11 0-22 13-12 23q5 5 10 5c11 0 20-13 11-24q-4-4-9-4Z" class="cls-4"/><path d="M1341 451c21 1 19-32-2-27-15 3-14 26 2 27" class="cls-4"/><path d="M1343 423q13 2 13 14 0-12-14-14m13 14q0 12-14 14 14-2 14-14" class="cls-4"/><path d="M1339 740c-14 3-14 27 3 27 20 0 17-31-3-27" class="cls-4"/><path d="M1343 741q11 1 11 13 0 5-3 8-3 4-9 4-12-1-12-11-2-10 9-14zm0-1h-4c-14 3-14 27 3 27 18 0 17-27 0-27Z" class="cls-4"/><path d="M237 132c15-5 10-29-8-23-12 3-9 28 8 23" class="cls-4"/><path d="M234 109q10 2 11 9 0 9-8 13l-4 1c-6 0-9-6-10-10q-1-9 6-12zm0-1-5 1c-11 3-9 23 4 23s3 0 5 0c12-4 10-24-4-24" class="cls-4"/><path d="M225 1080c11 10 28-6 17-18-10-11-29 7-17 18" class="cls-4"/><path d="M234 1060q5 0 8 3 5 8 2 12-3 7-11 7c-8 0-5-1-7-3q-6-7-3-11 4-8 11-8m0-1c-9 0-18 12-9 21q4 3 8 3c9 0 18-11 10-20q-4-4-9-4" class="cls-4"/><path d="M1174 1062c-10 12 6 28 18 18 11-11-7-29-18-18" class="cls-4"/><path d="M1182 1060q8 0 12 8 2 4-3 11-3 3-7 3-8 0-11-7-3-6 2-12 3-3 7-3m0-1-8 3c-8 9 0 21 10 21s5-1 8-3c9-9 0-21-10-21" class="cls-4"/><path d="M1185 132c17-3 11-28-6-23-13 4-9 26 6 23" class="cls-4"/><path d="M1183 109q9 0 11 10 1 8-9 12h-2q-9-2-10-9-1-9 6-12zm-1-1-4 1c-12 3-9 23 3 23s2 0 3 0c15-3 12-24-2-24Z" class="cls-4"/><path d="M72 821c-12 3-12 23 2 23 17 1 16-26-2-23" class="cls-4"/><path d="M75 821q11 2 11 12 0-11-11-12m11 12q0 10-11 11 11-1 11-11" class="cls-4"/><path d="M69 368c22 7 22-25 3-21-11 2-12 18-3 21" class="cls-4"/><path d="M75 347q11 1 11 11 0-11-11-12m11 11q0 10-11 11 11-1 11-11" class="cls-4"/><path d="M1337 368c20 9 22-25 3-21-10 2-13 17-3 21" class="cls-4"/><path d="M1343 347q10 1 10 11 0-10-10-11m10 11q0 10-10 11 10-1 10-11" class="cls-4"/><path d="M1340 821c-10 2-13 17-3 21 20 9 22-24 3-21" class="cls-4"/><path d="M1343 821q10 2 10 11 0-9-10-11m10 11q0 10-10 12 10-2 10-12" class="cls-4"/><path d="M315 52c14-2 11-27-7-22-11 4-8 25 7 22" class="cls-4"/><path d="M313 31q9 1 10 9 1 9-9 11l-2 1q-7 0-9-9-1-8 6-12zm0-1h-5c-10 4-8 23 4 23l3-1c13-2 11-22-2-22" class="cls-4"/><path d="M157 211c14-3 10-28-7-22-11 3-8 24 7 21" class="cls-4"/><path d="M155 189q9 2 9 9 1 8-8 12h-2q-7 0-9-9-2-8 5-12zm0-1-5 1c-10 3-8 22 4 22l3-1c12-2 11-22-2-22" class="cls-4"/><path d="M305 1158c10 10 25-5 16-16s-27 6-16 16" class="cls-4"/><path d="m314 1140 6 3q4 5 2 11-3 6-10 6c-7 0-4-1-6-2q-6-7-3-11 3-6 11-7m0-1c-9 0-18 11-9 19q4 3 7 3c9 0 16-11 9-19q-3-3-8-3" class="cls-4"/><path d="M1112 49c11-10-7-27-16-16s5 26 16 16" class="cls-4"/><path d="M1103 31q8 1 11 7 2 4-3 11l-7 2q-5 0-9-6-3-6 2-11 2-3 6-3m0-1q-3 0-7 3c-7 9 0 19 8 19s5-1 8-3c8-8 0-19-9-19" class="cls-4"/><path d="M154 1003c10 0 15-12 9-19-13-15-31 17-9 19" class="cls-4"/><path d="M155 981q4 0 7 4 4 5 1 11-2 6-8 6h-1q-10-2-9-9c0-5 4-12 10-12m0-1c-11 0-19 22-1 23h1c9 0 14-12 8-19q-4-4-8-4" class="cls-4"/><path d="M1263 210c15 1 13-25-3-21-12 2-9 21 3 21" class="cls-4"/><path d="M1263 188q11 2 11 12 0-10-11-12m11 12q0 9-11 10 11-1 11-11" class="cls-4"/><path d="M1101 1139c-9 3-10 18-2 21 21 6 20-26 2-21" class="cls-4"/><path d="M1105 1139q10 1 10 11 0-10-10-11m10 11q0 9-11 11 11-2 11-11" class="cls-4"/><path d="M1260 981c-13 3-9 26 8 21 10-3 6-24-8-21" class="cls-4"/><path d="M1263 982q8 1 9 9 2 6-4 10h-5q-9-1-10-9 0-7 7-10zm0-1h-3c-12 3-10 21 3 21s3 0 5 0c9-3 7-21-5-21" class="cls-4"/><path d="M74 286c9 1 11-9 6-13-10-9-22 13-6 13" class="cls-4"/><path d="M75 272q3 0 5 2 3 2 1 7-1 4-6 4h-1q-6 0-6-5 1-8 7-8m0-1c-8 0-14 15-1 16 9 0 11-10 6-14q-2-2-5-2" class="cls-4"/><path d="M1348 285c7-7-4-19-11-12-9 7 4 19 11 12" class="cls-4"/><path d="M1341 272q6 0 8 5 2 3-1 7l-5 2q-5 0-8-5-1-3 2-7 2-2 4-2m0-1q-2 0-4 2c-7 5-1 14 6 14s4-1 5-2c6-6 0-14-7-14" class="cls-4"/><path d="M74 905c-16 0-3 23 6 14 4-4 3-14-6-14" class="cls-4"/><path d="M75 906q5 1 6 4 2 5-1 8l-5 2q-6-1-8-9 0-5 7-5zm0-1zc-13 0-7 16 1 16s4-1 5-2c5-4 3-14-5-14" class="cls-4"/><path d="M1339 906c-8 2-4 19 7 14 8-5 3-18-8-14" class="cls-4"/><path d="M1342 906q6 1 7 6 2 4-4 7l-3 1q-6-1-6-7-1-4 3-7zm0-1-4 1c-6 2-4 15 4 15s2-1 4-1c7-4 4-15-4-15" class="cls-4"/><path d="M0 589c-10-8-19 15-4 14 7 0 10-10 4-14" class="cls-4"/><path d="M1427 601c9-10-12-20-14-6 0 7 10 10 14 6" class="cls-4"/><path d="M1420 589q5 0 8 5 1 3-2 6l-4 2-6-2-2-4q2-8 6-7m0-1q-5 0-7 7 1 8 9 8c8 0 3-1 5-2 6-6-1-13-7-13" class="cls-4"/><path d="M-8 523c14 4 14-17 1-14-5 2-7 12-1 14" class="cls-4"/><path d="M-4 509q7 1 7 7 0-6-7-7m7 7q0 7-7 7 7 0 7-7" class="cls-4"/><path d="M-7 667c-11 4 0 23 8 11 5-6-1-12-8-11" class="cls-4"/><path d="M-5 668q4 1 7 4 1 3-1 6l-6 3q-4-1-6-6-1-3 5-7zm0-1h-2c-9 3-4 15 2 15s5-1 7-4c4-5-1-11-7-11" class="cls-4"/><path d="M1425 522c7-6-2-17-9-11-5 5 1 17 9 11" class="cls-4"/><path d="M1421 510q3 0 5 5 2 2-2 6l-3 1q-3 0-5-4-2-3 1-7zm0-1-5 2c-4 4-1 12 5 12s3 0 4-1c6-5 1-13-5-13Z" class="cls-4"/><path d="M1420 667c-7 2-8 16 2 14 8-1 6-16-2-14" class="cls-4"/><path d="M1421 668q5 1 5 6 1 5-4 6h-1q-6-1-6-4 0-5 5-8zm0-1h-1c-7 2-8 14 1 14h1c8-1 7-14-1-14" class="cls-4"/><path d="M709 1407q-158 0-301-27-139-25-246-72-106-47-164-107-59-60-59-127c0-67 20-87 59-128q58-60 164-107 107-47 246-72a1665 1665 0 0 1 602 0q138 26 245 72 107 47 165 107 59 62 59 128c0 66-20 87-59 127q-59 60-165 107-107 47-245 72-145 27-301 27" style="fill:url(#_名称未設定グラデーション_214)"/><path d="M709 747q157 0 300 26 137 25 244 72 51 23 93 50 40 26 69 55 57 60 57 124c0 64-19 83-57 123q-28 29-69 56-42 26-93 49-107 47-244 72a1652 1652 0 0 1-600 0q-138-26-244-72-52-23-93-49-41-27-70-56-57-60-57-123c0-63 19-84 57-124q29-29 70-55 41-27 93-50 106-47 244-72 143-26 300-26m0-13c-429 0-777 152-777 340s348 340 777 340 776-153 776-340-347-340-776-340" style="fill:#424242"/><path d="M464 347h474v523H464z" style="fill:none"/><ellipse cx="695.1" cy="821.1" rx="158.2" ry="77.2" style="fill:#a56416"/></svg>