<?xml version="1.0" encoding="UTF-8"?><svg id="_1" xmlns="http://www.w3.org/2000/svg" viewBox="0 0 419.1307 461.9622"><defs><style>.cls-1{fill:#575959;}.cls-2{fill:#e2e2e1;}.cls-3{fill:#b7d99b;}</style></defs><path class="cls-2" d="M209.5654,454.4624c-111.4194,0-202.0654-100.2534-202.0654-223.4814S98.146,7.5,209.5654,7.5s202.0654,100.2529,202.0654,223.481-90.646,223.4814-202.0654,223.4814Z"/><path class="cls-1" d="M209.5654,15c26.0851,0,51.3975,5.6345,75.2343,16.7469,23.1369,10.7861,43.9434,26.2577,61.8416,45.985,17.9932,19.8319,32.1295,42.951,42.0165,68.7151,10.2671,26.7547,15.4729,55.1961,15.4729,84.5341s-5.2058,57.7794-15.4729,84.5341c-9.887,25.7641-24.0233,48.8832-42.0165,68.7151-17.8982,19.7273-38.7047,35.1989-61.8416,45.985-23.8368,11.1124-49.1492,16.7469-75.2343,16.7469s-51.3976-5.6345-75.2344-16.7469c-23.1368-10.7861-43.9434-26.2577-61.8416-45.985-17.9932-19.8319-32.1295-42.951-42.0165-68.7151-10.2671-26.7547-15.4729-55.1961-15.4729-84.5341s5.2058-57.7794,15.4729-84.5341c9.887-25.7641,24.0233-48.8832,42.0165-68.7151,17.8982-19.7273,38.7048-35.1989,61.8416-45.985,23.8368-11.1124,49.1493-16.7469,75.2344-16.7469M209.5654,0C93.8256,0,0,103.4138,0,230.9811s93.8256,230.9811,209.5654,230.9811,209.5653-103.4138,209.5653-230.9811S325.3051,0,209.5654,0h0Z"/><path class="cls-3" d="M31.7134,199.1885c-2.916-.0024-9.8262-1.3911-11.0107-14.207-1.5493-16.7617,6.292-45.2124,19.0684-69.1865,16.5239-31.0059,38.8506-50.5581,62.8667-55.0547,1.1538-.2158,2.3242-.3257,3.479-.3257,5.9346,0,11.5542,2.9258,15.0332,7.8257,3.5225,4.9619,4.3877,11.1133,2.374,16.877-10.792,30.8906-12.8008,48.4463-14.1304,60.064-2.6973,23.5728-5.3022,24.6108-48.8203,41.9565-5.1558,2.0547-10.9253,4.3545-17.3862,6.9624-.7192.291-1.4321.708-2.1182,1.2393-3.3384,2.5898-6.397,3.8491-9.3477,3.8491h-.0078Z"/><path class="cls-1" d="M106.1165,65.4147c9.0259,0,15.8316,9.0529,12.6872,18.0534-32.7945,93.8689,13.8775,69.1104-77.488,105.996-1.1861.4788-2.2997,1.1405-3.3104,1.9244-2.4716,1.917-4.562,2.8002-6.2882,2.8002-19.8139,0,8.8548-116.7406,71.841-128.5338.868-.1625,1.7225-.2401,2.5585-.2401M106.1165,55.4147c-1.4629,0-2.9429.1383-4.3991.4109-14.0356,2.6279-27.3116,9.7844-39.4592,21.2706-10.0717,9.5233-19.1241,21.7575-26.9058,36.3629-13.1928,24.7613-21.2637,54.3703-19.6271,72.0038,1.6126,17.3753,12.6479,18.7256,15.9917,18.7256,4.1056,0,8.1672-1.6023,12.4169-4.8984.3164-.2454.6363-.4367.9252-.5533,6.448-2.6031,12.2483-4.915,17.3657-6.9547,23.3276-9.298,33.9745-13.5416,40.9016-19.2829,8.8096-7.3016,9.7916-15.8841,11.0349-26.75,1.304-11.3966,3.2748-28.6193,13.8828-58.9832,2.5549-7.3131,1.4553-15.1204-3.017-21.4202-4.4147-6.2187-11.5589-9.9313-19.1106-9.9313h0Z"/><path class="cls-3" d="M365.541,331.2495c-3.1626-.0005-6.5381-.4141-10.0444-1.2305-.6704.0415-1.3271.062-1.9604.062-6.4438,0-11.3223-2.1201-14.5005-6.3018-7.9707-10.4883-2.3735-30.6284,4.1079-53.9482,5.1738-18.6162,11.0381-39.7158,7.6499-51.8008-.0698-.2485-.1201-.5029-.1504-.7593-.856-7.2002,1.7109-11.8042,4.0146-14.3979,3.8984-4.3892,10.3511-6.8066,18.1694-6.8066,12.0386,0,24.4341,5.3359,30.8442,13.2773,4.0488,5.0161,5.5474,10.7837,4.3418,16.6943-.6602,5.3857-1.0415,12.4277-1.4453,19.8779-1.8418,33.9795-4.6299,85.3335-41.0249,85.3335-.002,0,.0005,0-.002,0Z"/><path class="cls-1" d="M372.8271,201.0665c14.8285.0011,33.3231,9.9133,30.2495,24.1502-3.7042,29.681,1.4683,101.0329-37.5355,101.0329-2.9499,0-6.1539-.4084-9.632-1.2737-.8296.0708-1.619.1055-2.3727.1055-35.2464,0,11.1059-76.1763,2.0714-108.4005-1.3077-11.0018,7.1018-15.6151,17.2194-15.6143M372.8279,191.0665c-.0009,0,.0008,0,0,0-9.2665-.0007-17.0469,3.0127-21.9077,8.4851-2.985,3.3605-6.3176,9.265-5.2425,18.3095.061.5134.1618,1.0214.3014,1.5192,3.0112,10.7405-2.6544,31.1262-7.653,49.112-6.8375,24.6021-12.7425,45.8493-3.271,58.3123,2.8695,3.7758,8.4051,8.2766,18.4813,8.2766.4999,0,1.0108-.0111,1.5296-.0331,3.6296.7977,7.1462,1.2014,10.4751,1.2014,10.2668,0,19.0004-3.6872,25.9583-10.9592,5.5189-5.7681,9.7132-13.572,12.8225-23.8575,5.1709-17.1052,6.3173-38.2537,7.2384-55.2468.3946-7.2783.7677-14.1624,1.3936-19.3587,1.4118-7.2492-.493-14.5536-5.3911-20.6224-7.3066-9.0531-21.2668-15.1366-34.735-15.1383h0Z"/><path class="cls-3" d="M360.8193,147.5225c-5.9868,0-13.541-3.3516-21.5391-6.8999-6.6313-2.9419-14.1475-6.2764-18.3809-6.2764-.312,0-.5918.0195-.8325.0581-.2427.0391-.4883.0601-.7344.0625l-.5557.0034c-25.7368,0-29.9985-20.5757-33.4233-37.1084-1.146-5.5312-2.3296-11.2466-4.1729-16.0801-7.3462-12.7012-9.1958-21.874-5.6567-28.0356,1.7734-3.0874,5.7305-6.7681,14.5122-6.7681,17.1011,0,46.0327,14.1992,57.1924,23.772.1499.1284.2915.2656.4253.4106,9.6353,10.4785,17.5889,29.9932,23.6396,58.0015,1.4331,7.0752.8452,11.8687-1.8369,15.1479-1.3848,1.6934-4.0083,3.7124-8.6367,3.7124h-.0005Z"/><path class="cls-1" d="M290.0363,51.4781c15.656,0,43.2686,13.4158,53.9367,22.5666,11.8595,12.8975,18.7647,38.6929,22.4331,55.673,1.9426,9.5937-.6628,12.8048-5.5867,12.8048-9.9741,0-29.4588-13.1764-39.9201-13.1764-.5683,0-1.1117.039-1.6238.1211-.168.0019-.3325.0029-.4984.0029-29.378,0-25.171-30.1687-33.0748-50.3587-12.0406-20.6417-6.9711-27.6333,4.334-27.6333M290.0363,41.4781c-11.1738,0-16.4171,5.0453-18.8482,9.2778-5.8943,10.262.1314,23.4092,5.4578,32.6716,1.6206,4.3714,2.6863,9.5164,3.8115,14.9481,1.88,9.0762,3.8241,18.4614,8.824,26.2184,6.3625,9.871,16.2863,14.8761,29.4957,14.8761.2039,0,.406-.0012.6125-.0035.4776-.0054.9542-.0451,1.4261-.1186.0152-.0008.0429-.0019.0837-.0019,3.1743,0,10.7913,3.3793,16.3529,5.8468,8.496,3.7693,16.5209,7.3296,23.5672,7.3296,6.5881,0,10.4382-3.0169,12.508-5.5477,5.4313-6.6413,3.5109-16.1252,2.8798-19.2417-.0086-.0424-.0175-.0847-.0266-.127-6.3292-29.2966-14.4566-49.0307-24.8466-60.33-.267-.2904-.5509-.5647-.8504-.8215-11.592-9.9433-41.6132-24.9764-60.4473-24.9764h0Z"/><path class="cls-3" d="M210.8569,151.7944c-6.3521,0-13.2026-1.5386-19.8281-3.0264-5.627-1.2642-10.9419-2.4575-14.9561-2.4575,0,0-.1494.0005-.1602.0005-.5,0-.9971-.0752-1.4746-.2227-13.8286-4.2686-10.895-18.4976-9.1421-26.9995.333-1.6152.6489-3.1489.8657-4.5312-.1479-9.3076,2.1602-16.4673,6.8633-21.2847,4.7319-4.8477,11.5869-7.2041,20.9561-7.2041,7.9609,0,16.7329,1.7085,24.4727,3.2158,1.3267.2588,2.6333.5132,3.9111.7544,5.52.9531,9.6392,3.4136,12.166,7.2998,4.9399,7.5972,2.2617,18.2358-.1011,27.6226-.9761,3.8774-1.8984,7.5396-2.1045,10.3115-.021.2822-.0664.5625-.1348.8374-1.7827,7.1548-6.9312,15.6841-21.3335,15.6841Z"/><path class="cls-1" d="M193.9813,91.0688c8.7804,0,18.7769,2.2447,27.4559,3.8833,19.6588,3.3968,6.8567,27.127,5.9016,39.9491-2.2906,9.1935-8.6548,11.8933-16.482,11.8933-11.1522,0-25.2691-5.484-34.7841-5.484-.0526,0-.1075.0002-.1598.0005-11.5203-3.556-6.0869-17.1924-4.744-26.4272-.456-18.9297,9.8555-23.8149,22.8124-23.8149M193.9813,81.0688c-10.7866,0-18.8119,2.8496-24.5344,8.7116-5.588,5.7242-8.375,13.9312-8.2903,24.4041-.1964,1.1711-.4706,2.501-.7579,3.8943-1.007,4.8845-2.1484,10.4207-1.4921,15.9079,1.0044,8.3969,5.9966,14.3914,14.0567,16.8794.9554.2949,1.9497.4448,2.9493.4448.0228,0,.0456,0,.0684-.0002l.0914-.0003c3.4597,0,8.747,1.1875,13.8604,2.3359,6.8914,1.5477,14.0174,3.1481,20.9238,3.1481,18.5615,0,24.3731-12.2021,26.1854-19.4756.1369-.5496.2269-1.1099.269-1.6748.1744-2.341,1.0858-5.9611,1.9671-9.462,2.4834-9.8647,5.5741-22.1418-.5556-31.5686-2.2726-3.4951-6.8053-7.9746-15.4985-9.5006-1.2468-.2356-2.5211-.4839-3.815-.7359-7.9613-1.5506-16.9848-3.3081-25.4279-3.3081h0Z"/><path class="cls-3" d="M99.3848,404.8354c-3.5737-.001-7.3364-1.9111-11.8276-6.0078-43.0786-32.811-59.8125-68.3398-48.4028-102.7695,2.0054-7.0391,6.9307-7.8032,8.9644-7.8032,7.4692,0,15.6465,8.9321,28.3696,23.5054,6.6724,7.6421,16.7554,19.1909,20.7993,20.0605.5781.124,1.1299.3501,1.6294.667,17.0664,10.8359,14.8384,23.937,12.6836,36.6069-.6631,3.8999-1.3486,7.9307-1.5405,12.0923.5244,10.8472-.7495,17.2744-4.123,20.8218-1.7583,1.8491-4.0234,2.8267-6.5503,2.8267h-.002Z"/><path class="cls-1" d="M48.119,293.2552c10.8067,0,36.4092,40.9371,48.1177,43.454,19.0121,12.0706,9.58,26.2564,8.8181,44.4913.4804,9.516-.3607,18.6347-5.6692,18.6347-2.1049,0-4.9132-1.4351-8.6187-4.8477-30.0078-22.8113-60.2245-57.2678-46.8308-97.4639.8275-2.9921,2.2736-4.2684,4.1829-4.2684M48.119,283.2552c-2.4682,0-10.7011.8224-13.7435,11.3289-6.9138,20.9567-4.2011,42.2313,8.0654,63.234,8.9994,15.4087,23.1006,30.4992,41.9141,44.856,5.4008,4.8831,10.1869,7.1611,15.0306,7.1611,3.875,0,7.4888-1.5564,10.1758-4.3825,4.3615-4.5872,6.0651-12.0811,5.5045-24.2623.1928-3.7828.8387-7.5807,1.4641-11.2579,2.2009-12.9417,4.9399-29.0481-14.9334-41.6655-.921-.5847-1.931-1.0145-2.9897-1.2728-3.5558-1.5747-12.805-12.1688-18.3517-18.5219-14.0608-16.1052-22.4861-25.2171-32.1362-25.2171h0Z"/><path class="cls-3" d="M243.832,442.9849c-3.9814,0-7.7627-.3066-11.2397-.9106-2.6689-.4639-4.9868-2.064-6.3584-4.3906-1.356-2.2998-1.6338-5.0635-.7617-7.583,14.3081-41.3076,34.1987-45.2017,59.3818-50.1318,10.6357-2.082,22.6914-4.4424,36.4561-9.8872,1.0757-.4253,2.2026-.6411,3.3506-.6411,5.0269,0,9.1196,4.0767,9.124,9.0879.0151,17.4604-11.2534,34.1226-31.7295,46.9175-17.3125,10.8184-39.6221,17.5391-58.2197,17.5391h-.0034Z"/><path class="cls-1" d="M324.6607,374.4403c2.1714,0,4.1222,1.7461,4.1241,4.0924.0292,34.5232-50.0572,59.4525-84.9528,59.4525-3.6514,0-7.1398-.2733-10.3836-.837-2.5187-.4377-4.0877-2.996-3.251-5.4116,19.0971-55.1355,45.6594-38.2979,92.9518-57.0055.5017-.1984,1.0122-.2906,1.5115-.2906M324.6607,364.4403c-1.7803,0-3.5264.3337-5.19.9918-13.3374,5.2759-25.153,7.5891-35.5777,9.6299-12.9716,2.5394-25.2238,4.938-36.0201,12.3981-11.5903,8.0087-20.2094,21.0378-27.1247,41.0034-1.3533,3.9073-.924,8.1929,1.1778,11.7583,2.1177,3.5924,5.6935,6.0631,9.8103,6.7785,3.7599.6534,7.8295.9847,12.0958.9847,19.4835,0,42.8085-7.012,60.8724-18.2996,21.9934-13.743,34.0967-31.9124,34.0804-51.1613-.0065-7.7658-6.3426-14.0839-14.1242-14.0839h0Z"/><path class="cls-3" d="M216.459,339.5015c-13.8018-.0024-27.2393-10.9507-40.2349-21.5386-8.0508-6.5596-15.6548-12.7549-22.2148-15.3706-.1836-.0732-.3633-.1577-.5371-.2524-9.248-5.0303-14.7026-11.5068-16.2129-19.25-3.0972-15.8838,10.8057-32.8164,24.251-49.1914,7.6523-9.3203,14.8804-18.124,17.7505-25.3438.1968-.4937.4702-.9536.8115-1.3613,5.0264-6.0078,11.0669-9.0542,17.9541-9.0542,12.9619,0,26.1084,10.8467,38.8223,21.3364,8.2041,6.769,16.6875,13.7686,23.353,15.9985.208.0698.4116.1528.6084.2495,9.6807,4.7295,15.4536,11.0864,17.1587,18.894,3.5571,16.2871-11.1069,34.1909-25.2881,51.5049-7.4141,9.0518-14.417,17.6021-17.4541,24.4614-.2749.6206-.6729,1.1787-1.1704,1.6406-5.2031,4.8286-11.1226,7.2769-17.5923,7.2769h-.0049Z"/><path class="cls-1" d="M198.0263,203.1389c19.4042,0,42.818,31.131,60.5891,37.0769,41.8011,20.4245-16.5237,62.512-27.9608,88.3439-4.5354,4.209-9.2961,5.9419-14.1945,5.9419-20.1505,0-42.569-29.3647-60.5988-36.5541-40.1861-21.858,17.6524-61.4011,28.046-87.5458,4.3246-5.1694,9.0867-7.2628,14.1189-7.2628M198.0263,193.1389c-5.8006,0-14.2893,1.8817-21.7889,10.8463-.6822.8154-1.2299,1.7343-1.6227,2.7223-2.5825,6.496-9.8961,15.4036-16.9691,24.018-14.1794,17.2697-28.8417,35.1273-25.2937,53.3213,1.809,9.2764,8.1111,16.9089,18.7314,22.6854.3477.1892.7065.3576,1.0742.5042,5.8475,2.3316,13.5034,8.5698,20.9073,14.6025,13.674,11.1417,27.8137,22.6628,43.3953,22.6628,7.7749,0,14.8392-2.8975,20.9969-8.612.9952-.9236,1.7919-2.0401,2.3415-3.2815,2.7627-6.2399,9.8736-14.9217,16.7504-23.3177,14.9348-18.2342,30.3781-37.0892,26.3048-55.7398-2.0476-9.3755-8.7255-16.8849-19.8482-22.3196-.3943-.1927-.8009-.3592-1.2172-.4985-5.7855-1.9357-13.9052-8.635-21.7576-15.1137-13.3951-11.0518-27.2461-22.4799-42.0045-22.4799h0Z"/></svg>