<?xml version="1.0" encoding="UTF-8"?><svg id="_2" xmlns="http://www.w3.org/2000/svg" viewBox="0 0 419.1307 461.9622"><defs><style>.cls-1{fill:#575959;}.cls-2{fill:#e2e2e1;}.cls-3{fill:#edeab5;stroke-width:7px;}.cls-3,.cls-4{stroke:#575959;stroke-linejoin:round;}.cls-5{fill:#b7d99b;}.cls-4{fill:#c6c6c6;stroke-width:10px;}</style></defs><path class="cls-2" d="M209.5656,454.4624c-111.4194,0-202.0654-100.2534-202.0654-223.4814S98.1461,7.5,209.5656,7.5s202.0654,100.2529,202.0654,223.481-90.6465,223.4814-202.0654,223.4814Z"/><path class="cls-1" d="M209.5654,15c26.0851,0,51.3976,5.6345,75.2344,16.7469,23.1368,10.7861,43.9434,26.2577,61.8416,45.985,17.9932,19.8319,32.1295,42.951,42.0165,68.7151,10.2671,26.7547,15.4729,55.1961,15.4729,84.5341s-5.2058,57.7794-15.4729,84.5341c-9.887,25.7641-24.0233,48.8832-42.0165,68.7151-17.8982,19.7273-38.7048,35.1989-61.8416,45.985-23.8368,11.1124-49.1493,16.7469-75.2344,16.7469s-51.3976-5.6345-75.2343-16.7469c-23.1369-10.7861-43.9434-26.2577-61.8417-45.985-17.9931-19.8319-32.1295-42.951-42.0165-68.7151-10.267-26.7547-15.4729-55.1961-15.4729-84.5341s5.2059-57.7794,15.4729-84.5341c9.887-25.7641,24.0234-48.8832,42.0165-68.7151,17.8983-19.7273,38.7048-35.1989,61.8417-45.985,23.8367-11.1124,49.1492-16.7469,75.2343-16.7469M209.5654,0C93.8257,0,0,103.4138,0,230.9811s93.8257,230.9811,209.5654,230.9811,209.5654-103.4138,209.5654-230.9811S325.3051,0,209.5654,0h0Z"/><path class="cls-5" d="M31.7155,199.189c-2.916-.001-9.8267-1.3862-11.0142-14.1978-1.5527-16.7588,6.2871-45.21,19.0649-69.189,16.5249-31.0103,38.8535-50.5649,62.8716-55.062,1.1538-.2158,2.3242-.3257,3.4785-.3257,5.9351,0,11.5552,2.9258,15.0337,7.8262,3.5225,4.9614,4.3872,11.1128,2.3735,16.8765-10.792,30.8901-12.8008,48.4463-14.1299,60.064-2.6973,23.5728-5.3027,24.6108-48.8198,41.9561-5.1567,2.0552-10.9277,4.3555-17.3906,6.9644-.7173.29-1.4272.7051-2.1094,1.2349-3.3413,2.5918-6.4014,3.8525-9.355,3.8525h-.0034Z"/><path class="cls-1" d="M106.1165,65.4146c9.0259,0,15.8315,9.0529,12.6871,18.0533-32.795,93.8704,13.8789,69.1097-77.492,105.9976-1.1833.4777-2.2945,1.1377-3.3028,1.92-2.4721,1.918-4.5653,2.803-6.2919,2.803-19.8185,0,8.8523-116.7402,71.8411-128.5339.868-.1625,1.7224-.2401,2.5585-.2401M106.1165,55.4146c-1.4628,0-2.9429.1383-4.399.4109-14.0356,2.6279-27.3118,9.7841-39.4596,21.2698-10.072,9.523-19.1247,21.7568-26.9066,36.3615-13.1933,24.7606-21.2647,54.3696-19.628,72.0036,1.6128,17.3775,12.6495,18.728,15.9938,18.728,4.1071,0,8.1704-1.6035,12.422-4.9023.313-.2428.6298-.4323.9163-.548,6.4495-2.6037,12.251-4.9161,17.3696-6.9563,23.3276-9.2979,33.9744-13.5415,40.9014-19.2828,8.8096-7.3015,9.7917-15.884,11.035-26.7499,1.3041-11.3966,3.2748-28.6193,13.8829-58.9833,2.5549-7.3131,1.4553-15.1204-3.017-21.4202-4.4147-6.2187-11.5588-9.9313-19.1105-9.9313h0Z"/><path class="cls-5" d="M365.5412,331.2495c-3.1631-.0005-6.5381-.4141-10.0449-1.2305-.6699.0415-1.3262.062-1.96.062-6.4443,0-11.3223-2.1201-14.501-6.3022-7.9707-10.4883-2.373-30.6279,4.1074-53.9478,5.1738-18.6162,11.0381-39.7163,7.6504-51.8008-.0693-.249-.1201-.5029-.1504-.7598-.8555-7.1997,1.7109-11.8037,4.0156-14.3975,3.8984-4.3892,10.3506-6.8066,18.1689-6.8066,12.0381,0,24.4336,5.3359,30.8438,13.2773,4.0488,5.0161,5.5479,10.7832,4.3418,16.6943-.6602,5.3857-1.042,12.4277-1.4453,19.8779-1.8418,33.9795-4.6299,85.3335-41.0244,85.3335h-.002Z"/><path class="cls-1" d="M372.8271,201.0665c14.8285.0011,33.3231,9.9133,30.2495,24.1502-3.7042,29.681,1.4683,101.0329-37.5355,101.0329-2.9499,0-6.1539-.4084-9.632-1.2737-.8296.0708-1.619.1055-2.3727.1055-35.2464,0,11.1059-76.1763,2.0714-108.4005-1.3077-11.0018,7.1018-15.6151,17.2194-15.6143M372.8279,191.0665c-.0009,0,.0008,0,0,0-9.2665-.0007-17.0469,3.0127-21.9077,8.4851-2.985,3.3605-6.3176,9.265-5.2425,18.3095.061.5134.1618,1.0214.3014,1.5192,3.0113,10.7406-2.6544,31.1262-7.653,49.1121-6.8375,24.6021-12.7426,45.8493-3.271,58.3122,2.8695,3.7758,8.4052,8.2766,18.4813,8.2766.4998,0,1.0108-.0111,1.5296-.0331,3.6295.7977,7.1462,1.2014,10.4751,1.2014,10.2668,0,19.0004-3.6872,25.9583-10.9593,5.519-5.7681,9.7132-13.572,12.8226-23.8575,5.1709-17.1053,6.3173-38.2537,7.2384-55.2468.3945-7.2787.7677-14.1628,1.3937-19.3592,1.4113-7.2487-.4934-14.5533-5.3911-20.6218-7.3066-9.0532-21.2668-15.1366-34.735-15.1384h0Z"/><path class="cls-5" d="M360.8195,147.5225c-5.9873,0-13.541-3.3516-21.5391-6.8999-6.6309-2.9419-14.1475-6.2764-18.3809-6.2764-.3115,0-.5918.0195-.833.0581-.2422.0391-.4883.0601-.7334.0625l-.5566.0034c-25.7363,0-29.999-20.5762-33.4229-37.1089-1.1465-5.5312-2.3301-11.2461-4.1729-16.0796-7.3467-12.7012-9.1963-21.874-5.6572-28.0356,1.7734-3.0874,5.7314-6.7681,14.5127-6.7681,17.1006,0,46.0322,14.1992,57.1924,23.772.1494.1284.291.2656.4248.4106,9.6348,10.478,17.5879,29.9922,23.6406,58.001,1.4326,7.0757.8447,11.8691-1.8369,15.1484-1.3857,1.6934-4.0088,3.7124-8.6377,3.7124h0Z"/><path class="cls-1" d="M290.0363,51.4781c15.656,0,43.2686,13.4158,53.9366,22.5666,11.8595,12.8975,18.7648,38.6929,22.4331,55.673,1.9426,9.5937-.6628,12.8048-5.5867,12.8048-9.9741,0-29.4588-13.1764-39.9201-13.1764-.5683,0-1.1117.039-1.6238.1211-.1681.0019-.3325.0029-.4984.0029-29.378,0-25.171-30.1687-33.0748-50.3587-12.0406-20.6417-6.9711-27.6333,4.334-27.6333M290.0363,41.4781c-11.1738,0-16.4171,5.0453-18.8482,9.2778-5.8943,10.262.1314,23.4092,5.4578,32.6716,1.6206,4.3714,2.6863,9.5164,3.8115,14.9481,1.8801,9.0762,3.8241,18.4614,8.8241,26.2184,6.3625,9.871,16.2863,14.8761,29.4957,14.8761.2039,0,.4059-.0012.6125-.0035.4776-.0054.9542-.0451,1.4261-.1186.0151-.0008.0429-.0019.0837-.0019,3.1743,0,10.7912,3.3793,16.3529,5.8468,8.496,3.7693,16.5209,7.3296,23.5672,7.3296,6.5881,0,10.4382-3.0169,12.508-5.5477,5.4313-6.6413,3.5109-16.1252,2.8798-19.2417-.0086-.0424-.0175-.0847-.0266-.127-6.3292-29.2966-14.4566-49.0307-24.8466-60.33-.267-.2904-.551-.5647-.8504-.8215-11.592-9.9433-41.6132-24.9764-60.4473-24.9764h0Z"/><path class="cls-5" d="M210.8571,151.7944c-6.3521,0-13.2026-1.5386-19.8281-3.0264-5.627-1.2642-10.9419-2.4575-14.9561-2.4575,0,0-.1494.0005-.1602.0005-.5,0-.9971-.0752-1.4746-.2227-13.8286-4.2686-10.8955-18.498-9.1426-27,.333-1.6152.6489-3.1484.8657-4.5308-.1475-9.3076,2.1606-16.4673,6.8633-21.2847,4.7324-4.8477,11.5874-7.2041,20.9565-7.2041,7.9609,0,16.7329,1.7085,24.4722,3.2158,1.3271.2588,2.6338.5132,3.9111.7544,5.5205.9531,9.6396,3.4136,12.166,7.2998,4.9404,7.5972,2.2617,18.2363-.1006,27.6226-.9766,3.8774-1.8984,7.54-2.1045,10.3115-.0215.2822-.0664.5625-.1348.8374-1.7822,7.1548-6.9307,15.6841-21.3335,15.6841Z"/><path class="cls-1" d="M193.9813,91.0688c8.7804,0,18.7769,2.2447,27.4559,3.8833,19.6588,3.3968,6.8568,27.127,5.9016,39.9491-2.2906,9.1935-8.6548,11.8933-16.4821,11.8933-11.1522,0-25.2691-5.484-34.7841-5.484-.0526,0-.1075.0002-.1598.0005-11.5202-3.556-6.0869-17.1924-4.744-26.4272-.456-18.9297,9.8555-23.8149,22.8124-23.8149M193.9813,81.0688c-10.7866,0-18.8119,2.8496-24.5344,8.7116-5.588,5.7242-8.375,13.9312-8.2903,24.404-.1964,1.1711-.4706,2.501-.7579,3.8943-1.007,4.8845-2.1484,10.4207-1.4921,15.9079,1.0044,8.3969,5.9965,14.3914,14.0567,16.8794.9555.2949,1.9497.4448,2.9494.4448.0228,0,.0456,0,.0684-.0002l.0914-.0003c3.4596,0,8.747,1.1875,13.8604,2.3359,6.8914,1.5477,14.0173,3.1481,20.9238,3.1481,18.5614,0,24.3731-12.2021,26.1854-19.4756.1369-.5496.2269-1.1099.269-1.6748.1744-2.341,1.0857-5.9611,1.9671-9.462,2.4834-9.8647,5.5741-22.1418-.5556-31.5686-2.2726-3.4951-6.8053-7.9746-15.4984-9.5006-1.2468-.2356-2.521-.4839-3.815-.7359-7.9613-1.5506-16.9848-3.3081-25.4279-3.3081h0Z"/><path class="cls-5" d="M99.3844,404.8354c-3.5737-.001-7.3364-1.9111-11.8276-6.0078-43.0781-32.811-59.812-68.3394-48.4023-102.7695,2.0054-7.0391,6.9307-7.8032,8.9644-7.8032,7.4692,0,15.6465,8.9321,28.3701,23.5059,6.6719,7.6421,16.7544,19.1904,20.7983,20.0601.5781.124,1.1299.3501,1.6294.667,17.0664,10.8359,14.8384,23.937,12.6841,36.6064-.6631,3.8999-1.3486,7.9307-1.5405,12.0928.5244,10.8467-.7495,17.2744-4.123,20.8218-1.7583,1.8491-4.0239,2.8267-6.5503,2.8267h-.0024Z"/><path class="cls-1" d="M48.119,293.2552c10.8067,0,36.4092,40.9371,48.1177,43.454,19.0121,12.0706,9.5801,26.2564,8.8182,44.4913.4804,9.516-.3607,18.6347-5.6692,18.6347-2.1049,0-4.9132-1.4351-8.6187-4.8477-30.0078-22.8113-60.2245-57.2678-46.8308-97.4639.8275-2.9921,2.2736-4.2684,4.1828-4.2684M48.119,283.2552c-2.4682,0-10.701.822-13.7434,11.3286-6.9139,20.9567-4.2012,42.2317,8.0653,63.2343,8.9994,15.4087,23.1006,30.4992,41.9142,44.856,5.4009,4.8831,10.1869,7.1611,15.0306,7.1611,3.875,0,7.4888-1.5564,10.1758-4.3825,4.3615-4.5872,6.0651-12.0811,5.5046-24.2623.1928-3.7828.8387-7.5807,1.464-11.2578,2.2009-12.9417,4.94-29.0482-14.9334-41.6656-.921-.5847-1.931-1.0145-2.9897-1.2728-3.5558-1.5747-12.805-12.1688-18.3516-18.5219-14.0608-16.1052-22.4861-25.2171-32.1362-25.2171h0Z"/><path class="cls-5" d="M243.8312,442.9849c-3.9824,0-7.7646-.3066-11.2422-.9111-2.6689-.4639-4.9854-2.0645-6.3564-4.3906-1.3555-2.2988-1.6328-5.062-.7607-7.5801,14.3076-41.3101,34.1992-45.2041,59.3818-50.1343,10.6367-2.0825,22.6934-4.4429,36.46-9.8887,1.0752-.4253,2.2021-.6411,3.3496-.6411,5.0244,0,9.1172,4.0757,9.1221,9.085.0107,12.1367-5.5127,24.0859-15.9736,34.5562-17.5928,17.6074-48.0127,29.9048-73.9736,29.9048h-.0068Z"/><path class="cls-1" d="M324.6631,374.4392c2.1701,0,4.1196,1.7451,4.1218,4.0901.0325,34.5257-50.056,59.4559-84.9529,59.4559-3.6516,0-7.1424-.2736-10.3863-.8375-2.5173-.4376-4.0854-2.9943-3.2492-5.4086,19.0976-55.1399,45.6607-38.2994,92.9559-57.0093.5014-.1984,1.0117-.2905,1.5107-.2905M324.6631,364.4392c-1.7799,0-3.5258.3337-5.1892.9917-13.3388,5.2768-25.1553,7.5901-35.5808,9.6311-12.9719,2.5395-25.2244,4.9382-36.0208,12.3987-11.5903,8.0091-20.2095,21.039-27.1249,41.0057-1.3529,3.9063-.9238,8.1911,1.1774,11.7558,2.1172,3.5918,5.6922,6.0622,9.8083,6.7778,3.7608.6538,7.8315.9853,12.099.9853,19.4845,0,42.8101-7.0123,60.8743-18.3004,21.994-13.7439,34.0967-31.9146,34.0786-51.1649-.0074-7.7642-6.3424-14.0807-14.1218-14.0807h0Z"/><path class="cls-5" d="M216.4591,339.5015c-13.8018-.0024-27.2397-10.9507-40.2349-21.5386-8.0508-6.5596-15.6548-12.7549-22.2148-15.3706-.1836-.0732-.3633-.1577-.5371-.2524-9.9541-5.4141-15.4941-11.8403-16.937-19.6455-2.6323-14.2402,9.6318-28.5942,21.4917-42.4756,7.0737-8.2793,14.3882-16.8398,17.3096-24.1895.1963-.4941.4702-.9536.8115-1.3613,5.5381-6.6196,12.458-9.9766,20.5669-9.9766,13.668,0,27.9004,9.3589,41.6641,18.4097,8.0732,5.3096,15.6992,10.3242,21.8223,12.373.209.0698.4121.1528.6094.2495,9.6797,4.7295,15.4531,11.0864,17.1582,18.8936,3.5566,16.2876-11.1074,34.1914-25.2891,51.5059-7.4141,9.0518-14.416,17.6016-17.4531,24.4609-.2754.6206-.6738,1.1787-1.1709,1.6406-5.2031,4.8286-11.123,7.2769-17.5918,7.2769h-.0049Z"/><path class="cls-1" d="M196.7154,209.6917c20.0575,0,44.7572,24.7885,61.9,30.5241,41.8011,20.4245-16.5238,62.5121-27.9608,88.3439-4.5354,4.209-9.2961,5.9419-14.1946,5.9419-20.1505,0-42.5689-29.3647-60.5987-36.5541-40.1862-21.858,13.7282-53.9263,24.1219-80.0709,4.9143-5.8742,10.6046-8.1849,16.7321-8.1849M196.7154,199.6917c-9.5233,0-17.9614,4.0695-24.4021,11.7683-.6822.8154-1.2299,1.7343-1.6227,2.7222-2.6154,6.5788-9.6559,14.8192-16.4647,22.7882-12.6217,14.7726-25.6732,30.0482-22.6075,46.6325,1.7104,9.2526,8.2593,17.0343,19.4647,23.1291.3477.1892.7065.3576,1.0742.5042,5.8475,2.3316,13.5034,8.5698,20.9073,14.6025,13.674,11.1418,27.8136,22.6628,43.3953,22.6628,7.7749,0,14.8392-2.8975,20.9969-8.612.9951-.9235,1.7919-2.04,2.3415-3.2815,2.7627-6.2399,9.8736-14.9217,16.7504-23.3176,14.9348-18.2342,30.3781-37.0892,26.3048-55.7399-2.0476-9.3755-8.7256-16.885-19.8482-22.3197-.3943-.1926-.801-.3592-1.2172-.4984-5.5061-1.8422-12.8682-6.6834-20.6626-11.8089-13.7083-9.0145-29.2458-19.2318-44.4103-19.2318h0Z"/><polygon class="cls-4" points="129.4911 249.7638 154.7056 288.067 180.3984 280.8354 189.4069 287.9004 217.3186 269.2926 254.1336 293.2552 279.3775 272.0967 252.3614 246.0482 222.2346 236.9658 192.9938 226.1349 160.7994 254.785 129.4911 249.7638"/><path class="cls-3" d="M166.0113,250.1466c1.7605,21.2352,8.5145,50.5852,29.5486,77.9061,4.3033,5.5895,13.4687,6.4848,19.1379,1.8922,11.3269-9.1759,26.8675-31.5964,30.4257-86.0789l-52.1296-17.7311-26.9825,24.0117Z"/></svg>