<?xml version="1.0" encoding="UTF-8"?><svg id="_3" xmlns="http://www.w3.org/2000/svg" viewBox="0 0 419.1307 461.9622"><defs><style>.cls-1{fill:none;}.cls-1,.cls-2,.cls-3,.cls-4,.cls-5{stroke:#575959;stroke-linejoin:round;}.cls-1,.cls-3{stroke-width:7px;}.cls-6{fill:#575959;}.cls-2{stroke-linecap:round;}.cls-2,.cls-4{stroke-width:8px;}.cls-2,.cls-4,.cls-5{fill:#c6c6c6;}.cls-7{fill:#e2e2e1;}.cls-3{fill:#edeab5;}.cls-8{fill:#b7d99b;}.cls-5{stroke-width:10px;}</style></defs><path class="cls-7" d="M209.5657,454.4624c-111.4189,0-202.0654-100.2534-202.0654-223.4814S98.1468,7.5,209.5657,7.5s202.0654,100.2529,202.0654,223.481-90.6465,223.4814-202.0654,223.4814Z"/><path class="cls-6" d="M209.5654,15c26.0851,0,51.3976,5.6345,75.2343,16.7469,23.1369,10.7861,43.9434,26.2577,61.8417,45.985,17.9931,19.8319,32.1295,42.951,42.0165,68.7151,10.267,26.7547,15.4729,55.1961,15.4729,84.5341s-5.2059,57.7794-15.4729,84.5341c-9.887,25.7641-24.0234,48.8832-42.0165,68.7151-17.8983,19.7273-38.7048,35.1989-61.8417,45.985-23.8367,11.1124-49.1492,16.7469-75.2343,16.7469s-51.3976-5.6345-75.2343-16.7469c-23.1369-10.7861-43.9434-26.2577-61.8417-45.985-17.9931-19.8319-32.1295-42.951-42.0165-68.7151-10.267-26.7547-15.4729-55.1961-15.4729-84.5341s5.2059-57.7794,15.4729-84.5341c9.887-25.7641,24.0234-48.8832,42.0165-68.7151,17.8983-19.7273,38.7048-35.1989,61.8417-45.985,23.8367-11.1124,49.1492-16.7469,75.2343-16.7469M209.5654,0C93.8257,0,0,103.4138,0,230.9811s93.8257,230.9811,209.5654,230.9811,209.5654-103.4138,209.5654-230.9811S325.305,0,209.5654,0h0Z"/><path class="cls-8" d="M31.7161,199.189c-2.917-.001-9.8271-1.3862-11.0146-14.1982-1.5527-16.7583,6.2871-45.21,19.0645-69.189,16.5254-31.0098,38.8535-50.5645,62.8721-55.0615,1.1533-.2158,2.3232-.3257,3.4785-.3257,5.9346,0,11.5547,2.9258,15.0342,7.8262,3.5215,4.9614,4.3867,11.1123,2.374,16.876-10.792,30.8906-12.8018,48.4468-14.1309,60.064-2.6973,23.5732-5.3018,24.6113-48.8193,41.9565-5.1572,2.0552-10.9287,4.3555-17.3906,6.9644-.7178.29-1.4277.7056-2.1094,1.2339-3.3418,2.5928-6.4023,3.8535-9.3555,3.8535h-.0029Z"/><path class="cls-6" d="M106.1165,65.4146c9.0259,0,15.8315,9.0529,12.6871,18.0533-32.795,93.8704,13.8789,69.1097-77.4919,105.9976-1.1833.4777-2.2946,1.1377-3.3028,1.92-2.4721,1.918-4.5653,2.803-6.2919,2.803-19.8185,0,8.8524-116.7402,71.8411-128.5339.868-.1625,1.7224-.2401,2.5585-.2401M106.1165,55.4146c-1.4628,0-2.9428.1383-4.399.4109-14.0356,2.6279-27.3118,9.7841-39.4597,21.2698-10.072,9.523-19.1247,21.7568-26.9067,36.3616-13.1933,24.7606-21.2647,54.3696-19.6281,72.0036,1.6128,17.3775,12.6495,18.728,15.9938,18.728,4.1071,0,8.1703-1.6035,12.4219-4.9023.313-.2428.6298-.4322.9163-.5479,6.4495-2.6038,12.251-4.9161,17.3696-6.9563,23.3276-9.2979,33.9745-13.5415,40.9015-19.2828,8.8096-7.3016,9.7916-15.8841,11.035-26.7499,1.304-11.3966,3.2747-28.6193,13.8828-58.9833,2.5549-7.313,1.4553-15.1204-3.0169-21.4201-4.4147-6.2187-11.5589-9.9314-19.1107-9.9314h0Z"/><path class="cls-8" d="M365.5413,331.2495c-3.1631-.0005-6.5381-.4141-10.0449-1.2305-.6699.0415-1.3262.062-1.96.062-6.4443,0-11.3223-2.1201-14.501-6.3022-7.9707-10.4883-2.373-30.6279,4.1074-53.9478,5.1738-18.6162,11.0381-39.7163,7.6504-51.8008-.0693-.2485-.1201-.5029-.1504-.7593-.8564-7.2002,1.7109-11.8042,4.0146-14.3979,3.8984-4.3892,10.3516-6.8066,18.1689-6.8066,12.0391,0,24.4346,5.3359,30.8447,13.2773,4.0488,5.0161,5.5479,10.7837,4.3418,16.6943-.6602,5.3857-1.042,12.4277-1.4453,19.8779-1.8418,33.9795-4.6299,85.3335-41.0244,85.3335h-.002Z"/><path class="cls-6" d="M372.8271,201.0665c14.8284.0011,33.3231,9.9133,30.2495,24.1502-3.7042,29.681,1.4683,101.0329-37.5355,101.0329-2.9499,0-6.1539-.4084-9.632-1.2737-.8297.0708-1.619.1055-2.3727.1055-35.2465,0,11.1059-76.1763,2.0714-108.4005-1.3077-11.0018,7.1018-15.6151,17.2194-15.6143M372.8279,191.0665c-.0009,0,.0008,0,0,0-9.2665-.0007-17.0468,3.0127-21.9077,8.4851-2.985,3.3605-6.3176,9.2649-5.2425,18.3095.061.5134.1617,1.0214.3013,1.5192,3.0112,10.7405-2.6544,31.1262-7.6531,49.112-6.8375,24.6021-12.7426,45.8493-3.2709,58.3123,2.8695,3.7758,8.4051,8.2766,18.4813,8.2766.4998,0,1.0108-.0111,1.5296-.0331,3.6296.7977,7.1462,1.2014,10.4751,1.2014,10.2668,0,19.0004-3.6872,25.9583-10.9592,5.5189-5.7681,9.7132-13.572,12.8226-23.8575,5.1709-17.1052,6.3173-38.2537,7.2384-55.2468.3945-7.2783.7677-14.1624,1.3936-19.3587,1.4118-7.2492-.4929-14.5535-5.391-20.6224-7.3066-9.0532-21.2668-15.1366-34.735-15.1384h0Z"/><path class="cls-8" d="M360.8196,147.5225c-5.9873,0-13.542-3.3516-21.54-6.8999-6.6309-2.9419-14.1465-6.2764-18.3799-6.2764-.3115,0-.5918.0195-.832.0581-.2432.0391-.4893.0601-.7344.0625l-.5566.0034c-25.7363,0-29.999-20.5762-33.4229-37.1089-1.1465-5.5312-2.3301-11.2461-4.1729-16.0796-7.3467-12.7012-9.1963-21.874-5.6572-28.0356,1.7734-3.0874,5.7305-6.7681,14.5127-6.7681,17.1006,0,46.0322,14.1992,57.1924,23.772.1494.1284.291.2656.4248.4106,9.6348,10.478,17.5879,29.9922,23.6406,58.001,1.4326,7.0757.8447,11.8691-1.8369,15.1479-1.3857,1.6938-4.0088,3.7129-8.6377,3.7129h0Z"/><path class="cls-6" d="M290.0364,51.4781c15.656,0,43.2686,13.4158,53.9366,22.5666,11.8595,12.8975,18.7648,38.6929,22.4332,55.673,1.9426,9.5937-.6628,12.8048-5.5867,12.8048-9.9741,0-29.4588-13.1764-39.9201-13.1764-.5684,0-1.1118.039-1.6238.1211-.168.0019-.3325.0029-.4984.0029-29.3779,0-25.171-30.1687-33.0748-50.3587-12.0406-20.6417-6.9711-27.6333,4.3341-27.6333M290.0363,41.4781c-11.1738,0-16.4171,5.0453-18.8481,9.2778-5.8943,10.262.1312,23.4091,5.4576,32.6714,1.6206,4.3714,2.6863,9.5165,3.8115,14.9483,1.8801,9.0762,3.8242,18.4614,8.824,26.2184,6.3625,9.871,16.2863,14.8761,29.4957,14.8761.2039,0,.4059-.0012.6124-.0035.4777-.0054.9542-.0451,1.4261-.1186.0152-.0008.043-.0019.0837-.0019,3.1743,0,10.7913,3.3793,16.353,5.8468,8.496,3.7693,16.5209,7.3296,23.5671,7.3296,6.5881,0,10.4382-3.0169,12.508-5.5477,5.4313-6.6413,3.5109-16.1252,2.8798-19.2417-.0086-.0424-.0175-.0847-.0266-.127-6.3292-29.2966-14.4566-49.0307-24.8466-60.33-.267-.2904-.5509-.5647-.8503-.8215-11.5919-9.9434-41.6131-24.9764-60.4473-24.9764h0Z"/><path class="cls-8" d="M210.8567,151.7944c-6.3516,0-13.2021-1.5386-19.8281-3.0264-5.627-1.2642-10.9414-2.4575-14.9561-2.4575,0,0-.1494.0005-.1602.0005-.5,0-.9971-.0752-1.4746-.2227-13.8291-4.269-10.8945-18.4995-9.1416-27.002.333-1.6147.6494-3.1475.8652-4.5288-.1475-9.3076,2.1602-16.4673,6.8633-21.2847,4.7324-4.8477,11.5869-7.2041,20.9561-7.2041,7.9609,0,16.7334,1.7085,24.4727,3.2158,1.3271.2588,2.6328.5132,3.9111.7544,5.5205.9531,9.6396,3.4136,12.166,7.2998,4.9404,7.5972,2.2617,18.2363-.1006,27.6226-.9766,3.8774-1.8984,7.54-2.1045,10.3115-.0215.2822-.0664.5625-.1348.8374-1.7832,7.1548-6.9316,15.6841-21.334,15.6841Z"/><path class="cls-6" d="M193.9813,91.0688c8.7804,0,18.7769,2.2447,27.4559,3.8833,19.6588,3.3968,6.8568,27.127,5.9016,39.9491-2.2906,9.1935-8.6548,11.8933-16.4821,11.8933-11.1522,0-25.2692-5.484-34.7842-5.484-.0526,0-.1075.0002-.1597.0005-11.5203-3.556-6.0869-17.1924-4.744-26.4272-.456-18.9297,9.8555-23.8149,22.8124-23.8149M193.9813,81.0688c-10.7866,0-18.8119,2.8496-24.5344,8.7116-5.588,5.7242-8.375,13.9312-8.2903,24.404-.1965,1.1711-.4706,2.501-.7579,3.8943-1.0071,4.8845-2.1484,10.4207-1.4921,15.9079,1.0044,8.3969,5.9965,14.3914,14.0567,16.8794.9554.2949,1.9496.4448,2.9493.4448.0228,0,.0456,0,.0684-.0002l.0914-.0003c3.4597,0,8.7471,1.1875,13.8604,2.3359,6.8914,1.5477,14.0173,3.1481,20.9238,3.1481,18.5615,0,24.3732-12.2021,26.1854-19.4756.1369-.5496.2269-1.1099.269-1.6748.1744-2.341,1.0858-5.9611,1.967-9.462,2.4835-9.8647,5.5741-22.1418-.5556-31.5686-2.2726-3.4951-6.8052-7.9746-15.4984-9.5006-1.2468-.2356-2.5211-.4839-3.815-.7359-7.9613-1.5506-16.9848-3.3081-25.4279-3.3081h0Z"/><path class="cls-8" d="M99.3851,404.8354c-3.5742-.001-7.3369-1.9111-11.8281-6.0078-43.0781-32.811-59.8125-68.3398-48.4033-102.7695,2.0059-7.0391,6.9316-7.8032,8.9648-7.8032,7.4697,0,15.6465,8.9321,28.3701,23.5054,6.6719,7.6421,16.7549,19.1909,20.7988,20.0605.5781.124,1.1299.3501,1.6289.667,17.0664,10.8359,14.8389,23.937,12.6846,36.6064-.6631,3.9004-1.3486,7.9307-1.54,12.0928.5244,10.8472-.75,17.2744-4.123,20.8218-1.7588,1.8491-4.0244,2.8267-6.5508,2.8267h-.002Z"/><path class="cls-6" d="M48.119,293.2552c10.8067,0,36.4092,40.9371,48.1177,43.454,19.0121,12.0706,9.5801,26.2564,8.8182,44.4913.4804,9.516-.3607,18.6347-5.6693,18.6347-2.1049,0-4.9132-1.4351-8.6187-4.8477-30.0078-22.8113-60.2245-57.2678-46.8308-97.4639.8275-2.9921,2.2736-4.2684,4.1829-4.2684M48.119,283.2552c-2.4683,0-10.7012.8224-13.7435,11.3289-6.9138,20.9567-4.2011,42.2313,8.0654,63.234,8.9994,15.4087,23.1006,30.4992,41.9141,44.856,5.4009,4.8831,10.1869,7.1611,15.0306,7.1611,3.8749,0,7.4888-1.5564,10.1758-4.3825,4.3615-4.5872,6.0651-12.0811,5.5046-24.2623.1928-3.7828.8387-7.5807,1.464-11.2579,2.2009-12.9417,4.94-29.0481-14.9334-41.6655-.921-.5847-1.9309-1.0145-2.9896-1.2728-3.5558-1.5747-12.805-12.1688-18.3517-18.5219-14.0609-16.1052-22.4862-25.2171-32.1363-25.2171h0Z"/><path class="cls-8" d="M243.8314,442.9849c-3.9824,0-7.7646-.3066-11.2422-.9111-2.668-.4639-4.9854-2.064-6.3564-4.3901-1.3555-2.2988-1.6328-5.062-.7607-7.5806,14.3076-41.3101,34.1992-45.2041,59.3818-50.1343,10.6367-2.0825,22.6934-4.4429,36.46-9.8887,1.0752-.4253,2.2021-.6411,3.3496-.6411,5.0254,0,9.1182,4.0767,9.1211,9.0869.0117,12.1348-5.5117,24.0835-15.9727,34.5537-17.5928,17.6079-48.0117,29.9053-73.9736,29.9053h-.0068Z"/><path class="cls-6" d="M324.663,374.4392c2.1702,0,4.1196,1.7451,4.1219,4.0901.0324,34.5257-50.0561,59.4559-84.9529,59.4559-3.6516,0-7.1424-.2736-10.3863-.8375-2.5173-.4376-4.0854-2.9943-3.2492-5.4086,19.0976-55.1399,45.6608-38.2994,92.9559-57.0093.5014-.1984,1.0117-.2905,1.5106-.2905M324.663,364.4392c-1.7799,0-3.5258.3337-5.1892.9917-13.3387,5.2768-25.1553,7.5901-35.5808,9.6311-12.9719,2.5395-25.2244,4.9382-36.0208,12.3987-11.5904,8.0091-20.2095,21.0389-27.125,41.0057-1.3529,3.9064-.9237,8.1912,1.1775,11.7558,2.1172,3.5918,5.6922,6.0621,9.8083,6.7777,3.7608.6538,7.8315.9853,12.0991.9853,19.4844,0,42.8101-7.0123,60.8742-18.3004,21.994-13.7439,34.0967-31.9146,34.0787-51.1649-.0074-7.7642-6.3424-14.0807-14.1219-14.0807h0Z"/><path class="cls-8" d="M216.4593,339.5015c-13.8018-.0024-27.2402-10.9512-40.2354-21.5391-8.0508-6.5591-15.6543-12.7544-22.2139-15.3701-.1846-.0737-.3633-.1577-.5371-.2524-9.7637-5.3101-15.4385-11.9077-16.8672-19.6089-2.667-14.3774,9.7412-28.9385,21.7412-43.02,7.1045-8.3369,14.4512-16.9575,17.3691-24.2988.1963-.4937.4707-.9536.8115-1.3613,5.4912-6.5635,12.3252-9.8916,20.3125-9.8916,13.5869,0,27.7109,9.4756,41.3701,18.6392,8.1309,5.4551,15.8125,10.6084,21.9922,12.6758.208.0698.4111.1528.6084.2495,9.6797,4.7295,15.4531,11.0864,17.1582,18.894,3.5566,16.2871-11.1074,34.1909-25.2891,51.5054-7.4141,9.0518-14.416,17.6016-17.4531,24.4609-.2754.6206-.6738,1.1787-1.1709,1.6406-5.2031,4.8286-11.123,7.2769-17.5918,7.2769h-.0049Z"/><path class="cls-6" d="M196.84,209.1593c19.9905,0,44.5739,25.3013,61.7755,31.0565,41.8011,20.4246-16.5237,62.5121-27.9608,88.344-4.5354,4.209-9.296,5.9419-14.1945,5.9419-20.1505,0-42.569-29.3648-60.5988-36.5541-40.1862-21.858,14.1076-54.5434,24.5013-80.6881,4.8592-5.8084,10.4594-8.1002,16.4773-8.1002M196.84,199.1593c-9.4028,0-17.7528,4.0401-24.1472,11.6836-.6822.8155-1.2299,1.7344-1.6227,2.7223-2.6133,6.5736-9.6873,14.8747-16.5285,22.9025-12.7597,14.973-25.9539,30.4558-22.8519,47.1753,1.717,9.2553,8.242,17.0236,19.3937,23.0892.3477.1891.7065.3575,1.0742.5042,5.8475,2.3316,13.5034,8.5697,20.9072,14.6024,13.6741,11.1418,27.8137,22.6628,43.3954,22.6628,7.7748,0,14.8392-2.8975,20.9969-8.6119.9952-.9236,1.7919-2.0401,2.3415-3.2816,2.7627-6.2398,9.8736-14.9216,16.7504-23.3176,14.9349-18.2343,30.3782-37.0892,26.3049-55.7399-2.0477-9.3755-8.7256-16.885-19.8482-22.3196-.3943-.1927-.801-.3592-1.2172-.4985-5.5403-1.8537-12.9491-6.8241-20.7928-12.0865-13.6147-9.134-29.0459-19.4867-44.1555-19.4867h0Z"/><polygon class="cls-2" points="82.996 338.9706 113.7136 333.532 113.7136 313.5695 116.7359 280.4814 107.0327 265.0833 82.996 272.219 84.294 295.2571 67.3419 308.8438 82.996 338.9706"/><path class="cls-2" d="M76.6373,301.3937c1.9139,14.8211,37.4396,59.9944,51.818,39.6155,14.3784-20.379-40.5675-70.2424-40.5675-70.2424l-4.8918,1.4522,1.2979,23.0382-7.6566,6.1366Z"/><polygon class="cls-4" points="292.1806 292.4306 294.2481 325.5111 309.1132 339.747 305.7672 360.0684 326.4425 346.2017 313.0035 320.7982 314.0337 297.1463 292.1806 292.4306"/><path class="cls-2" d="M320.2399,335.714c-5.2491,8.3369-41.537,28.6413-40.9194,7.9535.6175-20.6877,34.5825-43.5369,34.5825-43.5369l-.8994,20.6676,7.2364,14.9157Z"/><polygon class="cls-5" points="129.5151 249.7638 154.7295 288.067 180.4224 280.8354 189.4309 287.9004 217.3425 269.2926 254.1575 293.2552 279.4014 272.0967 252.3854 246.0482 222.2585 236.9658 193.0178 226.1349 160.8234 254.785 129.5151 249.7638"/><path class="cls-3" d="M166.0352,250.1466c1.7605,21.2352,8.5145,50.5852,29.5486,77.9061,4.3033,5.5895,13.4687,6.4848,19.1379,1.8922,11.3269-9.1759,26.8675-31.5964,30.4257-86.0789l-52.1296-17.7311-26.9825,24.0117Z"/><polyline class="cls-1" points="192.7391 205.4596 175.9128 141.3109 224.9876 72.6115 207.3712 7.5676"/><polyline class="cls-1" points="292.1806 292.4306 279.4014 272.0967 328.7849 270.7668 409.439 230.9811"/><line class="cls-1" x1="107.0327" y1="265.0833" x2="129.5151" y2="249.7638"/><polyline class="cls-1" points="82.996 272.219 49.6889 226.1349 8.3383 234.405"/><polyline class="cls-1" points="326.4425 346.2017 349.776 352.6708 357.4554 381.495"/><polyline class="cls-1" points="82.996 338.9706 72.5482 352.6708 67.3419 385.63"/></svg>