<?xml version="1.0" encoding="UTF-8"?><svg id="_4" xmlns="http://www.w3.org/2000/svg" viewBox="0 0 419.1307 461.9622"><defs><style>.cls-1{fill:none;}.cls-1,.cls-2,.cls-3,.cls-4,.cls-5,.cls-6{stroke:#575959;stroke-linejoin:round;}.cls-1,.cls-4{stroke-width:7px;}.cls-7{fill:#575959;}.cls-2{fill:#8e8e8e;}.cls-2,.cls-3,.cls-5{stroke-width:8px;}.cls-3{stroke-linecap:round;}.cls-3,.cls-5,.cls-6{fill:#c6c6c6;}.cls-8{fill:#e2e2e1;}.cls-4{fill:#edeab5;}.cls-9{fill:#b7d99b;}.cls-6{stroke-width:10px;}</style></defs><path class="cls-8" d="M209.5654,454.4626c-111.4194,0-202.0654-100.2529-202.0654-223.4814S98.146,7.4997,209.5654,7.4997s202.0654,100.2529,202.0654,223.4814-90.646,223.4814-202.0654,223.4814Z"/><path class="cls-7" d="M209.5654,15c26.0851,0,51.3975,5.6345,75.2343,16.7469,23.1369,10.7861,43.9434,26.2577,61.8416,45.985,17.9932,19.8318,32.1295,42.9509,42.0165,68.715,10.2671,26.7547,15.4729,55.1961,15.4729,84.5342s-5.2058,57.7794-15.4729,84.5341c-9.887,25.7641-24.0233,48.8832-42.0165,68.7151-17.8982,19.7273-38.7047,35.1989-61.8416,45.985-23.8368,11.1124-49.1492,16.7469-75.2343,16.7469s-51.3976-5.6345-75.2344-16.7469c-23.1368-10.7861-43.9434-26.2578-61.8416-45.985-17.9932-19.8318-32.1295-42.951-42.0165-68.7151-10.2671-26.7547-15.4729-55.1961-15.4729-84.5341s5.2058-57.7795,15.4729-84.5342c9.887-25.7641,24.0233-48.8832,42.0165-68.715,17.8982-19.7273,38.7048-35.1989,61.8416-45.985,23.8368-11.1124,49.1493-16.7469,75.2344-16.7469M209.5654,0C93.8256,0,0,103.4137,0,230.9811s93.8256,230.9811,209.5654,230.9811,209.5653-103.4138,209.5653-230.9811S325.3051,0,209.5654,0h0Z"/><path class="cls-9" d="M31.7153,199.1882c-2.916-.001-9.8267-1.3857-11.0142-14.1973-1.5527-16.7588,6.2871-45.21,19.0649-69.1885,16.5249-31.0098,38.853-50.5645,62.8716-55.0625,1.1538-.2158,2.3242-.3252,3.479-.3252,5.9346,0,11.5547,2.9258,15.0332,7.8262,3.5225,4.9609,4.3877,11.1123,2.374,16.876-10.792,30.8906-12.8008,48.4463-14.1304,60.0645-2.6973,23.5723-5.3022,24.6113-48.8198,41.9561-5.1567,2.0557-10.9277,4.3555-17.3906,6.9648-.7178.2891-1.4272.7051-2.1094,1.2334-3.3413,2.5928-6.4014,3.8525-9.355,3.8525h-.0034Z"/><path class="cls-7" d="M106.1166,65.4147c9.0259,0,15.8315,9.0528,12.687,18.0533-32.795,93.8704,13.8789,69.1097-77.492,105.9977-1.1833.4777-2.2946,1.1377-3.3028,1.92-2.472,1.918-4.5653,2.803-6.2919,2.803-19.8185,0,8.8524-116.7402,71.8411-128.5338.8681-.1625,1.7225-.2401,2.5586-.2401M106.1166,55.4147c-1.4629,0-2.9429.1383-4.3991.411-14.0356,2.6279-27.3118,9.7841-39.4596,21.2697-10.072,9.523-19.1247,21.7568-26.9066,36.3616-13.1933,24.7606-21.2647,54.3696-19.628,72.0037,1.6128,17.3774,12.6495,18.728,15.9937,18.728,4.1071,0,8.1704-1.6035,12.422-4.9023.3128-.2426.6297-.4322.9161-.5478,6.4497-2.6039,12.2513-4.9162,17.3699-6.9564,23.3276-9.2979,33.9745-13.5416,40.9015-19.2828,8.8096-7.3016,9.7917-15.8841,11.0349-26.7499,1.3041-11.3966,3.2748-28.6193,13.8829-58.9833,2.5549-7.3131,1.4553-15.1205-3.017-21.4202-4.4147-6.2186-11.5588-9.9313-19.1105-9.9313h0Z"/><path class="cls-9" d="M365.5415,331.2487c-3.1631,0-6.5386-.4131-10.0449-1.2295-.6704.041-1.3271.0615-1.9604.0615-6.4438,0-11.3228-2.1201-14.5005-6.3018-7.9712-10.4883-2.3735-30.6279,4.1074-53.9473,5.1743-18.6162,11.0386-39.7168,7.6504-51.8018-.0698-.249-.1201-.5029-.1504-.7598-.856-7.2002,1.7109-11.8037,4.0146-14.3975,3.8984-4.3896,10.3511-6.8066,18.1694-6.8066,12.0386,0,24.4341,5.3359,30.8442,13.2773,4.0488,5.0166,5.5474,10.7832,4.3418,16.6943-.6602,5.3857-1.0415,12.4277-1.4453,19.8779-1.8418,33.9795-4.6294,85.333-41.0244,85.333h-.002Z"/><path class="cls-7" d="M372.8271,201.0665c14.8285.0011,33.3231,9.9133,30.2495,24.1502-3.7042,29.681,1.4683,101.0329-37.5355,101.0329-2.9499,0-6.1538-.4084-9.632-1.2737-.8296.0708-1.619.1055-2.3727.1055-35.2464,0,11.1058-76.1764,2.0714-108.4005-1.3077-11.0018,7.1018-15.6151,17.2194-15.6143M372.8279,191.0665c-.0009,0,.0008,0,0,0-9.2665-.0007-17.0469,3.0127-21.9077,8.4851-2.985,3.3605-6.3176,9.265-5.2425,18.3095.061.5134.1618,1.0214.3014,1.5192,3.0112,10.7405-2.6544,31.1262-7.653,49.112-6.8374,24.6022-12.7425,45.8494-3.2709,58.3123,2.8695,3.7758,8.4051,8.2766,18.4813,8.2766.4998,0,1.0108-.011,1.5296-.0331,3.6296.7977,7.1462,1.2014,10.4751,1.2014,10.2668,0,19.0004-3.6873,25.9583-10.9592,5.5189-5.7681,9.7132-13.572,12.8225-23.8575,5.171-17.1052,6.3173-38.2537,7.2385-55.2468.3945-7.2778.7677-14.1619,1.3936-19.3581,1.4118-7.2492-.4929-14.5542-5.391-20.623-7.3067-9.0531-21.2668-15.1366-34.735-15.1383h0Z"/><path class="cls-9" d="M360.8193,147.5222c-5.9868,0-13.541-3.3516-21.5391-6.8994-6.6313-2.9424-14.147-6.2764-18.3809-6.2764-.3115,0-.5918.0195-.8325.0576-.2427.0391-.4883.0605-.7344.0635l-.5552.0029c-25.7368,0-29.999-20.5762-33.4238-37.1094-1.146-5.5312-2.3296-11.2461-4.1729-16.0801-7.3462-12.7012-9.1958-21.873-5.6567-28.0352,1.7734-3.0879,5.7305-6.7676,14.5122-6.7676,17.1011,0,46.0327,14.1992,57.1924,23.7715.1499.1279.2915.2656.4253.4102,9.6348,10.4785,17.5884,29.9932,23.6396,58.002,1.4331,7.0752.8452,11.8682-1.8369,15.1475-1.3848,1.6943-4.0083,3.7129-8.6367,3.7129h-.0005Z"/><path class="cls-7" d="M290.0363,51.4781c15.656,0,43.2686,13.4158,53.9367,22.5666,11.8595,12.8974,18.7647,38.6929,22.4331,55.673,1.9426,9.5937-.6628,12.8048-5.5867,12.8048-9.9741,0-29.4588-13.1765-39.9201-13.1765-.5683,0-1.1117.039-1.6238.1211-.168.0019-.3326.0029-.4985.0029-29.378,0-25.1709-30.1686-33.0748-50.3586-12.0406-20.6418-6.9711-27.6333,4.334-27.6333M290.0363,41.4781c-11.1738,0-16.4171,5.0453-18.8482,9.2778-5.8943,10.262.1313,23.4091,5.4577,32.6714,1.6206,4.3714,2.6864,9.5166,3.8115,14.9483,1.8801,9.0762,3.8242,18.4614,8.8241,26.2184,6.3625,9.871,16.2863,14.8761,29.4956,14.8761.2038,0,.406-.0012.6125-.0035.4776-.0054.9542-.0451,1.4261-.1187.0152-.0008.0429-.0019.0837-.0019,3.1743,0,10.7913,3.3793,16.3529,5.8468,8.496,3.7694,16.5209,7.3297,23.5672,7.3297,6.5881,0,10.4382-3.0169,12.508-5.5477,5.4313-6.6413,3.5109-16.1252,2.8798-19.2417-.0086-.0424-.0175-.0847-.0266-.127-6.3292-29.2966-14.4566-49.0308-24.8466-60.33-.267-.2904-.5509-.5647-.8504-.8215-11.592-9.9433-41.6132-24.9764-60.4473-24.9764h0Z"/><path class="cls-9" d="M210.8569,151.7946c-6.3511,0-13.2017-1.5391-19.8267-3.0264-5.6274-1.2637-10.9424-2.458-14.9565-2.458,0,0-.1504.001-.1611.001-.5,0-.9971-.0752-1.4751-.2227-13.8281-4.2695-10.8945-18.498-9.1416-27,.333-1.6152.6489-3.1484.8657-4.5312-.1479-9.3076,2.1602-16.4668,6.8633-21.2852,4.7319-4.8477,11.5869-7.2041,20.9561-7.2041,7.9609,0,16.7329,1.709,24.4727,3.2168,1.3267.2578,2.6333.5127,3.9111.7539,5.5205.9531,9.6392,3.4141,12.166,7.3008,4.9399,7.5967,2.2617,18.2354-.1011,27.6221-.9761,3.877-1.8984,7.5391-2.1045,10.3105-.021.2832-.0664.5625-.1348.8379-1.7827,7.1553-6.9307,15.6846-21.3335,15.6846Z"/><path class="cls-7" d="M193.9813,91.0688c8.7804,0,18.7769,2.2448,27.4559,3.8833,19.6588,3.3968,6.8567,27.127,5.9016,39.9491-2.2906,9.1935-8.6548,11.8932-16.482,11.8932-11.1522,0-25.2691-5.484-34.7841-5.484-.0526,0-.1075.0002-.1598.0005-11.5203-3.556-6.0869-17.1924-4.744-26.4272-.456-18.9297,9.8555-23.8149,22.8124-23.8149M193.9813,81.0688c-10.7866,0-18.8119,2.8496-24.5344,8.7116-5.588,5.7242-8.375,13.9312-8.2903,24.4041-.1964,1.1711-.4706,2.501-.7579,3.8943-1.007,4.8845-2.1484,10.4207-1.4921,15.9079,1.0044,8.3969,5.9966,14.3914,14.0567,16.8794.9554.2949,1.9497.4448,2.9493.4448.0228,0,.0456,0,.0684-.0002l.0914-.0003c3.4597,0,8.747,1.1875,13.8604,2.3359,6.8914,1.5477,14.0174,3.1481,20.9238,3.1481,18.5615,0,24.3731-12.2021,26.1854-19.4756.1369-.5496.2269-1.1099.269-1.6748.1744-2.341,1.0858-5.9611,1.9671-9.462,2.4834-9.8647,5.5741-22.1418-.5556-31.5686-2.2726-3.4951-6.8053-7.9746-15.4985-9.5006-1.2468-.2356-2.5211-.4839-3.815-.7359-7.9613-1.5506-16.9848-3.3081-25.4279-3.3081h0Z"/><path class="cls-9" d="M99.3848,404.8356c-3.5737-.001-7.3364-1.9111-11.8276-6.0068-43.0786-32.8125-59.8125-68.3408-48.4028-102.7695,2.0054-7.04,6.9307-7.8037,8.9648-7.8037,7.4688,0,15.646,8.9316,28.3696,23.5049,6.6719,7.6426,16.7549,19.1914,20.7988,20.0605.5781.125,1.1299.3506,1.6294.668,17.0664,10.835,14.8384,23.9365,12.6836,36.6055-.6631,3.9004-1.3486,7.9307-1.5405,12.0928.5244,10.8467-.7495,17.2744-4.123,20.8213-1.7583,1.8496-4.0234,2.8271-6.5503,2.8271h-.002Z"/><path class="cls-7" d="M48.1189,293.2552c10.8067,0,36.4092,40.9371,48.1177,43.454,19.0121,12.0706,9.58,26.2564,8.8181,44.4913.4804,9.5161-.3607,18.6348-5.6692,18.6348-2.1049,0-4.9132-1.4351-8.6187-4.8478-30.0078-22.8113-60.2245-57.2678-46.8308-97.4639.8275-2.9921,2.2736-4.2684,4.1828-4.2684M48.119,283.2552c-2.4682,0-10.7011.8224-13.7435,11.329-6.9138,20.9567-4.2011,42.2314,8.0654,63.234,8.9994,15.4088,23.1006,30.4991,41.9141,44.8559,5.4009,4.8832,10.1869,7.1612,15.0306,7.1612,3.875,0,7.4888-1.5564,10.1758-4.3824,4.3615-4.5872,6.0651-12.0812,5.5045-24.2624.1928-3.7828.8387-7.5807,1.4641-11.2579,2.2009-12.9417,4.9399-29.0482-14.9334-41.6656-.921-.5848-1.9309-1.0145-2.9897-1.2728-3.5558-1.5747-12.8051-12.1688-18.3517-18.5219-14.0608-16.1052-22.4861-25.2171-32.1362-25.2171h0Z"/><path class="cls-9" d="M243.8306,442.9851c-3.9819,0-7.7642-.3066-11.2412-.9111-2.6704-.4648-4.9873-2.0654-6.3579-4.3916-1.355-2.2988-1.6318-5.0615-.7598-7.5791,14.3076-41.3105,34.1992-45.2041,59.3828-50.1348,10.6367-2.082,22.6929-4.4424,36.4585-9.8877,1.0752-.4258,2.2026-.6416,3.3506-.6416,5.0249,0,9.1167,4.0762,9.1211,9.0859.0117,12.1348-5.5117,24.083-15.9727,34.5537-17.5923,17.6074-48.0142,29.9062-73.9766,29.9062h-.0049Z"/><path class="cls-7" d="M324.663,374.4392c2.1702,0,4.1197,1.7451,4.1219,4.0901.0324,34.5257-50.056,59.4559-84.9528,59.4559-3.6516,0-7.1424-.2736-10.3863-.8375-2.5173-.4376-4.0854-2.9943-3.2492-5.4086,19.0976-55.1398,45.6607-38.2994,92.9558-57.0093.5014-.1984,1.0116-.2905,1.5107-.2905M324.663,364.4392c-1.7799,0-3.5258.3337-5.1892.9917-13.3388,5.2768-25.1553,7.5901-35.5808,9.6311-12.9719,2.5396-25.2244,4.9382-36.0208,12.3987-11.5903,8.0091-20.2095,21.0389-27.1249,41.0056-1.353,3.9065-.9237,8.1913,1.1776,11.756,2.1173,3.5918,5.6923,6.0621,9.8085,6.7775,3.7605.6537,7.8312.9852,12.0988.9852,19.4845,0,42.8101-7.0123,60.8742-18.3004,21.994-13.7438,34.0967-31.9146,34.0786-51.1649-.0073-7.7641-6.3423-14.0807-14.1219-14.0807h0Z"/><path class="cls-9" d="M216.459,339.5017c-13.8013-.0029-27.2393-10.9512-40.2344-21.5391-8.0508-6.5586-15.6553-12.7549-22.2153-15.3701-.1836-.0732-.3633-.1572-.5371-.252-9.7632-5.3105-15.4375-11.9082-16.8662-19.6094-2.6675-14.3779,9.7412-28.9385,21.7412-43.0205,7.1045-8.3369,14.4512-16.957,17.3691-24.2979.1968-.4941.4702-.9541.8115-1.3613,5.4912-6.5645,12.3252-9.8926,20.312-9.8926,13.5879,0,27.7109,9.4756,41.3696,18.6387,8.1313,5.4561,15.8125,10.6084,21.9922,12.6768.208.0693.4116.1523.6084.249,9.6807,4.7295,15.4536,11.0869,17.1587,18.8945,3.5571,16.2871-11.1069,34.1904-25.2886,51.5049-7.4136,9.0518-14.4165,17.6016-17.4536,24.4609-.2749.6201-.6729,1.1787-1.1704,1.6406-5.2031,4.8281-11.1226,7.2773-17.5923,7.2773h-.0049Z"/><path class="cls-7" d="M196.8399,209.1593c19.9905,0,44.5739,25.3013,61.7755,31.0566,41.8011,20.4244-16.5237,62.512-27.9608,88.3439-4.5354,4.209-9.296,5.9419-14.1945,5.9419-20.1505,0-42.569-29.3647-60.5988-36.5541-40.1861-21.858,14.1077-54.5433,24.5013-80.6881,4.8592-5.8083,10.4593-8.1002,16.4773-8.1002M196.8399,199.1592c-9.4028,0-17.7528,4.0402-24.1472,11.6837-.6822.8155-1.2299,1.7344-1.6227,2.7224-2.6133,6.5736-9.6873,14.8748-16.5285,22.9026-12.7597,14.973-25.9538,30.4558-22.852,47.1752,1.7171,9.2552,8.2421,17.0236,19.3937,23.0892.3478.1891.7065.3575,1.0742.5042,5.8475,2.3316,13.5034,8.5698,20.9073,14.6025,13.674,11.1418,27.8137,22.6628,43.3953,22.6628,7.7749,0,14.8392-2.8975,20.9969-8.6119.9952-.9235,1.7919-2.0401,2.3415-3.2816,2.7627-6.2399,9.8736-14.9217,16.7504-23.3177,14.9348-18.2342,30.3781-37.0892,26.3048-55.7398-2.0477-9.3755-8.7255-16.8849-19.8482-22.3196-.3943-.1927-.8009-.3591-1.2172-.4984-5.5403-1.8536-12.9491-6.8242-20.7928-12.0865-13.6147-9.1341-29.046-19.4868-44.1556-19.4868h0Z"/><polygon class="cls-2" points="160.9337 47.146 195.0067 63.0955 209.5654 55.1207 224.6905 65.4146 256.1465 51.4781 248.6289 86.0042 209.5654 94.201 158.2342 76.3867 160.9337 47.146"/><path class="cls-5" d="M168.7137,80.0236s8.5849,2.444,9.2025-15.7735c.4976-14.6806-5.3209-25.351-7.599-28.9409-.3871-.6099-.8181-1.1898-1.2586-1.7623-1.3256-1.7227-5.3681-8.1527,2.991-13.76,5.6471-3.7882,16.0562-2.779,20.9965,6.793,0,0,8.0281,12.0421,7.1018,26.2456,0,0,1.0568-21.6638-1.2285-30.5341-.5347-2.0756-.8265-4.2117-.6631-6.3488.3525-4.6115,2.1214-11.1954,9.3022-11.5943,11.1158-.6175,11.1158,11.1158,10.4983,15.7474s-2.779,10.807-1.2351,32.7299c0,0,9.7584-28.7932,12.9684-32.7299,0,0,5.9373-10.1318,17.0145-1.9493,6.4794,4.7862,4.1341,9.1532,2.6562,10.9563-1.0918,1.3321-2.0586,2.7482-2.8626,4.2715-2.7166,5.1472-7.1348,15.8979-6.5415,30.5672.8491,20.9965,8.5723,22.0629,8.5723,22.0629l-39.0636,8.1967-40.8516-14.1774Z"/><polygon class="cls-3" points="82.996 338.9706 113.7136 333.532 113.7136 313.5695 116.7359 280.4814 107.0327 265.0833 82.996 272.219 84.294 295.2571 67.3419 308.8438 82.996 338.9706"/><path class="cls-3" d="M76.6373,301.3937c1.9139,14.8211,37.4396,59.9944,51.818,39.6155,14.3784-20.379-40.5675-70.2424-40.5675-70.2424l-4.8918,1.4522,1.2979,23.0382-7.6566,6.1366Z"/><polygon class="cls-5" points="292.1806 292.4306 294.2481 325.5111 309.1132 339.747 305.7672 360.0684 326.4425 346.2017 313.0035 320.7982 314.0337 297.1463 292.1806 292.4306"/><path class="cls-3" d="M320.2399,335.714c-5.2491,8.3369-41.537,28.6413-40.9194,7.9535.6175-20.6877,34.5825-43.5369,34.5825-43.5369l-.8994,20.6676,7.2364,14.9157Z"/><polygon class="cls-6" points="129.5151 249.7638 154.7295 288.067 180.4224 280.8354 189.4309 287.9004 217.3425 269.2926 254.1575 293.2552 279.4014 272.0967 252.3854 246.0482 222.2585 236.9658 193.0178 226.1349 160.8234 254.785 129.5151 249.7638"/><path class="cls-4" d="M166.0352,250.1466c1.7605,21.2352,8.5145,50.5852,29.5486,77.9061,4.3033,5.5895,13.4687,6.4848,19.1379,1.8922,11.3269-9.1759,26.8675-31.5964,30.4257-86.0789l-52.1296-17.7311-26.9825,24.0117Z"/><polyline class="cls-1" points="209.5654 94.201 175.9128 141.3109 192.7391 205.4596"/><polyline class="cls-1" points="292.1806 292.4306 279.4014 272.0967 328.7849 270.7668 409.439 230.9811"/><line class="cls-1" x1="107.0327" y1="265.0833" x2="129.5151" y2="249.7638"/><polyline class="cls-1" points="82.996 272.219 49.6889 226.1349 8.3383 234.405"/><polyline class="cls-1" points="326.4425 346.2017 349.776 352.6708 357.4554 381.495"/><polyline class="cls-1" points="82.996 338.9706 72.5482 352.6708 67.3419 385.63"/></svg>