<?xml version="1.0" encoding="UTF-8"?><svg id="_3" xmlns="http://www.w3.org/2000/svg" viewBox="0 0 419.1307 461.9622"><defs><style>.cls-1,.cls-2{fill:none;}.cls-1,.cls-2,.cls-3,.cls-4,.cls-5,.cls-6,.cls-7{stroke:#575959;stroke-linejoin:round;}.cls-1,.cls-7{stroke-width:10px;}.cls-2,.cls-5{stroke-width:7px;}.cls-8,.cls-3{fill:#8e8e8e;}.cls-9{fill:#575959;}.cls-3,.cls-4,.cls-6{stroke-width:8px;}.cls-4{stroke-linecap:round;}.cls-4,.cls-6,.cls-7{fill:#c6c6c6;}.cls-10{fill:#e2e2e1;}.cls-5{fill:#edeab5;}.cls-11{fill:#b7d99b;}</style></defs><path class="cls-10" d="M209.5656,454.4626c-111.4194,0-202.0654-100.2529-202.0654-223.4814S98.1461,7.4997,209.5656,7.4997s202.0654,100.2529,202.0654,223.4814-90.6465,223.4814-202.0654,223.4814Z"/><path class="cls-9" d="M209.5654,15c26.0851,0,51.3976,5.6345,75.2344,16.7469,23.1368,10.7861,43.9434,26.2577,61.8416,45.985,17.9932,19.8318,32.1295,42.9509,42.0165,68.715,10.2671,26.7547,15.4729,55.1961,15.4729,84.5342s-5.2058,57.7794-15.4729,84.5341c-9.887,25.7641-24.0233,48.8832-42.0165,68.7151-17.8982,19.7273-38.7048,35.1989-61.8416,45.985-23.8368,11.1124-49.1493,16.7469-75.2344,16.7469s-51.3976-5.6345-75.2343-16.7469c-23.1369-10.7861-43.9434-26.2578-61.8417-45.985-17.9931-19.8318-32.1295-42.951-42.0165-68.7151-10.267-26.7547-15.4729-55.1961-15.4729-84.5341s5.2059-57.7795,15.4729-84.5342c9.887-25.7641,24.0234-48.8832,42.0165-68.715,17.8983-19.7273,38.7048-35.1989,61.8417-45.985,23.8367-11.1124,49.1492-16.7469,75.2343-16.7469M209.5654,0C93.8257,0,0,103.4137,0,230.9811s93.8257,230.9811,209.5654,230.9811,209.5654-103.4138,209.5654-230.9811S325.3051,0,209.5654,0h0Z"/><path class="cls-11" d="M31.7155,199.1882c-2.916-.001-9.8267-1.3857-11.0142-14.1973-1.5527-16.7588,6.2871-45.21,19.0649-69.1885,16.5249-31.0098,38.853-50.5645,62.8716-55.0625,1.1538-.2158,2.3242-.3252,3.479-.3252,5.9346,0,11.5547,2.9258,15.0337,7.8262,3.522,4.9609,4.3867,11.1123,2.373,16.876-10.792,30.8906-12.8008,48.4463-14.1299,60.0645-2.6973,23.5723-5.3027,24.6113-48.8198,41.9561-5.1567,2.0557-10.9282,4.3555-17.3906,6.9648-.7178.2891-1.4272.7041-2.1094,1.2334-3.3413,2.5928-6.4014,3.8525-9.355,3.8525h-.0034Z"/><path class="cls-9" d="M106.1166,65.4147c9.0259,0,15.8315,9.0528,12.687,18.0533-32.795,93.8704,13.8789,69.1097-77.492,105.9977-1.1833.4777-2.2945,1.1377-3.3028,1.92-2.4721,1.918-4.5653,2.803-6.2919,2.803-19.8185,0,8.8523-116.7402,71.8411-128.5338.868-.1625,1.7225-.2401,2.5585-.2401M106.1166,55.4147c-1.4629,0-2.9429.1383-4.3991.411-14.0356,2.6279-27.3118,9.7841-39.4596,21.2697-10.072,9.523-19.1247,21.7568-26.9067,36.3616-13.1933,24.7606-21.2647,54.3695-19.628,72.0036,1.6128,17.3774,12.6495,18.728,15.9938,18.728,4.1071,0,8.1704-1.6035,12.422-4.9023.3129-.2427.6297-.4322.916-.5478,6.4497-2.6039,12.2513-4.9162,17.3699-6.9564,23.3276-9.2979,33.9745-13.5416,40.9015-19.2828,8.8096-7.3016,9.7917-15.8841,11.035-26.7499,1.3041-11.3966,3.2748-28.6193,13.8829-58.9833,2.5549-7.3131,1.4553-15.1205-3.017-21.4202-4.4147-6.2186-11.5588-9.9313-19.1105-9.9313h0Z"/><path class="cls-11" d="M365.5412,331.2487c-3.1631,0-6.5381-.4131-10.0439-1.2295-.6709.041-1.3281.0615-1.9609.0615-6.4443,0-11.3232-2.1201-14.501-6.3018-7.9707-10.4883-2.373-30.6279,4.1074-53.9482,5.1738-18.6162,11.0381-39.7158,7.6504-51.8008-.0693-.249-.1201-.5029-.1504-.7598-.8555-7.2002,1.7109-11.8037,4.0156-14.3975,3.8984-4.3896,10.3506-6.8066,18.1689-6.8066,12.0381,0,24.4336,5.3359,30.8438,13.2773,4.0488,5.0156,5.5479,10.7832,4.3418,16.6943-.6602,5.3857-1.042,12.4277-1.4453,19.8779-1.8418,33.9805-4.6299,85.333-41.0234,85.333h-.0029Z"/><path class="cls-9" d="M372.8271,201.0665c14.8285.0011,33.3231,9.9133,30.2495,24.1502-3.7042,29.681,1.4683,101.0329-37.5355,101.0329-2.9499,0-6.1538-.4084-9.632-1.2737-.8296.0708-1.619.1055-2.3727.1055-35.2465,0,11.1059-76.1764,2.0714-108.4005-1.3077-11.0018,7.1018-15.6151,17.2194-15.6143M372.8279,191.0665c-.0009,0,.0008,0,0,0-9.2665-.0007-17.0468,3.0127-21.9077,8.4851-2.985,3.3605-6.3176,9.265-5.2425,18.3095.061.5134.1618,1.0214.3014,1.5192,3.0113,10.7406-2.6544,31.1262-7.653,49.1121-6.8375,24.6022-12.7426,45.8493-3.271,58.3123,2.8695,3.7758,8.4052,8.2766,18.4813,8.2766.4998,0,1.0108-.011,1.5296-.0331,3.6295.7977,7.1461,1.2014,10.475,1.2014,10.2668,0,19.0004-3.6873,25.9583-10.9593,5.5189-5.7681,9.7132-13.572,12.8226-23.8575,5.1709-17.1053,6.3173-38.2538,7.2384-55.2469.3945-7.2787.7677-14.1627,1.3937-19.3591,1.4118-7.2492-.4931-14.553-5.3911-20.6219-7.3066-9.0532-21.2668-15.1366-34.735-15.1384h0Z"/><path class="cls-11" d="M360.8195,147.5222c-5.9873,0-13.541-3.3516-21.5391-6.8994-6.6309-2.9424-14.1465-6.2764-18.3809-6.2764-.3115,0-.5918.0195-.832.0576-.2432.0391-.4893.0605-.7354.0635l-.5547.0029c-25.7373,0-29.999-20.5762-33.4238-37.1094-1.1465-5.5312-2.3301-11.2461-4.1729-16.0801-7.3467-12.7012-9.1963-21.873-5.6572-28.0352,1.7734-3.0879,5.7314-6.7676,14.5127-6.7676,17.1006,0,46.0322,14.1992,57.1924,23.7715.1494.1279.291.2656.4248.4102,9.6338,10.4785,17.5879,29.9922,23.6396,58.002,1.4336,7.0752.8457,11.8682-1.8359,15.1475-1.3857,1.6943-4.0088,3.7129-8.6377,3.7129h0Z"/><path class="cls-9" d="M290.0363,51.4781c15.656,0,43.2686,13.4158,53.9367,22.5666,11.8595,12.8974,18.7648,38.6929,22.4331,55.673,1.9426,9.5937-.6628,12.8048-5.5867,12.8048-9.9741,0-29.4588-13.1765-39.9201-13.1765-.5683,0-1.1117.039-1.6238.1211-.1681.0019-.3326.0029-.4985.0029-29.378,0-25.1709-30.1686-33.0747-50.3586-12.0406-20.6418-6.9711-27.6333,4.334-27.6333M290.0363,41.4781c-11.1738,0-16.4171,5.0453-18.8482,9.2778-5.8943,10.262.1313,23.4091,5.4577,32.6714,1.6206,4.3714,2.6864,9.5166,3.8115,14.9483,1.8801,9.0762,3.8242,18.4614,8.8241,26.2184,6.3625,9.871,16.2863,14.8761,29.4956,14.8761.2039,0,.406-.0012.6125-.0035.4776-.0054.9542-.0451,1.4261-.1187.0151-.0008.0429-.0019.0837-.0019,3.1743,0,10.7912,3.3793,16.3529,5.8468,8.496,3.7694,16.5209,7.3297,23.5672,7.3297,6.5881,0,10.4382-3.0169,12.508-5.5477,5.4313-6.6413,3.5109-16.1252,2.8798-19.2417-.0086-.0424-.0175-.0847-.0266-.127-6.3292-29.2966-14.4566-49.0308-24.8466-60.33-.267-.2904-.551-.5647-.8504-.8215-11.592-9.9433-41.6132-24.9764-60.4473-24.9764h0Z"/><path class="cls-11" d="M210.8571,151.7946c-6.3511,0-13.2017-1.5391-19.8267-3.0264-5.6274-1.2637-10.9424-2.458-14.9565-2.458,0,0-.1504.001-.1611.001-.5,0-.9971-.0752-1.4751-.2227-13.8281-4.2695-10.895-18.498-9.1421-27,.333-1.6152.6489-3.1484.8657-4.5312-.1475-9.3076,2.1606-16.4678,6.8633-21.2852,4.7324-4.8477,11.5874-7.2041,20.9565-7.2041,7.9609,0,16.7329,1.709,24.4722,3.2168,1.3271.2578,2.6338.5127,3.9111.7539,5.5205.9531,9.6396,3.4141,12.166,7.3008,4.9404,7.5967,2.2617,18.2354-.1006,27.6221-.9766,3.877-1.8984,7.5391-2.1045,10.3105-.0215.2832-.0664.5625-.1348.8379-1.7822,7.1553-6.9307,15.6846-21.3335,15.6846Z"/><path class="cls-9" d="M193.9813,91.0688c8.7804,0,18.7769,2.2448,27.4559,3.8833,19.6588,3.3968,6.8568,27.127,5.9016,39.9491-2.2906,9.1935-8.6548,11.8932-16.4821,11.8932-11.1522,0-25.2691-5.484-34.7841-5.484-.0526,0-.1075.0002-.1598.0005-11.5202-3.556-6.0869-17.1924-4.744-26.4272-.456-18.9297,9.8555-23.8149,22.8124-23.8149M193.9813,81.0688c-10.7866,0-18.8119,2.8496-24.5344,8.7116-5.588,5.7242-8.375,13.9312-8.2903,24.4041-.1964,1.1711-.4706,2.501-.7579,3.8943-1.007,4.8845-2.1484,10.4207-1.4921,15.9079,1.0044,8.3969,5.9965,14.3914,14.0567,16.8794.9555.2949,1.9497.4448,2.9494.4448.0228,0,.0456,0,.0684-.0002l.0914-.0003c3.4596,0,8.747,1.1875,13.8604,2.3359,6.8914,1.5477,14.0173,3.1481,20.9238,3.1481,18.5614,0,24.3731-12.2021,26.1854-19.4756.1369-.5497.2269-1.11.269-1.6748.1744-2.341,1.0857-5.9611,1.9671-9.462,2.4834-9.8647,5.5741-22.1418-.5556-31.5686-2.2726-3.4951-6.8053-7.9746-15.4984-9.5006-1.2468-.2357-2.521-.4839-3.815-.7359-7.9613-1.5506-16.9848-3.3081-25.4279-3.3081h0Z"/><path class="cls-11" d="M99.3844,404.8356c-3.5737-.001-7.3364-1.9111-11.8276-6.0068-43.0781-32.8115-59.812-68.3408-48.4023-102.7695,2.0054-7.04,6.9307-7.8037,8.9648-7.8037,7.4688,0,15.646,8.9316,28.3696,23.5059,6.6719,7.6416,16.7549,19.1904,20.7983,20.0596.5781.125,1.1299.3506,1.6289.668,17.0669,10.835,14.8389,23.9355,12.6846,36.6055-.6631,3.8994-1.3486,7.9307-1.5405,12.0928.5244,10.8467-.7495,17.2734-4.123,20.8213-1.7588,1.8496-4.0239,2.8271-6.5508,2.8271h-.002Z"/><path class="cls-9" d="M48.119,293.2552c10.8067,0,36.4092,40.9371,48.1177,43.454,19.0121,12.0706,9.5801,26.2564,8.8182,44.4913.4804,9.5161-.3607,18.6348-5.6692,18.6348-2.1049,0-4.9132-1.4351-8.6187-4.8478-30.0078-22.8113-60.2245-57.2678-46.8308-97.4639.8275-2.9921,2.2736-4.2684,4.1828-4.2684M48.119,283.2552c-2.4682,0-10.7011.8224-13.7435,11.3289-6.9139,20.9567-4.2011,42.2314,8.0654,63.2341,8.9994,15.4088,23.1007,30.4991,41.9142,44.8559,5.4009,4.8832,10.1869,7.1612,15.0306,7.1612,3.875,0,7.4888-1.5564,10.1758-4.3824,4.3615-4.5872,6.0651-12.0812,5.5046-24.2624.1928-3.7828.8387-7.5806,1.464-11.2578,2.2009-12.9418,4.94-29.0482-14.9334-41.6656-.921-.5848-1.9309-1.0145-2.9896-1.2728-3.5558-1.5747-12.8051-12.1688-18.3518-18.522-14.0608-16.1051-22.4861-25.217-32.1362-25.217h0Z"/><path class="cls-11" d="M243.8302,442.9851c-3.9824,0-7.7637-.3066-11.2412-.9111-2.6699-.4648-4.9863-2.0654-6.3574-4.3926-1.3545-2.2988-1.6318-5.0605-.7598-7.5781,14.3076-41.3105,34.1992-45.2041,59.3828-50.1348,10.6367-2.082,22.6924-4.4424,36.459-9.8877,1.0742-.4258,2.2021-.6416,3.3496-.6416,5.0254,0,9.1172,4.0752,9.1221,9.085.0156,17.4619-11.252,34.125-31.7295,46.9209-17.3135,10.8193-39.623,17.54-58.2207,17.54h-.0049Z"/><path class="cls-9" d="M324.663,374.4392c2.1701,0,4.1197,1.7451,4.1219,4.0901.0325,34.5257-50.056,59.4559-84.9528,59.4559-3.6516,0-7.1424-.2736-10.3863-.8375-2.5173-.4376-4.0854-2.9943-3.2492-5.4086,19.0976-55.1398,45.6607-38.2994,92.9559-57.0093.5014-.1984,1.0116-.2905,1.5106-.2905M324.663,364.4392c-1.7799,0-3.5258.3337-5.1892.9917-13.3388,5.2768-25.1553,7.5901-35.5808,9.6311-12.9719,2.5396-25.2244,4.9382-36.0208,12.3987-11.5903,8.0091-20.2095,21.0389-27.1249,41.0056-1.353,3.9065-.9237,8.1913,1.1775,11.756,2.1173,3.5918,5.6924,6.0621,9.8085,6.7775,3.7605.6537,7.8312.9852,12.0988.9852,19.4845,0,42.8101-7.0123,60.8742-18.3004,21.994-13.7438,34.0967-31.9146,34.0786-51.1649-.0074-7.7642-6.3424-14.0807-14.1219-14.0807h0Z"/><path class="cls-11" d="M216.4591,339.5017c-13.8018-.0029-27.2393-10.9512-40.2344-21.5391-8.0508-6.5586-15.6553-12.7549-22.2153-15.3701-.1836-.0732-.3633-.1572-.5371-.252-9.7632-5.3105-15.4375-11.9082-16.8667-19.6094-2.667-14.3779,9.7417-28.9385,21.7417-43.0205,7.1045-8.3369,14.4507-16.957,17.3687-24.2979.1968-.4941.4702-.9541.8115-1.3613,4.8682-5.8193,10.4521-8.7705,16.5938-8.7705.0005,0,0,0,0,0,11.7749,0,22.8164,11.002,33.4941,21.6426,7.7744,7.748,15.8145,15.7598,22.8027,18.0986.209.0693.4121.1523.6094.249,10.9668,5.3584,17.2188,11.9297,19.1123,20.0879,3.3389,14.3789-8.1553,29.1875-19.2715,43.5078-6.0176,7.752-11.7012,15.0752-14.6416,21.7168-.2754.6201-.6738,1.1787-1.1709,1.6406-5.2031,4.8281-11.1221,7.2773-17.5918,7.2773h-.0049Z"/><path class="cls-9" d="M193.1217,210.2806c17.6839,0,36.7484,33.4734,54.7108,39.4832,41.8011,20.4245-5.7409,52.964-17.1779,78.7959-4.5354,4.209-9.2961,5.9419-14.1946,5.9419-20.1505,0-42.5689-29.3647-60.5987-36.5541-40.1861-21.858,14.1076-54.5434,24.5013-80.688,4.1452-4.955,8.41-6.9789,12.759-6.9789M193.1217,200.2806c-7.6924,0-14.5656,3.5537-20.429,10.5623-.6821.8154-1.2299,1.7344-1.6226,2.7223-2.6133,6.5735-9.6874,14.8747-16.5285,22.9025-12.7597,14.9731-25.9539,30.4558-22.852,47.1753,1.7171,9.2552,8.242,17.0236,19.3937,23.0891.3478.1891.7065.3575,1.0742.5042,5.8475,2.3317,13.5034,8.5698,20.9072,14.6025,13.674,11.1417,27.8137,22.6628,43.3954,22.6628,7.7749,0,14.8393-2.8975,20.9969-8.612.9952-.9235,1.7919-2.04,2.3415-3.2815,2.6935-6.0836,8.4518-13.5021,14.0205-20.6765,11.8324-15.2441,24.0677-31.0072,20.1916-47.7029-2.2249-9.5831-9.5554-17.4728-21.788-23.4498-.3944-.1927-.8009-.3592-1.2172-.4984-5.8762-1.9661-13.837-9.8992-20.8607-16.8984-11.3971-11.3575-23.1822-23.1016-37.023-23.1016h0Z"/><polygon class="cls-3" points="160.9337 47.146 195.0067 63.0955 209.5654 55.1207 224.6905 65.4146 256.1465 51.4781 248.6289 86.0042 209.5654 94.201 158.2342 76.3867 160.9337 47.146"/><path class="cls-6" d="M168.7137,80.0236s8.5849,2.444,9.2025-15.7735c.4976-14.6806-5.3209-25.351-7.599-28.9409-.3871-.6099-.8181-1.1898-1.2586-1.7623-1.3256-1.7227-5.3681-8.1527,2.991-13.76,5.6471-3.7882,16.0562-2.779,20.9965,6.793,0,0,8.0281,12.0421,7.1018,26.2456,0,0,1.0568-21.6638-1.2285-30.5341-.5347-2.0756-.8265-4.2117-.6631-6.3488.3525-4.6115,2.1214-11.1954,9.3022-11.5943,11.1158-.6175,11.1158,11.1158,10.4983,15.7474s-2.779,10.807-1.2351,32.7299c0,0,9.7584-28.7932,12.9684-32.7299,0,0,5.9373-10.1318,17.0145-1.9493,6.4794,4.7862,4.1341,9.1532,2.6562,10.9563-1.0918,1.3321-2.0586,2.7482-2.8626,4.2715-2.7166,5.1472-7.1348,15.8979-6.5415,30.5672.8491,20.9965,8.5723,22.0629,8.5723,22.0629l-39.0636,8.1967-40.8516-14.1774Z"/><polygon class="cls-4" points="82.996 338.9706 113.7136 333.532 113.7136 313.5695 116.7359 280.4814 107.0327 265.0833 82.996 272.219 84.294 295.2571 67.3419 308.8438 82.996 338.9706"/><path class="cls-4" d="M76.6373,301.3937c1.9139,14.8211,37.4396,59.9944,51.818,39.6155,14.3784-20.379-40.5675-70.2424-40.5675-70.2424l-4.8918,1.4522,1.2979,23.0382-7.6566,6.1366Z"/><polygon class="cls-6" points="292.1806 292.4306 294.2481 325.5111 309.1132 339.747 305.7672 360.0684 326.4425 346.2017 313.0035 320.7982 314.0337 297.1463 292.1806 292.4306"/><path class="cls-4" d="M320.2399,335.714c-5.2491,8.3369-41.537,28.6413-40.9194,7.9535.6175-20.6877,34.5825-43.5369,34.5825-43.5369l-.8994,20.6676,7.2364,14.9157Z"/><path class="cls-7" d="M129.5151,249.7638l25.2145,38.3031,25.6928-7.2316,9.0085,7.065,27.9116-18.6078,36.815,23.9626,25.2439-21.1586-23.255-55.3244-5.0288-24.8104-46.8455,2.2267s-15.0634-21.2775-28.3594-35.7502c-15.7543-1.1564-36.3247-1.4768-49.9113-1.1814-1.2553-10.4626-3.0171-18.8712-1.7722-27.4554-22.8374-5.8293-47.592-7.3973-47.592-7.3973,0,0-13.9765-31.3356-16.2061-40.7599C28.5572,114.5078,14.5098,174.117,14.5098,174.117l50.0565,1.4524,3.2179,33.5899,61.7309,40.6046Z"/><path class="cls-1" d="M175.9128,158.4384c-17.6786-.9115-36.3247-1.4768-49.9113-1.1814-1.2553-10.4626-3.0171-18.8712-1.7722-27.4554"/><polyline class="cls-2" points="209.5654 94.201 175.9128 141.3109 175.9128 158.4384"/><polyline class="cls-2" points="292.1806 292.4306 279.4014 272.0967 328.7849 270.7668 409.439 230.9811"/><line class="cls-2" x1="107.0327" y1="265.0833" x2="129.5151" y2="249.7638"/><polyline class="cls-2" points="82.996 272.219 49.6889 226.1349 8.3383 234.405"/><polyline class="cls-2" points="326.4425 346.2017 349.776 352.6708 357.4554 381.495"/><polyline class="cls-2" points="82.996 338.9706 72.5482 352.6708 67.3419 385.63"/><path class="cls-5" d="M167.9813,222.6536c-1.3722,15.8034-2.0059,61.4342,29.598,102.4841,4.3033,5.5895,13.4687,6.4848,19.1379,1.8922,12.4466-10.0829,29.9811-36.1584,31.114-103.1939.075-4.4354-2.9116-8.4835-7.6268-10.2468-12.7461-4.7666-39.4619-11.7462-65.6707.2813-3.793,1.7406-6.2312,5.0853-6.5523,8.783Z"/><ellipse class="cls-9" cx="168.99" cy="185.9964" rx="12.7369" ry="16.4421"/><path class="cls-8" d="M75.6641,196.991c.0273-2.666.7026-28.6045,16.3794-54.8311,2.5831-4.3215,5.3752-8.3132,8.3405-12.007-13.4255-2.057-23.9181-2.7465-24.0773-2.7567-1.8555-.1182-3.4927-1.2559-4.25-2.9531-.4546-1.0195-8.9531-20.1055-13.6982-32.9824-21.2124,25.7725-33.3101,63.3848-37.4058,77.8428l43.7441,1.2695c2.5205.0732,4.5918,2.0117,4.832,4.5215l2.9897,31.2051,3.0781,2.0247c-.2247-6.192-.0005-10.3047.0674-11.3333Z"/><path class="cls-9" d="M111.6764,124.3427c-2.0393-.4089-4.0061-1.1043-5.9873-1.454-1.4235,1.4007-.4525.4495-1.8158,1.9611-1.2994,1.4407-2.5792,2.9165-3.8195,4.4614-2.9653,3.6937-5.7574,7.6855-8.3405,12.007-15.6768,26.2266-16.3521,52.165-16.3794,54.8311-.0679,1.0286-.2921,5.1414-.0674,11.3333.0685,1.8874.1792,3.9669.3486,6.2137.1511,2.0032.3497,4.138.6069,6.3847l5.5771,3.6684,5.7076,3.7543c-.3967-2.299-.727-4.5193-1.0019-6.6445-.2933-2.2667-.5223-4.4207-.7016-6.4459-.9343-10.5522-.4968-17.5253-.483-17.72.0083-.1143.0122-.2354.0127-.3496.0005-.2529.2417-25.5029,15.1807-50.2559,3.2368-5.3634,6.8924-10.2885,10.9476-14.7892,1.3229-1.4681,2.6854-2.8942,4.0947-4.2703,1.4617-1.4272.9901.027,2.5446-1.301-2.0061-.4576-4.44-.9866-6.4241-1.3845Z"/></svg>