<?xml version="1.0" encoding="UTF-8"?><svg id="_6" xmlns="http://www.w3.org/2000/svg" viewBox="0 0 419.1307 461.9622"><defs><style>.cls-1{fill:#575959;}.cls-2{fill:#f7f5ae;stroke-width:6px;}.cls-2,.cls-3,.cls-4,.cls-5,.cls-6{stroke:#575959;stroke-linejoin:round;}.cls-3{fill:none;stroke-linecap:round;}.cls-3,.cls-5{stroke-width:8px;}.cls-4{fill:#edeab5;stroke-width:7px;}.cls-5,.cls-6{fill:#c6c6c6;}.cls-6{stroke-width:10px;}</style></defs><path class="cls-2" d="M169.7495,424.7286l3.4717-61.3293c.0028-.0494.007-.0913.0152-.1401.1557-.9286,1.8142-11.9935-7.3148-13.4252-.1182-.0185-.2465-.0258-.366-.0207-9.2323.3923-8.833,11.5737-8.7831,12.514.0026.0494.0021.0915-.0007.1409l-3.4717,61.3293c-.0517.9135-.3173,1.8022-.7753,2.5943l-13.4047,14.1739c-.7575,1.3101.8267,2.7164,2.0378,1.809l12.493-2.8045c.8184-.6132,1.9965-.1631,2.1974.8396l-.3963,13.9543c-.2321,1.4148,1.5694,2.2128,2.4612,1.0901l7.4295-14.507c.3129-.9736,1.5342-1.2879,2.2781-.5862l9.0811,8.5649c1.1009,1.0383,2.8337-.1802,2.2289-1.5674l-8.7039-19.9645c-.3657-.8388-.5292-1.7517-.4775-2.6652Z"/><path class="cls-2" d="M262.2609,424.0609l-4.9189-61.0554c-.004-.0493-.0055-.0914-.0041-.1409.0275-.9413.16-12.1322-9.083-12.3011-.117-.0021-.2424.008-.3575.0288-9.0968,1.6465-7.1744,12.6717-6.9965,13.5965.0093.0486.0146.0904.0185.1397l4.9189,61.0554c.0827,1.0262-.0768,2.0575-.4656,3.0108l-4.0527,22.9552c-.3422,1.4741,1.5835,2.3569,2.477,1.1355l7.3704-10.0749c.6038-.8254,1.8619-.7386,2.3468.1618l6.4229,11.9276c.6798,1.2624,2.5937.7948,2.6149-.6388l.2001-13.5455c.0151-1.0225,1.0916-1.6795,2.0079-1.2255l13.2039,3.0128c1.356.6719,2.6578-.9993,1.6745-2.1497l-16.4357-12.995c-.5364-.8787-.859-1.8712-.9416-2.8974Z"/><path class="cls-5" d="M161.8928,95.8535s16.3649-11.7333,16.9825-29.9509c.4976-14.6806-5.3209-25.351-7.599-28.9409-.3871-.6099-.8181-1.1898-1.2586-1.7623-1.3256-1.7227-5.3681-8.1527,2.991-13.76,5.6471-3.7882,16.0562-2.779,20.9965,6.793,0,0,8.0281,12.0421,7.1018,26.2456,0,0,1.0568-21.6638-1.2285-30.5341-.5347-2.0756-.8265-4.2117-.6631-6.3488.3525-4.6115,2.1214-11.1954,9.3022-11.5943,11.1158-.6175,11.1158,11.1158,10.4983,15.7474s-2.779,10.807-1.2351,32.7299c0,0,9.7584-28.7932,12.9684-32.7299,0,0,5.9373-10.1318,17.0145-1.9493,6.4794,4.7862,4.1341,9.1532,2.6562,10.9563-1.0918,1.3321-2.0586,2.7482-2.8626,4.2715-2.7166,5.1472-7.1348,15.8979-6.5415,30.5672.8491,20.9965,18.1404,30.2597,18.1404,30.2597h-97.2633Z"/><path class="cls-6" d="M209.1417,200.6613s-91.5412,8.8726-107.0756,71.0735c0,0-23.2085,56.8326,23.1993,110.065,0,0,29.6363,38.4456,83.9563,38.4456,0,0,61.8968,0,85.5742-38.4456,0,0,34.0955-30.8593,24.6245-110.065,0,0-13.7106-71.0735-110.2787-71.0735Z"/><path class="cls-6" d="M81.228,179.2041s-9.4983,131.2493,125.74,131.2485c142.6567-.0009,130.8402-135.6723,130.8402-135.6723,0,0,8.5763-100.4831-131.151-100.4831-125.4462,0-125.4291,104.9069-125.4291,104.9069Z"/><path class="cls-4" d="M169.8829,214.5475c-1.3722,15.8034-2.0059,61.4342,29.598,102.4841,4.3033,5.5895,13.4687,6.4848,19.1379,1.8922,12.4466-10.0829,29.9811-36.1584,31.114-103.1939.075-4.4354-2.9116-8.4835-7.6268-10.2468-12.7461-4.7666-39.4619-11.7462-65.6707.2813-3.793,1.7406-6.2312,5.0853-6.5523,8.783Z"/><ellipse class="cls-1" cx="170.8916" cy="177.8902" rx="12.7369" ry="16.4421"/><ellipse class="cls-1" cx="248.2391" cy="177.8902" rx="12.7369" ry="16.4421"/><path class="cls-3" d="M167.7571,332.3225s34.3147,33.8106,19.9363,54.1895c-14.3784,20.379-48.0665-20.8421-49.9803-35.6632"/><path class="cls-3" d="M264.8129,318.0963s-33.9649,22.8491-34.5825,43.5369c-.6175,20.6877,37.979-.9263,43.2281-9.2632"/></svg>