<?xml version="1.0" encoding="UTF-8"?><svg id="_1" xmlns="http://www.w3.org/2000/svg" viewBox="0 0 419.1307 461.9622"><defs><style>.cls-1{fill:#6d6d6d;}.cls-2{fill:#575959;}.cls-3{fill:#939292;}.cls-3,.cls-4{stroke:#575959;stroke-linejoin:round;stroke-width:10px;}.cls-5{fill:#fcf4c8;}.cls-4{fill:#f4a47c;}</style></defs><g id="egg_base"><path class="cls-5" d="M209.5654,454.1006c-111.4194,0-202.0654-100.2529-202.0654-223.481S98.146,7.1382,209.5654,7.1382s202.0654,100.2534,202.0654,223.4814-90.646,223.481-202.0654,223.481Z"/><path class="cls-1" d="M209.5654,14.6384c26.0851,0,51.3976,5.6345,75.2343,16.7469,23.1369,10.7861,43.9434,26.2578,61.8417,45.985,17.9931,19.8318,32.1295,42.9509,42.0165,68.715,10.267,26.7547,15.4729,55.1961,15.4729,84.5342s-5.2059,57.7794-15.4729,84.5341c-9.887,25.7641-24.0234,48.8832-42.0165,68.7151-17.8983,19.7273-38.7048,35.1989-61.8417,45.985-23.8367,11.1124-49.1492,16.7469-75.2343,16.7469s-51.3976-5.6345-75.2344-16.7469c-23.1367-10.7861-43.9434-26.2577-61.8416-45.985-17.9932-19.8319-32.1295-42.951-42.0165-68.7151-10.2671-26.7547-15.4729-55.1961-15.4729-84.5341s5.2058-57.7795,15.4729-84.5342c9.887-25.7641,24.0233-48.8832,42.0165-68.715,17.8982-19.7273,38.7048-35.1989,61.8416-45.985,23.8369-11.1124,49.1494-16.7469,75.2344-16.7469M209.5654-.3616C93.8256-.3616,0,103.0521,0,230.6195s93.8256,230.9811,209.5654,230.9811,209.5654-103.4138,209.5654-230.9811S325.305-.3616,209.5654-.3616h0Z"/><path class="cls-4" d="M146.0408,417.0946c-.181-.1184-.3732-.1987-.5808-.2592-8.0361-2.3392-19.2299-29.2293-24.2091-20.6036-1.6734,3.2927-2.461,11.3572-6.808,10.854-7.5876-2.058-14.4618-6.4305-21.2653-10.2618-17.2603-9.191,25.7066,22.4374,28.5199,28.2268.2001.4117.5001.7627.8996.9862,16.4624,9.2115,36.8919,12.1728,54.9221,18.406.0723.025.15.0469.2247.0635,11.2153,2.4971-4.5665-3.808-10.0253-8.2575-1.2569-1.0245-.9822-3.0093.5071-3.6507,34.7769-14.9786-9.1013-6.9469-22.1849-15.5037Z"/><path class="cls-4" d="M34.7172,229.9483c-8.3828-31.31-1.2062-50.7604-13.4551-2.0887-.0821.3264-.2275.6484-.4612.8906-2.2669,2.3483-6.8607,2.3038-7.1112,6.1056-.0139.211.0155.4288.0666.6339,4.6744,18.7494,8.7227,37.3095,10.9349,56.6099.0114.0997.0313.205.0568.3021,4.0548,15.4674,1.9025-21.5396,13.7781-3.0986.0867.1346.1899.2589.3035.3718,2.6418,2.6271,12.0651,15.5264,12.3234,9.6816-30.3224-61.2632,30.7313-54.0121-14.972-67.905-.7102-.2159-1.2718-.7862-1.4638-1.5033Z"/><path class="cls-4" d="M246.9731,230.8288c-13.5837-1.3749-25.1378,2.4152-29.1441-14.0842-.0211-.087-.0488-.1753-.0819-.2585-3.6234-9.1188-6.8463-18.1106-10.6629-26.9285-6.5603-15.4394-15.681,40.6372-25.249,39.5913-.1897-.0207-.3803-.0353-.5695-.0104-11.664,1.5303-23.6642,1.7209-35.4174,2.5023-17.5122,2.1401,24.4717,24.979,27.1279,33.7325.0669.2203.0787.4506.0665.6805-.6336,11.9192-6.0726,24.7838-8.0409,37.1717-4.9629,21.0406,35.8208-24.5534,46.2521-12.5381.2631.303.5833.5426.9577.687,7.7098,2.9735,24.6586,18.8174,31.2883,16.7891.9136-.2795,1.5064-1.1946,1.4343-2.1473-1.0877-14.3715-14.1783-32.4255-5.4241-45.1781.0692-.1008.145-.1956.2277-.2857,13.1998-14.3747,49.3977-31.4359,7.5097-29.7156-.0902.0037-.1845.0009-.2744-.0082Z"/><path class="cls-4" d="M105.6646,117.6656c11.8992-10.5441,29.6206,30.0326,31.0337,12.5451.0148-.1829.0029-.3783-.0302-.5587-9.3641-51.02,73.4288-38.9048,18.9403-52.6766-.1757-.0444-.3676-.0654-.5488-.063-16.7136.2195-8.2615-14.9005-8.1823-23.8126.0159-1.7894-2.0592-2.8-3.4721-1.7019-20.7115,16.0966-23.3659,22.1208-51.0114,27.488-1.3715.2663-2.1305,1.7565-1.5416,3.0234,11.6505,25.0643,3.6317,18.9053-8.7451,46.3348-4.1446,10.0932,17.7928-8.5106,22.822-10.1326.2762-.0891.5182-.2535.7354-.446Z"/><path class="cls-4" d="M388.7703,299.5867c-16.2996-20.4444,21.7234-85.4976-15.0547-35.5374-.1731.2352-.388.4542-.6478.5875-5.3633,2.7517-13.6723-9.9631-18.728-12.881-.1365-.0788-.2645-.1736-.3793-.2815-10.9946-10.3355,3.7959,34.7545-4.6009,39.6207-2.8845,6.484-33.8739,23.7566-18.7348,24.6944,30.5748,1.2456,21.3651.7301,20.5562,31.1088,1.4839,6.966,17.8022-29.3048,20.5771-31.2128,4.5248-5.8866,19.1894-5.4705,17.4583-15.1647-.0613-.3432-.2288-.6615-.4461-.9341Z"/><path class="cls-4" d="M342.4049,115.6981c19.801,23.796,14.5964,9.9247,7.0751-9.2773-.033-.0843-.0743-.1704-.1186-.2494-9.457-16.8667,12.7273-11.8874,5.4327-20.3309-8.1123-7.3543-19.2626-10.7201-26.994-18.5007-2.8235-2.3038-21.3993-28.4454-23.008-21.0691-.1245,9.0184,1.9552,17.1024-10.1302,13.7619-.1151-.0318-.2309-.0535-.3497-.0653-4.1073-.4071-32.0528-5.07-19.4553,2.1691.0667.0383.1407.0756.2111.1066,51.2742,22.5688,14.0861,52.2529,32.3178,49.8152.2142-.0286.4357-.0945.6321-.1844,16.6172-7.608,20.8215-12.1255,34.3871,3.8243Z"/><path class="cls-3" d="M125.1692,427.7996c1.3363,1.3906,1.9271.1812.0217-.0204l-.0217.0204Z"/><path class="cls-3" d="M124.9157,427.7956l-.2465-.2466c.0302.0154.0852.1763.2465.2466Z"/><path class="cls-2" d="M209.5654,15.3616c26.0851,0,51.3975,5.6345,75.2343,16.7469,23.1369,10.7861,43.9434,26.2577,61.8416,45.985,17.9932,19.8319,32.1295,42.951,42.0165,68.7151,10.2671,26.7547,15.4729,55.1961,15.4729,84.5341s-5.2058,57.7794-15.4729,84.5341c-9.887,25.7641-24.0233,48.8832-42.0165,68.7151-17.8982,19.7273-38.7047,35.1989-61.8416,45.985-23.8368,11.1124-49.1492,16.7469-75.2343,16.7469s-51.3976-5.6345-75.2344-16.7469c-23.1368-10.7861-43.9434-26.2577-61.8416-45.985-17.9932-19.8319-32.1295-42.951-42.0165-68.7151-10.2671-26.7547-15.4729-55.1961-15.4729-84.5341s5.2058-57.7794,15.4729-84.5341c9.887-25.7641,24.0233-48.8832,42.0165-68.7151,17.8982-19.7273,38.7048-35.1989,61.8416-45.985,23.8368-11.1124,49.1493-16.7469,75.2344-16.7469M209.5654.3616C93.8256.3616,0,103.7754,0,231.3427s93.8256,230.9811,209.5654,230.9811,209.5653-103.4138,209.5653-230.9811S325.3051.3616,209.5654.3616h0Z"/></g></svg>