<?xml version="1.0" encoding="UTF-8"?><svg id="_5" xmlns="http://www.w3.org/2000/svg" viewBox="0 0 419.1307 461.9622"><defs><style>.cls-1{fill:#6d6d6d;}.cls-2,.cls-3,.cls-4,.cls-5,.cls-6,.cls-7,.cls-8,.cls-9,.cls-10,.cls-11,.cls-12,.cls-13,.cls-14{stroke-linejoin:round;}.cls-2,.cls-3,.cls-4,.cls-5,.cls-6,.cls-7,.cls-8,.cls-9,.cls-10,.cls-13,.cls-14{stroke:#575959;}.cls-2,.cls-5,.cls-8,.cls-11,.cls-14{stroke-width:10px;}.cls-2,.cls-7,.cls-8,.cls-11{fill:none;}.cls-15{fill:#575959;}.cls-3{stroke-width:5.4278px;}.cls-3,.cls-4,.cls-10{fill:#f7f5ae;}.cls-4{stroke-width:9.77px;}.cls-5{fill:#939292;}.cls-16{fill:#fff;}.cls-6{fill:#f2cf81;}.cls-6,.cls-13{stroke-width:6.5133px;}.cls-17,.cls-9{fill:#848484;}.cls-7,.cls-8,.cls-9,.cls-10{stroke-linecap:round;}.cls-7,.cls-9,.cls-10{stroke-width:8.6845px;}.cls-18{fill:#fcf4c8;}.cls-11,.cls-12{stroke:#565959;}.cls-12{stroke-width:5.778px;}.cls-12,.cls-13{fill:#f2f0ac;}.cls-14{fill:#f4a47c;}</style></defs><path class="cls-18" d="M209.5656,454.1003c-111.4194,0-202.0654-100.2529-202.0654-223.4805S98.1461,7.1384,209.5656,7.1384s202.0654,100.2529,202.0654,223.4814-90.6465,223.4805-202.0654,223.4805Z"/><path class="cls-1" d="M209.5654,14.6384c26.0851,0,51.3975,5.6345,75.2343,16.7469,23.1369,10.7861,43.9434,26.2577,61.8416,45.985,17.9932,19.8319,32.1295,42.951,42.0165,68.7151,10.2671,26.7547,15.4729,55.1961,15.4729,84.5341s-5.2058,57.7794-15.4729,84.5341c-9.887,25.7641-24.0233,48.8832-42.0165,68.7151-17.8982,19.7273-38.7047,35.1989-61.8416,45.985-23.8368,11.1124-49.1492,16.7469-75.2343,16.7469s-51.3976-5.6345-75.2344-16.7469c-23.1368-10.7861-43.9433-26.2577-61.8416-45.985-17.9931-19.8319-32.1294-42.9509-42.0164-68.7151-10.2672-26.7547-15.4729-55.1961-15.4729-84.5341s5.2057-57.7794,15.4729-84.5341c9.887-25.7642,24.0233-48.8832,42.0164-68.7151,17.8983-19.7273,38.7048-35.1989,61.8416-45.985,23.8368-11.1124,49.1493-16.7469,75.2344-16.7469M209.5654-.3616C93.8256-.3616,0,103.0522,0,230.6195s93.8255,230.9811,209.5653,230.9811,209.5653-103.4138,209.5653-230.9811S325.305-.3616,209.5654-.3616h0Z"/><path class="cls-14" d="M146.0408,417.0946c-.181-.1184-.3732-.1987-.5808-.2592-8.0361-2.3392-19.2299-29.2293-24.2091-20.6036-1.6734,3.2927-2.461,11.3572-6.808,10.854-7.5876-2.058-14.4618-6.4305-21.2653-10.2618-17.2603-9.191,25.7066,22.4374,28.5199,28.2268.2001.4117.5001.7627.8996.9862,16.4624,9.2115,36.8919,12.1728,54.9221,18.406.0723.025.15.0469.2247.0635,11.2153,2.4971-4.5665-3.808-10.0253-8.2575-1.2569-1.0245-.9822-3.0093.5071-3.6507,34.7769-14.9786-9.1013-6.9469-22.1849-15.5037Z"/><path class="cls-14" d="M34.7172,229.9483c-8.3828-31.31-1.2062-50.7604-13.4551-2.0887-.0821.3264-.2275.6484-.4612.8906-2.2669,2.3483-6.8607,2.3038-7.1112,6.1056-.0139.211.0155.4288.0666.6339,4.6744,18.7494,8.7227,37.3095,10.9349,56.6099.0114.0997.0313.205.0568.3021,4.0548,15.4674,1.9025-21.5396,13.7781-3.0986.0867.1346.1899.2589.3035.3718,2.6418,2.6271,12.0651,15.5264,12.3234,9.6816-30.3224-61.2632,30.7313-54.0121-14.972-67.905-.7102-.2159-1.2718-.7862-1.4638-1.5033Z"/><path class="cls-14" d="M246.9731,230.8288c-13.5837-1.3749-25.1378,2.4152-29.1441-14.0842-.0211-.087-.0488-.1753-.0819-.2585-3.6234-9.1188-6.8463-18.1106-10.6629-26.9285-6.5603-15.4394-15.681,40.6372-25.249,39.5913-.1897-.0207-.3803-.0353-.5695-.0104-11.664,1.5303-23.6642,1.7209-35.4174,2.5023-17.5122,2.1401,24.4717,24.979,27.1279,33.7325.0669.2203.0787.4506.0665.6805-.6336,11.9192-6.0726,24.7838-8.0409,37.1717-4.9629,21.0406,35.8208-24.5534,46.2521-12.5381.2631.303.5833.5426.9577.687,7.7098,2.9735,24.6586,18.8174,31.2883,16.7891.9136-.2795,1.5064-1.1946,1.4343-2.1473-1.0877-14.3715-14.1783-32.4255-5.4241-45.1781.0692-.1008.145-.1956.2277-.2857,13.1998-14.3747,49.3977-31.4359,7.5097-29.7156-.0902.0037-.1845.0009-.2744-.0082Z"/><path class="cls-14" d="M388.7703,299.5867c-16.2996-20.4444,21.7234-85.4976-15.0547-35.5374-.1731.2352-.388.4542-.6478.5875-5.3633,2.7517-1.9757,12.9534-7.0314,10.0355-.1365-.0788,8.5326-7.6453,8.4178-7.7532-10.9946-10.3355-16.6979,19.3097-25.0946,24.1759-2.8845,6.484-33.8739,23.7566-18.7348,24.6944,30.5748,1.2456,21.3651.7301,20.5562,31.1088,1.4839,6.966,17.8022-29.3048,20.5771-31.2128,4.5248-5.8866,19.1894-5.4705,17.4583-15.1647-.0613-.3432-.2288-.6615-.4461-.9341Z"/><path class="cls-14" d="M342.4049,115.6981c19.801,23.796,14.5964,9.9247,7.0751-9.2773-.033-.0843-.0743-.1704-.1186-.2494-9.457-16.8667,12.7273-11.8874,5.4327-20.3309-8.1123-7.3543-19.2626-10.7201-26.994-18.5007-2.8235-2.3038-21.3993-28.4454-23.008-21.0691-.1245,9.0184,1.9552,17.1024-10.1302,13.7619-.1151-.0318-.2309-.0535-.3497-.0653-4.1073-.4071-32.0528-5.07-19.4553,2.1691.0667.0383.1407.0756.2111.1066,51.2742,22.5688,14.0861,52.2529,32.3178,49.8152.2142-.0286.4357-.0945.6321-.1844,16.6172-7.608,20.8215-12.1255,34.3871,3.8243Z"/><path class="cls-5" d="M125.1692,427.7996c1.3363,1.3906,1.9271.1812.0217-.0204l-.0217.0204Z"/><path class="cls-5" d="M124.9157,427.7956l-.2465-.2466c.0302.0154.0852.1763.2465.2466Z"/><path class="cls-15" d="M209.5654,15.3616c26.0851,0,51.3975,5.6345,75.2343,16.7469,23.1369,10.7861,43.9434,26.2577,61.8416,45.985,17.9932,19.8319,32.1295,42.951,42.0165,68.7151,10.2671,26.7547,15.4729,55.1961,15.4729,84.5341s-5.2058,57.7794-15.4729,84.5341c-9.887,25.7641-24.0233,48.8832-42.0165,68.7151-17.8982,19.7273-38.7047,35.1989-61.8416,45.985-23.8368,11.1124-49.1492,16.7469-75.2343,16.7469s-51.3976-5.6345-75.2344-16.7469c-23.1368-10.7861-43.9434-26.2577-61.8416-45.985-17.9932-19.8319-32.1295-42.951-42.0165-68.7151-10.2671-26.7547-15.4729-55.1961-15.4729-84.5341s5.2058-57.7794,15.4729-84.5341c9.887-25.7641,24.0233-48.8832,42.0165-68.7151,17.8982-19.7273,38.7048-35.1989,61.8416-45.985,23.8368-11.1124,49.1493-16.7469,75.2344-16.7469M209.5654.3616C93.8256.3616,0,103.7754,0,231.3427s93.8256,230.9811,209.5654,230.9811,209.5653-103.4138,209.5653-230.9811S325.3051.3616,209.5654.3616h0Z"/><path class="cls-14" d="M155.6084,76.9755c-.1757-.0444-.3676-.0654-.5488-.063-16.7135.2195-8.2614-14.9005-8.1823-23.8126.0159-1.7894-2.0591-2.7999-3.472-1.7018-20.7115,16.0966-23.3658,22.1208-51.0114,27.488-1.3716.2663-2.1305,1.7565-1.5416,3.0235,5.7689,12.4109,6.7105,17.1664,4.693,22.1349l77.6006-21.551c-2.1682-1.3343-7.5317-2.989-17.5374-5.5179Z"/><path class="cls-14" d="M167.977,84.7034l-77.6006,21.551c-2.0569,5.0656-7.1898,10.3524-13.438,24.1999-4.1446,10.0932,17.7928-8.5106,22.822-10.1326.2762-.0891.5182-.2535.7354-.446,11.8992-10.5442,29.6206,30.0326,31.0337,12.5451.0148-.1829.003-.3782-.0302-.5587-7.6446-41.6512,46.1169-41.2266,36.4777-47.1587Z"/><polyline class="cls-11" points="175.7521 81.7695 64.6753 112.6174 70.3211 171.6064 15 186.8665"/><path class="cls-17" d="M158.8356,100.3005c-.4214,0-.8438-.0537-1.2563-.1602l-15.9668-4.1445c-1.8086-.4697-3.2041-1.9082-3.6191-3.7305-.4146-1.8213.2212-3.7227,1.6484-4.9287l21.3765-18.0615-6.5581-17.9873c-.6621-1.8174-.2178-3.8525,1.1421-5.2275.9551-.9668,2.2427-1.4854,3.5566-1.4854.5552,0,1.1152.0928,1.6572.2832l26.3677,9.2695,28.1211-13.915c.6953-.3438,1.4551-.5186,2.2178-.5186.4795,0,.959.0684,1.4268.208l35.5029,10.5664c1.8721.5576,3.249,2.1543,3.5234,4.0898l4.2832,30.1797c.3691,2.5977-1.333,5.0381-3.8984,5.5908l-34.1885,7.3535c-.3477.0752-.7002.1123-1.0518.1123-.6182,0-1.2344-.1143-1.8164-.3418l-26.2793-10.248-34.4497,12.7832c-.5596.208-1.1489.3125-1.7393.3125Z"/><path class="cls-15" d="M217.523,44.6945l35.503,10.5663,4.2827,30.1793-34.1881,7.3545-28.0515-10.9392-36.2336,13.4455-15.9665-4.145,24.0422-20.3148-7.7532-21.266,28.3547,9.9685,30.0103-14.8491M217.5232,34.6945c-1.5258,0-3.0445.3491-4.435,1.0372l-26.2339,12.9805-24.3798-8.571c-1.0838-.381-2.2045-.5663-3.3151-.5663-2.6282-.0001-5.2021,1.0368-7.1133,2.9701-2.7188,2.7504-3.608,6.822-2.2833,10.4554l5.3622,14.7078-18.7102,15.8095c-2.8543,2.4118-4.1257,6.2139-3.2965,9.8575.8293,3.6437,3.621,6.521,7.2379,7.46l15.9666,4.145c.8252.2142,1.6697.3208,2.5127.3208,1.181,0,2.3592-.2092,3.4789-.6247l32.6664-12.1218,24.5067,9.5568c1.1638.4538,2.3963.6834,3.6333.6834.7035,0,1.4084-.0742,2.103-.2237l34.1881-7.3545c5.1305-1.1037,8.5351-5.9855,7.7977-11.1813l-4.2827-30.1793c-.5492-3.8696-3.3023-7.0647-7.0483-8.1795l-35.503-10.5663c-.9335-.2778-1.8943-.4155-2.8523-.4155h0Z"/><path class="cls-12" d="M180.5566,76.2907s12.0311-3.4558,12.9172-21.0667c0,0,.2754-17.4462-6.9779-24.6996,0,0,23.2321,6.806,21.9086,41.8952-.0038.0996.1338.1299.1518.0318.8603-4.7096,9.599-22.014,16.4843-26.4206,0,0,3.1481,8.4206-1.9719,31.4594,0,0,24.5304.9554,38.5598,9.5959l-37.437,8.215-29.0931-10.5779-36.071,13.7343-20.0846-5.095s25.8858-12.3536,41.6139-17.0718Z"/><polyline class="cls-8" points="70.3211 171.6064 138.9427 174.2354 191.8466 229.0563"/><path class="cls-13" d="M219.3135,226.3084c-2.1392-1.4915,19.9496,13.4538,19.9496,13.4538l-27.2756,13.4711-32.1198,15.3737,13.5228-34.3758-10.5791-35.459,30.8902,3.2227,5.6119,24.3136Z"/><path class="cls-6" d="M232.0125,257.333s-33.2883,5.3967-43.3234-11.1046c2.1774-5.7426,4.7014-11.9971,4.7014-11.9971,0,0-2.081-6.9813-4.1799-13.7667,11.1174-19.312,46.0752-7.3327,46.0752-7.3327,0,0-27.6682,13.712-29.5225,21.3444s26.2492,22.8568,26.2492,22.8568Z"/><polyline class="cls-2" points="175.7521 269.8298 95.376 293.709 50.149 368.7308"/><polyline class="cls-2" points="213.7016 201.9949 275.0666 153.5601 365.4472 179.6995 395.131 145.1423"/><polygon class="cls-9" points="23.5315 247.8609 26.2374 297.4816 46.4095 300.1387 56.3166 308.0851 75.9508 325.9312 89.1017 292.1651 78.0256 247.8609 23.5315 247.8609"/><path class="cls-10" d="M85.5937,278.1331c-8.9145,33.9746-31.6968,55.8257-31.6968,55.8257,0,0-40.8582,35.7106-39.564-12.0379.8375-30.897,18.2108-58.4565,30.3693-74.0608l33.3234.0007,7.5681,30.2722Z"/><path class="cls-10" d="M89.1017,292.6064l-3.508-14.0319c-4.3167,16.4517-11.8824,30.0483-18.5412,39.71l7.5187,9.9352,14.5305-35.6133Z"/><polygon class="cls-9" points="320.3052 271.3698 356.2942 276.7399 353.5943 209.4593 389.0376 233.6896 375.7464 295.0523 321.6952 303.6178 320.3052 271.3698"/><path class="cls-10" d="M354.1437,223.818l18.7878,25.3739c8.6165,11.637,15.6106,24.4253,20.409,38.0869,1.2125,3.4522,2.3044,6.9487,3.2699,10.4848,6.0154,22.031,9.2466,50.1199-12.9794,51.0657-36.7244,1.5627-47.8589-73.8395-47.8589-73.8395l21.4081,3.8177-3.0365-54.9894Z"/><path class="cls-10" d="M357.1803,277.0373l-2.9388-53.2194,2.0527,51.1519-35.989-5.3701,1.3901,32.2479,20.0409-3.1759c-4.2635-13.937-5.964-25.4521-5.964-25.4521l21.4081,3.8176Z"/><polyline class="cls-7" points="320.3052 271.3698 261.6284 316.3183 243.5 308.1636"/><polyline class="cls-7" points="261.6284 316.3183 216.032 358.1841 257.3087 447.3238"/><polyline class="cls-11" points="275.0666 153.5601 261.6284 87.086 322.842 86.6233 350.0891 69.9977"/><polygon class="cls-4" points="143.7342 387.2415 145.6171 361.4343 165.7755 371.292 195.6808 372.1781 178.8452 398.5391 143.7342 387.2415"/><path class="cls-3" d="M174.2636,395.5947l-3.3209-42.0252c-.0495-.8739.107-1.7471.4568-2.5495l8.3259-19.0974c.5785-1.327-1.079-2.4926-2.1321-1.4994l-8.6867,8.1929c-.7116.6712-1.8799.3705-2.1792-.5608l-7.1068-13.8769c-.8531-1.0739-2.5763-.3106-2.3543,1.0428l.3791,13.3482c-.1922.9591-1.3192,1.3897-2.102.8031l-11.9504-2.6827c-1.1585-.868-2.6739.4772-1.9493,1.7304l12.8225,13.5582c.4381.7577.6921,1.6078.7416,2.4816,0,0,3.3241,36.2773,3.3216,36.3245l15.7344,4.8099Z"/><polygon class="cls-4" points="270.9692 410.6846 290.463 351.0954 253.6906 361.4343 216.032 358.1841 233.1866 394.8762 258.4809 387.8679 270.9692 410.6846"/><path class="cls-3" d="M246.0727,388.2285l3.0014-37.9818c.0495-.8739-.107-1.7471-.4568-2.5495l-8.3259-19.0974c-.5785-1.327,1.079-2.4926,2.1321-1.4994l8.6867,8.1929c.7116.6712,1.8799.3705,2.1792-.5608l7.1068-13.8769c.8531-1.0739,2.5763-.3106,2.3543,1.0428l-.3791,13.3482c.1922.9591,1.3192,1.3897,2.102.8031l11.9504-2.6827c1.1585-.868,2.6739.4772,1.9493,1.7304l-12.8225,13.5582c-.4381.7577-.6921,1.6078-.7416,2.4816,0,0-3.3241,37.5874-3.3216,37.6346l-2.1206-4.2269-13.2943,3.6835Z"/><line class="cls-7" x1="282.6756" y1="300.1954" x2="290.463" y2="351.0954"/><polygon class="cls-16" points="149.8547 368.7308 148.7317 383.7116 155.47 385.9577 154.9595 369.7244 149.8547 368.7308"/><polygon class="cls-16" points="175.4626 376.4303 176.7338 392.715 186.9718 376.7739 175.4626 376.4303"/><polygon class="cls-16" points="223.9595 363.6471 235.8065 389.2397 243.4767 387.1134 245.1474 365.4697 223.9595 363.6471"/><polygon class="cls-16" points="266.2971 362.8579 264.2587 388.2594 269.9034 398.4513 283.0746 358.1539 266.2971 362.8579"/></svg>