<?xml version="1.0" encoding="UTF-8"?><svg id="_6" xmlns="http://www.w3.org/2000/svg" viewBox="0 0 419.1307 461.9622"><defs><style>.cls-1{fill:#575959;}.cls-2{fill:#f9d482;}.cls-2,.cls-3{stroke-width:6.5133px;}.cls-2,.cls-3,.cls-4,.cls-5,.cls-6{stroke:#575959;stroke-linejoin:round;}.cls-3{fill:#fdfdfe;}.cls-4{stroke-width:5.4278px;}.cls-4,.cls-5,.cls-6{fill:#f7f5ae;}.cls-5{stroke-width:9.77px;}.cls-7{fill:#e1798c;}.cls-6{stroke-linecap:round;stroke-width:8.6845px;}</style></defs><path class="cls-4" d="M315.3791,257.6116s71.8861-28.1293,80.4812-48.445c0,0,.7814,14.0647-10.1578,24.2225,0,0,15.6274-3.8844,17.9715-9.7559,0,0,.7814,8.9746-8.5951,17.5696,0,0,16.4088-2.5932,19.5343-9.501,0,0-12.0331,57.7714-88.4902,71.2293l-10.7438-45.3195Z"/><path class="cls-4" d="M174.0088,417.0552l3.3209-58.6656c.0027-.0472.0067-.0873.0145-.134.149-.8883,1.7354-11.4726-6.9971-12.8421-.113-.0177-.2358-.0247-.3501-.0198-8.8313.3753-8.4494,11.071-8.4016,11.9704.0025.0472.002.0876-.0007.1348l-3.3209,58.6656c-.0495.8739-.3035,1.7239-.7416,2.4816l-12.8225,13.5582c-.7246,1.2532.7908,2.5984,1.9493,1.7304l11.9504-2.6827c.7828-.5866,1.9097-.156,2.102.8031l-.3791,13.3482c-.222,1.3534,1.5012,2.1167,2.3543,1.0428l7.1068-13.8769c.2993-.9313,1.4676-1.2319,2.1792-.5608l8.6867,8.1929c1.0531.9932,2.7106-.1724,2.1321-1.4994l-8.3259-19.0974c-.3498-.8023-.5063-1.6756-.4568-2.5495Z"/><path class="cls-4" d="M262.5021,416.4165l-4.7053-58.4036c-.0038-.0472-.0053-.0874-.0039-.1347.0263-.9005.1531-11.6052-8.6885-11.7668-.1119-.002-.2319.0076-.342.0276-8.7017,1.575-6.8628,12.1213-6.6926,13.006.0089.0465.0139.0865.0177.1336l4.7053,58.4036c.0791.9816-.0735,1.9681-.4454,2.88l-3.8767,21.9582c-.3273,1.4101,1.5147,2.2545,2.3694,1.0862l7.0502-9.6373c.5776-.7895,1.7811-.7066,2.2449.1547l6.1439,11.4096c.6502,1.2075,2.4811.7603,2.5013-.611l.1914-12.9572c.0145-.9781,1.0442-1.6066,1.9207-1.1723l12.6304,2.882c1.2971.6427,2.5423-.9559,1.6018-2.0563l-15.7219-12.4306c-.5131-.8406-.8217-1.7899-.9007-2.7716Z"/><path class="cls-5" d="M55.8043,245.7507s-5.7385-67.8888,35.9288-119.1879c.009-.0111.0136-.0168.0218-.0286.516-.7467,25.5291-36.5869,75.6609-41.029,0,0,11.1419-1.3627,14.9895-19.6387,0,0,4.0881-11.5557,0-24.7752-4.0881-13.2196-13.707-21.3957-13.707-21.3957,0,0,20.6807,6.2523,30.7806,25.7307,0,0,5.5309,7.9356,0,26.6926,0,0,5.5309-34.3875,25.2496-33.6663,0,0-15.6307,26.2116-7.6951,39.1972,0,0,.8645,5.6028,16.9976,10.0788.0489.0136.0934.021.1442.0213,1.9465.0125,45.1925.6396,75.0439,31.6621,22.2491,23.122,41.4842,72.0179,43.5226,126.3654-.0607.6209-4.6919,116.6208-65.269,139.5384,0,0-14.4041,8.6083-37.2722,15.9807-36.9686,11.9182-77.1172,10.1288-112.5366-5.8146-20.9251-9.419-37.7176-16.9263-58.7957-47.0534-.1124-.1606-.2238-.3123-.3516-.461-1.9377-2.2551-20.772-38.4021-22.7123-102.2168Z"/><path class="cls-2" d="M231.8251,258.6868s-45.9048,7.4421-46.1521-21.8744c-.3321-39.3776,49.4254-22.3267,49.4254-22.3267,0,0-27.6682,13.712-29.5225,21.3444-1.8543,7.6323,26.2492,22.8568,26.2492,22.8568Z"/><path class="cls-6" d="M327.0107,282.6394s11.1345,75.4022,47.8589,73.8395c22.226-.9458,18.9948-29.0347,12.9794-51.0657-.9655-3.5361-2.0573-7.0326-3.2699-10.4848-4.7984-13.6616-11.7925-26.4499-20.409-38.0869l-18.7878-25.3739"/><path class="cls-6" d="M63.6494,234.1524c-11.1354,5.9601-15.111,9.9598-15.111,9.9598,0,0-40.7865,39.7774-42.0808,87.5259-1.2942,47.7484,39.564,12.0379,39.564,12.0379,0,0,26.0863-25.0201,33.3536-63.1415"/><ellipse class="cls-1" cx="161.9591" cy="190.7684" rx="14.3565" ry="20.218"/><ellipse class="cls-1" cx="251.0353" cy="190.7684" rx="14.3565" ry="20.218"/><path class="cls-3" d="M72.4757,335.3476s8.5146-23.5655,27.8398-23.5655,24.5029,19.6495,24.9012,23.5655c0,0,7.9656-26.3534,35.0488-26.3534s29.8711,26.3534,29.8711,26.3534c0,0,14.3381-26.3534,41.023-26.3534s31.4642,26.3534,31.4642,26.3534c0,0,9.5588-26.3534,36.6419-26.3534s35.6688,21.7524,35.6688,21.7524c0,0-9.9451,62.1638-104.4492,80.2856s-153.5796-54.5292-158.0095-75.6845Z"/><circle class="cls-7" cx="135.3892" cy="235.1719" r="28.5212"/><circle class="cls-7" cx="278.3829" cy="235.0882" r="28.5212"/></svg>