<?xml version="1.0" encoding="UTF-8"?><svg id="_レイヤー_2" xmlns="http://www.w3.org/2000/svg" viewBox="0 0 384 540.8"><defs><style>.cls-1{fill:#1f2020;}.cls-2{fill:#040000;}.cls-3{fill:#231815;}.cls-4{fill:#f5f6d0;}</style></defs><g id="character_create"><path class="cls-4" d="M100.9,411c-135.2-82.1-32.1-221.7-32.1-221.7-7.3-11.3-14.9-24.7-19.5-39,0,0-41.3-105.5,73.1-138.8,0,0,59.1-18.1,96.3,6.7,37.2,24.8,60.1,30.5,74.3,123,0,0,145.4,77.6,58.2,228.9"/><path class="cls-1" d="M98.3,415.3c-39-23.7-62.4-54.4-69.7-91.3-3.9-20-4.9-52.8,12.9-95.2,8.2-19.5,17.3-33.8,21.2-39.6-8.5-13.6-14.5-25.8-18.2-37.2-1.3-3.4-17.9-48.5,2.5-89.8,12.9-26.3,37.8-45,73.9-55.5,2.4-.7,61.7-18.5,100.4,7.3,3.6,2.4,7,4.6,10.3,6.7,31.6,20.2,52.5,33.7,65.8,117.2,11.6,6.7,63.8,39.9,81,100.2,12,41.8,4.2,87-23.1,134.4l-8.7-5c25.9-44.9,33.3-87.5,22.2-126.5-17.8-62.4-77.8-95.1-78.4-95.4l-2.2-1.2-.4-2.5c-12.6-81.3-31.1-93.1-61.7-112.7-3.4-2.2-6.8-4.4-10.5-6.8-34.7-23.2-91.5-6.2-92-6.1-33.4,9.7-56.1,26.6-67.8,50.3-18.8,38.1-2.3,81.5-2.1,82v.3c3.8,11.5,10,23.8,19.1,37.9l1.9,2.9-2.1,2.8c-.5.6-47.2,65-34.4,129.8,6.7,34,28.6,62.5,65.1,84.6l-5.2,8.5Z"/><path class="cls-4" d="M81,239.6c-5.7,13.3-12.8,27.7-12.8,27.7-41,109.6,41.7,149.2,41.7,149.2,0,0,47.7,41,101,42.9,53.4,1.9,109.6-38.1,109.6-38.1,94.4-121.1,0-202.1,0-202.1"/><path class="cls-1" d="M214.7,464.5c-1.3,0-2.6,0-3.9,0-52.2-1.9-98.1-39.1-103.6-43.7-3.7-1.9-22.8-12.5-37.6-34.9-26.9-40.8-18.1-87.9-6-120.2l.2-.5c0-.1,7.1-14.5,12.7-27.5l9.2,4c-5.3,12.3-11.9,25.8-12.8,27.7-16.2,43.6-14.6,80.8,4.8,110.6,14.6,22.3,34.3,32,34.5,32.1l.6.3.5.4c.5.4,47,39.9,98,41.7,48.2,1.7,99.9-32.7,106-36.8,20.7-26.7,33.6-53.4,38.3-79.6,3.8-20.9,2.4-41.5-4.1-61.2-11.1-33.8-33.8-53.7-34-53.9l6.5-7.6c1,.9,24.8,21.6,36.9,57.9,7.1,21.3,8.7,43.6,4.6,66.3-5,28-18.8,56.6-40.8,84.8l-.4.6-.6.4c-2.3,1.6-55.6,39.1-108.8,39.1Z"/><path class="cls-3" d="M121.8,102.8c-.5,0-.9,0-1.4-.2-2.4-.8-6.1-7.1-6-12.5,0-1.2.3-2.7,1-4.3-4.9-2.2-9-2.7-12.5-1.4-5.2,2-7.1,7.6-7.1,7.6l-4.8-1.5c.1-.3,2.6-7.9,10-10.8,5-1.9,10.9-1.2,17.6,2.1,1.6-1.2,3.7-2.3,6.7-3.1,11-2.9,31.8-4.3,41,4.1,3.6,3.3,5,7.9,4,13.1l-4.9-.9c.7-3.6-.1-6.4-2.5-8.5-6.5-6-23.9-6.2-36.3-2.9-1.4.4-2.6.8-3.7,1.4,2.8,3.5,6.4,9,5.3,12.3s-1.7,3.4-3.1,4.4c-1.1.8-2.3,1.2-3.5,1.2ZM119.7,88.8c0,0,0,.2,0,.3-.8,3.3,1.4,7.2,2.5,8.6.4-.3,1.1-.9,1.4-2,0-1-1.7-4.1-3.9-7Z"/><path class="cls-2" d="M84.7,156.3s-9.7-8.6-3.7-24.3c0,0,5.2-7.6,16.4-6.2,0,0,12.4.6,10.6,16.5-1.7,15.9-23.4,14-23.4,14Z"/><path class="cls-2" d="M151.5,151.6s-10.5-3.2-4.5-19c0,0,.5-12.3,11.6-10.9,0,0,11.2.2,9.5,16.1-1.7,15.9-16.6,13.7-16.6,13.7Z"/><path class="cls-4" d="M121.8,141S34.6,166.5,5.1,281.4c0,0,2.4,21.5,118.7-49.1,0,0,31.9-56.2-1.9-91.3Z"/><path class="cls-1" d="M12,289.4c-2.9,0-5.3-.5-7.2-1.4-3.2-1.6-4.5-4.2-4.7-6.1v-.9c-.1,0,.1-.9.1-.9,15.6-60.7,47.3-96.5,71.2-115.9,26-21.1,48.1-27.7,49.1-28l2.9-.8,2.1,2.2c15,15.6,20.2,37.4,14.9,63.2-3.9,19-11.9,33.4-12.3,34l-.6,1.1-1.1.7c-57.9,35.1-96.2,52.8-114.3,52.8ZM10.8,279.4c5.5.7,28.3-1.7,109.2-50.7,3.9-7.6,25.4-52.4.4-81.9-6.6,2.5-23.9,9.8-43,25.5-22.1,18.1-51.4,51.3-66.5,107.1Z"/><path d="M160,498c-3.1-24,2.6-50.7,2.6-50.9.6-2.7-1.1-5.4-3.8-5.9-2.7-.6-5.4,1.1-5.9,3.8-.2,1.1-5.3,24.9-3.3,49-1.4-.7-3-.7-4.4,0-13,6.5-21.8,31.9-22.7,34.8-.9,2.6.6,5.4,3.2,6.3.5.2,1.1.3,1.6.3,2.1,0,4-1.3,4.7-3.4,2.8-8.4,9.3-22.5,15.7-27.7-1.1,4.2-5.1,20.3-3.1,32.4.4,2.5,2.5,4.2,4.9,4.2s.5,0,.8,0c2.7-.4,4.6-3,4.1-5.7-1.9-11.5,3.1-28.9,3.1-29,.3-1,.2-2,0-3,1.8-1,2.9-2.9,2.6-5Z"/><path d="M166.9,499.7c-2.5-1.2-5.5-.2-6.7,2.3-1.2,2.5-.2,5.5,2.3,6.7,7.4,3.6,12.5,8.4,12.6,10,.2,2.6,2.4,4.6,5,4.6s.3,0,.4,0c2.8-.2,4.8-2.6,4.6-5.4s-2-10.4-18.2-18.2Z"/><path d="M269.2,503.4c-.9-.8-1.6-1.5-1.8-1.7-1.9-2-5-2.1-7-.2-.4.4-.7.8-1,1.3-.2-1-.7-1.9-1.4-2.6.8-1,1.2-2.3,1.1-3.6-2.1-21.4-1.6-42.5-1.6-42.7,0-2.8-2.1-5-4.9-5.1,0,0,0,0-.1,0-2.7,0-4.9,2.2-5,4.9,0,.9-.4,22,1.7,43.9.1,1.3.7,2.4,1.6,3.2-.2.3-.4.5-.5.8-2.3-1.2-5.2-.5-6.6,1.8-14.4,23.7-14.9,26.5-15,27.4-.4,2.7,1.4,5.3,4.1,5.7.3,0,.5,0,.8,0,2.3,0,4.3-1.6,4.9-3.9.8-2.2,6.5-12.2,12.1-21.4.6,4.9,1.2,8.9,1.7,12,1.2,6.3,2.3,9.5,5.3,10.8.6.3,1.3.4,2,.4,1.9,0,3.8-1.1,4.6-3,.8-1.9.4-3.9-.9-5.4-.4-1.1-1.5-5.1-3-17.8,0,0,0,0,0,.1.3.3.9.8,2.3,2.2,8.4,7.7,11.8,11.3,13.1,13,0,.5.1,1,.3,1.6.7,2,2.7,3.3,4.7,3.3.6,0,1.2-.1,1.7-.3,1.8-.7,3.1-2.2,3.4-4,.7-3.7-1.3-6.9-16.5-20.8Z"/><path class="cls-1" d="M96.8,342.6c-2.5,0-4.9-.9-6.9-2.4-13.1-10.8-33.1-38.9-34-40.1l7.3-5.2c.2.3,20.2,28.3,32.4,38.4.5.4,1.1.4,1.5.4.7-.1,1.3-.5,1.7-1.2,1.3-2.2,3-5.1,4.7-8.1,13.8-24.2,19.8-32.7,26.1-32.3,3.2.2,9,.6,35,38.7,2.4-3,6.1-9.1,9-13.8,10.5-17.3,21.4-35.1,33.5-32.6,12.9,2.7,22.7,21.3,29.2,33.5.8,1.6,1.8,3.4,2.6,4.9,2.4-3.3,5.9-8.7,8.6-13.1,4.1-6.5,8.8-13.9,13.1-19.6,6.1-8.1,10.2-11.3,14.3-10.9,6.1.5,11.7,8.3,21.2,21.9,4,5.8,10.5,15.1,13.7,17.4,2.2-2.8,6-11.2,8.9-17.6,8.7-19.4,18.6-41.5,32.7-41.1l-.2,9s0,0-.1,0c-8.1,0-18.1,22.4-24.2,35.8-7.2,15.9-10.6,23-16.2,23.3-6.3.4-12.2-7.6-22-21.7-4.3-6.1-11.3-16.2-14.4-18-4.1,2.3-14.3,18.3-19.2,26.2-3.1,4.9-6,9.5-8.4,12.8-2.4,3.3-6,8.3-10.5,6.1-2.3-1.2-3.9-3.8-7.8-11.4-5-9.5-14.4-27.1-23.2-28.9-.7-.2-3.7,0-9.9,7.6-4.8,5.8-9.6,13.8-14,20.9-8.4,13.8-12.1,19.5-17.1,19.6-2,0-3.9-1-5.1-2.8l-.2-.3c-19.9-29.4-27.1-35.6-29.4-36.9-4.1,3.1-13.4,19.5-18,27.6-1.8,3.1-3.4,6-4.8,8.3-1.7,2.9-4.6,4.8-7.9,5.4-.6.1-1.3.2-1.9.2ZM310.7,319h0,0ZM128.8,300.9h0,0ZM273.9,288.1h0s0,0,0,0Z"/></g></svg>