<?xml version="1.0" encoding="UTF-8"?><svg id="_レイヤー_2" xmlns="http://www.w3.org/2000/svg" viewBox="0 0 462.4085 28.8637"><defs><style>.cls-1{fill:#fff;stroke:#070707;stroke-miterlimit:10;stroke-width:2.0437px;}</style></defs><g id="play_scr"><circle class="cls-1" cx="9.1256" cy="19.738" r="8.1038"/><circle class="cls-1" cx="305.2304" cy="19.738" r="8.1038"/><circle class="cls-1" cx="157.178" cy="19.738" r="8.1038"/><circle class="cls-1" cx="453.2829" cy="19.738" r="8.1038"/><path d="M5.5765,4.9175c-.0128-.2034-.0128-.394-.0128-.5719C5.5638,1.7409,6.5549.1779,8.6515.1779c1.9822,0,3.0114,1.2834,3.0114,4.0788,0,.1906,0,.394-.0128.5974-.1143,2.3507-1.2832,3.8754-3.0495,3.8754s-2.9098-1.5247-3.0241-3.812ZM9.5664,4.5873c0-1.2962-.3051-1.8932-.953-1.8932-.5719,0-.9911.5716-.9911,1.9184,0,1.2707.5464,1.9315,1.0419,1.9315.5971,0,.9021-.6608.9021-1.9567Z"/><path d="M152.6251,8.5134V2.8592l-1.7536.4702-.5717-2.0966,4.5997-1.2327v8.5134h-2.2743Z"/><path d="M157.4416,4.9175c-.0128-.2034-.0128-.394-.0128-.5719,0-2.6048.9911-4.1677,3.0877-4.1677,1.9822,0,3.0114,1.2834,3.0114,4.0788,0,.1906,0,.394-.0128.5974-.1143,2.3507-1.2832,3.8754-3.0495,3.8754s-2.9098-1.5247-3.0241-3.812ZM161.4315,4.5873c0-1.2962-.3051-1.8932-.953-1.8932-.5719,0-.9911.5716-.9911,1.9184,0,1.2707.5462,1.9315,1.0419,1.9315.5971,0,.9021-.6608.9021-1.9567Z"/><path d="M298.6892,8.5261v-1.6392c1.4358-1.1435,2.2235-1.8298,2.9097-2.6937.3685-.4702.5591-.9532.5591-1.3596,0-.483-.2796-.8387-.8513-.8387-.8896,0-1.2707.788-1.3977,1.6519l-1.906-.1651c.1017-1.2327.6988-3.3163,3.2147-3.3163,2.0203,0,2.9478,1.3341,2.9478,2.7444,0,.5464-.1524,1.1183-.4319,1.6137-.5464.9404-1.2579,1.6647-2.0077,2.2745h2.3381l-.0508,1.7026-5.324.0255Z"/><path d="M306.7079,4.9175c-.0128-.2034-.0128-.394-.0128-.5719,0-2.6048.9911-4.1677,3.0877-4.1677,1.9822,0,3.0114,1.2834,3.0114,4.0788,0,.1906,0,.394-.0128.5974-.1143,2.3507-1.2832,3.8754-3.0495,3.8754s-2.9098-1.5247-3.0241-3.812ZM310.6978,4.5873c0-1.2962-.3051-1.8932-.953-1.8932-.5719,0-.9911.5716-.9911,1.9184,0,1.2707.5462,1.9315,1.0419,1.9315.5971,0,.9021-.6608.9021-1.9567Z"/><path d="M446.5005,6.1882l1.6773-.483c.216.8642.4573,1.3596,1.423,1.3596.5972,0,1.0292-.5081,1.0292-.9911,0-.4954-.4319-.9528-1.5628-.8639v-1.4613c.0889,0,.1651.0128.2415.0128.9911,0,1.4103-.4447,1.4103-.8894,0-.483-.4828-.9911-1.2452-.9911-.8513,0-1.2071.5588-1.3215,1.3086l-1.7026-.1651c.1017-1.2072.7496-2.8843,3.1003-2.8843,1.8171,0,2.9479,1.2834,2.9479,2.5792,0,.6353-.2668,1.2834-.8641,1.7791.61.5209.8641,1.1179.8641,1.7026,0,1.2834-1.2707,2.4776-2.8716,2.4776-1.9441,0-2.7956-1.1307-3.1258-2.4903Z"/><path d="M455.0402,4.9175c-.0128-.2034-.0128-.394-.0128-.5719,0-2.6048.9911-4.1677,3.0877-4.1677,1.9822,0,3.0114,1.2834,3.0114,4.0788,0,.1906,0,.394-.0128.5974-.1143,2.3507-1.2832,3.8754-3.0495,3.8754s-2.9098-1.5247-3.0241-3.812ZM459.0301,4.5873c0-1.2962-.3051-1.8932-.953-1.8932-.5719,0-.9911.5716-.9911,1.9184,0,1.2707.5464,1.9315,1.0419,1.9315.5971,0,.9021-.6608.9021-1.9567Z"/></g></svg>