<?xml version="1.0" encoding="UTF-8"?><svg id="_レイヤー_2" xmlns="http://www.w3.org/2000/svg" xmlns:xlink="http://www.w3.org/1999/xlink" viewBox="0 0 96.0795 120.9956"><defs><style>.cls-1{fill:#fff;stroke:#fff;stroke-linecap:round;stroke-miterlimit:10;stroke-width:5px;}.cls-2{fill:url(#_名称未設定グラデーション_1545);}.cls-3{fill:#424242;}</style><linearGradient id="_名称未設定グラデーション_1545" x1="4.3359" y1="60.4979" x2="91.7436" y2="60.4979" gradientUnits="userSpaceOnUse"><stop offset=".0187" stop-color="#d84446"/><stop offset="1" stop-color="#ed6e00"/></linearGradient></defs><g id="home"><path class="cls-2" d="M73.4345,116.6595c-3.8979-.0005-7.647-1.2573-10.8423-3.6353L11.6909,75.1409c-4.6743-3.479-7.355-8.8164-7.355-14.6431s2.6807-11.1641,7.355-14.6431L62.5922,7.9715c3.1958-2.3784,6.9448-3.6353,10.8428-3.6353,10.0952,0,18.3086,8.1997,18.3086,18.2783v75.7666c0,5.0742-2.001,9.7651-5.6353,13.2085-3.3999,3.2222-8.019,5.0698-12.6724,5.0698h-.0015Z"/><path class="cls-3" d="M73.4349,8.672c7.2123,0,13.9727,5.7039,13.9727,13.9424v75.7669c0,8.2392-6.7597,13.9424-13.9727,13.9424-2.8063,0-5.6822-.864-8.2537-2.7779L14.28,71.6623c-7.4773-5.565-7.4773-16.7639,0-22.3289L65.1812,11.4499c2.5721-1.9143,5.4469-2.7779,8.2537-2.7779M73.4349,0c-4.8373,0-9.4818,1.5537-13.4313,4.4931L9.1024,42.3766C3.3177,46.6819,0,53.2868,0,60.4978s3.3177,13.8159,9.1024,18.1212l50.9012,37.8835c3.9495,2.9394,8.594,4.4931,13.4313,4.4931,12.4863,0,22.6447-10.1447,22.6447-22.6143V22.6144c0-12.4696-10.1583-22.6144-22.6447-22.6144h0Z"/><line class="cls-1" x1="15.8073" y1="56.455" x2="71.6306" y2="15.6951"/></g></svg>