<?xml version="1.0" encoding="UTF-8"?><svg id="_レイヤー_2" xmlns="http://www.w3.org/2000/svg" xmlns:xlink="http://www.w3.org/1999/xlink" viewBox="0 0 96.0796 120.9956"><defs><style>.cls-1{fill:#fff;stroke:#fff;stroke-linecap:round;stroke-miterlimit:10;stroke-width:5px;}.cls-2{fill:url(#_名称未設定グラデーション_1545);}.cls-3{fill:#424242;}</style><linearGradient id="_名称未設定グラデーション_1545" x1="4.3359" y1="60.4977" x2="91.7436" y2="60.4977" gradientTransform="translate(96.0796) rotate(-180) scale(1 -1)" gradientUnits="userSpaceOnUse"><stop offset=".0187" stop-color="#d84446"/><stop offset="1" stop-color="#ed6e00"/></linearGradient></defs><g id="home"><path class="cls-2" d="M22.6445,116.6593c-10.0952,0-18.3086-8.1997-18.3086-18.2783V22.6144C4.3359,12.5358,12.5493,4.3361,22.6445,4.3361c3.8979,0,7.647,1.2568,10.8428,3.6353l50.9014,37.8833c4.6743,3.4795,7.355,8.8169,7.355,14.6436s-2.6812,11.1636-7.355,14.6426l-50.9014,37.8833c-3.1958,2.3784-6.9448,3.6353-10.8428,3.6353Z"/><path class="cls-3" d="M22.6447,8.672c2.8069-.0001,5.6817.8636,8.2538,2.7779l50.9012,37.8834c7.4773,5.565,7.4773,16.7639,0,22.329l-50.9012,37.8835c-2.5715,1.9139-5.4474,2.7779-8.2538,2.7779-7.2129,0-13.9727-5.7032-13.9727-13.9424V22.6143c0-8.2385,6.7604-13.9421,13.9727-13.9424M22.6452,0h-.0004C10.1584.0005,0,10.1452,0,22.6143v75.7669c0,12.4696,10.1583,22.6143,22.6447,22.6143,4.8373,0,9.4818-1.5536,13.4313-4.4931l50.9012-37.8835c5.7847-4.3053,9.1024-10.9102,9.1024-18.1212s-3.3177-13.8159-9.1024-18.1212L36.076,4.4931C32.1265,1.5537,27.4821,0,22.6452,0h0Z"/><line class="cls-1" x1="80.2723" y1="56.455" x2="24.449" y2="15.6951"/></g></svg>