<?xml version="1.0" encoding="UTF-8"?><svg id="_レイヤー_2" xmlns="http://www.w3.org/2000/svg" viewBox="0 0 461.3335 113.0153"><defs><style>.cls-1{fill:#444;}.cls-2{fill:#f9f7d9;}.cls-2,.cls-3,.cls-4,.cls-5,.cls-6{stroke-width:3.5083px;}.cls-2,.cls-3,.cls-4,.cls-5,.cls-6,.cls-7{stroke-linejoin:round;}.cls-2,.cls-3,.cls-4,.cls-5,.cls-6,.cls-7,.cls-8,.cls-9,.cls-10{stroke:#444;}.cls-3{fill:#e5f7da;}.cls-4{fill:#f7dada;}.cls-5{fill:#fff;}.cls-11{fill:#fff13e;}.cls-12,.cls-8,.cls-9,.cls-10{fill:#ffec39;}.cls-6{fill:#f7f7f7;}.cls-7{fill:none;stroke-width:3.6032px;}.cls-8{stroke-width:1.2462px;}.cls-8,.cls-9,.cls-10{stroke-miterlimit:10;}.cls-9{stroke-width:1.2926px;}.cls-10{stroke-width:1.4033px;}</style></defs><g id="play_scr"><rect class="cls-7" x="23.0238" y="64.2265" width="100.6661" height="46.9872" rx="3.1867" ry="3.1867"/><path class="cls-5" d="M24.5491,111.2137c-15.6646,0-22.7949-10.5184-22.7949-23.4936s7.1303-23.4936,22.7949-23.4936l5.5683,5.8734-5.4594,5.8734,5.4594,5.8734-5.4594,5.8734,5.4594,5.8734-5.4594,5.8734,5.4594,5.8734-5.5683,5.8734Z"/><path class="cls-5" d="M120.0472,111.2137c15.6646,0,22.7949-10.5184,22.7949-23.4936,0-12.9752-7.1303-23.4936-22.7949-23.4936l-5.5683,5.8734,5.4594,5.8734-5.4594,5.8734,5.4594,5.8734-5.4594,5.8734,5.4594,5.8734-5.4594,5.8734,5.5683,5.8734Z"/><path class="cls-8" d="M42.4689,79.4124c0,.8949.2946,1.3577,1.2419,1.3577.3368,0,.6736-.0209,1.0103-.0209.2314,0,.4526-.0212.684-.0212.5473,0,1.1157.1055,1.1157.7685,0,.2316-.0632.442-.2631.5684-.3474.221-.9052.2419-1.3052.2419-.2946,0-.5893-.0106-.8945-.0106-1.5577,0-1.5996.4104-1.5996,1.8312,0,.1158,0,.2316-.0106.3474-.0526.642-.6314.7369-1.1577.7369-.6104,0-.8209-.2213-.8209-.8315,0-.2316.0211-.4632.0211-.6948,0-1.2416-.7787-1.368-1.8208-1.368-.3472,0-.7051.0106-1.0523.0106-.6316,0-1.2104-.1686-1.2104-.9158,0-.4947.2421-.5999.6842-.6314.3051-.0212.6104-.0315.905-.0315.3579,0,.7053.0209,1.0525.0209.8841,0,1.4208-.2631,1.4208-1.2313,0-.3474.0211-1.3786-.0947-1.6418-.0421-.0946-.1052-.1682-.1999-.221-.1579-.0843-.4104-.0843-.5788-.0843-.1579,0-.4421.0106-.4421.221,0,.5896.6736,1.1998.6736,1.8103,0,.442-.9367.8315-1.305.8315-.4,0-1.1051-1.5472-1.1051-1.9155,0-.4104.5684-.579.8736-.7157.0526-.0315.1263-.0315.1578-.0946,0-.0843-.2946-.0843-.3579-.0843-.2105,0-.4104.0209-.621.0209-.3051,0-.463-.1261-.463-.4526,0-.2631.0421-.505.2316-.7051.4315-.4313,2.2521-.4632,2.8731-.4632h2.8416c.3053,0,.621.0106.9262.0528.905.1158,2.0311-.0737,2.0311,1.2207,0,.3474-.5893.3474-.8313.3474-.2001,0-.4-.0315-.5999-.0315l-.0211.0315c0,.2946,1.0525.221,1.0525.8945,0,.4841-.5788,1.884-1.1472,1.884-.3683,0-1.1894-.3053-1.1894-.7472,0-.5262.5895-1.2628.5895-1.7367,0-.3683-.4-.3577-.6631-.3577-.463,0-.6314.2104-.6314.6629v1.147Z"/><path class="cls-8" d="M54.7409,79.1915c.6946,0,.9052.1473.9052.863,0,.5578-.3894.6105-.8526.6105-.3157,0-.6314.0421-.9471.0421s-1.263-.0106-1.3471-.3998c-.0106-.0421-.0106-.0843-.0106-.1158,0-.0737.0106-.1473.0106-.221l-.0211-.0949c-.1895,0-.3157.4104-.5262.4104-.4526,0-1.0103-.863-1.2313-.863-.1369,0-.1895.1788-.2105.2844-.0526.3155-.0421.7894-.0421,1.1155,0,.2419,0,1.4523.3263,1.4523.1263,0,.2421-.0528.3683-.0528.2527,0,.2527.8527.2527.9367,0,.137-.0106.2528-.0737.3789-.221.4211-2.1469.8209-2.6206.8209-.621,0-.7578-.8312-.7578-1.305,0-.3368.3157-.0843.5788-.3577.1579-.1579.1054-.8736.1054-1.1052,0-.2631-.0211-1.81-.0632-1.947-.0211-.0737-.0841-.221-.1684-.2419-.3157-.0634-.5367.0946-.5367-.3683,0-.2844-.0211-1.0737.3894-1.1159.1263-.0103.2527-.0103.3472-.0946.0528-.0528.0843-.1895.0947-.2525.2105-1.1892-.0947-1.5051,1.3788-1.5051.442,0,.5262.3474.5262.7263,0,.2104-.0421.4207-.0421.6314,0,.4841.0947.3471.4526.4207.042.0106.0737.0319.0947.0737.0209.0528.0737.3159.1156.3159.5158,0,.7894-2.5363,1.7682-2.5363.1999,0,1.0734.1052,1.0734.3683,0,.1579-.0737.284-.0737.442,0,.5053,2.8311.2844,3.3889.5999.7578.4317.6736,2.1365.6736,2.8943,0,1.2837-.1052,3.5467-.842,4.6098-.1473.221-.3472.3683-.6104.4207-.6104.1264-1.2419.1158-1.8629.1158-.9156,0-.9576-.2419-.9576-1.084,0-.442.4209-.505.7787-.505.2105,0,.4315.0421.642.0421.1684,0,.3579-.0106.4946-.1264.3894-.3262.4315-2.968.4315-3.5467,0-.9788-.0841-1.5578-1.2313-1.5578-.3262,0-.6629.0212-.9893.0212-.3579,0-.8945.1261-.8945.5787,0,.2001.2736.221.4209.221h1.2945ZM55.5828,82.2646c0,.0949-.0104.2001-.0526.2844-.0421.0839-.1263.1473-.1999.1997-.3789.2528-2.4207.9682-2.8626.9682-.4737,0-.7263-.505-.7263-.9261,0-.1261.0421-.2525.1264-.3577.1999-.2422,2.8626-1.0525,3.2414-1.0525.3157,0,.4737.642.4737.8839Z"/><path class="cls-8" d="M66.2445,79.6653c.0211-.1686.0737-.3265.0737-.5053,0-.3998-.621-.442-.9052-.442-.1473,0-.284.0106-.4209.0106-.3683,0-.7472-.0315-1.1051.0843-.8735.284-1.7154,2.4626-2.6101,2.4626-.3683,0-1.2628-.6211-1.2628-1.021,0-.063.0843-.2001.1263-.2631.0526-.0843.1263-.1682.1895-.2525.642-.8421,1.1998-1.7367,1.5892-2.7155.1054-.2734.1895-.6736.4526-.8312.2842-.1686.5893-.1579.9052-.1579.6314,0,.8945-.0315.8524.726.4947.2844,3.2205.1055,4.0414.295v.0103c.642.0843.5578.5369.5578,1.0525,0,2.5469-.9367,4.7043-3.2942,5.8726-.8103.3998-2.2521.8421-3.1677.8421-.7894,0-1.0525-.6736-1.0946-1.3577.4526-.6527,3.3467-.7787,3.3467-1.4314,0-.4841-1.6628-.642-1.6628-1.2628,0-.3789.5999-1.3471,1.021-1.3471.6736,0,1.6207.7366,1.989.7366.3789,0,.2527-.2525.3894-.4841l-.0104-.0209Z"/><path class="cls-8" d="M79.5162,79.3073c-.4735.1895-.7998.137-1.1049.4526-.5579.5893-.3159,1.8312-.3159,2.5997,0,.5365.3053,2.0628-.1895,2.2941-.4946.2316-1.0208.1473-1.2524.1473-.3051,0-.5788.0106-.8209-.1891-.3368-.2737-.2842-1.7576-.2842-2.1892,0-.5262.0738-1.5051-.6419-1.305-.5999.1682-1.5261.8945-2.3681.8945-.5578,0-.905-.9997-.905-1.4838,0-.2001.0737-.3895.221-.5262.1579-.1473,3.4836-1.1368,4.0414-1.3577.7998-.3159,1.5366-.7787,2.2627-1.2419v.0106c.2527-.1686.9578-.6629,1.2419-.6629.3683,0,1.0945.7996,1.1787,1.1577.2314.947-.2948,1.2522-1.0631,1.3995Z"/><path class="cls-8" d="M88.7046,80.4546c.1579-.3368.3368-.6314.3368-1.0103,0-.2107-.0421-.3474-.2316-.4632-.4313-.2631-1.8943-.2631-2.4311-.2631-.5788,0-1.147.063-1.7259.063-.5473,0-1.4525.0528-1.4525-.7366,0-.2631-.0104-.6208.2842-.9576.4841-.5578,2.0628-.2528,2.6206-.2737.1895-.0106.3683-.0106.5578-.0106.4421,0,.8945.0106,1.3471.0106.3894,0,1.4314-.0209,1.6945-.3053.4735-.5156.4946-.9682,1.3471-.9682.9261,0,1.9575.8315,1.9575,1.7997,0,1.1368-.9578.8945-1.2419,1.4944-.0946.1895-.1156.4211-.1788.6314-.1788.642-.4315,1.2735-.7683,1.8525-1.0314,1.7469-2.631,2.6836-4.5359,3.2414-.3474.1052-.6946.1682-1.0631.1682-.9156,0-.8945-.6102-1.2418-1.2522v-.063c0-.3368.7787-.5684,1.0419-.642.3472-.0949.7051-.1895,1.0629-.2737.1158-.0315.2316-.0524.3474-.0946.7472-.2844,1.2944-.579,1.7891-1.221.1684-.221.2842-.4526.442-.6629.0106-.0209.0317-.0315.0421-.0528v-.0103ZM91.22,76.5184c-.3263,0-.4737.284-.4737.5787,0,.3159.3053.6105.621.6105.3579,0,.5262-.221.5262-.5684,0-.3577-.3368-.6208-.6736-.6208Z"/><path class="cls-8" d="M95.2091,78.9705c-.042-.0421-.1052-.063-.1684-.063-.0841,0-.1684.0106-.2525.0106-.2737,0-.3474-.1686-.3474-.4104,0-.1686-.0104-.5684.1054-.6948.1052-.1158.3683-.0315.3683-.2316,0-.284-.2527-.505-.2527-.7996,0-.358.6946-.6736.9999-.6736.442,0,.4947.6208.5999.6208.1263-.1261.0737-.2419.0737-.3892,0-.5578.6736-.5475,1.0736-.5475.8524,0,.4526.3368.6208.9682.3579-.1367.1579-.8209.7894-.8209.2842,0,.8945.1158.8945.4947,0,.3998-.3683.8103-.3683,1.0946.1579.284.1579.1261.1579.5156,0,.0528.0211.2422.0841.2422.4421,0,.5262-2.5784,1.4208-2.5784.3474,0,1.0525.0839,1.0525.5578,0,.1997-.0632.3786-.0632.5787,0,.4317,1.6209.3368,1.947.4104.1158.0212.2212.0843.3053.1686.2316.2313.221.6314.221.9367,0,.6417-.2525.1473-.3368.5999-.1473.8209-.3051,1.6311-.5367,2.4311-.1052.3789-.3053.7366-.3053,1.1364,0,.6948.9156.6736.9156,1.0631,0,.2946-.4841,1.2313-.8209,1.2313-.621,0-.905-.6105-1.4629-.6105-.6629,0-1.1577.7787-1.768.7787-.3368,0-.4315-.3998-.6104-.6208h-.0528c-.3262,0-.3051.5156-.684.5156-.3368,0-.6946-.3368-1.0629-.3368-.7368,0-1.3999.4632-2.1471.4632-.4524,0-1.0523-.6211-1.0523-1.0631,0-.3577.9997-.1052.9997-.3683,0-.2104-.8313-.2316-.8313-.5262,0-.2316.1999-.2419.1999-.4629,0-.295-.3894-.1055-.4947-.3159-.042-.0946-.0737-.6105-.0737-.7366,0-.2946.2631-.358.5052-.358.1473,0,.2842.0212.4315.0212.4104,0,.2842-.1158.4632-.3474.0841-.1052.5156-.063.5997-.063.2842,0,.8.0103,1.0631.1052.2736.0946.1367.221.3051.2631.3895.0946.9578.0737,1.3367.0737.1895,0,.3579-.0106.5367-.1052,0-.1158-.3788-.4317-.5052-.4317-.0737,0-.1684.0528-.2314.0949-.2631,0-.7053-.6736-.8315-.6736-.1158,0-.0526.3577-.1369.4526-.042.0418-.0737.0737-.1263.0946-.1578.063-.7472.0843-.9471.0843-.4315,0-.6105-.2107-.6105-.6314l-.063-.0319c-.2105,0-.6736.7685-1.0314.7685-.2736,0-.7998-.5578-.7998-.8315,0-.4629.9261-.7472.9261-.9997l-.0211-.0528ZM95.9459,77.6867c.1263,0,.3262-.0106.3262-.1792l-.0209-.0737c-.0211-.0103-.0421-.0103-.0632-.0209-.1684,0-.4526.1158-.6104.1788,0,.0315.0104.0528.042.063.0211.0212.0421.0319.0737.0319h.2527ZM97.1035,82.4647c-.1052,0-.2631.0528-.2631.1788,0,.1473.3894.2422.5052.2422.1369,0,.3263-.2422.3263-.3683-.0843-.0319-.1895-.0528-.2737-.0528h-.2946ZM98.6295,77.6234c.0211,0,.179-.0103.1895-.0209-.1788-.0949-.5052-.2525-.7051-.2525l-.1263.0946c0,.1895.2421.1788.3788.1788h.2631ZM98.9874,78.8759c-.063,0-.221.0209-.221.1052,0,.1052.221.2001.3157.2001.1264,0,.1895-.0634.1895-.1895,0-.1158-.0737-.1158-.1684-.1158h-.1158ZM98.9348,83.4435c.0211.063.221.1261.2842.1261.3157,0,1.5155-.5999,1.5155-.9576,0-.2001-.3683-1.5681-.5684-1.5681-.2421,0-.2314.5262-.2314.6945,0,.1264.0211.2631.0211.4002,0,.0737,0,.2104-.0421.2631-.0843.1052-.2946,0-.4947.1682-.221.1895-.4315.579-.5052.8524l.0211.0212ZM101.5869,78.6971c-.1473,0-.463.4944-.463.6314,0,.0524.0315.0737.0737.0737.0632,0,.1263-.0106.1895-.0106.2946,0,.3894,1.2944.5578,1.2944.2631,0,.3474-1.5153.3474-1.7363,0-.2107-.3263-.2525-.4737-.2525h-.2316Z"/><path class="cls-1" d="M41.2904,86.9782c-1.5718,0-2.5874-1.0195-2.5874-2.5977,0-.0986.0024-.1982.0063-.2969-.0127,0-1.0923.0107-1.0923.0107-2.0562,0-2.9766-1.3477-2.9766-2.6826,0-.7832.3232-1.6289,1.1592-2.0781-.0981-.3359-.147-.6182-.1484-.7871-.2617-.3643-.4106-.8213-.4106-1.334,0-.7725.2402-1.418.7148-1.9189.5205-.5205,1.3892-1.0156,4.1558-1.0156h2.8418c.4531,0,.8237.0225,1.167.0693.1045.0137.2295.0205.3545.0293,2.125.1445,3.2021,1.1338,3.2021,2.9414,0,.1133-.0195.6865-.3999,1.207v.0352c0,.2158-.041.5068-.1255.8311.8145.4961,1.1357,1.3428,1.1357,2.1055,0,.8721-.3945,1.623-1.0835,2.0596-.7202.458-1.5815.5176-2.251.5176l-.728-.0088v.0625c0,.1689-.0024.3398-.0181.5098-.0303.375-.3218,2.3408-2.916,2.3408Z"/><path class="cls-1" d="M54.7514,86.9147c-1.5625,0-2.229-.707-2.5127-1.4414-.1646-.0156-.3237-.0479-.4766-.0947-1.2842.6631-3.0176.7471-3.041.7471-1.4863,0-2.5239-1.2627-2.5239-3.0713,0-.5498.2173-1.127.6836-1.5156-.0005-.1836-.0054-.5078-.0127-.8232-.478-.3711-.7554-.9609-.7554-1.6816-.0044-1.3867.4521-2.1084.9541-2.4824.251-1.5752,1.168-2.252,3.0225-2.252.4189,0,.8496.1123,1.2231.3457.4146-.416.9604-.7139,1.6919-.7139,1.231,0,2.1689.4512,2.5923,1.1846.1182.0078.2319.0137.3281.0195,1.1113.0615,1.7676.1123,2.3379.4355,1.5996.9111,1.5815,3.0742,1.5718,4.2363l-.0015.1943c0,3.9463-.8706,5.2031-1.1567,5.6162-.3989.5977-.998,1.0029-1.7148,1.1465-.6694.1387-1.3247.1504-1.938.1504h-.272Z"/><path class="cls-1" d="M62.2665,86.5992c-1.3301,0-2.7295-.9326-2.8579-3.0156-.0234-.3818.0776-.7598.2871-1.0781-.7871-.5078-1.4478-1.3271-1.4478-2.251,0-.418.1353-.8145.4263-1.248.0327-.0557.1196-.1729.2104-.2871.6577-.8604,1.1001-1.6113,1.3926-2.3486l.0303-.0889c.126-.3711.3882-1.1436,1.1538-1.6035.6934-.4102,1.3535-.4102,1.7085-.4102h.2485c.4014,0,1.2368,0,1.8804.6807.0659.0693.125.1416.1772.2148.2969.0098.6187.0146.8628.0186,1.0464.0156,1.7183.0342,2.229.1523.0479.0107.0952.0234.1416.0381.7168.1777,1.8193.7539,1.7871,2.6152l-.002.1299c0,3.4902-1.4785,6.0684-4.2759,7.4551-1.0356.5107-2.7231,1.0264-3.9521,1.0264Z"/><path class="cls-1" d="M77.078,86.5826c-.1367,0-.2612-.0059-.3667-.0117l-.1387-.0029c-.3711,0-1.144,0-1.8633-.5928-.6729-.5469-.8677-1.4053-.9155-2.4229-.3843.1328-.8062.2266-1.2554.2266-1.7427,0-2.6709-1.8877-2.6709-3.251,0-.6934.2856-1.3564.7837-1.8193.3765-.3486.6152-.4307,3.0776-1.2119.6821-.2168,1.3086-.4121,1.5171-.4951.6255-.2461,1.2324-.6221,1.9619-1.0879.0396-.0254.0801-.0488.1211-.0713.7485-.4971,1.3813-.8594,2.0718-.8594,1.4292,0,2.6885,1.6318,2.8979,2.5195.2593,1.0605-.0229,1.8105-.3057,2.251-.5708.8896-1.5278,1.1592-1.9941,1.2588-.0649.0225-.1279.042-.189.0605-.0005.207.0146.4551.0249.6182.0146.2412.0269.4688.0269.6689.0015.0879.0161.2139.0293.3555.1001,1.0605.2671,2.835-1.2363,3.5381-.4727.2217-.9888.3291-1.5767.3291Z"/><path class="cls-1" d="M85.2211,86.4938c-1.8857,0-2.4604-1.3896-2.6768-1.9121-.0347-.085-.0693-.1758-.1182-.2656-.1401-.2588-.2129-.5469-.2129-.8408,0-.8359.4048-1.8701,2.334-2.4062.376-.1025.7544-.2031,1.1333-.292l.1104-.0283c.2622-.0967.4507-.1777.5991-.2637h-.0112c-.2573,0-.5122.0146-.7671.0283-.3188.0176-.6377.0342-.959.0342h-.2065c-.4429,0-.9653-.0273-1.4805-.2324-.9595-.3828-1.5317-1.2314-1.5317-2.2705-.0005-.4033-.002-1.2939.7202-2.1201.8188-.9424,2.1357-.9424,2.5684-.9424.3286,0,.6626.0225.9536.0439.1445.0107.272.0215.3691.0215.1831-.0107.394-.0117.6177-.0117l1.3472.0107c.2661,0,.4688-.0117.6128-.0254.3262-.4512.9761-1.248,2.4287-1.248,1.9839,0,3.7236,1.667,3.7236,3.5664,0,1.5391-.9365,2.2207-1.4619,2.5137-.0103.0391-.021.0791-.0327.1182-.2192.7891-.5366,1.5508-.9331,2.2344-1.1646,1.9717-2.9834,3.292-5.5674,4.0488-.5244.1592-1.04.2393-1.5591.2393Z"/><path class="cls-1" d="M95.5985,86.778c-1.4224,0-2.8184-1.4014-2.8184-2.8291,0-.1162.0146-.4072.144-.7314-.0312-.0518-.0596-.1025-.084-.1523-.2383-.5332-.2603-1.2422-.2603-1.5264,0-.2422.041-.4854.1226-.7168-.1055-.2607-.1646-.5312-.1646-.7988,0-.3545.0815-.6602.207-.9209-.0464-.1875-.0703-.3867-.0703-.5947-.0015-.3486-.0034-.8906.2437-1.4053-.0146-.1006-.0225-.207-.0225-.3203,0-1.5117,1.6108-2.4404,2.7656-2.4404.0376,0,.0776.001.1196.0039.3896-.1934.9033-.3193,1.582-.3193.2295,0,.6543,0,1.0957.1729.1313-.0195.2529-.0264.3599-.0264.3379,0,.6577.0488.9502.1377.3311-.2256.7373-.3682,1.2393-.3682,1.4697,0,2.332.6943,2.6621,1.5176.2495.0117.4595.0264.666.0732.3833.0664.8145.2939,1.1621.6416.7407.7393.7393,1.6914.7383,2.1494,0,.6904-.1997,1.1621-.4629,1.4834-.127.6699-.2778,1.375-.48,2.0752-.0156.0566-.0342.1162-.0537.1768.499.4297.7334.9365.7334,1.5312,0,.8965-.8799,2.998-2.5869,2.998-.6562,0-1.1533-.2334-1.4951-.4434-.3818.2578-.9678.6123-1.7358.6123-.3008,0-.5806-.0557-.8379-.167-.1821.0449-.355.0615-.5093.0615-.5264,0-.9453-.1826-1.2119-.3086-.1123.0303-.2559.0771-.3643.1133-.4346.1426-.9756.3213-1.6338.3213Z"/><path class="cls-12" d="M42.4689,79.4124c0,.8949.2946,1.3577,1.2419,1.3577.3368,0,.6736-.0209,1.0103-.0209.2314,0,.4526-.0212.684-.0212.5473,0,1.1157.1055,1.1157.7685,0,.2316-.0632.442-.2631.5684-.3474.221-.9052.2419-1.3052.2419-.2946,0-.5893-.0106-.8945-.0106-1.5577,0-1.5996.4104-1.5996,1.8312,0,.1158,0,.2316-.0106.3474-.0526.642-.6314.7369-1.1577.7369-.6104,0-.8209-.2213-.8209-.8315,0-.2316.0211-.4632.0211-.6948,0-1.2416-.7787-1.368-1.8208-1.368-.3472,0-.7051.0106-1.0523.0106-.6316,0-1.2104-.1686-1.2104-.9158,0-.4947.2421-.5999.6842-.6314.3051-.0212.6104-.0315.905-.0315.3579,0,.7053.0209,1.0525.0209.8841,0,1.4208-.2631,1.4208-1.2313,0-.3474.0211-1.3786-.0947-1.6418-.0421-.0946-.1052-.1682-.1999-.221-.1579-.0843-.4104-.0843-.5788-.0843-.1579,0-.4421.0106-.4421.221,0,.5896.6736,1.1998.6736,1.8103,0,.442-.9367.8315-1.305.8315-.4,0-1.1051-1.5472-1.1051-1.9155,0-.4104.5684-.579.8736-.7157.0526-.0315.1263-.0315.1578-.0946,0-.0843-.2946-.0843-.3579-.0843-.2105,0-.4104.0209-.621.0209-.3051,0-.463-.1261-.463-.4526,0-.2631.0421-.505.2316-.7051.4315-.4313,2.2521-.4632,2.8731-.4632h2.8416c.3053,0,.621.0106.9262.0528.905.1158,2.0311-.0737,2.0311,1.2207,0,.3474-.5893.3474-.8313.3474-.2001,0-.4-.0315-.5999-.0315l-.0211.0315c0,.2946,1.0525.221,1.0525.8945,0,.4841-.5788,1.884-1.1472,1.884-.3683,0-1.1894-.3053-1.1894-.7472,0-.5262.5895-1.2628.5895-1.7367,0-.3683-.4-.3577-.6631-.3577-.463,0-.6314.2104-.6314.6629v1.147Z"/><path class="cls-12" d="M54.7409,79.1915c.6946,0,.9052.1473.9052.863,0,.5578-.3894.6105-.8526.6105-.3157,0-.6314.0421-.9471.0421s-1.263-.0106-1.3471-.3998c-.0106-.0421-.0106-.0843-.0106-.1158,0-.0737.0106-.1473.0106-.221l-.0211-.0949c-.1895,0-.3157.4104-.5262.4104-.4526,0-1.0103-.863-1.2313-.863-.1369,0-.1895.1788-.2105.2844-.0526.3155-.0421.7894-.0421,1.1155,0,.2419,0,1.4523.3263,1.4523.1263,0,.2421-.0528.3683-.0528.2527,0,.2527.8527.2527.9367,0,.137-.0106.2528-.0737.3789-.221.4211-2.1469.8209-2.6206.8209-.621,0-.7578-.8312-.7578-1.305,0-.3368.3157-.0843.5788-.3577.1579-.1579.1054-.8736.1054-1.1052,0-.2631-.0211-1.81-.0632-1.947-.0211-.0737-.0841-.221-.1684-.2419-.3157-.0634-.5367.0946-.5367-.3683,0-.2844-.0211-1.0737.3894-1.1159.1263-.0103.2527-.0103.3472-.0946.0528-.0528.0843-.1895.0947-.2525.2105-1.1892-.0947-1.5051,1.3788-1.5051.442,0,.5262.3474.5262.7263,0,.2104-.0421.4207-.0421.6314,0,.4841.0947.3471.4526.4207.042.0106.0737.0319.0947.0737.0209.0528.0737.3159.1156.3159.5158,0,.7894-2.5363,1.7682-2.5363.1999,0,1.0734.1052,1.0734.3683,0,.1579-.0737.284-.0737.442,0,.5053,2.8311.2844,3.3889.5999.7578.4317.6736,2.1365.6736,2.8943,0,1.2837-.1052,3.5467-.842,4.6098-.1473.221-.3472.3683-.6104.4207-.6104.1264-1.2419.1158-1.8629.1158-.9156,0-.9576-.2419-.9576-1.084,0-.442.4209-.505.7787-.505.2105,0,.4315.0421.642.0421.1684,0,.3579-.0106.4946-.1264.3894-.3262.4315-2.968.4315-3.5467,0-.9788-.0841-1.5578-1.2313-1.5578-.3262,0-.6629.0212-.9893.0212-.3579,0-.8945.1261-.8945.5787,0,.2001.2736.221.4209.221h1.2945ZM55.5828,82.2646c0,.0949-.0104.2001-.0526.2844-.0421.0839-.1263.1473-.1999.1997-.3789.2528-2.4207.9682-2.8626.9682-.4737,0-.7263-.505-.7263-.9261,0-.1261.0421-.2525.1264-.3577.1999-.2422,2.8626-1.0525,3.2414-1.0525.3157,0,.4737.642.4737.8839Z"/><path class="cls-12" d="M66.2445,79.6653c.0211-.1686.0737-.3265.0737-.5053,0-.3998-.621-.442-.9052-.442-.1473,0-.284.0106-.4209.0106-.3683,0-.7472-.0315-1.1051.0843-.8735.284-1.7154,2.4626-2.6101,2.4626-.3683,0-1.2628-.6211-1.2628-1.021,0-.063.0843-.2001.1263-.2631.0526-.0843.1263-.1682.1895-.2525.642-.8421,1.1998-1.7367,1.5892-2.7155.1054-.2734.1895-.6736.4526-.8312.2842-.1686.5893-.1579.9052-.1579.6314,0,.8945-.0315.8524.726.4947.2844,3.2205.1055,4.0414.295v.0103c.642.0843.5578.5369.5578,1.0525,0,2.5469-.9367,4.7043-3.2942,5.8726-.8103.3998-2.2521.8421-3.1677.8421-.7894,0-1.0525-.6736-1.0946-1.3577.4526-.6527,3.3467-.7787,3.3467-1.4314,0-.4841-1.6628-.642-1.6628-1.2628,0-.3789.5999-1.3471,1.021-1.3471.6736,0,1.6207.7366,1.989.7366.3789,0,.2527-.2525.3894-.4841l-.0104-.0209Z"/><path class="cls-12" d="M79.5162,79.3073c-.4735.1895-.7998.137-1.1049.4526-.5579.5893-.3159,1.8312-.3159,2.5997,0,.5365.3053,2.0628-.1895,2.2941-.4946.2316-1.0208.1473-1.2524.1473-.3051,0-.5788.0106-.8209-.1891-.3368-.2737-.2842-1.7576-.2842-2.1892,0-.5262.0738-1.5051-.6419-1.305-.5999.1682-1.5261.8945-2.3681.8945-.5578,0-.905-.9997-.905-1.4838,0-.2001.0737-.3895.221-.5262.1579-.1473,3.4836-1.1368,4.0414-1.3577.7998-.3159,1.5366-.7787,2.2627-1.2419v.0106c.2527-.1686.9578-.6629,1.2419-.6629.3683,0,1.0945.7996,1.1787,1.1577.2314.947-.2948,1.2522-1.0631,1.3995Z"/><path class="cls-12" d="M88.7046,80.4546c.1579-.3368.3368-.6314.3368-1.0103,0-.2107-.0421-.3474-.2316-.4632-.4313-.2631-1.8943-.2631-2.4311-.2631-.5788,0-1.147.063-1.7259.063-.5473,0-1.4525.0528-1.4525-.7366,0-.2631-.0104-.6208.2842-.9576.4841-.5578,2.0628-.2528,2.6206-.2737.1895-.0106.3683-.0106.5578-.0106.4421,0,.8945.0106,1.3471.0106.3894,0,1.4314-.0209,1.6945-.3053.4735-.5156.4946-.9682,1.3471-.9682.9261,0,1.9575.8315,1.9575,1.7997,0,1.1368-.9578.8945-1.2419,1.4944-.0946.1895-.1156.4211-.1788.6314-.1788.642-.4315,1.2735-.7683,1.8525-1.0314,1.7469-2.631,2.6836-4.5359,3.2414-.3474.1052-.6946.1682-1.0631.1682-.9156,0-.8945-.6102-1.2418-1.2522v-.063c0-.3368.7787-.5684,1.0419-.642.3472-.0949.7051-.1895,1.0629-.2737.1158-.0315.2316-.0524.3474-.0946.7472-.2844,1.2944-.579,1.7891-1.221.1684-.221.2842-.4526.442-.6629.0106-.0209.0317-.0315.0421-.0528v-.0103ZM91.22,76.5184c-.3263,0-.4737.284-.4737.5787,0,.3159.3053.6105.621.6105.3579,0,.5262-.221.5262-.5684,0-.3577-.3368-.6208-.6736-.6208Z"/><path class="cls-12" d="M95.2091,78.9705c-.042-.0421-.1052-.063-.1684-.063-.0841,0-.1684.0106-.2525.0106-.2737,0-.3474-.1686-.3474-.4104,0-.1686-.0104-.5684.1054-.6948.1052-.1158.3683-.0315.3683-.2316,0-.284-.2527-.505-.2527-.7996,0-.358.6946-.6736.9999-.6736.442,0,.4947.6208.5999.6208.1263-.1261.0737-.2419.0737-.3892,0-.5578.6736-.5475,1.0736-.5475.8524,0,.4526.3368.6208.9682.3579-.1367.1579-.8209.7894-.8209.2842,0,.8945.1158.8945.4947,0,.3998-.3683.8103-.3683,1.0946.1579.284.1579.1261.1579.5156,0,.0528.0211.2422.0841.2422.4421,0,.5262-2.5784,1.4208-2.5784.3474,0,1.0525.0839,1.0525.5578,0,.1997-.0632.3786-.0632.5787,0,.4317,1.6209.3368,1.947.4104.1158.0212.2212.0843.3053.1686.2316.2313.221.6314.221.9367,0,.6417-.2525.1473-.3368.5999-.1473.8209-.3051,1.6311-.5367,2.4311-.1052.3789-.3053.7366-.3053,1.1364,0,.6948.9156.6736.9156,1.0631,0,.2946-.4841,1.2313-.8209,1.2313-.621,0-.905-.6105-1.4629-.6105-.6629,0-1.1577.7787-1.768.7787-.3368,0-.4315-.3998-.6104-.6208h-.0528c-.3262,0-.3051.5156-.684.5156-.3368,0-.6946-.3368-1.0629-.3368-.7368,0-1.3999.4632-2.1471.4632-.4524,0-1.0523-.6211-1.0523-1.0631,0-.3577.9997-.1052.9997-.3683,0-.2104-.8313-.2316-.8313-.5262,0-.2316.1999-.2419.1999-.4629,0-.295-.3894-.1055-.4947-.3159-.042-.0946-.0737-.6105-.0737-.7366,0-.2946.2631-.358.5052-.358.1473,0,.2842.0212.4315.0212.4104,0,.2842-.1158.4632-.3474.0841-.1052.5156-.063.5997-.063.2842,0,.8.0103,1.0631.1052.2736.0946.1367.221.3051.2631.3895.0946.9578.0737,1.3367.0737.1895,0,.3579-.0106.5367-.1052,0-.1158-.3788-.4317-.5052-.4317-.0737,0-.1684.0528-.2314.0949-.2631,0-.7053-.6736-.8315-.6736-.1158,0-.0526.3577-.1369.4526-.042.0418-.0737.0737-.1263.0946-.1578.063-.7472.0843-.9471.0843-.4315,0-.6105-.2107-.6105-.6314l-.063-.0319c-.2105,0-.6736.7685-1.0314.7685-.2736,0-.7998-.5578-.7998-.8315,0-.4629.9261-.7472.9261-.9997l-.0211-.0528ZM95.9459,77.6867c.1263,0,.3262-.0106.3262-.1792l-.0209-.0737c-.0211-.0103-.0421-.0103-.0632-.0209-.1684,0-.4526.1158-.6104.1788,0,.0315.0104.0528.042.063.0211.0212.0421.0319.0737.0319h.2527ZM97.1035,82.4647c-.1052,0-.2631.0528-.2631.1788,0,.1473.3894.2422.5052.2422.1369,0,.3263-.2422.3263-.3683-.0843-.0319-.1895-.0528-.2737-.0528h-.2946ZM98.6295,77.6234c.0211,0,.179-.0103.1895-.0209-.1788-.0949-.5052-.2525-.7051-.2525l-.1263.0946c0,.1895.2421.1788.3788.1788h.2631ZM98.9874,78.8759c-.063,0-.221.0209-.221.1052,0,.1052.221.2001.3157.2001.1264,0,.1895-.0634.1895-.1895,0-.1158-.0737-.1158-.1684-.1158h-.1158ZM98.9348,83.4435c.0211.063.221.1261.2842.1261.3157,0,1.5155-.5999,1.5155-.9576,0-.2001-.3683-1.5681-.5684-1.5681-.2421,0-.2314.5262-.2314.6945,0,.1264.0211.2631.0211.4002,0,.0737,0,.2104-.0421.2631-.0843.1052-.2946,0-.4947.1682-.221.1895-.4315.579-.5052.8524l.0211.0212ZM101.5869,78.6971c-.1473,0-.463.4944-.463.6314,0,.0524.0315.0737.0737.0737.0632,0,.1263-.0106.1895-.0106.2946,0,.3894,1.2944.5578,1.2944.2631,0,.3474-1.5153.3474-1.7363,0-.2107-.3263-.2525-.4737-.2525h-.2316Z"/><rect class="cls-2" x="342.5742" y="1.76" width="95.4337" height="46.9872"/><path class="cls-5" d="M344.0995,48.7472c-15.6646,0-22.7949-10.5184-22.7949-23.4936s7.1303-23.4936,22.7949-23.4936l5.5683,5.8734-5.4594,5.8734,5.4594,5.8734-5.4594,5.8734,5.4594,5.8734-5.4594,5.8734,5.4594,5.8734-5.5683,5.8734Z"/><path class="cls-5" d="M436.7487,48.7472c15.6646,0,22.7949-10.5184,22.7949-23.4936,0-12.9752-7.1303-23.4936-22.7949-23.4936l-5.5683,5.8734,5.4594,5.8734-5.4594,5.8734,5.4594,5.8734-5.4594,5.8734,5.4594,5.8734-5.4594,5.8734,5.5683,5.8734Z"/><path class="cls-10" d="M375.5157,16.8509c.0211-.1686.0737-.3265.0737-.5053,0-.3998-.621-.442-.9052-.442-.1473,0-.284.0106-.4209.0106-.3683,0-.7472-.0315-1.1051.0843-.8735.284-1.7154,2.4626-2.61,2.4626-.3685,0-1.263-.6211-1.263-1.021,0-.063.0841-.2001.1263-.2631.0526-.0843.1264-.1682.1895-.2525.642-.8421,1.1998-1.7367,1.5892-2.7155.1054-.2734.1895-.6736.4526-.8312.2842-.1686.5895-.1579.9052-.1579.6314,0,.8945-.0315.8524.726.4947.2844,3.2205.1055,4.0414.295v.0103c.642.0843.5578.5369.5578,1.0525,0,2.5469-.9367,4.7043-3.2942,5.8726-.8103.3998-2.2521.8421-3.1677.8421-.7894,0-1.0525-.6736-1.0946-1.3577.4526-.6527,3.3467-.7787,3.3467-1.4314,0-.4841-1.6628-.642-1.6628-1.2628,0-.3789.5999-1.3471,1.021-1.3471.6736,0,1.6207.7366,1.989.7366.3789,0,.2527-.2525.3894-.4841l-.0104-.0209Z"/><path class="cls-10" d="M388.7874,16.4929c-.4735.1895-.7998.137-1.1051.4526-.5578.5893-.3157,1.8312-.3157,2.5997,0,.5365.3053,2.0628-.1893,2.2941-.4947.2316-1.021.1473-1.2526.1473-.3051,0-.5788.0106-.8209-.1891-.3368-.2737-.284-1.7576-.284-2.1892,0-.5262.0737-1.5051-.642-1.305-.5999.1682-1.5261.8945-2.3681.8945-.5578,0-.905-.9997-.905-1.4838,0-.2001.0737-.3895.221-.5262.1578-.1473,3.4836-1.1368,4.0414-1.3577.7998-.3159,1.5366-.7787,2.2627-1.2419v.0106c.2525-.1686.9578-.6629,1.2419-.6629.3683,0,1.0945.7996,1.1787,1.1577.2314.947-.2948,1.2522-1.0631,1.3995Z"/><path class="cls-10" d="M398.3651,20.4713c.0947.1158.1895.2631.1895.4104,0,.2737-1.1366.9788-1.3997.9788-.2946,0-.5052-.1473-.7051-.3474-.4104-.4104-2.4943-3.0417-2.4943-3.4836,0-.505.9367-1.0628,1.3893-1.0628.6525,0,.7998.8733,1.305.8733.4211,0,2.0418-1.3156,2.0418-1.7363,0-.4841-2.4628-.4632-2.8626-.4632-.5262,0-1.0525.0106-1.5787.0315-.2104.0106-.4104.0212-.621.0212-.3894,0-.9471-.1158-.9471-.5999,0-.2107.0315-.4317.1263-.6314.0947-.2001.2842-.3159.4841-.4002.5895-.2316,1.9155-.2316,2.5786-.2631.2946-.0103.5788-.0209.8735-.0209.7157,0,3.7993-.1158,4.4203.505.2421.2422.3472.7791.3472,1.1159,0,2.1152-3.4415,3.915-3.4415,4.4518,0,.2525.1579.442.3053.6314l-.0106-.0106Z"/><path class="cls-10" d="M410.2477,16.6824c.1895,0,.3894-.0103.5788-.0103.4,0,.8104.0315,1.2103.0946.5158.0737,1.2104.2946,1.2104.9261,0,1.021-2.0418,1.0419-2.7364,1.0419-.3053,0-.621-.0209-.9262-.0209h-2.5152c-.7157,0-3.0836.0843-3.0836-1.021,0-.9891,1.7891-1.0206,2.4731-1.0206.1895,0,.3789.0103.5684.0103h3.2205Z"/><path class="cls-1" d="M371.5375,24.008c-1.4336,0-2.9414-.9971-3.0801-3.2246-.022-.3545.0518-.707.2109-1.0215-.7617-.543-1.3721-1.3662-1.3721-2.3213,0-.6016.2603-1.0645.4565-1.3613.0459-.0742.1328-.1914.2236-.3047.6475-.8486,1.0806-1.584,1.3662-2.3008l.0244-.0742c.1348-.3984.415-1.2266,1.2559-1.7285.7397-.4404,1.4683-.4404,1.8184-.4404h.2441c.4341,0,1.3359,0,2.0459.75.0464.0488.0894.0986.1294.1494.2642.0078.5391.0117.7524.0156,1.0615.0156,1.7441.0352,2.2759.1582.0444.0098.0879.0215.1313.0342.7827.1885,2.0054.8076,1.9697,2.8389l-.002.127c0,3.5303-1.5625,6.249-4.3999,7.6543-1.0566.5225-2.7861,1.0498-4.0508,1.0498Z"/><path class="cls-1" d="M386.349,23.9904c-.1411,0-.2695-.0059-.3784-.0117l-.1338-.0029c-.3647,0-1.2192,0-2-.6455-.6694-.543-.9023-1.3467-.9771-2.2949-.3267.0918-.6782.1514-1.0498.1514-1.8887,0-2.894-2.0166-2.894-3.4727,0-.7559.3125-1.4795.8579-1.9854.4048-.3779.6494-.4629,3.1655-1.2607.6694-.2129,1.2837-.4043,1.4961-.4873.6509-.2578,1.3276-.6895,1.9248-1.0693.0405-.0264.0815-.0498.123-.0723.7715-.5137,1.437-.8926,2.1885-.8926,1.4902,0,2.8613,1.6182,3.1143,2.6895.2778,1.1367-.0283,1.9463-.3345,2.4238-.6138.9561-1.6235,1.2461-2.1221,1.3535-.0078.0029-.0156.0049-.0239.0078.0049.1543.0146.3174.0225.4414.0146.2461.0273.4785.0273.6826.0024.082.0156.2012.0283.335.0986,1.0449.2817,2.9902-1.3638,3.7607-.5029.2354-1.0493.3496-1.6709.3496Z"/><path class="cls-1" d="M397.1547,23.8498c-.7837,0-1.4941-.3135-2.1113-.9307-.0308-.0303-3.0767-3.2686-3.0767-4.8896,0-.2451.0361-.4795.1025-.7012-.9082-.4746-1.376-1.3584-1.376-2.2354,0-.541.1069-1.04.3184-1.4854.292-.6162.8008-1.082,1.5112-1.3799.7881-.3105,1.772-.3643,2.8872-.4014l.3672-.0137c.3584-.0137.6572-.0244.9673-.0244l1.0073-.0078c2.7134,0,4.019.2959,4.8184,1.0947.8638.8652.9307,2.1504.9307,2.5234,0,2.2031-1.8096,3.8379-3.0381,4.8682.0537.2012.0806.4062.0806.6152,0,1.7852-2.4111,2.9678-3.3887,2.9678Z"/><path class="cls-1" d="M410.5106,20.7238c-.1743,0-.3511-.0059-.5283-.0117-.1333-.0039-.2666-.0088-.3979-.0088l-2.8755.001c-.5669,0-1.4097-.0215-2.1797-.207-2.3496-.5664-2.5322-2.29-2.5322-2.8047,0-.9053.4346-3.0098,4.4619-3.0098l.5684.0107h3.2202l.5791-.0107c.5112,0,1.0234.04,1.5225.1201,2.1226.3008,2.8867,1.7451,2.8867,2.8896,0,1.1318-.6138,3.0312-4.7251,3.0312Z"/><path class="cls-12" d="M375.5157,16.8509c.0211-.1686.0737-.3265.0737-.5053,0-.3998-.621-.442-.9052-.442-.1473,0-.284.0106-.4209.0106-.3683,0-.7472-.0315-1.1051.0843-.8735.284-1.7154,2.4626-2.61,2.4626-.3685,0-1.263-.6211-1.263-1.021,0-.063.0841-.2001.1263-.2631.0526-.0843.1264-.1682.1895-.2525.642-.8421,1.1998-1.7367,1.5892-2.7155.1054-.2734.1895-.6736.4526-.8312.2842-.1686.5895-.1579.9052-.1579.6314,0,.8945-.0315.8524.726.4947.2844,3.2205.1055,4.0414.295v.0103c.642.0843.5578.5369.5578,1.0525,0,2.5469-.9367,4.7043-3.2942,5.8726-.8103.3998-2.2521.8421-3.1677.8421-.7894,0-1.0525-.6736-1.0946-1.3577.4526-.6527,3.3467-.7787,3.3467-1.4314,0-.4841-1.6628-.642-1.6628-1.2628,0-.3789.5999-1.3471,1.021-1.3471.6736,0,1.6207.7366,1.989.7366.3789,0,.2527-.2525.3894-.4841l-.0104-.0209Z"/><path class="cls-12" d="M388.7874,16.4929c-.4735.1895-.7998.137-1.1051.4526-.5578.5893-.3157,1.8312-.3157,2.5997,0,.5365.3053,2.0628-.1893,2.2941-.4947.2316-1.021.1473-1.2526.1473-.3051,0-.5788.0106-.8209-.1891-.3368-.2737-.284-1.7576-.284-2.1892,0-.5262.0737-1.5051-.642-1.305-.5999.1682-1.5261.8945-2.3681.8945-.5578,0-.905-.9997-.905-1.4838,0-.2001.0737-.3895.221-.5262.1578-.1473,3.4836-1.1368,4.0414-1.3577.7998-.3159,1.5366-.7787,2.2627-1.2419v.0106c.2525-.1686.9578-.6629,1.2419-.6629.3683,0,1.0945.7996,1.1787,1.1577.2314.947-.2948,1.2522-1.0631,1.3995Z"/><path class="cls-12" d="M398.3651,20.4713c.0947.1158.1895.2631.1895.4104,0,.2737-1.1366.9788-1.3997.9788-.2946,0-.5052-.1473-.7051-.3474-.4104-.4104-2.4943-3.0417-2.4943-3.4836,0-.505.9367-1.0628,1.3893-1.0628.6525,0,.7998.8733,1.305.8733.4211,0,2.0418-1.3156,2.0418-1.7363,0-.4841-2.4628-.4632-2.8626-.4632-.5262,0-1.0525.0106-1.5787.0315-.2104.0106-.4104.0212-.621.0212-.3894,0-.9471-.1158-.9471-.5999,0-.2107.0315-.4317.1263-.6314.0947-.2001.2842-.3159.4841-.4002.5895-.2316,1.9155-.2316,2.5786-.2631.2946-.0103.5788-.0209.8735-.0209.7157,0,3.7993-.1158,4.4203.505.2421.2422.3472.7791.3472,1.1159,0,2.1152-3.4415,3.915-3.4415,4.4518,0,.2525.1579.442.3053.6314l-.0106-.0106Z"/><path class="cls-12" d="M410.2477,16.6824c.1895,0,.3894-.0103.5788-.0103.4,0,.8104.0315,1.2103.0946.5158.0737,1.2104.2946,1.2104.9261,0,1.021-2.0418,1.0419-2.7364,1.0419-.3053,0-.621-.0209-.9262-.0209h-2.5152c-.7157,0-3.0836.0843-3.0836-1.021,0-.9891,1.7891-1.0206,2.4731-1.0206.1895,0,.3789.0103.5684.0103h3.2205Z"/><rect class="cls-3" x="342.6099" y="64.2265" width="95.4337" height="46.9872"/><path class="cls-5" d="M344.1352,111.2137c-15.6646,0-22.7949-10.5184-22.7949-23.4936s7.1303-23.4936,22.7949-23.4936l5.5683,5.8734-5.4594,5.8734,5.4594,5.8734-5.4594,5.8734,5.4594,5.8734-5.4594,5.8734,5.4594,5.8734-5.5683,5.8734Z"/><path class="cls-5" d="M436.7844,111.2137c15.6646,0,22.7949-10.5184,22.7949-23.4936s-7.1303-23.4936-22.7949-23.4936l-5.5683,5.8734,5.4594,5.8734-5.4594,5.8734,5.4594,5.8734-5.4594,5.8734,5.4594,5.8734-5.4594,5.8734,5.5683,5.8734Z"/><path class="cls-10" d="M371.2304,83.1554c0,.442-.3157,1.1261-.8313,1.1261-.8736,0-1.6945-.3159-2.568-.3159-.9156,0-1.7786.442-2.6943.442-.5473,0-.5158-.3053-.6946-.7051l-.0526-.0421c-.1158,0-.3053.3895-.3789.4841-.1999.2422-.4841.2631-.7683.2631-1.084,0-1.5049-.2946-1.5049-1.4208,0-.1052.0946-.2104.1999-.2104.1999,0,.3789.1052.5788.1052.2316,0,.2631-.8839.2631-1.0525,0-.1261-.0106-.2631-.1684-.2631-.2736,0-.5367.3265-.7368.3265-.2421,0-.684-.9158-.684-1.1368,0-.4317,1.3576-.9894,1.3576-1.5996,0-.1579.0106-.3789-.1999-.3789-.2736,0-.3368.221-.5999.221-.221,0-.5262-.9579-.5262-1.147,0-.5053.7051-.4317.7051-.8736,0-.3159-.221-.3998-.221-.6842,0-.284,1.1157-.9576,1.3893-.9576.2842,0,.2736.3577.4315.3577s.4315-.5684.6629-.5684c.3895,0,.6736.3895,1.1368.3895.1473,0,.2946,0,.442-.0421.0947-.2525.1369-.4629.4526-.4629.2316,0,1.0103-.0106,1.1683.1367.1052.0946.0315.1473.1052.2419.1158.137.442.137.6104.137.1054,0,.221,0,.3157-.0315.0843-.0212.0843-.1792.0843-.2422,0-.1788.2316-.1788.3579-.1788.2946,0,.8524,0,1.1051.1367.1895.1052.1158.2422.284.3683.0632.0421.179.0528.2527.0634.1263.0103.2842.0209.4.0839.3472.1895.3368.6318.3368.9788,0,.2001-.2948.2316-.4526.2316-.1054,0-.2105-.0209-.3263-.0209-.1578,0-.1473.0737-.1684.2104-.1052.0209-.1788.0421-.2525.1158.0421.1682.5788.1261.7051.1261.4104,0,.5684.1264.5684.5475,0,.284-.4841.2946-.6842.2946-.221,0-.4315-.0315-.6525-.0315-.0526,0-.1684.0106-.1684.0737,0,.1682.2421.1367.3579.1367.1473,0,.2946-.0103.4315-.0103.3053,0,.5893.0524.5893.4104,0,.221-.3788.2419-.5471.2419s-.3368-.0209-.5052-.0209c-.0632,0-.3474.0209-.3474.1052.1158.0946.3368.1052.4841.1052.179,0,.3474-.0209.5262-.0209.2948,0,.4104.0946.4104.3998,0,.2525-.3788.2737-.5682.2737-.1369,0-.2737-.0212-.4211-.0212-.1263,0-.2736-.0209-.3894.0528l-.0315.0524c.063.1158.5156.1158.6525.1158.1158,0,.2314-.0209.3579-.0209.3998,0,.5578.0209.5578.4629,0,.0843-.0421.1686-.1158.2107-.3579.221-1.8944.2316-2.3679.2316-.7157,0-1.4314-.0212-2.1576-.0212-.4947,0-1.0419,0-1.5366-.1158-.1052-.0209-.1895-.0737-.2631-.1579-.1999-.2525-.1473-.568-.1473-.8733,0-.1264,0-.3262-.1684-.3262-.1579,0-.1999.1367-.1999.2734,0,1.0419.0315,2.0943.0315,3.1362,0,.1686.1473.2737.3053.2737.1263,0,.7787-.0209.7787-.2001,0-.1788-.3683-.1682-.3683-.3368,0-.1155.2946-.2104.2946-.3155,0-.1367-.5052-.0949-.5788-.1158-.2421-.063-.2527-.3998-.2527-.5999,0-.0843.0317-.1686.0843-.2316.1999-.2734,3.8941-.2419,4.4729-.2419.2946,0,.5999.0103.9052.0103.442,0,1.084-.0737,1.084.5475,0,.7787-.9894.9261-.9894,1.2101l.0737.0634c.3368.0421.6736.0103.9788.1682v.0528ZM365.1579,76.8302c-.2631,0-.2948-.1264-.3368-.1264-.2737,0-.7368.6948-.7368.9473,0,.0843.0947.6208.1895.6208.3157,0,.4526-1.3259,1.0314-1.3259.1263,0,.2525.0209.3789.0209l.1367-.063c-.1156-.1158-.2314-.0737-.3788-.0737h-.2842ZM368.5994,76.9354c0-.0843-.4421-.1052-.5158-.1052h-.2314c-.1054,0-.3368,0-.3368.1473l-.0317.0843c-.0526.0421-.1263.0421-.1893.0421-.1264,0-.2527-.0212-.3895-.0212l-.1052.0843c0,.1261.3368.1367.4209.1367.179,0,.6316.0106.7894-.0843.0843-.0524.0632-.0839.1158-.1473.0632-.0839.3683-.0946.4737-.1052v-.0315ZM367.7785,80.0192c.0315-.0106.042-.0421.042-.0737,0-.0843-.1367-.0843-.1999-.0843s-.1263.0106-.1895.0106c-.042,0-.0737,0-.1052-.0106-.0315.0106-.0632.0106-.1054.0106-.063,0-.1263-.0106-.1893-.0106-.0843,0-.2316,0-.2316.1158,0,.0737.2527.0946.3053.0946.1999-.0106.4735.0212.6736-.0524ZM367.6312,78.1458c-.0738,0-.1369.0103-.2001.0103-.042,0-.0841,0-.1158-.0103-.0315.0103-.063.0103-.1052.0103-.0632,0-.1263-.0103-.1999-.0103s-.2001-.0106-.2001.0946l.1369.1052h.5895c.0737,0,.2736-.0209.2736-.1158l-.1788-.0839ZM367.5679,79.2086c.0737,0,.2631.0106.2631-.0946s-.1052-.1158-.1895-.1158h-.5367c-.0737,0-.2948.0209-.2948.1158l.1369.0946h.621ZM368.7993,82.1872c-.1999-.0421-.3998-.0315-.5999-.0315-.063,0-.1158-.0106-.1788-.0106h-.2842c-.0632,0-.3894.0209-.3894.1158,0,.1579.5999.2525.7262.2525.1369,0,.7368-.1264.7368-.3053l-.0106-.0209Z"/><path class="cls-10" d="M375.9984,81.282c0-.6629,1.3997-.6736,1.8523-.6736.5684,0,1.1472.063,1.7154.063.0843,0,.6105-.0106.6105-.1261,0-.1792-.3053-.1792-.4315-.1792-.4315,0-.863.0212-1.2945.0212-.3579,0-2.2523,0-2.4207-.2422-.063-.0946-.042-.2316-.042-.3471,0-.0737-.0211-.2107-.0947-.2316-.2316.2734-.2316.6838-.2316,1.0312,0,.9894.0632,1.9683.0632,2.9574,0,.4632-.0526.8736-.6316.8736-.284,0-.6208,0-.8524-.1686-.4947-.3683-.2736-2.5363-.5262-2.7888h-.0315c-.2105,0-.2631.221-.4315.221-.2527,0-.4841-1.2628-.4841-1.4838,0-.1055.1895-.3686.2631-.4423.3051-.3155.684-.5471.9893-.863.3053-.3049.5893-.6523.8735-.9682.0526-.063.1158-.1473.179-.1895.0841-.0524.1895-.0737.284-.0737.2527,0,.5473.1792.7789.2844l.1369-.0528c.063-.3262.0737-.6523.0737-.9891,0-.2001.0209-.3368-.0528-.5262h-.0315c-.4315,0-1.7997,1.7469-2.4626,1.7469-.3579,0-.7053-.7051-.7053-1.0103,0-.1788.0632-.3262.2001-.4526.2736-.2419.5999-.4211.8839-.6527.2631-.2104.4947-.4629.7474-.6838.1156-.0949.2421-.1579.3894-.1579.3998,0,.7998.5369.9682.5369.0947,0,.1263-.2422.3472-.3368.2527-.1055.6631-.1158.9367-.1158,1.0103,0,2.0102-.0106,3.0206.0839,1.1681.1055,1.6944.3265,1.8102,1.5893.0315.3368.0632.6629.0632.9997,0,.9264-.7789,1.021-1.5155,1.021-1.4314,0-2.8626-.0106-4.294-.0106-.221,0-.2946.0737-.442.221.1263.0949.7894.0949.9788.0949.3577,0,.7155-.0106,1.0629-.0106h2.8205c.1895,0,.3894-.0106.5788-.0106.3579,0,1.3682.0319,1.3682.5369v.2422c0,.5365-.863.1682-.863.4526,0,.1576.1684.1788.2946.1788.0737,0,.1579-.0212.2421-.0212.2948,0,.3579.1792.3579.4423,0,.0839-.0104.1576-.0104.2419,0,.1895.0104.5053-.179.6105-.0737.0421-.1578.063-.2421.0737-.1263.0103-.2525.0209-.3683.0524-.3157.0737-.1684,1.6209-.6631,2.0313-.4841.4104-1.4944.3789-2.1048.3789-.0526,0-.1158.0106-.1684.0106-.1579,0-.4315-.0106-.5262-.1579-.0737-.1158-.0315-.5999-.221-.5999s-.3263.3368-.5788.3368c-.2105,0-1.4208-1.2313-1.4208-1.442,0-.2104.2314-.2419.2314-.3577,0-.1264-.4841-.1052-.5788-.1473-.2421-.0949-.221-.5156-.221-.7157v-.1052ZM380.1661,76.9882c.1158,0,.2842-.0212.2842-.1686,0-.221-.8103-.2104-.9578-.2104-.1893,0-.3788-.0315-.5682-.0315-.1579,0-.7368,0-.7368.221l.0421.1052c.1158.0737.6736.0843.8313.0843h1.1051ZM379.5872,77.7248c-.1895,0-.3683-.0209-.5578-.0209-.1578,0-.8313,0-.8313.2313,0,.1579.9682.1686,1.1155.1686.1158,0,.2421-.0106.3579-.0106.1367,0,.8313.0528.8313-.1579,0-.2313-.7787-.2104-.9156-.2104ZM380.1556,82.3239c0-.2316-.7894-.2104-.9262-.2104-.1367,0-.6945,0-.6945.1997,0,.1579.6629.7263.8209.7263.1367,0,.2736.0106.4104.0106.3368,0,.3894-.2528.3894-.5369v-.1895Z"/><path class="cls-10" d="M390.0069,84.2918c-.3262,0-1.4523.0634-1.4523-.4629,0-.0737.0104-.1473.0104-.221,0-.0528-.063-.0949-.0947-.1158-.2314-.1473-.463.1367-.5999-.3053-.1263-.4104-.1473-.863-.1473-1.2841v-.4526c0-.3683.3579-.4313.6525-.4313.621,0,.2737,1.2841.5788,1.6102.2105.221.7578.1895,1.042.1895.2105,0,.6736-.0106.6736-.2946,0-.2422-.0526-.4526-.3474-.4526-.1367,0-.2736.0315-.4209.0315-.3789,0-.8104.0209-.8945-.442-.0317-.1579-.0317-.3265-.0317-.4841,0-.1895-.0211-.3789-.2525-.3789-.1473,0-.2842.0315-.4211.0315-.0211,0-.0841-.0209-.0947-.0315-.063-.1788-.0947-.2422-.2946-.2422-.3579,0-.4315.3265-.4315.6314,0,.8527.0526,1.7051.0526,2.5576,0,.4526-.042.6948-.5578.6948-.2946,0-.642-.0212-.8209-.2844-.442-.6629.0737-3.473-.8841-3.473-.1473,0-.2946.0209-.442.0209-.3894,0-.4211-.505-.4211-.7894v-.2104c0-.4632.6105-.4211.9367-.442.0737,0,.1684-.0106.1684-.1158,0-.2946-1.0312-.9894-1.0312-1.4944,0-.2316.3788-1.2841.6419-1.2841.1054,0,.1684.0843.2421.1579.4421,0,.4211-1.3577,1.1261-1.3577.221,0,.7683.0843.7683.3895,0,.505-.9578,1.7048-.9578,2.0731,0,.074.0421.1792.1263.1792.3368,0,.7053-1.5893,1.3893-1.5893.2105,0,.8315.1895.8315.4526,0,.3053-.8209,1.3365-.8209,1.6102.1684,0,.3262-.0528.4946-.0528.1369,0,.2527.0634.3263.1792.1578.2631.2525.7366.3051,1.0419.0528.3262.1895.7996.4211,1.0419.2421.2525.6104.1895.9367.1895.4315,0,.2946-.1895.4104-.4735.0315-.0737.1788-.0843.2421-.0843.3683,0,.7472-.0315,1.1155-.0315.1158,0,.3053-.0106.4211.0209.3789.1264-.1054.5578.6946.5578.1578,0,.3262-.0209.4841-.0209.3894,0,.6525.063.6525.505,0,.5262-.1788.8843-.7577.8843-.1054,0-.2105-.0106-.3159-.0106-.3683,0-.6525.0421-.6525.4735,0,.2316.4.2422.5684.2422.2525,0,.4946-.0528.7472-.0528.2842,0,.4526.1052.4526.4104,0,.221.0104.4317-.1158.6314-.3263.5262-2.5891.5578-3.1784.5578h-1.0736ZM384.5343,81.8926c0-.3159.063-.8315.4735-.8315h.1684c.5158,0,.4211.5262.4526.8839.0106.1367.0106.2737.0106.4104,0,.2525.0104,1.4629-.3685,1.4629-.7787,0-.7366-.5787-.7366-1.1786v-.7472ZM387.6705,78.7879l-.0737-.1895c-.1158.0946-.3157.3049-.3157.4629l.0211.0528c.0104.0106.0841.0315.0947.0315.1578,0,.2736-.0106.2736-.1895v-.1682ZM393.4484,78.3983c0,.505,1.1577.2525,1.1577.8945,0,.2946-.2421,1.0419-.6104,1.0419-.7577,0-1.3786-.5787-2.1365-.5787-.7998,0-1.4419.5787-2.0101.5787-.4526,0-.7683-.6523-.7683-1.0419,0-.6105.863-.3895.863-.7051,0-.3368-.7263-.6736-.7263-1.0734,0-.3368.5473-.3895.5473-.5999,0-.1158-.442-.1055-.5262-.1055-.3157-.0103-.3683-.3471-.3683-.5893,0-.7051.3894-.863,1.0208-.863,1.0946,0,2.1997.0315,3.2942.137.1369.0103.2737.0315.4104.063.0947.0209.2212.0737.2948.1264.063.0418.1578.1682.1893.2419.0632.1264.1369.5893.1369.7366,0,.7894-.7683,1.4842-.7683,1.7367ZM391.112,76.8302c-.0632,0-.1895.0421-.1895.1158,0,.1473.5052.5999.6525.5999.1369,0,.5262-.2946.5262-.442,0-.2844-.6629-.2737-.8313-.2737h-.1579Z"/><path class="cls-10" d="M396.964,83.3342c0,.1895-.0315.5684-.2842.5684-.6629,0-.5682-.8524-.5682-1.2947,0-.2525.0104-1.3574.3683-1.3574.3894,0,.4841.2419.4841.5999v1.4838ZM399.2374,82.8292c-.3368-.0843-.4104-.9894-.4104-1.2735,0-.0634.0104-.137.0104-.2107.0632-.0421.4-.063.4-.1579,0-.1788-.6736-.1788-.8-.1788-.1578,0-.3262.0212-.4841.0212-1.6418,0-1.768-.295-1.768-1.8631,0-3.3044-.0421-3.8519,3.4836-3.8519.7998,0,.9471.0737.9471.9052,0,.1158,0,.3159-.0737.4104-.179.2422-.6736-.1052-.6736.3895,0,.0946.0421.1367.1369.1367.4524,0,1.768-1.4417,2.1154-1.7997.1052-.1052.2314-.2104.3788-.2525.2105-.0528.4421-.0421.6525-.0421.6316,0,2.9891,1.8943,2.9891,2.4942,0,.295-.179.516-.2316.7894-.0632.358-.0947.7157-.0947,1.084,0,.4632.0106.9367.0106,1.3999,0,.3159.0315.6945-.2422.9052-.1578.1261-.9471.1367-.9471.2631,0,.4211,1.3682.4629,1.3682.9997,0,.3789-.4737,1.1577-.9052,1.1577-.7155,0-1.1155-.863-1.8102-.863-.8945,0-1.4944,1.1155-2.347,1.1155-.2421,0-.3577-.6314-.4946-.6314s-.2316.4104-.3157.4947c-.179.2001-.463.2104-.7157.2104-.1788,0-.6104.0106-.7157-.1473-.1367-.1997-.1367-.4313-.1895-.6523-.0737-.2946-.221-.4002-.2946-.6527-.1263-.4629-.1999-.9473-.1999-1.4314,0-.1997.1684-.2946.3472-.2946.5895,0,.2105,1.6418.7894,1.6418l.0421-.0103.0421-.1052ZM397.5007,81.3029c.1054,0,.2001.0528.2631.1264.0947.1052.2842,1.8312.2842,2.0628,0,.2525-.1369.3577-.3789.3577-.0947,0-.1578-.0524-.2104-.1261-.2527-.4104-.2948-1.5263-.2948-2.0207,0-.2528.0632-.4002.3368-.4002ZM397.9322,78.1773c-.0211.0524-.0315.1158-.0315.1682,0,.1473.2105.1792.3263.1792.1367,0,.1684-.137.1684-.2528s-.0737-.1576-.179-.1576h-.1367l-.1475.063ZM398.0586,79.4614c-.1054,0-.1579.1261-.1579.2104,0,.1788.1369.2104.2842.2104.1263,0,.1999-.1158.1999-.2316,0-.1155-.1052-.1891-.2105-.1891h-.1156ZM398.1428,76.7672c-.1052,0-.1788.1052-.1788.1997,0,.221.0947.2107.284.2107.1158,0,.1895-.1158.1895-.2213,0-.1261-.063-.1891-.1895-.1891h-.1052ZM400.4898,82.3133c0,.1792.0315.3368.2421.3368.2104,0,1.0734-.3155,1.0734-.5578,0-.2316-.7577-.0524-.9682-.3577-.1578-.221-.1369-1.2313-.1369-1.5366s.0106-.5999.0106-.9052c0-.4735.0421-1.2207-.621-1.2207-.1158,0-.2421.0839-.2421.2104,0,.3159.3157.1686.4947.2422.0947.0418.0947.3892.0947.4735,0,.2316-.0106.4632-.2948.4632-.2525,0-.2946.0839-.2946.3155.0421.0421.1052.0949.1684.0949.0737,0,.1579-.0106.2316-.0106.2736,0,.2736.5578.2736.7472,0,.221-.0315.4526-.0315.6736v1.0312ZM402.3104,78.2825c-.1578-.0528-.3368,0-.4946-.0421-.179-.0421-.0526-.1579-.2316-.1579-.0947,0-.4104.3159-.4841.4002,0,.063.2842.0737.3368.0737.1788,0,.3579.0103.5473.0103.1263,0,.3998-.0209.3998-.1891,0-.0421-.0315-.0843-.0737-.0949ZM402.3947,80.0716c0-.0946-.0315-.1997-.1473-.1997-.1579,0-.179.0946-.179.2313v.3368c0,.0949.0106.2107.1264.2107.0946,0,.1999-.0528.1999-.1579v-.4211ZM403.5102,76.7881c0-.1052-.2314-.3789-.3579-.3789-.0947,0-.2314.284-.2736.3683,0,.1158.2316.1264.3157.1264h.2421l.0737-.1158ZM405.0783,78.5772c.0947,0,.2105-.0209.3053-.0421,0-.1052-.4315-.3789-.5262-.4313-.0526.0315-.1052.0843-.1684.1158-.1367.063-.5893-.0315-.5893.1788,0,.1473.3051.1788.4104.1788h.5682ZM404.0996,80.3769c0,.1158.0211.284.1684.284s.1788-.2104.1788-.3262v-.1997c0-.1055.0106-.2631-.1369-.2631-.1893,0-.2104.2104-.2104.3577v.1473Z"/><path class="cls-10" d="M413.4142,82.4503c-.5999,0-.7157-.7369-.7157-1.2104,0-.284.0104-.5684.0104-.8524,0-.2525-.0104-.5053-.0104-.7578,0-.3577-.0211-1.947.2736-2.1152.0632-.0421.1369-.0528.2105-.0528.1158,0,.221.0209.3368.0209.0843,0,.2316-.0315.2316-.1367,0-.2631-.9999-.2419-1.1998-.2419-.3474,0-.6946.0315-1.042.0315-.5997,0-.6419-.0315-.7681-.5999l-.0106-.0106c-.4841.6105-.6104,2.5997-.6104,3.3993,0,1.1892.063,2.3681.063,3.5573,0,.4632-.0211.9367-.6104.9367-.3053,0-.6104.0106-.842-.2104-.4841-.4526-.2105-2.6627-.5367-3.3784-.1684.0737-.2105.2946-.4104.2946-.2421,0-.3685-1.305-.3685-1.5051,0-.9154.7578-1.8206,1.1577-2.6206.1264-.2525.2212-.5156.2948-.7787.0737-.2419.1263-.4629.2736-.6736.179-.2525.3789-.3368.684-.3368.2422,0,.9262.0528,1.1157.1686v.0315c0,.0421-.0315.0946-.0315.1473,0,.1579.5682.1579.684.1579h.4737c.2525,0,1.6102-.0212,1.7576-.0843.3051-.1264.1158-.3262.2842-.5471.0737-.0949.3472-.0737.463-.0737.2105,0,.9997.0209,1.1261.1682.0315.0421.0526.0843.0526.1367,0,.0737-.0211.1473-.0211.221,0,.2528.221.2631.4104.2631.1999,0,.4-.0103.5999-.0103.1473,0,.2946.0315.4315.0839.442.1579.5052.5896.5052,1.0001,0,.3471-.5895.3471-.8315.3471-.3051,0-.5999-.0418-.8945-.0418-.1578,0-.3368.0209-.3368.221,0,.1473.5895.1261.6946.1261.8524,0,1.1472.4738,1.1472,1.2841v1.7785c0,.3474-.0421.7054-.1158,1.0422-.1158.5156-.5158.6838-.9999.7366s-.9787.0843-1.4629.0843h-1.4628ZM412.2881,84.3655c0,.1686-.3683.1477-.4737.1477-.2842,0-.684.0315-.8945-.1792-.3789-.3789-.3683-3.0732-.3683-3.6834,0-.2946-.0106-.579-.0106-.8736,0-.4313,0-1.6209.3789-1.884.1895-.1261.3368-.1155.5578-.1155.1473,0,.3263,0,.4526.0737.4104.2313.3894,1.7154.3894,2.1468,0,.3368-.0211.6629-.0211.9997,0,.2316,0,.4844.0421.7054.1684.8733,1.0314,1.0312,1.7891,1.0312.9578,0,1.9051-.0528,2.8626-.0528.3159,0,.6316.0737.6316.4526,0,.1895-.0317.4526-.1684.5999-.4632.4632-3.4204.4738-4.1572.4738-.2736,0-.5578-.0212-.8315.0209-.0737.0106-.1473.0421-.1788.1158v.0209ZM415.519,78.6614c-.1367-.0212-.3157-.0315-.4526-.0315-.1367,0-.6208-.0106-.6208.1895,0,.1895.463.1997.5893.1997.0526,0,.1158-.0103.1684-.0103.1579,0,.463.063.463-.1792,0-.0946-.0526-.1576-.1473-.1682ZM414.9087,81.0504c-.1158,0-.463.0212-.463.1895v.1052c.1578.0949.6629.0843.842.0843.1156,0,.3577-.0315.3577-.1788,0-.1895-.1578-.2001-.3051-.2001h-.4315ZM415.3085,80.2189c.1054,0,.3579-.0103.3579-.1579,0-.2104-.3157-.221-.4735-.221h-.3789c-.0947,0-.3579.0421-.3579.1686,0,.2001.3157.2104.463.2104h.3894Z"/><path class="cls-1" d="M365.1366,86.3966c-.2773,0-.584-.0342-.8901-.1338-.4385.1338-.8174.1338-1.0039.1338-3.1533,0-3.4937-2.3848-3.4937-3.4102,0-.1553.0156-.3066.0464-.4521-.4058-.6709-.5938-1.4141-.5938-1.7783,0-.5449.1851-.9805.4341-1.3301-.3052-.6699-.4028-1.3516-.4028-1.5752,0-.4219.1011-.9541.4863-1.4521-.0015-.0342-.002-.0693-.002-.1055,0-1.7715,2.4038-2.9463,3.3779-2.9463.0469,0,.0977.002.1519.0049.2642-.1289.5757-.2158.9424-.2158.3486,0,.6499.0703.8979.1582.4141-.2217.832-.2734,1.1333-.2734h.1128c.5537,0,1.1221.0215,1.6343.2041.2632-.0908.562-.1416.895-.1416.6558,0,1.4092.0293,2.0508.376.1646.0918.313.1973.4453.3154.1543.0449.3218.1094.4907.2002,1.3823.7539,1.3809,2.2207,1.3804,2.7021,0,.1367-.0132.2744-.0391.4111.0737.2539.1128.5303.1128.8262,0,.2061-.0376.459-.1309.7207.0029.0518.0044.1025.0044.1533,0,.1035-.0073.208-.0225.3105.0278.1543.043.3164.0435.4834.1089.3047.1577.625.1577.9316,0,.3311-.0732.6523-.2085.9434.0063.0703.0088.1387.0088.2041,0,.252-.0303.4824-.083.6934.0952.2334.146.4873.146.748,0,1.5566-1.1328,3.168-2.8198,3.168-.6206,0-1.1665-.1016-1.6484-.1914-.3579-.0664-.6665-.124-.9199-.124-.2144,0-.5317.0781-.8677.1621-.5015.124-1.1255.2793-1.8267.2793Z"/><path class="cls-1" d="M379.3139,86.4601c-.7178,0-1.2329-.1924-1.6016-.4492-.2456-.0479-.5103-.1553-.7773-.3057-.5132.5049-1.2056.7129-1.8418.7129-.4438,0-1.2695,0-2.0249-.5518-.877-.6523-1.0723-1.6699-1.1489-2.6602-1.1011-.9453-1.1406-2.9707-1.1406-2.9971,0-.752.4204-1.3643.689-1.6787-.2363-.4648-.3628-.9658-.3628-1.4053,0-.7334.2974-1.4131.8379-1.9131.2451-.2168.4746-.3799.707-.54.0923-.0625.1855-.124.272-.1943.1211-.0977.2178-.1934.3159-.2881.125-.1201.2505-.2393.3799-.3525.6543-.542,1.2798-.6484,1.6968-.6484.3818,0,.7173.0879,1.0029.209.4443-.1084.8867-.125,1.2495-.125h.5591c.8374,0,1.731.0068,2.647.0928.9038.082,3.3223.2998,3.605,3.3887.0396.4248.0713.7979.0713,1.1807,0,.0684-.0029.1738-.0166.3047.5288.6074.5747,1.3125.5747,1.5371v.2422c0,.126-.0117.2646-.0386.4111.0454.1982.0698.4121.0698.6416,0,.0869-.0039.168-.0093.25.0024,1.332-.6045,1.9854-1.1401,2.3047-.1221.6553-.3638,1.4316-1.0327,1.9863-.8638.7334-2.0049.8369-3.1064.8369h-.2065c-.0835.0068-.1597.0107-.2295.0107Z"/><path class="cls-1" d="M386.976,86.4289c-.8247,0-1.4937-.2129-1.9966-.6338-.8169-.0713-1.3472-.4365-1.6567-.7471-.7832-.7861-.7798-1.7891-.7778-2.3271l.0005-.8281c0-.2793.0264-.5361.0752-.7715-.1279-.3438-.2012-.7451-.2012-1.208v-.21c0-.1064.0151-.584.27-1.0879-.1196-.2861-.1963-.6064-.1963-.9639,0-.3643.3525-2.4648,1.7656-3.0947.5361-.916,1.2847-1.3789,2.2329-1.3789.6978,0,1.3188.2012,1.7944.5439.4219-.2207.9512-.3545,1.605-.3545,1.3447,0,2.4521.0469,3.4854.1465.1973.0146.4297.0508.6626.1045.3408.0732.7168.2383,1.0088.4463.3936.2617.7104.7305.8569,1.0693h0c.2461.5674.3008,1.3535.3008,1.5273,0,.3984-.0732.7627-.1816,1.0879.4756.5312.5708,1.1328.5708,1.5439,0,.4355-.106.9287-.3135,1.3887.0269.1562.04.3154.04.4736,0,.3525-.0488.6826-.1411.9844.1191.291.1831.6152.1831.9629.0015.3584.0039,1.0186-.4229,1.6943-.5498.8857-1.5913,1.4844-4.8599,1.4844l-1.3403.002c-.3188,0-.7979-.0146-1.2715-.1396-.0552-.0146-.1094-.0303-.1616-.0469-.4155.2314-.8872.332-1.3311.332Z"/><path class="cls-1" d="M399.3422,86.4709c-.3408,0-1.2803,0-1.9751-.6523-.0269-.0039-.0537-.0078-.0801-.0127-.1982.0566-.4028.0859-.6069.0859-.688,0-1.3232-.2617-1.7881-.7363-.8037-.8203-.7817-1.9131-.771-2.4375l.002-.1104c0-.7314.0967-1.3057.2534-1.7549-.1401-.5205-.1797-1.0967-.1797-1.6865v-.1162c-.0005-1.8828-.0005-3.2422.8828-4.3252,1.0552-1.2939,2.7026-1.3994,4.5894-1.3994.6016,0,1.0854.0967,1.4727.2627.2598-.1855.5273-.3145.8135-.3965.4199-.1074.7588-.1201,1.0127-.1201.0049,0,.1035.001.1084.001,1.5981,0,5.0542,2.6055,5.0542,4.4834,0,.5713-.1797,1.002-.2759,1.2334-.002.0039-.0029.0059-.0039.0059-.0298.1963-.0469.4121-.0469.6348l.0107,1.3994c.0024.2422.0059.6309-.0996,1.0566.1694.3027.2783.668.2783,1.1113,0,1.2529-1.1538,3.1475-2.8936,3.1475-.8354,0-1.46-.3574-1.873-.6533-.4995.377-1.2383.9053-2.2842.9053-.1562,0-.3276-.0166-.5063-.0586-.4419.1328-.8325.1328-1.0195.1328l-.0278-.749c-.0156-.0166-.0308-.0332-.0464-.0498v.7988Z"/><path class="cls-1" d="M411.5961,86.5031c-.2173,0-.7188-.001-1.2524-.2158-.3755.1113-.6841.1201-.771.1201l-.0259-.6338c-.0117-.0117-.0483-.0479-.0552-.0547v.6885c-.3999,0-1.3369,0-2.1333-.7598-.8154-.7627-.896-1.9131-.9468-3.043-.6323-.5703-.9849-1.6016-.9849-2.9854,0-1.2139.6064-2.2207,1.0493-2.9561.1143-.1904.228-.375.3174-.5537.0601-.1191.1128-.2617.1592-.4268.0029-.0098.0337-.1133.0361-.1221.0835-.2812.209-.7051.5205-1.1514.3916-.5508,1.1006-1.1895,2.3159-1.1895.4214,0,1.4751.0449,2.1558.4629.0229.0137.0454.0283.0674.043,0,0,.3828-.0029.6167-.0098.332-.3516.8789-.6973,1.7632-.6973.0146,0,.1157.002.1304.002,1.3188,0,2.0767.2354,2.6006.8076.2456.0332.4893.0967.728.1885.5029.1797,1.7783.8525,1.7783,2.8555,0,.1094-.0166.6084-.2974,1.1172.0503.2568.0762.5303.0762.8193v1.7783c0,.4482-.0464.9043-.1382,1.3574.2036.3652.3066.7783.3066,1.1895,0,.7842-.2417,1.46-.6987,1.9531-.6299.6318-1.4473,1.1104-5.6157,1.1104l-.1074-.002c-.3472.1924-.7769.3076-1.2852.3076h-.3096Z"/><path class="cls-12" d="M371.2304,83.1554c0,.442-.3157,1.1261-.8313,1.1261-.8736,0-1.6945-.3159-2.568-.3159-.9156,0-1.7786.442-2.6943.442-.5473,0-.5158-.3053-.6946-.7051l-.0526-.0421c-.1158,0-.3053.3895-.3789.4841-.1999.2422-.4841.2631-.7683.2631-1.084,0-1.5049-.2946-1.5049-1.4208,0-.1052.0946-.2104.1999-.2104.1999,0,.3789.1052.5788.1052.2316,0,.2631-.8839.2631-1.0525,0-.1261-.0106-.2631-.1684-.2631-.2736,0-.5367.3265-.7368.3265-.2421,0-.684-.9158-.684-1.1368,0-.4317,1.3576-.9894,1.3576-1.5996,0-.1579.0106-.3789-.1999-.3789-.2736,0-.3368.221-.5999.221-.221,0-.5262-.9579-.5262-1.147,0-.5053.7051-.4317.7051-.8736,0-.3159-.221-.3998-.221-.6842,0-.284,1.1157-.9576,1.3893-.9576.2842,0,.2736.3577.4315.3577s.4315-.5684.6629-.5684c.3895,0,.6736.3895,1.1368.3895.1473,0,.2946,0,.442-.0421.0947-.2525.1369-.4629.4526-.4629.2316,0,1.0103-.0106,1.1683.1367.1052.0946.0315.1473.1052.2419.1158.137.442.137.6104.137.1054,0,.221,0,.3157-.0315.0843-.0212.0843-.1792.0843-.2422,0-.1788.2316-.1788.3579-.1788.2946,0,.8524,0,1.1051.1367.1895.1052.1158.2422.284.3683.0632.0421.179.0528.2527.0634.1263.0103.2842.0209.4.0839.3472.1895.3368.6318.3368.9788,0,.2001-.2948.2316-.4526.2316-.1054,0-.2105-.0209-.3263-.0209-.1578,0-.1473.0737-.1684.2104-.1052.0209-.1788.0421-.2525.1158.0421.1682.5788.1261.7051.1261.4104,0,.5684.1264.5684.5475,0,.284-.4841.2946-.6842.2946-.221,0-.4315-.0315-.6525-.0315-.0526,0-.1684.0106-.1684.0737,0,.1682.2421.1367.3579.1367.1473,0,.2946-.0103.4315-.0103.3053,0,.5893.0524.5893.4104,0,.221-.3788.2419-.5471.2419s-.3368-.0209-.5052-.0209c-.0632,0-.3474.0209-.3474.1052.1158.0946.3368.1052.4841.1052.179,0,.3474-.0209.5262-.0209.2948,0,.4104.0946.4104.3998,0,.2525-.3788.2737-.5682.2737-.1369,0-.2737-.0212-.4211-.0212-.1263,0-.2736-.0209-.3894.0528l-.0315.0524c.063.1158.5156.1158.6525.1158.1158,0,.2314-.0209.3579-.0209.3998,0,.5578.0209.5578.4629,0,.0843-.0421.1686-.1158.2107-.3579.221-1.8944.2316-2.3679.2316-.7157,0-1.4314-.0212-2.1576-.0212-.4947,0-1.0419,0-1.5366-.1158-.1052-.0209-.1895-.0737-.2631-.1579-.1999-.2525-.1473-.568-.1473-.8733,0-.1264,0-.3262-.1684-.3262-.1579,0-.1999.1367-.1999.2734,0,1.0419.0315,2.0943.0315,3.1362,0,.1686.1473.2737.3053.2737.1263,0,.7787-.0209.7787-.2001,0-.1788-.3683-.1682-.3683-.3368,0-.1155.2946-.2104.2946-.3155,0-.1367-.5052-.0949-.5788-.1158-.2421-.063-.2527-.3998-.2527-.5999,0-.0843.0317-.1686.0843-.2316.1999-.2734,3.8941-.2419,4.4729-.2419.2946,0,.5999.0103.9052.0103.442,0,1.084-.0737,1.084.5475,0,.7787-.9894.9261-.9894,1.2101l.0737.0634c.3368.0421.6736.0103.9788.1682v.0528ZM365.1579,76.8302c-.2631,0-.2948-.1264-.3368-.1264-.2737,0-.7368.6948-.7368.9473,0,.0843.0947.6208.1895.6208.3157,0,.4526-1.3259,1.0314-1.3259.1263,0,.2525.0209.3789.0209l.1367-.063c-.1156-.1158-.2314-.0737-.3788-.0737h-.2842ZM368.5994,76.9354c0-.0843-.4421-.1052-.5158-.1052h-.2314c-.1054,0-.3368,0-.3368.1473l-.0317.0843c-.0526.0421-.1263.0421-.1893.0421-.1264,0-.2527-.0212-.3895-.0212l-.1052.0843c0,.1261.3368.1367.4209.1367.179,0,.6316.0106.7894-.0843.0843-.0524.0632-.0839.1158-.1473.0632-.0839.3683-.0946.4737-.1052v-.0315ZM367.7785,80.0192c.0315-.0106.042-.0421.042-.0737,0-.0843-.1367-.0843-.1999-.0843s-.1263.0106-.1895.0106c-.042,0-.0737,0-.1052-.0106-.0315.0106-.0632.0106-.1054.0106-.063,0-.1263-.0106-.1893-.0106-.0843,0-.2316,0-.2316.1158,0,.0737.2527.0946.3053.0946.1999-.0106.4735.0212.6736-.0524ZM367.6312,78.1458c-.0738,0-.1369.0103-.2001.0103-.042,0-.0841,0-.1158-.0103-.0315.0103-.063.0103-.1052.0103-.0632,0-.1263-.0103-.1999-.0103s-.2001-.0106-.2001.0946l.1369.1052h.5895c.0737,0,.2736-.0209.2736-.1158l-.1788-.0839ZM367.5679,79.2086c.0737,0,.2631.0106.2631-.0946s-.1052-.1158-.1895-.1158h-.5367c-.0737,0-.2948.0209-.2948.1158l.1369.0946h.621ZM368.7993,82.1872c-.1999-.0421-.3998-.0315-.5999-.0315-.063,0-.1158-.0106-.1788-.0106h-.2842c-.0632,0-.3894.0209-.3894.1158,0,.1579.5999.2525.7262.2525.1369,0,.7368-.1264.7368-.3053l-.0106-.0209Z"/><path class="cls-12" d="M375.9984,81.282c0-.6629,1.3997-.6736,1.8523-.6736.5684,0,1.1472.063,1.7154.063.0843,0,.6105-.0106.6105-.1261,0-.1792-.3053-.1792-.4315-.1792-.4315,0-.863.0212-1.2945.0212-.3579,0-2.2523,0-2.4207-.2422-.063-.0946-.042-.2316-.042-.3471,0-.0737-.0211-.2107-.0947-.2316-.2316.2734-.2316.6838-.2316,1.0312,0,.9894.0632,1.9683.0632,2.9574,0,.4632-.0526.8736-.6316.8736-.284,0-.6208,0-.8524-.1686-.4947-.3683-.2736-2.5363-.5262-2.7888h-.0315c-.2105,0-.2631.221-.4315.221-.2527,0-.4841-1.2628-.4841-1.4838,0-.1055.1895-.3686.2631-.4423.3051-.3155.684-.5471.9893-.863.3053-.3049.5893-.6523.8735-.9682.0526-.063.1158-.1473.179-.1895.0841-.0524.1895-.0737.284-.0737.2527,0,.5473.1792.7789.2844l.1369-.0528c.063-.3262.0737-.6523.0737-.9891,0-.2001.0209-.3368-.0528-.5262h-.0315c-.4315,0-1.7997,1.7469-2.4626,1.7469-.3579,0-.7053-.7051-.7053-1.0103,0-.1788.0632-.3262.2001-.4526.2736-.2419.5999-.4211.8839-.6527.2631-.2104.4947-.4629.7474-.6838.1156-.0949.2421-.1579.3894-.1579.3998,0,.7998.5369.9682.5369.0947,0,.1263-.2422.3472-.3368.2527-.1055.6631-.1158.9367-.1158,1.0103,0,2.0102-.0106,3.0206.0839,1.1681.1055,1.6944.3265,1.8102,1.5893.0315.3368.0632.6629.0632.9997,0,.9264-.7789,1.021-1.5155,1.021-1.4314,0-2.8626-.0106-4.294-.0106-.221,0-.2946.0737-.442.221.1263.0949.7894.0949.9788.0949.3577,0,.7155-.0106,1.0629-.0106h2.8205c.1895,0,.3894-.0106.5788-.0106.3579,0,1.3682.0319,1.3682.5369v.2422c0,.5365-.863.1682-.863.4526,0,.1576.1684.1788.2946.1788.0737,0,.1579-.0212.2421-.0212.2948,0,.3579.1792.3579.4423,0,.0839-.0104.1576-.0104.2419,0,.1895.0104.5053-.179.6105-.0737.0421-.1578.063-.2421.0737-.1263.0103-.2525.0209-.3683.0524-.3157.0737-.1684,1.6209-.6631,2.0313-.4841.4104-1.4944.3789-2.1048.3789-.0526,0-.1158.0106-.1684.0106-.1579,0-.4315-.0106-.5262-.1579-.0737-.1158-.0315-.5999-.221-.5999s-.3263.3368-.5788.3368c-.2105,0-1.4208-1.2313-1.4208-1.442,0-.2104.2314-.2419.2314-.3577,0-.1264-.4841-.1052-.5788-.1473-.2421-.0949-.221-.5156-.221-.7157v-.1052ZM380.1661,76.9882c.1158,0,.2842-.0212.2842-.1686,0-.221-.8103-.2104-.9578-.2104-.1893,0-.3788-.0315-.5682-.0315-.1579,0-.7368,0-.7368.221l.0421.1052c.1158.0737.6736.0843.8313.0843h1.1051ZM379.5872,77.7248c-.1895,0-.3683-.0209-.5578-.0209-.1578,0-.8313,0-.8313.2313,0,.1579.9682.1686,1.1155.1686.1158,0,.2421-.0106.3579-.0106.1367,0,.8313.0528.8313-.1579,0-.2313-.7787-.2104-.9156-.2104ZM380.1556,82.3239c0-.2316-.7894-.2104-.9262-.2104-.1367,0-.6945,0-.6945.1997,0,.1579.6629.7263.8209.7263.1367,0,.2736.0106.4104.0106.3368,0,.3894-.2528.3894-.5369v-.1895Z"/><path class="cls-12" d="M390.0069,84.2918c-.3262,0-1.4523.0634-1.4523-.4629,0-.0737.0104-.1473.0104-.221,0-.0528-.063-.0949-.0947-.1158-.2314-.1473-.463.1367-.5999-.3053-.1263-.4104-.1473-.863-.1473-1.2841v-.4526c0-.3683.3579-.4313.6525-.4313.621,0,.2737,1.2841.5788,1.6102.2105.221.7578.1895,1.042.1895.2105,0,.6736-.0106.6736-.2946,0-.2422-.0526-.4526-.3474-.4526-.1367,0-.2736.0315-.4209.0315-.3789,0-.8104.0209-.8945-.442-.0317-.1579-.0317-.3265-.0317-.4841,0-.1895-.0211-.3789-.2525-.3789-.1473,0-.2842.0315-.4211.0315-.0211,0-.0841-.0209-.0947-.0315-.063-.1788-.0947-.2422-.2946-.2422-.3579,0-.4315.3265-.4315.6314,0,.8527.0526,1.7051.0526,2.5576,0,.4526-.042.6948-.5578.6948-.2946,0-.642-.0212-.8209-.2844-.442-.6629.0737-3.473-.8841-3.473-.1473,0-.2946.0209-.442.0209-.3894,0-.4211-.505-.4211-.7894v-.2104c0-.4632.6105-.4211.9367-.442.0737,0,.1684-.0106.1684-.1158,0-.2946-1.0312-.9894-1.0312-1.4944,0-.2316.3788-1.2841.6419-1.2841.1054,0,.1684.0843.2421.1579.4421,0,.4211-1.3577,1.1261-1.3577.221,0,.7683.0843.7683.3895,0,.505-.9578,1.7048-.9578,2.0731,0,.074.0421.1792.1263.1792.3368,0,.7053-1.5893,1.3893-1.5893.2105,0,.8315.1895.8315.4526,0,.3053-.8209,1.3365-.8209,1.6102.1684,0,.3262-.0528.4946-.0528.1369,0,.2527.0634.3263.1792.1578.2631.2525.7366.3051,1.0419.0528.3262.1895.7996.4211,1.0419.2421.2525.6104.1895.9367.1895.4315,0,.2946-.1895.4104-.4735.0315-.0737.1788-.0843.2421-.0843.3683,0,.7472-.0315,1.1155-.0315.1158,0,.3053-.0106.4211.0209.3789.1264-.1054.5578.6946.5578.1578,0,.3262-.0209.4841-.0209.3894,0,.6525.063.6525.505,0,.5262-.1788.8843-.7577.8843-.1054,0-.2105-.0106-.3159-.0106-.3683,0-.6525.0421-.6525.4735,0,.2316.4.2422.5684.2422.2525,0,.4946-.0528.7472-.0528.2842,0,.4526.1052.4526.4104,0,.221.0104.4317-.1158.6314-.3263.5262-2.5891.5578-3.1784.5578h-1.0736ZM384.5343,81.8926c0-.3159.063-.8315.4735-.8315h.1684c.5158,0,.4211.5262.4526.8839.0106.1367.0106.2737.0106.4104,0,.2525.0104,1.4629-.3685,1.4629-.7787,0-.7366-.5787-.7366-1.1786v-.7472ZM387.6705,78.7879l-.0737-.1895c-.1158.0946-.3157.3049-.3157.4629l.0211.0528c.0104.0106.0841.0315.0947.0315.1578,0,.2736-.0106.2736-.1895v-.1682ZM393.4484,78.3983c0,.505,1.1577.2525,1.1577.8945,0,.2946-.2421,1.0419-.6104,1.0419-.7577,0-1.3786-.5787-2.1365-.5787-.7998,0-1.4419.5787-2.0101.5787-.4526,0-.7683-.6523-.7683-1.0419,0-.6105.863-.3895.863-.7051,0-.3368-.7263-.6736-.7263-1.0734,0-.3368.5473-.3895.5473-.5999,0-.1158-.442-.1055-.5262-.1055-.3157-.0103-.3683-.3471-.3683-.5893,0-.7051.3894-.863,1.0208-.863,1.0946,0,2.1997.0315,3.2942.137.1369.0103.2737.0315.4104.063.0947.0209.2212.0737.2948.1264.063.0418.1578.1682.1893.2419.0632.1264.1369.5893.1369.7366,0,.7894-.7683,1.4842-.7683,1.7367ZM391.112,76.8302c-.0632,0-.1895.0421-.1895.1158,0,.1473.5052.5999.6525.5999.1369,0,.5262-.2946.5262-.442,0-.2844-.6629-.2737-.8313-.2737h-.1579Z"/><path class="cls-12" d="M396.964,83.3342c0,.1895-.0315.5684-.2842.5684-.6629,0-.5682-.8524-.5682-1.2947,0-.2525.0104-1.3574.3683-1.3574.3894,0,.4841.2419.4841.5999v1.4838ZM399.2374,82.8292c-.3368-.0843-.4104-.9894-.4104-1.2735,0-.0634.0104-.137.0104-.2107.0632-.0421.4-.063.4-.1579,0-.1788-.6736-.1788-.8-.1788-.1578,0-.3262.0212-.4841.0212-1.6418,0-1.768-.295-1.768-1.8631,0-3.3044-.0421-3.8519,3.4836-3.8519.7998,0,.9471.0737.9471.9052,0,.1158,0,.3159-.0737.4104-.179.2422-.6736-.1052-.6736.3895,0,.0946.0421.1367.1369.1367.4524,0,1.768-1.4417,2.1154-1.7997.1052-.1052.2314-.2104.3788-.2525.2105-.0528.4421-.0421.6525-.0421.6316,0,2.9891,1.8943,2.9891,2.4942,0,.295-.179.516-.2316.7894-.0632.358-.0947.7157-.0947,1.084,0,.4632.0106.9367.0106,1.3999,0,.3159.0315.6945-.2422.9052-.1578.1261-.9471.1367-.9471.2631,0,.4211,1.3682.4629,1.3682.9997,0,.3789-.4737,1.1577-.9052,1.1577-.7155,0-1.1155-.863-1.8102-.863-.8945,0-1.4944,1.1155-2.347,1.1155-.2421,0-.3577-.6314-.4946-.6314s-.2316.4104-.3157.4947c-.179.2001-.463.2104-.7157.2104-.1788,0-.6104.0106-.7157-.1473-.1367-.1997-.1367-.4313-.1895-.6523-.0737-.2946-.221-.4002-.2946-.6527-.1263-.4629-.1999-.9473-.1999-1.4314,0-.1997.1684-.2946.3472-.2946.5895,0,.2105,1.6418.7894,1.6418l.0421-.0103.0421-.1052ZM397.5007,81.3029c.1054,0,.2001.0528.2631.1264.0947.1052.2842,1.8312.2842,2.0628,0,.2525-.1369.3577-.3789.3577-.0947,0-.1578-.0524-.2104-.1261-.2527-.4104-.2948-1.5263-.2948-2.0207,0-.2528.0632-.4002.3368-.4002ZM397.9322,78.1773c-.0211.0524-.0315.1158-.0315.1682,0,.1473.2105.1792.3263.1792.1367,0,.1684-.137.1684-.2528s-.0737-.1576-.179-.1576h-.1367l-.1475.063ZM398.0586,79.4614c-.1054,0-.1579.1261-.1579.2104,0,.1788.1369.2104.2842.2104.1263,0,.1999-.1158.1999-.2316,0-.1155-.1052-.1891-.2105-.1891h-.1156ZM398.1428,76.7672c-.1052,0-.1788.1052-.1788.1997,0,.221.0947.2107.284.2107.1158,0,.1895-.1158.1895-.2213,0-.1261-.063-.1891-.1895-.1891h-.1052ZM400.4898,82.3133c0,.1792.0315.3368.2421.3368.2104,0,1.0734-.3155,1.0734-.5578,0-.2316-.7577-.0524-.9682-.3577-.1578-.221-.1369-1.2313-.1369-1.5366s.0106-.5999.0106-.9052c0-.4735.0421-1.2207-.621-1.2207-.1158,0-.2421.0839-.2421.2104,0,.3159.3157.1686.4947.2422.0947.0418.0947.3892.0947.4735,0,.2316-.0106.4632-.2948.4632-.2525,0-.2946.0839-.2946.3155.0421.0421.1052.0949.1684.0949.0737,0,.1579-.0106.2316-.0106.2736,0,.2736.5578.2736.7472,0,.221-.0315.4526-.0315.6736v1.0312ZM402.3104,78.2825c-.1578-.0528-.3368,0-.4946-.0421-.179-.0421-.0526-.1579-.2316-.1579-.0947,0-.4104.3159-.4841.4002,0,.063.2842.0737.3368.0737.1788,0,.3579.0103.5473.0103.1263,0,.3998-.0209.3998-.1891,0-.0421-.0315-.0843-.0737-.0949ZM402.3947,80.0716c0-.0946-.0315-.1997-.1473-.1997-.1579,0-.179.0946-.179.2313v.3368c0,.0949.0106.2107.1264.2107.0946,0,.1999-.0528.1999-.1579v-.4211ZM403.5102,76.7881c0-.1052-.2314-.3789-.3579-.3789-.0947,0-.2314.284-.2736.3683,0,.1158.2316.1264.3157.1264h.2421l.0737-.1158ZM405.0783,78.5772c.0947,0,.2105-.0209.3053-.0421,0-.1052-.4315-.3789-.5262-.4313-.0526.0315-.1052.0843-.1684.1158-.1367.063-.5893-.0315-.5893.1788,0,.1473.3051.1788.4104.1788h.5682ZM404.0996,80.3769c0,.1158.0211.284.1684.284s.1788-.2104.1788-.3262v-.1997c0-.1055.0106-.2631-.1369-.2631-.1893,0-.2104.2104-.2104.3577v.1473Z"/><path class="cls-12" d="M413.4142,82.4503c-.5999,0-.7157-.7369-.7157-1.2104,0-.284.0104-.5684.0104-.8524,0-.2525-.0104-.5053-.0104-.7578,0-.3577-.0211-1.947.2736-2.1152.0632-.0421.1369-.0528.2105-.0528.1158,0,.221.0209.3368.0209.0843,0,.2316-.0315.2316-.1367,0-.2631-.9999-.2419-1.1998-.2419-.3474,0-.6946.0315-1.042.0315-.5997,0-.6419-.0315-.7681-.5999l-.0106-.0106c-.4841.6105-.6104,2.5997-.6104,3.3993,0,1.1892.063,2.3681.063,3.5573,0,.4632-.0211.9367-.6104.9367-.3053,0-.6104.0106-.842-.2104-.4841-.4526-.2105-2.6627-.5367-3.3784-.1684.0737-.2105.2946-.4104.2946-.2421,0-.3685-1.305-.3685-1.5051,0-.9154.7578-1.8206,1.1577-2.6206.1264-.2525.2212-.5156.2948-.7787.0737-.2419.1263-.4629.2736-.6736.179-.2525.3789-.3368.684-.3368.2422,0,.9262.0528,1.1157.1686v.0315c0,.0421-.0315.0946-.0315.1473,0,.1579.5682.1579.684.1579h.4737c.2525,0,1.6102-.0212,1.7576-.0843.3051-.1264.1158-.3262.2842-.5471.0737-.0949.3472-.0737.463-.0737.2105,0,.9997.0209,1.1261.1682.0315.0421.0526.0843.0526.1367,0,.0737-.0211.1473-.0211.221,0,.2528.221.2631.4104.2631.1999,0,.4-.0103.5999-.0103.1473,0,.2946.0315.4315.0839.442.1579.5052.5896.5052,1.0001,0,.3471-.5895.3471-.8315.3471-.3051,0-.5999-.0418-.8945-.0418-.1578,0-.3368.0209-.3368.221,0,.1473.5895.1261.6946.1261.8524,0,1.1472.4738,1.1472,1.2841v1.7785c0,.3474-.0421.7054-.1158,1.0422-.1158.5156-.5158.6838-.9999.7366s-.9787.0843-1.4629.0843h-1.4628ZM412.2881,84.3655c0,.1686-.3683.1477-.4737.1477-.2842,0-.684.0315-.8945-.1792-.3789-.3789-.3683-3.0732-.3683-3.6834,0-.2946-.0106-.579-.0106-.8736,0-.4313,0-1.6209.3789-1.884.1895-.1261.3368-.1155.5578-.1155.1473,0,.3263,0,.4526.0737.4104.2313.3894,1.7154.3894,2.1468,0,.3368-.0211.6629-.0211.9997,0,.2316,0,.4844.0421.7054.1684.8733,1.0314,1.0312,1.7891,1.0312.9578,0,1.9051-.0528,2.8626-.0528.3159,0,.6316.0737.6316.4526,0,.1895-.0317.4526-.1684.5999-.4632.4632-3.4204.4738-4.1572.4738-.2736,0-.5578-.0212-.8315.0209-.0737.0106-.1473.0421-.1788.1158v.0209ZM415.519,78.6614c-.1367-.0212-.3157-.0315-.4526-.0315-.1367,0-.6208-.0106-.6208.1895,0,.1895.463.1997.5893.1997.0526,0,.1158-.0103.1684-.0103.1579,0,.463.063.463-.1792,0-.0946-.0526-.1576-.1473-.1682ZM414.9087,81.0504c-.1158,0-.463.0212-.463.1895v.1052c.1578.0949.6629.0843.842.0843.1156,0,.3577-.0315.3577-.1788,0-.1895-.1578-.2001-.3051-.2001h-.4315ZM415.3085,80.2189c.1054,0,.3579-.0103.3579-.1579,0-.2104-.3157-.221-.4735-.221h-.3789c-.0947,0-.3579.0421-.3579.1686,0,.2001.3157.2104.463.2104h.3894Z"/><rect class="cls-4" x="23.9902" y="1.7541" width="95.4337" height="46.9872"/><path class="cls-6" d="M24.5491,48.7413c-15.6646,0-22.7949-10.5184-22.7949-23.4936,0-3.5969.5479-7.0049,1.6737-10.0525,1.6036-.5382,6.2914-1.6617,6.2914-1.6617,0,0-1.5899-3.0606-2.5694-4.7519C10.888,4.4442,16.6272,1.7541,24.5491,1.7541l5.5683,5.8734-5.4594,5.8734,5.4594,5.8734-5.4594,5.8734,5.4594,5.8734-5.4594,5.8734,5.4594,5.8734-5.5683,5.8734Z"/><path class="cls-6" d="M120.0472,48.7413c4.9249,0,9.0062-1.0397,12.2876-2.8686-.5583-3.8252-.9457-7.5057-.9457-7.5057,0,0,4.6878.3874,8.0424.587.5913-.9906,1.1038-2.039,1.539-3.1368.4001-1.0091.7348-2.0599,1.0053-3.146.2049-.8223.3729-1.6648.5047-2.5247.2421-1.5801.3616-3.2189.3616-4.8989,0-12.9752-7.1303-23.4936-22.7949-23.4936l-5.5683,5.8734,5.4594,5.8734-5.4594,5.8734,5.4594,5.8734-5.4594,5.8734,5.4594,5.8734-5.4594,5.8734,5.5683,5.8734Z"/><path class="cls-9" d="M38.1451,21.1414c-.3683-.1473-.6736-.3471-.6736-.789,0-.8843.3159-.9264,1.1051-.9264,1.0525,0,2.105.0634,3.1575.1792.7051.0839,1.4102.1682,2.1154.2734.3368.0421.6736.0949,1.0103.137.2525.0315.4841.0209.7262.1367s.3579.3053.3579.5684c0,1.1155-.7578,1.1577-1.6524,1.1577-1.263,0-5.0623-.3053-6.1463-.7369ZM43.5336,14.1426c.4737.074,1.1368.1477,1.5577.358.3368.1682.5262.4313.5262.8103,0,.7685-.2842.8-.9578.8-1.3893,0-2.7784-.221-4.1676-.3474-.463-.0421-.9262-.063-1.3893-.063-.1158,0-.2421-.0106-.3579-.0212-.1367-.0103-.2631-.0418-.3894-.0839-.2421-.0843-.442-.2422-.442-.516,0-1.1892.7787-1.2313,1.7365-1.2313,1.2945,0,2.61.0949,3.8834.2946ZM38.7135,18.342c-.2421-.1579-.3894-.3155-.3894-.6208,0-.9052.3683-1.1368,1.2209-1.1368.7683,0,4.6728.3053,5.1254.6948.1684.1473.2946.3262.2946.5578,0,.8418-.2527,1.0946-1.0946,1.0946-.5788,0-4.8727-.4002-5.1569-.5896Z"/><path class="cls-9" d="M54.048,13.9114c.5369,0,2.3259.0209,2.6206.5156.1263.221.2105.7157.2105.9682,0,1.2313-1.3156,2.1365-1.3156,2.7573,0,1.0001,1.926,1.8312,1.926,2.4733,0,.3789-.9261,1.1892-1.2945,1.1892-.6314,0-1.6101-1.6733-2.4942-1.6733-.7683,0-2.4837,1.6945-3.4521,1.6945-.3998,0-1.1051-.6736-1.1051-1.0734,0-.2316.621-.6318.8104-.7472v.0103c.7368-.4629,3.9362-2.8731,3.9362-3.6518,0-.5893-1.3682-.5893-1.7682-.5893-.4104,0-.8103.0421-1.2209.0421-.442,0-1.147-.0634-1.147-.6527,0-.3262.0526-.6945.3157-.9158.3368-.284,1.947-.3471,2.4205-.3471h1.5577Z"/><path class="cls-9" d="M66.5094,17.0897c.0211-.1686.0737-.3265.0737-.5053,0-.3998-.621-.442-.9052-.442-.1473,0-.284.0106-.4209.0106-.3683,0-.7472-.0315-1.1051.0843-.8735.284-1.7154,2.4626-2.61,2.4626-.3685,0-1.263-.6211-1.263-1.021,0-.063.0841-.2001.1263-.2631.0526-.0843.1264-.1682.1895-.2525.642-.8421,1.1998-1.7367,1.5892-2.7155.1054-.2734.1895-.6736.4526-.8312.2842-.1686.5895-.1579.9052-.1579.6314,0,.8945-.0315.8524.726.4947.2844,3.2205.1055,4.0414.295v.0103c.642.0843.5578.5369.5578,1.0525,0,2.5469-.9367,4.7043-3.2942,5.8726-.8103.3998-2.2521.8421-3.1677.8421-.7894,0-1.0525-.6736-1.0946-1.3577.4526-.6527,3.3467-.7787,3.3467-1.4314,0-.4841-1.6628-.642-1.6628-1.2628,0-.3789.5999-1.3471,1.021-1.3471.6736,0,1.6207.7366,1.989.7366.3789,0,.2527-.2525.3894-.4841l-.0104-.0209Z"/><path class="cls-9" d="M79.7811,16.7317c-.4735.1895-.7998.137-1.1051.4526-.5578.5893-.3157,1.8312-.3157,2.5997,0,.5365.3053,2.0628-.1893,2.2941-.4947.2316-1.021.1473-1.2526.1473-.3051,0-.5788.0106-.8209-.1891-.3368-.2737-.284-1.7576-.284-2.1892,0-.5262.0737-1.5051-.642-1.305-.5999.1682-1.5261.8945-2.3681.8945-.5578,0-.905-.9997-.905-1.4838,0-.2001.0737-.3895.221-.5262.1578-.1473,3.4836-1.1368,4.0414-1.3577.7998-.3159,1.5366-.7787,2.2627-1.2419v.0106c.2525-.1686.9578-.6629,1.2419-.6629.3683,0,1.0945.7996,1.1787,1.1577.2314.947-.2948,1.2522-1.0631,1.3995Z"/><path class="cls-9" d="M88.9695,17.8791c.1579-.3368.3368-.6314.3368-1.0103,0-.2107-.0421-.3474-.2314-.4632-.4315-.2631-1.8944-.2631-2.4313-.2631-.5788,0-1.147.063-1.7259.063-.5473,0-1.4525.0528-1.4525-.7366,0-.2631-.0104-.6208.2842-.9576.4841-.5578,2.0628-.2528,2.6206-.2737.1895-.0106.3683-.0106.5578-.0106.4421,0,.8945.0106,1.3471.0106.3894,0,1.4314-.0209,1.6945-.3053.4735-.5156.4946-.9682,1.3471-.9682.9261,0,1.9575.8315,1.9575,1.7997,0,1.1368-.9578.8945-1.2419,1.4944-.0947.1895-.1156.4211-.1788.6314-.1788.642-.4315,1.2735-.7683,1.8525-1.0314,1.7469-2.631,2.6836-4.5361,3.2414-.3472.1052-.6945.1682-1.0629.1682-.9156,0-.8945-.6102-1.2418-1.2522v-.063c0-.3368.7787-.5684,1.0419-.642.3472-.0949.7051-.1895,1.0629-.2737.1158-.0315.2316-.0524.3474-.0946.7472-.2844,1.2944-.579,1.7891-1.221.1684-.221.2842-.4526.442-.6629.0106-.0209.0317-.0315.0421-.0528v-.0103ZM91.4849,13.9429c-.3263,0-.4737.284-.4737.5787,0,.3159.3053.6105.621.6105.3579,0,.5262-.221.5262-.5684,0-.3577-.3368-.6208-.6736-.6208Z"/><path class="cls-9" d="M95.474,16.3949c-.0421-.0421-.1052-.063-.1684-.063-.0841,0-.1684.0106-.2525.0106-.2737,0-.3474-.1686-.3474-.4104,0-.1686-.0104-.5684.1054-.6948.1052-.1158.3683-.0315.3683-.2316,0-.284-.2525-.505-.2525-.7996,0-.358.6945-.6736.9997-.6736.442,0,.4947.6208.5999.6208.1263-.1261.0737-.2419.0737-.3892,0-.5578.6736-.5475,1.0736-.5475.8524,0,.4524.3368.621.9682.3577-.1367.1578-.8209.7892-.8209.2842,0,.8947.1158.8947.4947,0,.3998-.3685.8103-.3685,1.0946.1579.284.1579.1261.1579.5156,0,.0528.0211.2422.0841.2422.4421,0,.5262-2.5784,1.4208-2.5784.3474,0,1.0525.0839,1.0525.5578,0,.1997-.0632.3786-.0632.5787,0,.4317,1.6209.3368,1.947.4104.1158.0212.2212.0843.3053.1686.2316.2313.221.6314.221.9367,0,.6417-.2525.1473-.3368.5999-.1473.8209-.3051,1.6311-.5367,2.4311-.1052.3789-.3053.7366-.3053,1.1364,0,.6948.9156.6736.9156,1.0631,0,.2946-.4841,1.2313-.8209,1.2313-.621,0-.905-.6105-1.4629-.6105-.6629,0-1.1577.7787-1.768.7787-.3368,0-.4315-.3998-.6105-.6208h-.0526c-.3262,0-.3051.5156-.684.5156-.3368,0-.6946-.3368-1.0629-.3368-.7368,0-1.3997.4632-2.1471.4632-.4524,0-1.0523-.6211-1.0523-1.0631,0-.3577.9997-.1052.9997-.3683,0-.2104-.8313-.2316-.8313-.5262,0-.2316.1999-.2419.1999-.4629,0-.295-.3894-.1055-.4947-.3159-.042-.0946-.0737-.6105-.0737-.7366,0-.2946.2631-.358.5052-.358.1475,0,.2842.0212.4315.0212.4104,0,.2842-.1158.4632-.3474.0841-.1052.5156-.063.5999-.063.284,0,.7998.0103,1.0629.1052.2736.0946.1367.221.3051.2631.3895.0946.9578.0737,1.3367.0737.1895,0,.3579-.0106.5367-.1052,0-.1158-.3789-.4317-.5052-.4317-.0737,0-.1684.0528-.2314.0949-.2631,0-.7053-.6736-.8315-.6736-.1158,0-.0526.3577-.1369.4526-.042.0418-.0737.0737-.1263.0946-.1578.063-.7472.0843-.9471.0843-.4315,0-.6105-.2107-.6105-.6314l-.063-.0319c-.2105,0-.6736.7685-1.0314.7685-.2737,0-.7998-.5578-.7998-.8315,0-.4629.9261-.7472.9261-.9997l-.0211-.0528ZM96.2108,15.1112c.1263,0,.3262-.0106.3262-.1792l-.0209-.0737c-.0211-.0103-.0421-.0103-.0632-.0209-.1684,0-.4526.1158-.6104.1788,0,.0315.0104.0528.042.063.0211.0212.0421.0319.0737.0319h.2527ZM97.3684,19.8892c-.1052,0-.2631.0528-.2631.1788,0,.1473.3894.2422.5052.2422.1369,0,.3263-.2422.3263-.3683-.0843-.0319-.1895-.0528-.2737-.0528h-.2946ZM98.8944,15.0478c.0211,0,.179-.0103.1895-.0209-.1788-.0949-.5052-.2525-.7051-.2525l-.1263.0946c0,.1895.2421.1788.3789.1788h.2629ZM99.2523,16.3004c-.063,0-.221.0209-.221.1052,0,.1052.221.2001.3157.2001.1263,0,.1895-.0634.1895-.1895,0-.1158-.0737-.1158-.1684-.1158h-.1158ZM99.1997,20.868c.0211.063.221.1261.2842.1261.3157,0,1.5155-.5999,1.5155-.9576,0-.2001-.3683-1.5681-.5684-1.5681-.2421,0-.2314.5262-.2314.6945,0,.1264.0211.2631.0211.4002,0,.0737,0,.2104-.0421.2631-.0843.1052-.2946,0-.4947.1682-.221.1895-.4315.579-.5052.8524l.0211.0212ZM101.8518,16.1215c-.1473,0-.463.4944-.463.6314,0,.0524.0315.0737.0737.0737.0632,0,.1263-.0106.1895-.0106.2946,0,.3894,1.2944.5578,1.2944.2631,0,.3474-1.5153.3474-1.7363,0-.2107-.3263-.2525-.4737-.2525h-.2316Z"/><path class="cls-1" d="M44.2914,23.7101c-1.0825,0-5.3267-.2705-6.8242-.8662-1.5908-.6377-1.8276-1.834-1.8276-2.4912,0-.7686.1899-1.6279.8911-2.1797-.0278-.1602-.0386-.3125-.0386-.4521,0-.4102.0557-.7832.1626-1.1172-.3677-.4141-.5732-.9424-.5732-1.5244,0-1.3975.6191-3.0635,3.5688-3.0635,1.4268,0,2.8291.1064,4.168.3174l.1973.0293c.5674.084,1.2734.1885,1.8965.501.9761.4863,1.5376,1.3789,1.5376,2.4473,0,.5771-.125,1.3848-.7202,1.9521.0508.21.0679.4053.0679.5742,0,.3066-.0288.5908-.0854.8535.6709.4512,1.064,1.1875,1.064,2.0303,0,1.1162-.4526,2.9893-3.4844,2.9893Z"/><path class="cls-1" d="M50.2489,23.6681c-1.4277,0-2.9375-1.4932-2.9375-2.9053,0-1.1377.9033-1.834,1.6904-2.3125.0347-.0205.0698-.041.1055-.0596.2744-.1826.6602-.4678,1.0679-.7871-1.7578-.2861-2.2529-1.6104-2.2529-2.4297,0-1.2422.5259-1.9453.9673-2.3174.2539-.2129.9248-.7773,3.6006-.7773h1.5581c2.3813,0,3.5967.4082,4.1938,1.4092.375.6562.4692,1.5312.4692,1.9072,0,1.1826-.5684,2.0771-1.0254,2.708.0659.0576.1299.1113.1836.1572.647.5479,1.4521,1.2305,1.4521,2.3652,0,1.458-1.8354,3.0205-3.127,3.0205-1.0312,0-1.7451-.6924-2.3184-1.248-.0723-.0693-.165-.1592-.2563-.2451-.1538.0967-.3193.2051-.4521.293-.9136.6006-1.8584,1.2217-2.9189,1.2217Z"/><path class="cls-1" d="M62.5311,24.089c-1.3599,0-2.7915-.9512-2.9233-3.0762-.0229-.375.0693-.7471.2642-1.0664-.7798-.5215-1.4248-1.3438-1.4248-2.2676,0-.4326.1392-.8398.4375-1.2842.0347-.0586.1201-.1738.2095-.2861.6567-.8604,1.0967-1.6064,1.3877-2.3379l.0288-.085c.1284-.3789.3955-1.167,1.1821-1.6396.709-.4189,1.4067-.4189,1.7417-.4189h.2485c.4106,0,1.2651,0,1.9282.7002.0601.0635.1147.1289.1641.1953.2871.0098.5947.0146.8291.0176,1.0508.0166,1.7266.0352,2.2432.1543.0483.0117.0962.0244.1431.0391.7363.1826,1.8696.7725,1.8359,2.6787l-.0015.1299c0,3.5186-1.4912,6.1172-4.3125,7.5146-.8442.416-2.5972,1.0322-3.9814,1.0322Z"/><path class="cls-1" d="M77.3427,24.0724c-.1377,0-.2632-.0059-.3701-.0117l-.1421-.0029c-.3477,0-1.1626,0-1.8999-.6094-.6709-.5449-.8774-1.3857-.9331-2.3818-.3677.1201-.7681.2021-1.1938.2021-1.7861,0-2.7373-1.9258-2.7373-3.3164,0-.7119.2944-1.3926.8076-1.8691.3799-.3545.6201-.4375,3.0952-1.2236.6797-.2148,1.3047-.4102,1.5156-.4932.666-.2627,1.3506-.6992,1.9546-1.084.0371-.0234.0747-.0459.1133-.0664.7573-.5039,1.4019-.873,2.1128-.873,1.4639,0,2.75,1.665,2.9624,2.5713.2642,1.0801-.0249,1.8486-.3149,2.2998-.583.9082-1.5557,1.1846-2.0312,1.2861-.0483.0166-.0957.0312-.1416.0459.002.1895.0151.4072.0249.5654.0146.2422.0273.4707.0273.6729.0015.0859.0156.21.0288.3496.1016,1.0771.2715,2.8799-1.2729,3.6035-.4829.2256-1.0078.335-1.6055.335Z"/><path class="cls-1" d="M85.4857,23.9835c-1.9297,0-2.5166-1.4189-2.7373-1.9531-.0342-.082-.0679-.1709-.1157-.2588-.1445-.2676-.2207-.5674-.2207-.8721,0-.8584.4136-1.9219,2.3828-2.4697.377-.1035.7563-.2031,1.1357-.292l.1089-.0283c.125-.0459.2324-.0889.3257-.1299-.1621.0059-.3232.0146-.4849.0234-.3198.0176-.6396.0342-.9624.0342l-.2065.001c-.4492,0-.9795-.0283-1.5049-.2383-.9849-.3926-1.5732-1.2646-1.5732-2.3311-.0005-.4121-.002-1.3203.7378-2.165.8359-.9629,2.1763-.9629,2.6167-.9629.3301,0,.666.0225.958.0439.1426.0098.269.0215.3647.0215.1807-.0107.3926-.0117.6172-.0117l1.3472.0107c.2466,0,.438-.0098.5771-.0225.3389-.4648,1.0049-1.251,2.4644-1.251,2.0186,0,3.7896,1.6973,3.7896,3.6318,0,1.5518-.9302,2.251-1.4707,2.5566-.0083.0312-.0171.0625-.0264.0938-.2222.7969-.5415,1.5645-.9404,2.249-1.1724,1.9863-3.0039,3.3174-5.605,4.0781-.5293.1611-1.0513.2422-1.5776.2422Z"/><path class="cls-1" d="M95.8632,24.2677c-1.4556,0-2.8843-1.4336-2.8843-2.8945,0-.1162.0146-.4033.1367-.7256-.0254-.0439-.0488-.0869-.0698-.1289-.2363-.5234-.2666-1.1953-.2666-1.5557,0-.2422.04-.4854.1187-.7168-.103-.2607-.1606-.5312-.1606-.7988,0-.3564.0796-.665.2031-.9287-.0435-.1855-.0664-.3818-.0664-.5869-.0015-.3516-.0039-.8945.2412-1.417-.0127-.0977-.0205-.2002-.0205-.3086,0-1.5527,1.6494-2.5059,2.832-2.5059.0327,0,.0669.001.1025.002.396-.1924.916-.3174,1.5991-.3174.2314,0,.6572,0,1.104.1699.1279-.0176.2466-.0234.3516-.0234.3325,0,.6475.0459.937.1309.3359-.2227.7466-.3613,1.252-.3613,1.48,0,2.3584.6904,2.708,1.5195.2344.0117.4351.0273.6348.0732.394.0674.8369.3018,1.1943.6592.7593.7588.7578,1.7295.7573,2.1953,0,.7021-.2007,1.1836-.4673,1.5146-.1216.6406-.2715,1.3477-.478,2.0615-.0122.0449-.0264.0908-.041.1377.4912.4365.7236.9512.7236,1.5537,0,.916-.9028,3.0625-2.6533,3.0625-.6504,0-1.1465-.2227-1.4932-.4307-.3887.2598-.9736.5996-1.7378.5996-.3027,0-.584-.0547-.8438-.1631-.1797.042-.3501.0576-.5029.0576-.5264,0-.9453-.1768-1.2183-.3047-.1055.0293-.2373.0732-.3374.1055-.439.1455-.9858.3252-1.6548.3252Z"/><path class="cls-11" d="M38.1451,21.1414c-.3683-.1473-.6736-.3471-.6736-.789,0-.8843.3159-.9264,1.1051-.9264,1.0525,0,2.105.0634,3.1575.1792.7051.0839,1.4102.1682,2.1154.2734.3368.0421.6736.0949,1.0103.137.2525.0315.4841.0209.7262.1367s.3579.3053.3579.5684c0,1.1155-.7578,1.1577-1.6524,1.1577-1.263,0-5.0623-.3053-6.1463-.7369ZM43.5336,14.1426c.4737.074,1.1368.1477,1.5577.358.3368.1682.5262.4313.5262.8103,0,.7685-.2842.8-.9578.8-1.3893,0-2.7784-.221-4.1676-.3474-.463-.0421-.9262-.063-1.3893-.063-.1158,0-.2421-.0106-.3579-.0212-.1367-.0103-.2631-.0418-.3894-.0839-.2421-.0843-.442-.2422-.442-.516,0-1.1892.7787-1.2313,1.7365-1.2313,1.2945,0,2.61.0949,3.8834.2946ZM38.7135,18.342c-.2421-.1579-.3894-.3155-.3894-.6208,0-.9052.3683-1.1368,1.2209-1.1368.7683,0,4.6728.3053,5.1254.6948.1684.1473.2946.3262.2946.5578,0,.8418-.2527,1.0946-1.0946,1.0946-.5788,0-4.8727-.4002-5.1569-.5896Z"/><path class="cls-11" d="M54.048,13.9114c.5369,0,2.3259.0209,2.6206.5156.1263.221.2105.7157.2105.9682,0,1.2313-1.3156,2.1365-1.3156,2.7573,0,1.0001,1.926,1.8312,1.926,2.4733,0,.3789-.9261,1.1892-1.2945,1.1892-.6314,0-1.6101-1.6733-2.4942-1.6733-.7683,0-2.4837,1.6945-3.4521,1.6945-.3998,0-1.1051-.6736-1.1051-1.0734,0-.2316.621-.6318.8104-.7472v.0103c.7368-.4629,3.9362-2.8731,3.9362-3.6518,0-.5893-1.3682-.5893-1.7682-.5893-.4104,0-.8103.0421-1.2209.0421-.442,0-1.147-.0634-1.147-.6527,0-.3262.0526-.6945.3157-.9158.3368-.284,1.947-.3471,2.4205-.3471h1.5577Z"/><path class="cls-11" d="M66.5094,17.0897c.0211-.1686.0737-.3265.0737-.5053,0-.3998-.621-.442-.9052-.442-.1473,0-.284.0106-.4209.0106-.3683,0-.7472-.0315-1.1051.0843-.8735.284-1.7154,2.4626-2.61,2.4626-.3685,0-1.263-.6211-1.263-1.021,0-.063.0841-.2001.1263-.2631.0526-.0843.1264-.1682.1895-.2525.642-.8421,1.1998-1.7367,1.5892-2.7155.1054-.2734.1895-.6736.4526-.8312.2842-.1686.5895-.1579.9052-.1579.6314,0,.8945-.0315.8524.726.4947.2844,3.2205.1055,4.0414.295v.0103c.642.0843.5578.5369.5578,1.0525,0,2.5469-.9367,4.7043-3.2942,5.8726-.8103.3998-2.2521.8421-3.1677.8421-.7894,0-1.0525-.6736-1.0946-1.3577.4526-.6527,3.3467-.7787,3.3467-1.4314,0-.4841-1.6628-.642-1.6628-1.2628,0-.3789.5999-1.3471,1.021-1.3471.6736,0,1.6207.7366,1.989.7366.3789,0,.2527-.2525.3894-.4841l-.0104-.0209Z"/><path class="cls-11" d="M79.7811,16.7317c-.4735.1895-.7998.137-1.1051.4526-.5578.5893-.3157,1.8312-.3157,2.5997,0,.5365.3053,2.0628-.1893,2.2941-.4947.2316-1.021.1473-1.2526.1473-.3051,0-.5788.0106-.8209-.1891-.3368-.2737-.284-1.7576-.284-2.1892,0-.5262.0737-1.5051-.642-1.305-.5999.1682-1.5261.8945-2.3681.8945-.5578,0-.905-.9997-.905-1.4838,0-.2001.0737-.3895.221-.5262.1578-.1473,3.4836-1.1368,4.0414-1.3577.7998-.3159,1.5366-.7787,2.2627-1.2419v.0106c.2525-.1686.9578-.6629,1.2419-.6629.3683,0,1.0945.7996,1.1787,1.1577.2314.947-.2948,1.2522-1.0631,1.3995Z"/><path class="cls-11" d="M88.9695,17.8791c.1579-.3368.3368-.6314.3368-1.0103,0-.2107-.0421-.3474-.2314-.4632-.4315-.2631-1.8944-.2631-2.4313-.2631-.5788,0-1.147.063-1.7259.063-.5473,0-1.4525.0528-1.4525-.7366,0-.2631-.0104-.6208.2842-.9576.4841-.5578,2.0628-.2528,2.6206-.2737.1895-.0106.3683-.0106.5578-.0106.4421,0,.8945.0106,1.3471.0106.3894,0,1.4314-.0209,1.6945-.3053.4735-.5156.4946-.9682,1.3471-.9682.9261,0,1.9575.8315,1.9575,1.7997,0,1.1368-.9578.8945-1.2419,1.4944-.0947.1895-.1156.4211-.1788.6314-.1788.642-.4315,1.2735-.7683,1.8525-1.0314,1.7469-2.631,2.6836-4.5361,3.2414-.3472.1052-.6945.1682-1.0629.1682-.9156,0-.8945-.6102-1.2418-1.2522v-.063c0-.3368.7787-.5684,1.0419-.642.3472-.0949.7051-.1895,1.0629-.2737.1158-.0315.2316-.0524.3474-.0946.7472-.2844,1.2944-.579,1.7891-1.221.1684-.221.2842-.4526.442-.6629.0106-.0209.0317-.0315.0421-.0528v-.0103ZM91.4849,13.9429c-.3263,0-.4737.284-.4737.5787,0,.3159.3053.6105.621.6105.3579,0,.5262-.221.5262-.5684,0-.3577-.3368-.6208-.6736-.6208Z"/><path class="cls-11" d="M95.474,16.3949c-.0421-.0421-.1052-.063-.1684-.063-.0841,0-.1684.0106-.2525.0106-.2737,0-.3474-.1686-.3474-.4104,0-.1686-.0104-.5684.1054-.6948.1052-.1158.3683-.0315.3683-.2316,0-.284-.2525-.505-.2525-.7996,0-.358.6945-.6736.9997-.6736.442,0,.4947.6208.5999.6208.1263-.1261.0737-.2419.0737-.3892,0-.5578.6736-.5475,1.0736-.5475.8524,0,.4524.3368.621.9682.3577-.1367.1578-.8209.7892-.8209.2842,0,.8947.1158.8947.4947,0,.3998-.3685.8103-.3685,1.0946.1579.284.1579.1261.1579.5156,0,.0528.0211.2422.0841.2422.4421,0,.5262-2.5784,1.4208-2.5784.3474,0,1.0525.0839,1.0525.5578,0,.1997-.0632.3786-.0632.5787,0,.4317,1.6209.3368,1.947.4104.1158.0212.2212.0843.3053.1686.2316.2313.221.6314.221.9367,0,.6417-.2525.1473-.3368.5999-.1473.8209-.3051,1.6311-.5367,2.4311-.1052.3789-.3053.7366-.3053,1.1364,0,.6948.9156.6736.9156,1.0631,0,.2946-.4841,1.2313-.8209,1.2313-.621,0-.905-.6105-1.4629-.6105-.6629,0-1.1577.7787-1.768.7787-.3368,0-.4315-.3998-.6105-.6208h-.0526c-.3262,0-.3051.5156-.684.5156-.3368,0-.6946-.3368-1.0629-.3368-.7368,0-1.3997.4632-2.1471.4632-.4524,0-1.0523-.6211-1.0523-1.0631,0-.3577.9997-.1052.9997-.3683,0-.2104-.8313-.2316-.8313-.5262,0-.2316.1999-.2419.1999-.4629,0-.295-.3894-.1055-.4947-.3159-.042-.0946-.0737-.6105-.0737-.7366,0-.2946.2631-.358.5052-.358.1475,0,.2842.0212.4315.0212.4104,0,.2842-.1158.4632-.3474.0841-.1052.5156-.063.5999-.063.284,0,.7998.0103,1.0629.1052.2736.0946.1367.221.3051.2631.3895.0946.9578.0737,1.3367.0737.1895,0,.3579-.0106.5367-.1052,0-.1158-.3789-.4317-.5052-.4317-.0737,0-.1684.0528-.2314.0949-.2631,0-.7053-.6736-.8315-.6736-.1158,0-.0526.3577-.1369.4526-.042.0418-.0737.0737-.1263.0946-.1578.063-.7472.0843-.9471.0843-.4315,0-.6105-.2107-.6105-.6314l-.063-.0319c-.2105,0-.6736.7685-1.0314.7685-.2737,0-.7998-.5578-.7998-.8315,0-.4629.9261-.7472.9261-.9997l-.0211-.0528ZM96.2108,15.1112c.1263,0,.3262-.0106.3262-.1792l-.0209-.0737c-.0211-.0103-.0421-.0103-.0632-.0209-.1684,0-.4526.1158-.6104.1788,0,.0315.0104.0528.042.063.0211.0212.0421.0319.0737.0319h.2527ZM97.3684,19.8892c-.1052,0-.2631.0528-.2631.1788,0,.1473.3894.2422.5052.2422.1369,0,.3263-.2422.3263-.3683-.0843-.0319-.1895-.0528-.2737-.0528h-.2946ZM98.8944,15.0478c.0211,0,.179-.0103.1895-.0209-.1788-.0949-.5052-.2525-.7051-.2525l-.1263.0946c0,.1895.2421.1788.3789.1788h.2629ZM99.2523,16.3004c-.063,0-.221.0209-.221.1052,0,.1052.221.2001.3157.2001.1263,0,.1895-.0634.1895-.1895,0-.1158-.0737-.1158-.1684-.1158h-.1158ZM99.1997,20.868c.0211.063.221.1261.2842.1261.3157,0,1.5155-.5999,1.5155-.9576,0-.2001-.3683-1.5681-.5684-1.5681-.2421,0-.2314.5262-.2314.6945,0,.1264.0211.2631.0211.4002,0,.0737,0,.2104-.0421.2631-.0843.1052-.2946,0-.4947.1682-.221.1895-.4315.579-.5052.8524l.0211.0212ZM101.8518,16.1215c-.1473,0-.463.4944-.463.6314,0,.0524.0315.0737.0737.0737.0632,0,.1263-.0106.1895-.0106.2946,0,.3894,1.2944.5578,1.2944.2631,0,.3474-1.5153.3474-1.7363,0-.2107-.3263-.2525-.4737-.2525h-.2316Z"/></g></svg>