<?xml version="1.0" encoding="UTF-8"?><svg id="_レイヤー_2" xmlns="http://www.w3.org/2000/svg" viewBox="0 0 512.4048 122.6008"><defs><style>.cls-1{fill:#ffec39;stroke:#444;stroke-miterlimit:10;stroke-width:3.53px;}.cls-2{fill:#fff;}</style></defs><g id="play_scr"><g id="_黄身"><path class="cls-1" d="M510.6377,106.6191s-9.5396,15.5758-22.4881,14.1207c-18.9726-3.1311-5.8579-17.273-21.2698-29.0677,0,0-13.0873-12.7198-29.9265-9.323s-21.031-.7227-31.5828-.6506c-18.5051,2.0622-5.4634,22.8327-25.4503,25.5162-19.1722-2.9231-3.3135-23.6896-24.0338-24.5239-4.6137,0-7.8888,1.0559-11.3175,1.5037-6.8498.8947-11.0442,1.0958-21.1477-1.3973-8.593-2.1204-20.0366.2834-20.0366.2834-10.8451,3.0006-15.4768,14.4314-33.3243,2.9086-1.8475-1.1928-9.3556-8.5694-22.485-8.5694-5.2319,0-13.4658-.2951-14.3739,8.5739-.2683,2.6201-1.4872,5.0856-3.5452,6.7291-1.4651,1.17-3.4881,2.0857-6.2315,2.0857-7.5974,0-9.594-7.279-9.594-7.279-2.6138-10.5393-14.4302-9.8207-14.4304-9.8208-29.7553,2.522-4.6244,19.9603-41.1619,23.2357-38.9261-2.0246-12.3132-20.8788-55.5607-22.1822-20.7089-.6241-32.373,12.0126-32.373,12.0126C37.5482,129.463,1.8938,97.7798,1.8938,97.7798L1.7673,1.765h508.4123l.458,104.8541Z"/><path class="cls-2" d="M209.5614,76.908c2.8206.7594,5.6403,2.601,6.9055,5.3832,1.033,2.5745,1.9053,5.3976,3.8137,7.3958,1.2143,1.3095,3.0108,1.9805,4.9723,1.8965-.918.3236-1.9376.4329-2.9523.258-4.1973-.8481-5.8869-5.5082-7.0497-9.0461-1.0359-2.601-3.3083-4.3867-5.6896-5.8875h0Z"/><path class="cls-2" d="M367.0654,81.473c3.0869,1.9173,4.7121,5.5575,5.4566,9.0415.3684,2.6156.8704,5.2948,2.0289,7.6891,2.9472,5.9021,11.6137,4.6933,14.4775-.8036-.522,1.4908-1.4878,2.8383-2.7393,3.8876-4.5307,3.7285-11.5589,2.1058-13.5072-3.589-.97-2.5916-1.2493-5.4302-1.6025-8.1274-.6797-2.9769-1.7365-5.9748-4.1139-8.0982h0Z"/><path class="cls-2" d="M455.1249,78.8665c8.1981,1.8989,15.9716,6.9804,20.9923,13.7938,1.6396,2.3694,2.9273,4.9888,3.7746,7.7472.9077,2.6845.8558,5.6383,1.5067,8.3326.3189,1.3104.8025,2.6189,1.3617,3.8428,1.3348,2.2415,4.1185,3.3835,6.6722,3.6234,4.2123.4227,7.9731-2.115,11.305-4.4618-4.2077,3.9491-9.8876,7.0949-15.6382,4.3402-4.2803-1.7391-5.2236-7.1602-5.7037-11.2587-1.5923-12.6298-12.7841-21.9598-24.2706-25.9594h0Z"/><path class="cls-2" d="M123.3154,76.908c4.4915.7596,9.4799,2.4146,12.0683,6.4582,2.3086,3.9022,5.3813,7.3077,9.3942,9.2922,5.9941,2.9517,13.1752,3.5625,19.795,2.517,2.2542-.3255,4.4612-.9349,6.5855-1.8206-6.0595,3.3967-13.5439,4.0179-20.3375,2.7988-7.0522-1.1493-13.2449-5.8479-16.3724-12.2451-2.2945-3.9578-6.9449-5.6975-11.1331-7.0005h0Z"/></g></g></svg>