<?xml version="1.0" encoding="UTF-8"?><svg id="_2" xmlns="http://www.w3.org/2000/svg" viewBox="0 0 419.1307 461.9622"><defs><style>.cls-1{fill:#575959;}.cls-2{fill:#555959;}.cls-3{fill:#e4eca3;}.cls-3,.cls-4,.cls-5{stroke:#565959;stroke-linejoin:round;stroke-width:10px;}.cls-4{fill:#f0f0f0;}.cls-6{fill:#aadbe2;}.cls-5{fill:none;}</style></defs><path class="cls-6" d="M209.5656,454.4624c-111.4194,0-202.0654-100.2534-202.0654-223.4814S98.1461,7.5,209.5656,7.5s202.0654,100.2529,202.0654,223.481-90.6465,223.4814-202.0654,223.4814Z"/><path class="cls-1" d="M209.5654,15c26.0851,0,51.3976,5.6345,75.2344,16.7469,23.1368,10.7861,43.9434,26.2577,61.8416,45.985,17.9932,19.8319,32.1295,42.951,42.0165,68.7151,10.2671,26.7547,15.4729,55.1961,15.4729,84.5341s-5.2058,57.7794-15.4729,84.5341c-9.887,25.7641-24.0233,48.8832-42.0165,68.7151-17.8982,19.7273-38.7048,35.1989-61.8416,45.985-23.8368,11.1124-49.1493,16.7469-75.2344,16.7469s-51.3976-5.6345-75.2343-16.7469c-23.1369-10.7861-43.9434-26.2577-61.8417-45.985-17.9931-19.8319-32.1295-42.951-42.0165-68.7151-10.267-26.7547-15.4729-55.1961-15.4729-84.5341s5.2059-57.7794,15.4729-84.5341c9.887-25.7641,24.0234-48.8832,42.0165-68.7151,17.8983-19.7273,38.7048-35.1989,61.8417-45.985,23.8367-11.1124,49.1492-16.7469,75.2343-16.7469M209.5654,0C93.8257,0,0,103.4138,0,230.9811s93.8257,230.9811,209.5654,230.9811,209.5654-103.4138,209.5654-230.9811S325.3051,0,209.5654,0h0Z"/><path class="cls-3" d="M352.5087,379.4652c-1.3729-7.8933-5.3053-14.7488-8.9429-21.8296-6.9618-13.3501-15.3577-25.5352-23.9387-37.85-11.9864-17.3701-25.0553-33.891-37.8138-50.707-4.776-6.4485-10.4819-13.6439-15.4687-20.0186-3.5197-4.4552-7.7673-8.9852-10.8924-13.6546-3.6902-5.3142,1.0089-9.8659,4.2826-14.0443,4.8348-6.296,9.7736-11.9897,14.3421-18.0801,16.7729-22.2499,34.1895-43.9098,49.6967-66.9582,8.189-12.4149,31.1045-44.8595,28.1794-58.5331-1.366-3.452-4.2648-6.318-6.3503-8.9347-5.8703-7.3656-12.361-12.8963-19.1985-18.4601-7.2976-6.1667-8.5339-3.2349-13.377,3.4778-3.8206,4.8222-7.855,9.9023-11.8354,14.5156-15.46,17.619-30.0617,35.6039-44.9613,53.4852-5.3891,6.3221-10.3827,13.1918-15.9806,19.5105-4.1822,4.8179-8.1785,9.8621-12.2524,14.7472-3.2446,3.8673-6.347,7.8045-9.6024,11.6974-2.4587,2.6812-5.2363,7.5893-9.0282,7.525-2.3074-.0336-4.7072-2.7394-6.301-4.6277-2.864-3.3935-5.4297-6.5979-8.0394-9.7586-4.3535-5.3329-8.6834-10.8263-12.9813-16.0665-10.6478-12.2862-20.8748-25.5407-31.0952-37.8092-9.9331-12.2267-20.2015-24.4562-29.8244-36.7803-5.0459-6.6647-10.5707-13.1738-15.6687-19.8975-1.8283-2.2761-3.9748-4.6803-6.9022-4.4956-3.002.1043-6.3906,3.2662-9.5928,5.9172-5.5958,4.742-11.0272,9.84-16.0501,15.1122-9.6728,9.5363-6.2842,17.2402-1.4207,28.3909,5.1721,12.1221,12.1625,23.1401,19.4056,34.0636,3.3299,4.8681,6.6016,10.049,10.0797,14.917,5.5734,7.3912,11.2216,15.5342,16.8438,23.0395,10.6676,14.1755,21.5169,28.1696,32.1226,42.1429,2.6615,3.3188,5.5002,6.9312,8.231,10.3607,1.9326,2.5213,4.1187,4.9402,5.7397,7.6298,2.2325,3.5918.4185,7.2513-2.1781,10.2953-2.7503,3.3902-5.5937,6.801-8.2301,10.2832-6.955,9.0481-14.2869,18.0495-21.1086,27.2273-7.5702,10.3049-15.5906,20.497-23.0276,30.8543-9.4522,12.883-19.1304,27.4223-27.5939,40.8906-5.4811,9.4332-17.497,28.5835-15.0096,38.9799.7584,3.3197,2.8591,6.2947,5.179,8.7958,6.6119,6.9775,13.773,13.7207,21.4928,19.4749,5.2113,3.7218,8.7353.3079,11.7013-4.0437,2.3939-3.1259,4.9307-6.267,7.5171-9.1628,5.563-6.0914,9.2378-11.591,14.7832-18.5101,4.8448-6.0097,9.8451-11.296,14.6434-17.3138,11.5434-14.1786,23.3388-28.1869,34.9338-42.4237,8.1226-10.1331,16.2981-20.2099,24.5333-30.2245,2.2105-2.6624,5.6301-7.1207,9.2406-5.8925,1.9376.5384,3.7646,2.5379,5.1537,4.1992,4.4693,5.5296,8.9109,10.917,13.359,16.3013,11.5799,13.7455,22.5954,27.916,34.2548,41.5198,13.1605,15.9357,26.6505,32.0946,39.8231,48.0743,4.3384,5.0483,8.3272,10.2809,12.3485,15.5161,3.6414,4.9481,7.7022,4.3395,12.1558.4211,5.4617-4.4053,10.7288-9.1107,15.6847-14.0754,5.4866-5.191,10.5746-11.2414,8.9684-19.0255l-.0293-.1878Z"/><polygon class="cls-4" points="88.1888 161.3147 114.4415 134.6245 170.4471 130.2491 170.4471 168.4451 129.318 206.6411 88.1888 161.3147"/><ellipse class="cls-2" cx="129.318" cy="159.127" rx="14.4097" ry="19.8724"/><polyline class="cls-5" points="170.4471 133.6868 194.1753 80.5218 199.5733 13.5862"/><line class="cls-5" x1="91.0942" y1="161.3147" x2="19.469" y2="161.3147"/></svg>