<?xml version="1.0" encoding="UTF-8"?><svg id="_4" xmlns="http://www.w3.org/2000/svg" viewBox="0 0 419.1307 461.9622"><defs><style>.cls-1{fill:#e4eca3;}.cls-1,.cls-2,.cls-3,.cls-4,.cls-5,.cls-6,.cls-7,.cls-8,.cls-9,.cls-10,.cls-11,.cls-12{stroke-linejoin:round;}.cls-1,.cls-2,.cls-3,.cls-6,.cls-12{stroke-width:9.9627px;}.cls-1,.cls-7,.cls-8,.cls-11{stroke-linecap:round;}.cls-1,.cls-12{stroke:#565959;}.cls-2{fill:#717272;}.cls-2,.cls-3,.cls-11{stroke:#575959;}.cls-3,.cls-5,.cls-6,.cls-11,.cls-12{fill:none;}.cls-13{fill:#555959;}.cls-4{fill:#d7a84e;}.cls-4,.cls-5,.cls-6,.cls-9,.cls-10{stroke:#555959;}.cls-4,.cls-7{stroke-width:6.9739px;}.cls-5,.cls-8{stroke-width:9.8416px;}.cls-14{fill:#f4f3ee;}.cls-7,.cls-8{fill:#bf6e28;stroke:#545959;}.cls-15{fill:#c67127;}.cls-9{stroke-width:5.4248px;}.cls-9,.cls-10{fill:#deac4e;}.cls-10{stroke-width:5.9776px;}.cls-11{stroke-width:14.5028px;}.cls-16{fill:#a7d5dc;}</style></defs><path class="cls-2" d="M22.0537,161.8356s-17.582,40.4976-11.6141,78.2363c0,0,63.5692,17.2141,62.6865,18.0969s13.4624-111.4507,13.4624-111.4507l-64.5348,15.1176Z"/><path class="cls-16" d="M10.4305,237.9385c0,127.0914,83.8965,223.162,199.2044,223.162s208.7835-103.0279,208.7835-230.1193S324.9428.8618,209.6349.8618C114.7091.8618,47.4156,66.2436,22.0537,161.8356l98.2131-1.6487,16.4009,68.9238-69.7026,17.4354-56.5347-8.6076Z"/><path class="cls-11" d="M17.4654,159.7769C44.4344,71.3512,120.2523,7.6563,209.5675,7.6563c111.9033,0,202.6189,99.9859,202.6189,223.3248s-90.7156,223.3248-202.6189,223.3248c-109.4797,0-198.6795-95.7018-202.4919-215.3445"/><path class="cls-1" d="M351.9756,378.9112c-1.3677-7.8638-5.2855-14.6938-8.9096-21.7482-6.9359-13.3003-15.3004-25.44-23.8494-37.7088-11.9417-17.3053-24.9618-33.7646-37.6727-50.5178-4.7582-6.4245-10.4428-13.593-15.411-19.9439-3.5066-4.4386-7.7383-8.9516-10.8518-13.6037-3.6764-5.2944,1.0051-9.8291,4.2666-13.9919,4.8167-6.2725,9.7371-11.9449,14.2886-18.0126,16.7103-22.1669,34.0619-43.746,49.5112-66.7084,8.1585-12.3686,30.9884-44.6921,28.0743-58.3147-1.3609-3.4392-4.2488-6.2944-6.3266-8.9013-5.8484-7.3381-12.3148-12.8481-19.1269-18.3912-7.2704-6.1437-8.5021-3.2228-13.327,3.4648-3.8064,4.8042-7.8257,9.8654-11.7912,14.4614-15.4023,17.5532-29.9496,35.4711-44.7936,53.2856-5.369,6.2985-10.3439,13.1426-15.921,19.4377-4.1666,4.7999-8.148,9.8253-12.2067,14.6921-3.2325,3.8528-6.3233,7.7754-9.5665,11.6537-2.4495,2.6712-5.2167,7.5609-8.9945,7.4969-2.2988-.0334-4.6897-2.7292-6.2775-4.6105-2.8533-3.3808-5.4095-6.5733-8.0094-9.7222-4.3372-5.313-8.651-10.7859-12.9329-16.0066-10.6081-12.2403-20.7969-25.4454-30.9792-37.6682-9.8961-12.1811-20.1262-24.3649-29.7131-36.643-5.0271-6.6399-10.5313-13.1247-15.6102-19.8233-1.8215-2.2676-3.9599-4.6628-6.8764-4.4788-2.9908.1039-6.3667,3.254-9.557,5.8952-5.575,4.7243-10.9861,9.8033-15.9902,15.0558-9.6368,9.5007-6.2608,17.1758-1.4154,28.2849,5.1528,12.0768,12.1172,23.0538,19.3332,33.9366,3.3174,4.8499,6.577,10.0115,10.0421,14.8613,5.5526,7.3636,11.1797,15.4763,16.781,22.9535,10.6278,14.1226,21.4366,28.0645,32.0028,41.9857,2.6515,3.3064,5.4797,6.9054,8.2003,10.3221,1.9254,2.5119,4.1033,4.9218,5.7183,7.6013,2.2241,3.5784.4169,7.2242-2.17,10.2569-2.74,3.3776-5.5728,6.7756-8.1994,10.2449-6.929,9.0143-14.2336,17.9822-21.0298,27.1257-7.542,10.2664-15.5324,20.4205-22.9417,30.7391-9.4169,12.8349-19.059,27.32-27.491,40.738-5.4607,9.398-17.4317,28.4768-14.9536,38.8345.7555,3.3073,2.8484,6.2712,5.1596,8.763,6.5872,6.9515,13.7216,13.6695,21.4126,19.4023,5.1919,3.708,8.7027.3067,11.6576-4.0286,2.385-3.1142,4.9123-6.2436,7.4891-9.1286,5.5422-6.0686,9.2033-11.5477,14.728-18.4411,4.8267-5.9873,9.8083-11.2539,14.5888-17.2492,11.5003-14.1257,23.2517-28.0818,34.8035-42.2654,8.0923-10.0953,16.2373-20.1345,24.4418-30.1117,2.2023-2.6524,5.6091-7.0941,9.2061-5.8705,1.9304.5364,3.7505,2.5284,5.1344,4.1835,4.4526,5.5089,8.8776,10.8763,13.3092,16.2405,11.5367,13.6942,22.5111,27.8119,34.127,41.3649,13.1114,15.8763,26.5511,31.9749,39.6745,47.895,4.3222,5.0294,8.2961,10.2425,12.3025,15.4582,3.6278,4.9296,7.6735,4.3233,12.1104.4195,5.4414-4.3889,10.6887-9.0767,15.6262-14.0229,5.4661-5.1717,10.5352-11.1994,8.9349-18.9545l-.0292-.1871Z"/><polyline class="cls-12" points="170.5933 134.0498 194.2329 81.0831 199.6108 14.3972"/><ellipse class="cls-13" cx="162.9327" cy="173.4961" rx="14.3559" ry="19.7983"/><polyline class="cls-3" points="5.0618 236.5773 66.9651 246.546 137.8471 225.9479 209.6349 246.546 237.9947 242.7877 274.8491 168.6784 221.6322 139.0892 170.5933 130.6249 114.7966 134.984 89.8571 160.3392 16.8674 162.0568"/><path class="cls-15" d="M136.4595,221.1575c.4544-.1313.9223-.1975,1.3903-.1975.4626,0,.9248.0642,1.3738.1936l70.7896,20.3116,24.7034-3.2739,9.0415-18.1809c-9.7564-4.2358-14.6986-12.797-14.6986-12.797,0,0-10.1738,15.1155-25.7899,15.1155s-25.0794-14.5341-25.0794-14.5341c0,0-7.267,14.5341-24.1266,14.5341s-26.1613-14.8247-26.1613-14.8247c0,0-8.0642,14.8247-24.9547,14.8247-14.7911,0-28.536-14.3186-31.7244-17.8782-.7584.654-1.3179,1.5373-1.5668,2.5596-1.3678,5.6196-3.983,17.932-5.2027,34.0793l2.1998.3543,69.806-20.2863Z"/><path class="cls-14" d="M219.9681,143.8562l-41.9152-6.9514c.6351,2.2363.9962,4.6624.9962,7.2091,0,10.9343-6.4274,19.7982-14.356,19.7982s-14.3559-8.864-14.3559-19.7982c0-2.4641.3414-4.8132.9378-6.9892l-34.2306,2.6744-23.6337,24.0272c-.8868.9019-2.083,1.4321-3.3468,1.4847l-19.031.782c-.8228,8.0474-1.5404,20.9056-.5031,37.5631,0,0,.2408.2894.6933.7946,3.1884,3.5595,16.9333,17.8782,31.7244,17.8782,16.8905,0,24.9547-14.8247,24.9547-14.8247,0,0,9.3018,14.8247,26.1613,14.8247s24.1266-14.5341,24.1266-14.5341c0,0,9.4633,14.5341,25.0794,14.5341s25.7899-15.1155,25.7899-15.1155c0,0,4.9422,8.5613,14.6986,12.797l14.7123-29.5842,9.8027-19.7116-48.3049-26.8584ZM213.3858,195.007c-8.3144,0-14.9508-.7452-20.2542-1.9167-6.7136-1.483-11.2881-3.6499-14.3956-5.8627-5.6224-4.0035-5.9574-12.3338-.6953-16.8004,5.5044-4.6724,15.9806-9.5721,35.6394-9.2601,18.5819.295,29.2553,3.3985,35.6504,6.7918,7.0936,3.7639,7.5782,13.8823.8875,18.323-2.409,1.5989-5.4293,3.1726-9.1683,4.537-6.6586,2.4297-15.6233,4.188-27.664,4.188Z"/><path class="cls-13" d="M151.275,137.1247c-.5965,2.1761-.9378,4.5251-.9378,6.9892,0,10.9343,6.4273,19.7982,14.3559,19.7982s14.356-8.864,14.356-19.7982c0-2.5467-.3611-4.9728-.9962-7.2091l-7.6735-1.2726-19.1044,1.4926Z"/><path class="cls-4" d="M250.218,186.2821c6.6907-4.4408,6.206-14.5591-.8875-18.323-6.3951-3.3933-17.0685-6.4968-35.6504-6.7918-19.6588-.3121-30.135,4.5877-35.6394,9.2601-5.262,4.4666-4.927,12.7969.6953,16.8004,3.1075,2.2128,7.682,4.3797,14.3956,5.8627,7.1651,1.1963,15.0228,2.3585,24.2919,2.3275,8.3006-.0278,15.5023-2.2876,23.6262-4.5989,3.739-1.3643,6.7593-2.9381,9.1683-4.537Z"/><path class="cls-6" d="M243.758,220.0105c-9.7564-4.2358-14.6986-12.797-14.6986-12.797,0,0-10.1738,15.1155-25.7899,15.1155s-25.0794-14.5341-25.0794-14.5341c0,0-7.267,14.5341-24.1266,14.5341s-26.1613-14.8247-26.1613-14.8247c0,0-8.0642,14.8247-24.9547,14.8247-14.7911,0-28.536-14.3186-31.7244-17.8782-.7584.654-1.3179,1.5373-1.5668,2.5596-1.3678,5.6196-3.983,17.932-5.2027,34.0793l2.1998.3543"/><path class="cls-6" d="M71.6732,161.8356c-.9449,9.6871-2.206,25.5038-1.1433,41.8205,0,0,.2408.2894.6933.7946,3.1884,3.5595,16.9333,17.8782,31.7244,17.8782,16.8905,0,24.9547-14.8247,24.9547-14.8247,0,0,9.3018,14.8247,26.1613,14.8247s24.1266-14.5341,24.1266-14.5341c0,0,9.4633,14.5341,25.0794,14.5341s25.7899-15.1155,25.7899-15.1155c0,0,4.9422,8.5613,14.6986,12.797"/><polygon class="cls-7" points="223.2889 359.9754 209.631 384.7263 230.2238 400.0293 230.2238 433.5749 263.8797 401.2064 236.7554 384.7263 223.2889 359.9754"/><polygon class="cls-8" points="80.8504 308.9032 130.8745 275.9462 131.3989 255.7994 156.9417 258.2906 142.0563 308.9032 92.6208 343.0373 70.0148 324.7932 80.8504 308.9032"/><polygon class="cls-8" points="291.2244 258.7256 308.6071 286.5231 357.4542 313.0065 332.1479 347.3369 291.2244 338.3544 263.8797 264.7896 283.3008 246.546 291.2244 258.7256"/><path class="cls-8" d="M131.3989,255.7994s40.6078,31.1915,19.4211,64.1485c-21.1867,32.957-55.952,9.3752-55.952,9.3752,0,0-12.252-6.884-14.0176-20.4199l28.8927-15.4159,21.1314-17.5412.5244-20.1468Z"/><path class="cls-8" d="M291.2244,258.7256s-55.3208,30.603-33.5456,69.4452c19.4318,34.6622,59.0933,11.7226,59.0933,11.7226,0,0,39.505-18.0591,40.682-26.8869l-48.8471-26.4833-17.3827-27.7975Z"/><polygon class="cls-7" points="145.149 381.9324 137.2378 395.0122 153.2368 406.9414 183.124 405.3738 186.232 388.01 198.5909 362.5113 177.2887 368.6907 159.2247 366.1329 145.149 381.9324"/><path class="cls-10" d="M180.0816,376.9353c-1.5101-9.8723.5558-11.413-.634-19.1911-1.1334-7.4096-2.6476-20.0305-15.082-20.4445-1.2589-.0419-2.5694.1585-3.7582.5748-11.7421,4.112-11.7184,18.1864-10.585,25.596,1.1897,7.7782,3.4814,8.2759,6.9192,17.6527,4.1744,11.3858,2.8814,8.0975,1.63,28.911-1.2896,21.4488,16.1884,23.131,16.1884,23.131h0c1.5334.1356,3.1623-.1136,4.5851-.7013h0s9.4839-5.9978,6.235-27.2383c-3.2489-21.2404-3.9884-18.418-5.4984-28.2902Z"/><path class="cls-9" d="M248.0223,397.5593c5.2499-8.496,7.4802-8.5409,11.6164-15.2347,3.9403-6.3766,9.7809-19.1261,2.4164-26.3679-.7456-.7332-1.6744-1.3071-2.6637-1.646-9.7713-3.3468-15.6313,7.0793-19.5716,13.4559-4.1363,6.6938-4.4582,8.7935-8.2416,17.9699-4.8413,11.7427-5.1128,2.9295-16.408,21.2087-11.2952,18.2792-6.7116,29.1357-6.7116,29.1357h0c.8553.9586,2.0098,1.672,3.2498,2.0081h0s12.9652,4.4539,24.2603-13.8253c11.2952-18.2792,6.8036-18.2086,12.0535-26.7046Z"/><polyline class="cls-5" points="258.8029 222.5433 286.8899 239.6276 410.0375 205.459"/></svg>