<?xml version="1.0" encoding="UTF-8"?><svg id="_5" xmlns="http://www.w3.org/2000/svg" viewBox="0 0 419.1307 461.9622"><defs><style>.cls-1,.cls-2,.cls-3,.cls-4,.cls-5,.cls-6,.cls-7{fill:none;}.cls-2{stroke-width:9.8784px;}.cls-2,.cls-8,.cls-9,.cls-3,.cls-4,.cls-5,.cls-10,.cls-11,.cls-12,.cls-13,.cls-6,.cls-7{stroke-linejoin:round;}.cls-2,.cls-8,.cls-10,.cls-11,.cls-6{stroke-linecap:round;}.cls-2,.cls-3,.cls-5,.cls-12,.cls-13{stroke:#555959;}.cls-8{fill:#e4eca3;}.cls-8,.cls-9,.cls-4,.cls-7{stroke-width:9.9627px;}.cls-8,.cls-7{stroke:#565959;}.cls-9{fill:#717272;}.cls-9,.cls-4,.cls-6{stroke:#575959;}.cls-3{stroke-width:8px;}.cls-14{fill:#575959;}.cls-15{fill:#555959;}.cls-5,.cls-11{stroke-width:9.8416px;}.cls-16{fill:#f4f3ee;}.cls-10{stroke-width:6.9739px;}.cls-10,.cls-11{fill:#bf6e28;stroke:#545959;}.cls-17{fill:#c67127;}.cls-18,.cls-12,.cls-13{fill:#deac4e;}.cls-12{stroke-width:5.4248px;}.cls-13{stroke-width:5.9776px;}.cls-6{stroke-width:14.5028px;}.cls-19{fill:#a7d5dc;}</style></defs><path class="cls-9" d="M21.988,161.8356s-17.582,40.4976-11.6141,78.2363c0,0,63.5692,17.2141,62.6865,18.0969s13.4624-111.4507,13.4624-111.4507l-64.5348,15.1176Z"/><path class="cls-19" d="M10.3648,237.9385c0,127.0914,83.8965,223.162,199.2044,223.162s208.7835-103.0279,208.7835-230.1193S324.8772.8618,209.5692.8618C114.6434.8618,47.3499,66.2436,21.988,161.8356l98.2131-1.6487,16.4009,68.9238-69.7026,17.4354-56.5347-8.6076Z"/><path class="cls-6" d="M17.3997,159.7769C44.3687,71.3512,120.1866,7.6563,209.5019,7.6563c111.9033,0,202.6189,99.9859,202.6189,223.3248s-90.7156,223.3248-202.6189,223.3248c-109.4797,0-198.6795-95.7018-202.4919-215.3445"/><path class="cls-8" d="M351.91,378.9112c-1.3677-7.8638-5.2855-14.6938-8.9096-21.7482-6.9359-13.3003-15.3004-25.44-23.8494-37.7088-11.9417-17.3053-24.9618-33.7646-37.6727-50.5178-4.7582-6.4245-10.4428-13.593-15.411-19.9439-3.5066-4.4386-7.7383-8.9516-10.8518-13.6037-3.6764-5.2944,1.0051-9.8291,4.2666-13.9919,4.8167-6.2725,9.7371-11.9449,14.2886-18.0126,16.7103-22.1669,34.0619-43.746,49.5112-66.7084,8.1585-12.3686,30.9884-44.6921,28.0743-58.3147-1.3609-3.4392-4.2488-6.2944-6.3266-8.9013-5.8484-7.3381-12.3148-12.8481-19.1269-18.3912-7.2704-6.1437-8.5021-3.2228-13.327,3.4648-3.8064,4.8042-7.8257,9.8654-11.7912,14.4614-15.4023,17.5532-29.9496,35.4711-44.7936,53.2856-5.369,6.2985-10.3439,13.1426-15.921,19.4377-4.1666,4.7999-8.148,9.8253-12.2067,14.6921-3.2325,3.8528-6.3233,7.7754-9.5665,11.6537-2.4495,2.6712-5.2167,7.5609-8.9945,7.4969-2.2988-.0334-4.6897-2.7292-6.2775-4.6105-2.8533-3.3808-5.4095-6.5733-8.0094-9.7222-4.3372-5.313-8.651-10.7859-12.9329-16.0066-10.6081-12.2403-20.7969-25.4454-30.9792-37.6682-9.8961-12.1811-20.1262-24.3649-29.7131-36.643-5.0271-6.6399-10.5313-13.1247-15.6102-19.8233-1.8215-2.2676-3.9599-4.6628-6.8764-4.4788-2.9908.1039-6.3667,3.254-9.557,5.8952-5.575,4.7243-10.9861,9.8033-15.9902,15.0558-9.6368,9.5007-6.2608,17.1758-1.4154,28.2849,5.1528,12.0768,12.1172,23.0538,19.3332,33.9366,3.3174,4.8499,6.577,10.0115,10.0421,14.8613,5.5526,7.3636,11.1797,15.4763,16.781,22.9535,10.6278,14.1226,21.4366,28.0645,32.0028,41.9857,2.6515,3.3064,5.4797,6.9054,8.2003,10.3221,1.9254,2.5119,4.1033,4.9218,5.7183,7.6013,2.2241,3.5784.4169,7.2242-2.17,10.2569-2.74,3.3776-5.5728,6.7756-8.1994,10.2449-6.929,9.0143-14.2336,17.9822-21.0298,27.1257-7.542,10.2664-15.5324,20.4205-22.9417,30.7391-9.4169,12.8349-19.059,27.32-27.491,40.738-5.4607,9.398-17.4317,28.4768-14.9536,38.8345.7555,3.3073,2.8484,6.2712,5.1596,8.763,6.5872,6.9515,13.7216,13.6695,21.4126,19.4023,5.1919,3.708,8.7027.3067,11.6576-4.0286,2.385-3.1142,4.9123-6.2436,7.4891-9.1286,5.5422-6.0686,9.2033-11.5477,14.728-18.4411,4.8267-5.9873,9.8083-11.2539,14.5888-17.2492,11.5003-14.1257,23.2517-28.0818,34.8035-42.2654,8.0923-10.0953,16.2373-20.1345,24.4418-30.1117,2.2023-2.6524,5.6091-7.0941,9.2061-5.8705,1.9304.5364,3.7505,2.5284,5.1344,4.1835,4.4526,5.5089,8.8776,10.8763,13.3092,16.2405,11.5367,13.6942,22.5111,27.8119,34.127,41.3649,13.1114,15.8763,26.5511,31.9749,39.6745,47.895,4.3222,5.0294,8.2961,10.2425,12.3025,15.4582,3.6278,4.9296,7.6735,4.3233,12.1104.4195,5.4414-4.3889,10.6887-9.0767,15.6262-14.0229,5.4661-5.1717,10.5352-11.1994,8.9349-18.9545l-.0292-.1871Z"/><polyline class="cls-7" points="170.5276 134.0498 194.1673 81.0831 199.5452 14.3972"/><polyline class="cls-4" points="4.9961 236.5773 66.8995 246.546 137.7815 225.9479 209.5692 246.546 237.9291 242.7877 274.7834 168.6784 221.5666 139.0892 170.5276 130.6249 114.7309 134.984 89.7915 160.3392 16.8017 162.0568"/><polygon class="cls-10" points="223.2232 359.9754 209.5654 384.7263 230.1581 400.0293 230.1581 433.5749 263.8141 401.2064 236.6897 384.7263 223.2232 359.9754"/><polygon class="cls-11" points="80.7847 308.9032 130.8088 275.9462 131.3332 255.7994 156.876 258.2906 141.9907 308.9032 92.5551 343.0373 69.9492 324.7932 80.7847 308.9032"/><polygon class="cls-11" points="291.1588 258.7256 308.5415 286.5231 357.3885 313.0065 332.0822 347.3369 291.1588 338.3544 263.8141 264.7896 283.2352 246.546 291.1588 258.7256"/><path class="cls-11" d="M131.3332,255.7994s40.6078,31.1915,19.4211,64.1485c-21.1867,32.957-55.952,9.3752-55.952,9.3752,0,0-12.252-6.884-14.0176-20.4199l28.8927-15.4159,21.1314-17.5412.5244-20.1468Z"/><path class="cls-11" d="M291.1588,258.7256s-55.3208,30.603-33.5456,69.4452c19.4318,34.6622,59.0933,11.7226,59.0933,11.7226,0,0,39.505-18.0591,40.682-26.8869l-48.8471-26.4833-17.3827-27.7975Z"/><polygon class="cls-10" points="145.0833 381.9324 137.1722 395.0122 153.1711 406.9414 183.0584 405.3738 186.1664 388.01 198.5253 362.5113 177.223 368.6907 159.1591 366.1329 145.0833 381.9324"/><path class="cls-13" d="M180.016,376.9353c-1.5101-9.8723.5558-11.413-.634-19.1911-1.1334-7.4096-2.6476-20.0305-15.082-20.4445-1.2589-.0419-2.5694.1585-3.7582.5748-11.7421,4.112-11.7184,18.1864-10.585,25.596,1.1897,7.7782,3.4814,8.2759,6.9192,17.6527,4.1744,11.3858,2.8814,8.0975,1.63,28.911-1.2896,21.4488,16.1884,23.131,16.1884,23.131h0c1.5334.1356,3.1623-.1136,4.5851-.7013h0s9.4839-5.9978,6.235-27.2383c-3.2489-21.2404-3.9884-18.418-5.4984-28.2902Z"/><path class="cls-12" d="M247.9566,397.5593c5.2499-8.496,7.4802-8.5409,11.6164-15.2347,3.9403-6.3766,9.7809-19.1261,2.4164-26.3679-.7456-.7332-1.6744-1.3071-2.6637-1.646-9.7713-3.3468-15.6313,7.0793-19.5716,13.4559-4.1363,6.6938-4.4582,8.7935-8.2416,17.9699-4.8413,11.7427-5.1128,2.9295-16.408,21.2087-11.2952,18.2792-6.7116,29.1357-6.7116,29.1357h0c.8553.9586,2.0098,1.672,3.2498,2.0081h0s12.9652,4.4539,24.2603-13.8253c11.2952-18.2792,6.8036-18.2086,12.0535-26.7046Z"/><polyline class="cls-5" points="258.7373 222.5433 286.8243 239.6276 409.9718 205.459"/><path class="cls-16" d="M348.0546,79.5226c.2051-.627,3.7217-11.0322,13.6299-19.1719-8.2012.0557-16.3008,1.0605-20.7256,3.8223-.7646.5576-1.2275.8838-1.3096.9404-2.1797,1.5293-5.1768,1.0547-6.7783-1.0703-1.6025-2.124-1.2334-5.1367.834-6.8115.5479-.4443,1.1299-.8604,1.7422-1.252,10.2109-7.373,22.5635-18.4023,28.7979-27.6113-13.5908,7.708-36.2002,19.1982-51.6436,20.126-1.9316.1201-3.7432-.9014-4.6523-2.6035-.2873-.5267-5.6952-10.1945-16.4997-13.9928l-7.8218,36.1824,24.77,9.7469,3.3187,26.8215,20.1791-18.9417,27.4686-.2954c-1.7092-2.6646-8.8117.649-10.3454-1.1195-1.1367-1.3105-1.502-3.1211-.9639-4.7695Z"/><path class="cls-15" d="M381.246,61.508c2.3115-.5293,3.9199-2.627,3.832-4.9971s-1.8477-4.3428-4.1914-4.7002c-1.9326-.2949-12.3037-1.7686-23.3252-1.2637.4893-.4512.9795-.9092,1.4688-1.373,13.7051-12.9785,19.9277-23.5684,19.0234-32.374-.1748-1.7061-1.2227-3.1992-2.7666-3.9443-1.543-.7441-3.3652-.6367-4.8096.2891-.3623.2314-34.8203,22.1631-55.6357,25.1914-3.0786-4.4308-10.071-12.6885-21.2825-16.1974l-1.0601,4.9037c13.3317,4.4244,19.8068,16.5212,19.8068,16.5212,21.8828-1.3129,60.8351-26.2593,60.8351-26.2593,1.5618,15.2189-28.5402,38.0916-35.0827,42.8702,12.3107-8.014,42.0842-3.4813,42.0842-3.4813-21.0074,4.8142-27.3922,24.3628-27.3922,24.3628,1.8228,2.102,3.8884,4.9843,6.0089,8.4025l4.8372-1.5619c-1.7494-2.8934-3.4976-5.4915-5.1639-7.6709,2.2861-4.8281,8.8047-15.5078,22.8135-18.7178Z"/><path class="cls-15" d="M338.0583,60.1745c-.4356.2836-.8539.5795-1.2437.8953,0,0,.4485-.3145,1.2437-.8953Z"/><path class="cls-15" d="M307.9491,45.8908c.9092,1.7021,2.7207,2.7236,4.6523,2.6035,15.4434-.9277,38.0527-12.418,51.6436-20.126-6.2344,9.209-18.5869,20.2383-28.7979,27.6113-.6123.3916-1.1943.8076-1.7422,1.252-2.0674,1.6748-2.4365,4.6875-.834,6.8115,1.6016,2.125,4.5986,2.5996,6.7783,1.0703.082-.0566.5449-.3828,1.3096-.9404,4.4248-2.7617,12.5244-3.7666,20.7256-3.8223-9.9082,8.1396-13.4248,18.5449-13.6299,19.1719-.5381,1.6484-.1729,3.459.9639,4.7695,1.5337,1.7685,3.2057,4.0601,4.9149,6.7247l4.8259-1.5583c-2.1205-3.4182-4.1861-6.3005-6.0089-8.4025,0,0,6.3847-19.5486,27.3922-24.3628,0,0-29.7735-4.5327-42.0842,3.4813-.7952.5807-1.2437.8953-1.2437.8953.3898-.3157.808-.6117,1.2437-.8953,6.5425-4.7787,36.6445-27.6513,35.0827-42.8702,0,0-38.9523,24.9464-60.8351,26.2593,0,0-6.4751-12.0967-19.8068-16.5212l-1.0497,4.8557c10.8045,3.7983,16.2124,13.4661,16.4997,13.9928Z"/><path class="cls-1" d="M35.2031,168.2389c.7583-.5731,1.5497-1.1201,2.3444-1.6643l-16.5256.3889-3.1915,20.1467c4.5046-7.0953,10.4473-13.6367,17.3727-18.8713Z"/><path class="cls-17" d="M225.8227,210.9782c-4.9346,5.1221-13.896,12.209-25.7041,12.209-11.5161,0-20.041-6.5039-24.8477-11.4316-4.3408,5.0254-12.2798,11.4316-24.5425,11.4316-3.0105,0-5.8037-.4019-8.3842-1.0737l67.5507,19.3832,24.7041-3.2744,8.1283-16.3453c-7.827-2.2723-13.4577-7.0773-16.9047-10.8989Z"/><path class="cls-17" d="M136.3417,221.1891c.4541-.1318.9219-.1982,1.3901-.1982.4624,0,.9248.0645,1.374.1934l2.1008.6028c-7.4819-2.2358-13.0449-6.7405-16.5427-10.3792-4.5278,5.1016-12.8262,11.7793-25.2432,11.7793-9.095,0-17.6235-4.4873-24.1349-9.2679-2.2352.9034-4.5884,1.8022-7.0546,2.6744-1.1492,6.7004-2.2623,15.1119-2.8317,24.6987l1.1364.183,69.8057-20.2861Z"/><path class="cls-16" d="M219.851,143.8873l-49.5898-8.2236-34.2994,2.6791c-1.8491,8.0325-7.2966,13.8551-13.7333,13.8551-4.3124,0-8.1717-2.6262-10.8124-6.7662l-12.9193,13.1347c1.1029,1.7947,1.7665,3.8503,1.8719,6.0103.0864,1.7578.2939,4.1191.5142,6.6182.6818,7.7468,1.1565,14.4507.7761,19.7854-.1321,1.853-.3763,3.5291-.7424,5.0374-.506,2.0845-1.2679,3.8212-2.3449,5.1841-.4072.5153-.844.9955-1.3469,1.4004-1.6994,1.368-5.6631,3.7903-11.2625,6.5518,4.1522,2.3891,8.7943,4.1543,13.4587,4.1543,13.6987,0,20.4409-11.8193,20.7212-12.3232.4806-.8623,1.2054-1.5398,2.056-1.9817.6531-.3392,1.3784-.5433,2.1364-.5632.5504-.0159,1.091.0715,1.6066.2327,1.1028.3448,2.0797,1.0616,2.7122,2.069.0693.1084,8.1909,12.5664,22.0752,12.5664,13.5391,0,19.562-11.3984,19.8115-11.8838.8057-1.5645,2.3896-2.5957,4.1475-2.6855,1.7432-.0918,3.4365.75,4.397,2.2246.0723.1094,8.3105,12.3447,21.0342,12.3447,12.7842,0,21.709-12.8721,21.7969-13.002.9229-1.3535,2.457-2.1631,4.0859-2.1631.0615,0,.123.001.1855.0029,1.6973.0645,3.248.9902,4.0967,2.4619.2597.4403,5.9917,9.9488,16.9462,12.2148l10.785-21.6877,2.4686-4.9641,2.4781-4.9834,5.1931-10.4429-48.3037-26.8574Z"/><path class="cls-18" d="M91.0424,172.0612c-.2209-2.5118-.4282-4.8793-.5278-6.7969-.2172.0343-.4335.0739-.6558.0791l-17.8641.4205-4.9755.1171-4.8845.115c-.0302.0089-.059.0189-.0892.0278-8.1633,2.3999-15.1799,5.7827-20.8864,10.096-11.8506,8.957-20.625,22.7695-22.3535,35.1895-.1885,1.3525.4287,2.2998.813,2.7432.3813.4404,1.2227,1.1807,2.5728,1.1875.1543.001.3145.002.4688.002,12.9023.0008,25.8253-2.7405,36.9381-6.2424,1.8633-.5872,3.6707-1.1963,5.4235-1.817.5729-.2029,1.1461-.4058,1.7059-.6108,1.3143-.4816,2.5831-.9686,3.82-1.4566.4263-.1682.8489-.3361,1.2654-.5043.7563-.3056,1.4946-.6105,2.2171-.9148.9635-.4058,1.8954-.8088,2.7947-1.208,4.2726-1.8965,7.7893-3.6862,10.3167-5.1149,1.752-.9904,3.0419-1.8111,3.7568-2.3627.387-.5981.6408-1.679.7985-3.0593.6183-5.4142-.2692-15.5127-.6544-19.89Z"/><path class="cls-15" d="M230.2837,200.608c-.8486-1.4717-2.3994-2.3975-4.0967-2.4619-.0625-.002-.124-.0029-.1855-.0029-1.6289,0-3.1631.8096-4.0859,2.1631-.0879.1299-9.0127,13.002-21.7969,13.002-12.7236,0-20.9619-12.2354-21.0342-12.3447-.9604-1.4746-2.6538-2.3164-4.397-2.2246-1.7578.0898-3.3418,1.1211-4.1475,2.6855-.2495.4854-6.2725,11.8838-19.8115,11.8838-13.8843,0-22.0059-12.458-22.0752-12.5664-.6325-1.0074-1.6094-1.7242-2.7122-2.069-.5156-.1612-1.0563-.2486-1.6066-.2327-.7579.02-1.4832.224-2.1364.5632-.8506.4419-1.5754,1.1194-2.056,1.9817-.2803.5039-7.0225,12.3232-20.7212,12.3232-4.6644,0-9.3065-1.7652-13.4587-4.1543,5.5993-2.7615,9.563-5.1837,11.2625-6.5518.5029-.4049.9398-.8851,1.3469-1.4004,1.077-1.3629,1.8389-3.0995,2.3449-5.1841.3661-1.5083.6103-3.1843.7424-5.0374.3804-5.3347-.0943-12.0386-.7761-19.7854-.2202-2.499-.4277-4.8604-.5142-6.6182-.1053-2.16-.769-4.2156-1.8719-6.0103l-3.6281,3.6886-1.5757,1.602c-.7519.7644-1.7303,1.2419-2.7783,1.4072.0996,1.9175.3069,4.285.5278,6.7969.3852,4.3773,1.2728,14.4757.6544,19.89-.1577,1.3802-.4115,2.4611-.7985,3.0593-.7149.5516-2.0048,1.3723-3.7568,2.3627-2.5274,1.4287-6.0441,3.2184-10.3167,5.1149-.8993.3992-1.8312.8022-2.7947,1.208-.7225.3043-1.4608.6092-2.2171.9148-.4165.1682-.8392.3361-1.2654.5043-1.2369.488-2.5057.975-3.82,1.4566-.5598.2051-1.1331.408-1.7059.6108-1.7528.6207-3.5601,1.2297-5.4235,1.817-11.1129,3.5019-24.0358,6.2432-36.9381,6.2424-.1543,0-.3145-.001-.4688-.002-1.3501-.0068-2.1914-.7471-2.5728-1.1875-.3843-.4434-1.0015-1.3906-.813-2.7432,1.7285-12.4199,10.5029-26.2324,22.3535-35.1895,5.7065-4.3134,12.7231-7.6961,20.8864-10.096.0007-.0089.0014-.017.0021-.0258l-14.4001.3389-10.1.2377c-.7947.5443-1.5861,1.0912-2.3444,1.6643-6.9254,5.2346-12.8681,11.776-17.3727,18.8713l-2.9964,18.9147-.9812,6.1938-1.3696,8.6451c2.4973,2.6829,5.9827,4.2352,9.6569,4.2549.1777.001.3535.001.5312.001,12.208-.0004,24.2596-2.1697,35.0325-5.1923-.8539,5.7631-1.6198,12.4333-2.0853,19.7896l4.9301.7939,4.851.7812c.5694-9.5867,1.6824-17.9983,2.8317-24.6987,2.4662-.8722,4.8195-1.771,7.0546-2.6744,6.5114,4.7806,15.0399,9.2679,24.1349,9.2679,12.417,0,20.7153-6.6777,25.2432-11.7793,3.4978,3.6387,9.0608,8.1434,16.5427,10.3792l1.1376.3264c2.5804.6718,5.3737,1.0737,8.3842,1.0737,12.2627,0,20.2017-6.4062,24.5425-11.4316,4.8066,4.9277,13.3315,11.4316,24.8477,11.4316,11.8081,0,20.7695-7.0869,25.7041-12.209,3.447,3.8216,9.0776,8.6265,16.9047,10.8989l2.2449-4.5144,2.2576-4.5398c-10.9545-2.266-16.6865-11.7745-16.9462-12.2148Z"/><path class="cls-15" d="M122.2285,152.198c6.4367,0,11.8842-5.8226,13.7333-13.8551l-19.0355,1.4869-5.5102,5.6021c2.6407,4.14,6.5,6.7662,10.8124,6.7662Z"/><path class="cls-14" d="M13.9135,210.629c.2145-1.5414.5373-3.0764.9205-4.6041l2.9964-18.9147c-4.6319,7.2958-7.7428,15.1773-8.809,22.8377-.5303,3.8096.6104,7.6621,3.1294,10.5713.1051.1214.2234.2277.3324.3447l1.3696-8.6451c-.0262-.5215-.0142-1.0516.0607-1.5898Z"/><path class="cls-14" d="M13.9135,210.629c-.0749.5382-.087,1.0683-.0607,1.5898l.9812-6.1938c-.3832,1.5276-.706,3.0627-.9205,4.6041Z"/><polyline class="cls-3" points="292.4991 27.0423 283.6276 68.0804 308.3976 77.8273 311.7162 104.6487 331.8953 85.707 363.5965 87.8967"/><polyline class="cls-2" points="274.7834 168.6784 291.4494 119.1198 312.623 102.4134"/></svg>