<?xml version="1.0" encoding="UTF-8"?><svg id="_6" xmlns="http://www.w3.org/2000/svg" viewBox="0 0 419.1307 461.9622"><defs><style>.cls-1{fill:none;stroke:#545959;stroke-linecap:round;}.cls-1,.cls-2,.cls-3,.cls-4{stroke-linejoin:round;stroke-width:9.8784px;}.cls-5{fill:#555959;}.cls-2{fill:#f4f3ee;}.cls-2,.cls-3,.cls-4{stroke:#555959;}.cls-3{fill:#deac4e;}.cls-4{fill:#c67127;}</style></defs><path class="cls-3" d="M203.5155,428.206v-49.9865h-27.2769v18.6213s-30.9313-.5835-48.1457,13.7132c0,0-9.8045,6.7107-11.7589,18.6733,0,0-1.6626,7.586,14.3848,5.5436s17.8055-12.0089,38.8129-11.3194c0,0,11.4083-.3323,11.9615,5.7138,0,0,1.1083,5.9547,9.0385,5.9547,10.0661,0,12.9838-2.3915,12.9838-6.9139Z"/><path class="cls-3" d="M203.5155,428.206v-49.9865h27.2769v18.6213s30.9313-.5835,48.1457,13.7132c0,0,9.8045,6.7107,11.7589,18.6733,0,0,1.6626,7.586-14.3848,5.5436s-17.8055-12.0089-38.8129-11.3194c0,0-11.4083-.3323-11.9615,5.7138,0,0-1.1083,5.9547-9.0385,5.9547-10.0661,0-12.9838-2.3915-12.9838-6.9139Z"/><path class="cls-2" d="M297.1031,303.7466s73.0635-3.0943,101.2031,6.9238c0,0,17.1688,4.5195,14.2184,23.9918,0,0-4.0104,11.8607-21.0119,10.1329-17.0016-1.7278-43.9337-9.7584-43.9337-9.7584l34.208,10.1608s19.038,7.659,14.3479,24.2899c-4.8762,17.2908-26.6315,11.2326-29.0093,10.2849-4.8829-1.9462-15.0804-5.3517-39.5193-19.0143,0,0,40.0693,25.0966,42.3968,31.6463s4.3337,10.8376-3.5667,19.1575c-7.9004,8.3199-22.9257,3.7739-22.9257,3.7739,0,0-33.8398-6.1695-51.5886-37.9344-7.8681-14.0816-7.6899-33.5097-9.6297-45.429l14.8107-28.2256Z"/><path class="cls-4" d="M59.0529,190.4701c-3.449,14.1732-14.7944,70.6551,7.9948,124.195,8.227,19.328,24.2521,34.3541,44.039,41.4064,13.4067,4.7783,32.0764,9.6185,57.4914,12.8681,0,0,8.2564.6629,7.7319,8.6549l-.0714.6249c-.3393,2.9703,2.0072,5.5633,4.9965,5.5214l42.5388-.597c2.9448-.0413,5.2049-2.6251,4.8541-5.5492h0s-.9847-8.2538,6.8931-8.5455,48.6847-.2918,84.6658-30.6359,29.0151-125.4245,13.2413-152.8692c-14.7055-25.586-239.6983-2.1154-270.1061,1.181-2.0742.2249-3.7759,1.7179-4.2692,3.7451Z"/><path class="cls-2" d="M59.931,187.0974s15.5854,18.7427,32.5392,18.7427,25.0481-14.8803,25.0481-14.8803c0,0,9.3366,14.8803,26.2593,14.8803s24.2169-14.5885,24.2169-14.5885c0,0,9.4987,14.5885,25.1732,14.5885s25.8865-15.172,25.8865-15.172c0,0,8.7531,15.172,25.9675,15.172s24.6585-14.2967,24.6585-14.2967c0,0,3.6432,13.1297,31.0696,13.1297s33.4679-17.6838,33.4679-17.6838c0,0,8.6541-18.3978,8.2552-33.6677-.4948-18.9406-13.9365-44.9326-22.2862-54.561,0,0,6.3847-19.5486,27.3921-24.3628,0,0-31.9226-4.8627-43.3279,4.3766,0,0,38.078-26.697,36.3264-43.7655,0,0-38.9523,24.9463-60.8351,26.2593,0,0-10.9414-20.4816-33.6994-17.8998,0,0-76.6168-.0441-127.1524,22.2763,0,0-45.3123,14.3697-57.1147,74.1461,0,0-3.6908,17.663-1.8449,47.3067Z"/><path class="cls-3" d="M6.9628,198.2218c2.0784-14.9358,12.4246-29.4982,24.2675-38.4497,7.8725-5.9503,17.2221-9.7326,26.7611-12.0529,4.8356-1.1763,9.075-2.1569,14.0268-2.6437,4.3008-.4228,9.7941-1.2409,13.4739,1.5954,1.8153,1.3992,2.8808,3.4497,2.9929,5.7403.4424,9.0449,3.6519,29.943-1.3082,33.9366-4.5473,3.6612-37.769,21.6016-71.9622,21.4246-5.068-.0262-8.9503-4.5307-8.2518-9.5504Z"/><ellipse class="cls-5" cx="115.2777" cy="119.9183" rx="14.4097" ry="19.8724"/><path class="cls-1" d="M121.1664,265.95s40.7599,31.3083,19.4938,64.3888-56.1615,9.4103-56.1615,9.4103"/><path class="cls-1" d="M294.5435,256.9414s-55.5279,30.7176-33.6712,69.7053c19.5046,34.792,59.3146,11.7665,59.3146,11.7665"/></svg>