<?xml version="1.0" encoding="UTF-8"?><svg id="_4" xmlns="http://www.w3.org/2000/svg" viewBox="0 0 419.1307 461.9622"><defs><style>.cls-1,.cls-2,.cls-3,.cls-4,.cls-5,.cls-6,.cls-7,.cls-8{stroke-linejoin:round;}.cls-1,.cls-2,.cls-3,.cls-5,.cls-6,.cls-8{stroke:#555959;}.cls-1,.cls-4{fill:#faeaa9;}.cls-1,.cls-5,.cls-6{stroke-width:7.8344px;}.cls-9{fill:#bbdba1;}.cls-2{stroke-width:7px;}.cls-2,.cls-3,.cls-5{fill:none;}.cls-3,.cls-8{stroke-width:9.2609px;}.cls-10{fill:#575959;}.cls-11{fill:#555959;}.cls-12{fill:#fce9c9;}.cls-4,.cls-7{stroke:#5a5b5b;stroke-width:10px;}.cls-6{fill:#f7f4aa;}.cls-7,.cls-8{fill:#89c672;}</style></defs><path class="cls-4" d="M210.9265,46.5708c-73.1036,0-107.815,41.55-124.2966,81.1968l9.9768,13.0731,42.532-14.3574,39.0146,14.3574,38.9608-14.3574,60.2537,18.7878,32.7851-29.2408,21.7295,15.2569c-16.1075-40.6671-49.939-84.7164-120.9559-84.7164Z"/><path class="cls-7" d="M210.9265,46.5708c71.0169,0,104.8484,44.0494,120.9559,84.7164l19.9165,13.9839,18.0923-14.9539C332.4882,10.0458,203.5351,18.4529,203.5351,18.4529c0,0-94.8329-5.0166-142.0591,76.3546l25.1539,32.9602c16.4816-39.6469,51.1929-81.1968,124.2966-81.1968Z"/><ellipse class="cls-11" cx="178.1534" cy="109.8584" rx="17.9314" ry="11.0226" transform="translate(43.238 269.875) rotate(-81.5247)"/><path class="cls-11" d="M234.5474,92.1228c-6.0211.8972-9.719,9.565-8.2595,19.3601,1.4595,9.795,7.5239,17.0082,13.545,16.111,6.0211-.8972,9.7191-9.5651,8.2595-19.3601-1.4595-9.7951-7.5239-17.0082-13.545-16.111Z"/><polyline class="cls-3" points="98.4043 294.4986 177.7088 336.8954 152.8162 445.8837"/><path class="cls-12" d="M302.9125,437.8201c-1.6101.8845-3.2318,1.7463-4.8651,2.5861,1.6333-.8397,3.2551-1.7017,4.8651-2.5861Z"/><path class="cls-12" d="M293.3901,442.7245c-1.4524.6995-2.9131,1.3813-4.3825,2.0453,1.4694-.664,2.9301-1.3458,4.3825-2.0453Z"/><path class="cls-12" d="M399.4621,206.8727c-3.75-4.1045-10.0146-10.96-22.2397-16.2676-20.5635-6.3545-39.5864-1.7373-59.7251,3.1484-21.9058,5.3154-46.7358,11.3398-76.8433,3.543-.0991-.0264-.1968-.0557-.293-.0898-77.3633-27.4512-106.1802-15.8135-134.0498-4.5596-21.9291,8.8559-44.606,17.9937-89.2346,6.6478-1.3765,10.418-2.0767,20.9916-2.0767,31.6862,0,10.574.6871,21.029,2.0328,31.3331.7831-.0618,1.5747.1243,2.2399.5762,37.1797,25.208,59.1045,18.9053,86.8618,10.9229,23.6997-6.8145,50.562-14.5361,91.9775-3.1162.1533.042.3037.0947.4497.1582,17.9949,7.7233,30.2804,12.9937,40.9564,15.9117,10.763,1.7761,20.8068,2.2866,30.2405,1.932,13.4927-1.8494,30.2888-6.872,57.1796-14.9141,26.4122-7.8975,49.3912-14.7508,73.2225.8611,2.6375-14.2588,3.97-28.8469,3.97-43.6649,0-6.8785-.2975-13.7053-.868-20.475-1.2244-.8314-2.4113-2.1129-3.8006-3.6333Z"/><path class="cls-12" d="M357.1916,354.9303c-12.4556,3.1777-24.9116,7.8203-40.3447,15.043-18.085,11.0205-36.7119,14.7139-55.4546,14.7148-19.355.001-38.8335-3.9365-57.9863-7.8066-14.3164-2.8926-29.1191-5.8838-43.4487-7.0977-10.8047-.0977-21.959,1.0996-32.7485,2.2559-24.4494,2.6166-49.5006,5.2953-70.5227-7.4556,4.8794,6.8596,10.1505,13.4155,15.8033,19.6461,17.8983,19.7273,38.7047,35.1989,61.8416,45.985,23.8368,11.1124,49.1492,16.7469,75.2343,16.7469s51.3976-5.6345,75.2343-16.7469c23.1369-10.7861,43.9434-26.2578,61.8417-45.985,9.0639-9.9901,17.1464-20.8163,24.2028-32.3927-2.7487.8608-5.5465,1.4156-8.2261,1.9395-1.7959.3506-3.6528.7139-5.4263,1.1533Z"/><path class="cls-12" d="M321.1817,426.4932c-1.9083,1.3262-3.8376,2.6186-5.7867,3.8781,1.9492-1.2595,3.8784-2.5518,5.7867-3.8781Z"/><path class="cls-12" d="M374.4333,373.5858c-1.6238,2.2774-3.2967,4.5096-4.9954,6.7169,1.6988-2.2073,3.3716-4.4395,4.9954-6.7169Z"/><path class="cls-12" d="M70.3446,106.4282l-10.3528-13.5657c-4.549,6.053-8.7738,12.3619-12.6815,18.9012,5.2195-1.7148,11.2656-2.9417,17.4761-4.1947,1.8517-.3737,3.7149-.7498,5.5582-1.1408Z"/><path class="cls-9" d="M269.7587,288.6989c-9.4338.3546-19.4775-.1559-30.2405-1.932,10.3505,2.829,19.1885,3.4468,30.2405,1.932Z"/><path class="cls-9" d="M126.4636,365.0788c10.5684-1.1318,21.4819-2.3008,32.2754-2.3008.4722,0,.9438.002,1.416.0068.0864.001.1729.0049.2588.0127,14.7734,1.2412,29.8237,4.2822,44.3789,7.2227,38.1089,7.7012,74.103,14.9746,108.5679-6.1201.1104-.0674.2246-.1289.3423-.1836,15.9272-7.4629,28.813-12.2666,41.7817-15.5752,1.9668-.4873,3.9106-.8672,5.7905-1.2344,6.8554-1.3406,12.8492-2.5271,16.8969-8.0645,3.901-7.5052,7.4005-15.2873,10.4858-23.3272,1.8633-4.8557,3.5547-9.7684,5.0838-14.7304,1.4425-5.7803,2.7502-12.1312,4.011-19.3349-21.6548-15.0596-42.5444-8.8125-68.8091-.958-18.4878,5.5283-39.5156,11.8145-64.8159,11.8164-19.8042,0-42.2188-3.8477-68.105-14.9258-39.3843-10.8057-65.1865-3.3877-87.9541,3.1582-27.1245,7.7988-50.709,14.5791-87.6377-8.5391.7833,13.5778,9.3848,41.1628,15.6765,56.8942,1.8419,4.0177,3.7979,7.9596,5.8572,11.8299,21.4658,31.0817,52.1005,27.8262,84.499,24.353Z"/><path class="cls-9" d="M378.172,338.8424c.3781-.5172.7454-1.0582,1.0884-1.6552,6.5467-11.3913,10.9256-22.1545,14.4811-36.4024-1.5291,4.962-3.2205,9.8748-5.0838,14.7304-3.0853,8.0399-6.5848,15.822-10.4858,23.3272Z"/><path class="cls-9" d="M41.9646,340.7258c-2.0594-3.8703-4.0154-7.8122-5.8572-11.8299,1.7763,4.4414,3.369,7.9402,4.5491,9.9095.4301.6627.8704,1.2866,1.3082,1.9204Z"/><path class="cls-9" d="M41.3671,122.3541c-4.063,7.7426-7.7032,15.7776-10.8942,24.0928-3.4437,8.9739-6.3041,18.1414-8.6036,27.465-1.6373,6.9559-2.7723,13.4608-3.0287,18.62,42.3701,10.7793,63.0181,2.4414,84.8496-6.375,29.0615-11.7363,59.1128-23.8701,138.8657,4.4004,28.3428,7.3018,51.1914,1.7568,73.291-3.6064,13.584-3.2959,26.6855-6.4746,40.271-6.4746,7.5811,0,15.3115.9893,23.3633,3.501.1167.0361.2314.0781.3433.127,11.1419,4.8021,17.9879,10.9085,22.2438,15.3053-2.3959-18.2015-6.8724-35.9251-13.4105-52.9626-3.0334-7.9047-6.4709-15.5577-10.2931-22.946-.6212-.7526-1.25-1.4924-1.892-2.2107l-24.6738,23.9809-41.646-29.2408-32.7851,29.2408-60.2537-18.7878-38.9608,14.3574-39.0146-14.3574-42.532,14.3574-21.5794-28.2764c-2.9174.6648-5.8994,1.2694-8.8562,1.8661-9.8338,1.9849-19.9285,4.0338-24.8041,7.9238Z"/><path class="cls-9" d="M41.3671,122.3541c-.8983.7167-1.6401,1.4885-2.1481,2.3419-4.5748,7.6859-12.864,30.1586-17.3497,49.2159,2.2994-9.3236,5.1599-18.4911,8.6036-27.465,3.191-8.3152,6.8312-16.3502,10.8942-24.0928Z"/><path class="cls-9" d="M402.0683,199.4095c.648.6694,1.24,1.3018,1.7737,1.8812-1.0742-16.6436-4.3374-38.6328-13.2646-58.0322-3.4712-7.5427-7.5573-14.1184-12.2126-19.7576,3.8221,7.3882,7.2596,15.0413,10.2931,22.946,6.538,17.0375,11.0145,34.7611,13.4105,52.9626Z"/><path class="cls-10" d="M417.0052,197.9586c-2.3345-17.975-6.5468-35.2822-12.4106-51.6725-3.1274-8.7415-6.7245-17.2222-10.7573-25.4044-1.613-3.2728-3.2958-6.4979-5.0461-9.6728-.226-.4099-.4626-.8116-.6909-1.2198l-6.5898,6.4047-2.513,2.4424-2.0496,1.9921-.4752.4619c.642.7183,1.2708,1.4581,1.892,2.2107,4.6553,5.6392,8.7415,12.2148,12.2126,19.7576,8.9272,19.3994,12.1904,41.3887,13.2646,58.0322-.5338-.5794-1.1257-1.2118-1.7737-1.8812-4.2559-4.3968-11.1019-10.5032-22.2438-15.3053-.1118-.0488-.2266-.0908-.3433-.127-8.0518-2.5117-15.7822-3.501-23.3633-3.501-13.5854,0-26.687,3.1787-40.271,6.4746-22.0996,5.3633-44.9482,10.9082-73.291,3.6064-79.7529-28.2705-109.8042-16.1367-138.8657-4.4004-21.8315,8.8164-42.4795,17.1543-84.8496,6.375.2564-5.1592,1.3915-11.6641,3.0287-18.62,4.4857-19.0574,12.7748-41.53,17.3497-49.2159.5079-.8533,1.2498-1.6252,2.1481-2.3419,4.8756-3.89,14.9703-5.9388,24.8041-7.9238,2.9568-.5967,5.9388-1.2013,8.8562-1.8661l-2.3365-3.0616-2.3463-3.0745c-1.8433.391-3.7065.7672-5.5582,1.1408-6.2104,1.2531-12.2565,2.4799-17.4761,4.1947,3.9077-6.5392,8.1325-12.8482,12.6815-18.9012l-9.4221-12.3461c-.9135,1.1716-1.8228,2.3474-2.7152,3.5392-1.0677,1.426-2.1202,2.8663-3.1572,4.3207-3.1109,4.3632-6.0824,8.8529-8.9069,13.461-1.883,3.0721-3.7007,6.1968-5.451,9.3716s-3.433,6.4-5.0461,9.6728c-2.4196,4.9092-4.6824,9.926-6.7811,15.0421-2.0987,5.1161-4.0331,10.3315-5.796,15.6381-1.1752,3.5377-2.2742,7.116-3.2947,10.7324-1.0206,3.6163-1.9626,7.2708-2.824,10.9609-.4307,1.8451-.8412,3.699-1.2313,5.5616-1.1703,5.5878-2.1567,11.2532-2.9517,16.988-1.59,11.4695-2.4147,23.2167-2.4147,35.1761s.8247,23.7066,2.4147,35.1761c.53,3.8232,1.145,7.6155,1.843,11.3746,4.1874,22.5544,11.3574,43.9115,21.0358,63.5486,1.6131,3.2729,3.2958,6.4979,5.0461,9.6728s3.568,6.2996,5.451,9.3716c2.8245,4.6081,5.796,9.0978,8.9069,13.461,1.037,1.4543,2.0895,2.8947,3.1572,4.3207,2.1354,2.8519,4.3317,5.6464,6.5867,8.381,1.4094,1.7091,2.8417,3.3948,4.2964,5.0566,2.9095,3.3235,5.9085,6.5512,8.9928,9.6782,1.5422,1.5635,3.1057,3.1019,4.6899,4.6144,4.5944,4.3865,9.3636,8.5565,14.2947,12.4955,2.4655,1.9695,4.9715,3.8813,7.5162,5.7335,2.5448,1.8522,5.1283,3.645,7.7491,5.3763,31.449,20.7764,68.2515,32.72,107.5849,32.72,6.8626,0,13.6462-.3704,20.3392-1.0825.3737-.0397.7465-.0819,1.1196-.1238,4.6202-.519,9.1949-1.2061,13.7213-2.0509.6424-.1199,1.2834-.2441,1.9238-.3704,7.4813-1.4758,14.8232-3.3921,22.007-5.718,5.326-1.7244,10.5693-3.662,15.7104-5.8292,1.5493-.6531,3.0897-1.3257,4.621-2.0178,1.4694-.664,2.9301-1.3458,4.3825-2.0453,1.5626-.7525,3.115-1.5253,4.6573-2.3183,1.6333-.8398,3.255-1.7017,4.8651-2.5861,4.2447-2.3317,8.4076-4.8157,12.4825-7.4488,1.9491-1.2595,3.8784-2.5518,5.7867-3.8781,1.1239-.7811,2.2407-1.5735,3.3503-2.377,2.2191-1.6071,4.4092-3.2587,6.569-4.9542,2.1597-1.6955,4.2892-3.4349,6.387-5.2172s4.164-3.6077,6.1973-5.4752c1.0166-.9338,2.025-1.8781,3.025-2.8328,3.8022-3.6302,7.4848-7.4088,11.0402-11.3275,2.3702-2.6125,4.684-5.2872,6.939-8.0219,1.6169-1.9609,3.1927-3.9632,4.7485-5.9848,1.6987-2.2073,3.3716-4.4395,4.9954-6.7169,3.1109-4.3632,6.0824-8.8529,8.9069-13.461,1.8831-3.0721,3.7007-6.1968,5.451-9.3716s3.433-6.3999,5.0461-9.6728c1.6131-3.2728,3.1565-6.5935,4.628-9.9595,2.2073-5.049,4.2528-10.2,6.1293-15.4449,5.8638-16.3903,10.0761-33.6975,12.4106-51.6725,1.4008-10.785,2.1255-21.8104,2.1255-33.0224s-.7248-22.2374-2.1255-33.0224ZM404.1307,230.981c0,14.818-1.3326,29.4061-3.97,43.6649-23.8312-15.6119-46.8103-8.7585-73.2225-.8611-26.8907,8.0421-43.6869,13.0647-57.1796,14.9141-11.052,1.5148-19.8901.897-30.2405-1.932-10.676-2.918-22.9614-8.1884-40.9564-15.9117-.146-.0635-.2964-.1162-.4497-.1582-41.4155-11.4199-68.2778-3.6982-91.9775,3.1162-27.7573,7.9824-49.6821,14.2852-86.8618-10.9229-.6652-.4519-1.4568-.6379-2.2399-.5762-1.3457-10.3041-2.0328-20.7591-2.0328-31.3331,0-10.6946.7002-21.2681,2.0767-31.6862,44.6286,11.3459,67.3055,2.2081,89.2346-6.6478,27.8696-11.2539,56.6865-22.8916,134.0498,4.5596.0962.0342.1938.0635.293.0898,30.1074,7.7969,54.9375,1.7725,76.8433-3.543,20.1387-4.8857,39.1616-9.5029,59.7251-3.1484,12.2251,5.3076,18.4897,12.1631,22.2397,16.2676,1.3893,1.5204,2.5762,2.8019,3.8006,3.6333.5705,6.7697.868,13.5966.868,20.475ZM397.7527,281.4498c-1.2609,7.2037-2.5685,13.5546-4.011,19.3349-3.5555,14.2479-7.9344,25.0111-14.4811,36.4024-.3431.597-.7104,1.1381-1.0884,1.6552-4.0477,5.5374-10.0415,6.7239-16.8969,8.0645-1.8799.3672-3.8237.7471-5.7905,1.2344-12.9688,3.3086-25.8545,8.1123-41.7817,15.5752-.1177.0547-.2319.1162-.3423.1836-34.4648,21.0947-70.459,13.8213-108.5679,6.1201-14.5552-2.9404-29.6055-5.9814-44.3789-7.2227-.0859-.0078-.1724-.0117-.2588-.0127-.4722-.0049-.9438-.0068-1.416-.0068-10.7935,0-21.707,1.1689-32.2754,2.3008-32.3984,3.4731-63.0332,6.7287-84.499-24.353-.4377-.6339-.8781-1.2577-1.3082-1.9204-1.1801-1.9692-2.7728-5.4681-4.5491-9.9095-6.2917-15.7314-14.8932-43.3165-15.6765-56.8942,36.9287,23.1182,60.5132,16.3379,87.6377,8.5391,22.7676-6.5459,48.5698-13.9639,87.9541-3.1582,25.8862,11.0781,48.3008,14.9258,68.105,14.9258,25.3003-.002,46.3281-6.2881,64.8159-11.8164,26.2646-7.8545,47.1543-14.1016,68.8091.958ZM346.6413,384.2302c-17.8983,19.7273-38.7048,35.1989-61.8417,45.985-23.8367,11.1124-49.1492,16.7469-75.2343,16.7469s-51.3975-5.6345-75.2343-16.7469c-23.1369-10.7861-43.9434-26.2578-61.8416-45.985-5.6529-6.2306-10.924-12.7865-15.8033-19.6461,21.0221,12.7509,46.0733,10.0722,70.5227,7.4556,10.7896-1.1562,21.9438-2.3535,32.7485-2.2559,14.3296,1.2139,29.1323,4.2051,43.4487,7.0977,19.1528,3.8701,38.6313,7.8076,57.9863,7.8066,18.7427-.001,37.3696-3.6943,55.4546-14.7148,15.4331-7.2227,27.8892-11.8652,40.3447-15.043,1.7734-.4395,3.6304-.8027,5.4263-1.1533,2.6796-.5239,5.4774-1.0787,8.2261-1.9395-7.0563,11.5764-15.1389,22.4026-24.2028,32.3927Z"/><path class="cls-1" d="M151.0441,193.7928l58.6605-9.8139,19.3149,12.4721,48.2916-17.2786-7.0887,54.9372-50.9498,11.5191-39.0925-17.355s-17.1738-16.7592-17.1738-15.8731-11.9621-18.6078-11.9621-18.6078Z"/><path class="cls-6" d="M248.3043,189.5507c1.2986,2.5067,2.5386,5.3061,3.6958,8.4317,10.1917,27.5272-18.2901,74.4451-30.6263,92.8517-2.3655,3.5296-8.3722,3.5296-10.7377,0-12.3362-18.4066-40.818-65.3245-30.6263-92.8517,1.4129-3.8161,2.5637-6.4422,4.1793-9.3467l25.5156-4.6567,19.3149,12.4721,19.2848-6.9004Z"/><line class="cls-2" x1="151.0441" y1="193.7928" x2="167.0923" y2="136.7702"/><polygon class="cls-8" points="15.5555 274.1181 15.5555 234.5527 65.1762 251.8313 98.4043 294.4986 80.6634 313.5494 47.4545 278.9921 15.5555 274.1181"/><path class="cls-8" d="M36.2495,241.7582c-9.2633,11.3621-20.5118,29.9007-26.0712,57.102,0,0-16.647,71.5757,19.9928,85.4745,0,0,32.2651,15.4725,52.5839-63.1455,3.6774-14.2286,5.8746-26.5865,7.0644-37.2042l-24.6433-32.1536-28.9267-10.0732Z"/><path class="cls-11" d="M277.3674,152.7712c-.7471,0-1.499-.1113-2.2319-.3398l-57.0551-17.7907c-.4962-.1547-1.0296-.1412-1.5173.0385l-35.8163,13.1984c-1.6724.6162-3.5103.6191-5.1836.001l-35.7512-13.1561c-.5051-.1859-1.0586-.1934-1.5686-.0212l-39.2378,13.2457c-3.0498,1.0264-6.4106-.001-8.3608-2.5566l-41.6211-54.538c-2.4141-3.1633-1.8067-7.6846,1.3567-10.0985l4.322-3.2982c1.0353-.79,2.515-.5913,3.3051.444l40.2713,52.7692c.6134.8037,1.6708,1.127,2.6288.8036l35.8325-12.0957c1.6226-.5469,3.3823-.5234,4.9893.0684l35.6074,13.1034c.526.1936,1.1038.1934,1.6297-.0004l35.5543-13.1021c1.5508-.5723,3.2471-.6152,4.8257-.123l54.9243,17.1259c.7909.2466,1.6532.0601,2.2715-.4913l28.6186-25.5242c2.5986-2.3184,6.4517-2.543,9.3018-.541l34.9071,24.5089c.9333.6553,2.2017.5488,3.0127-.2528l28.4803-28.1511c.9262-.9155,2.4192-.9068,3.3348.0194l3.347,3.3861c3.0598,3.0955,3.0308,8.0852-.0647,11.145l-30.4083,30.0575c-2.5791,2.5498-6.6133,2.8887-9.582.8037l-35.2511-24.7502c-.8961-.6292-2.1074-.5587-2.9246.1701l-26.9537,24.0392c-1.3936,1.2432-3.1768,1.9033-4.9927,1.9033Z"/><polyline class="cls-5" points="265.8347 233.2815 302.248 310.1523 357.0858 280.4497 382.6756 340.2522"/><polyline class="cls-2" points="98.4043 294.4986 177.7088 336.8954 152.8162 445.8837"/><line class="cls-2" x1="275.4808" y1="182.4366" x2="319.785" y2="128.3855"/></svg>