<?xml version="1.0" encoding="UTF-8"?><svg id="_6" xmlns="http://www.w3.org/2000/svg" viewBox="0 0 419.1307 461.9622"><defs><style>.cls-1{fill:#faeaa9;}.cls-1,.cls-2,.cls-3,.cls-4,.cls-5,.cls-6{stroke:#555959;stroke-linejoin:round;}.cls-1,.cls-6{stroke-width:9.2609px;}.cls-7{fill:#555959;}.cls-2{fill:#f5e5a7;stroke-width:6.1739px;}.cls-3{stroke-width:5.1449px;}.cls-3,.cls-4{fill:#f7f4aa;}.cls-4{stroke-width:7.8344px;}.cls-5{stroke-width:10.2898px;}.cls-5,.cls-6{fill:#89c672;}</style></defs><path class="cls-2" d="M137.2162,403.5844c5.7346-10.1707,2.6802-35.1629,1.046-55.9678-.0837-1.0654.7657-1.97,1.8343-1.97h26.3273c1.0474,0,1.8841.8726,1.8387,1.919-.3716,8.5663-1.7327,43.7315.0406,62.9863.0295.3202.1393.6154.3236.8789,1.4115,2.0185,7.7723,11.565,8.9389,21.2607.1688,1.4025-1.2197,2.4777-2.526,1.9401-3.2562-1.3401-8.7011-3.9331-12.0722-7.4335-1.0579-1.0985-2.0748-.0878-3.1334,1.0099-3.8147,3.9556-8.0557,9.4492-13.3883,14.7449-.882.8759-2.3734.586-2.9198-.5305-1.9891-4.0643-.7197-10.5031-1.3105-18.4686-.1046-1.4098-1.6669-2.1991-2.8454-1.4183-4.3384,2.8745-12.7601,8.1309-18.6178,9.7498-1.4416.3984-2.7226-1.0031-2.2135-2.4095,2.0713-5.722,7.2403-19.0627,14.4204-23.6215.5979-.3796,3.909-2.0531,4.2569-2.67Z"/><path class="cls-2" d="M282.7201,403.5844c-5.7346-10.1707-2.6802-35.1629-1.046-55.9678.0837-1.0654-.7657-1.97-1.8343-1.97h-26.3273c-1.0474,0-1.8841.8726-1.8387,1.919.3716,8.5663,1.7327,43.7315-.0406,62.9863-.0295.3202-.1393.6154-.3236.8789-1.4115,2.0185-7.7723,11.565-8.9389,21.2607-.1688,1.4025,1.2197,2.4777,2.526,1.9401,3.2562-1.3401,8.7011-3.9331,12.0722-7.4335,1.0579-1.0985,2.0748-.0878,3.1334,1.0099,3.8147,3.9556,8.0557,9.4492,13.3883,14.7449.882.8759,2.3734.586,2.9198-.5305,1.9891-4.0643.7197-10.5031,1.3105-18.4686.1046-1.4098,1.6669-2.1991,2.8454-1.4183,4.3384,2.8745,12.7601,8.1309,18.6178,9.7498,1.4416.3984,2.7226-1.0031,2.2135-2.4095-2.0713-5.722-7.2403-19.0627-14.4204-23.6215-.5979-.3796-3.909-2.0531-4.2569-2.67Z"/><path class="cls-6" d="M50.0168,206.3629s-30.2911,20.5734-40.6871,71.4406c0,0-16.647,71.5757,19.9928,85.4745,0,0,32.2651,15.4725,52.5839-63.1455,16.8091-65.038,2.7575-90.5603,2.7575-90.5603,0,0-13.4942-23.6457-34.6471-3.2093Z"/><path class="cls-6" d="M369.1139,206.3629s30.2911,20.5734,40.6871,71.4406c0,0,16.647,71.5757-19.9928,85.4745,0,0-32.2651,15.4725-52.5839-63.1455-16.8091-65.038-2.7575-90.5603-2.7575-90.5603,0,0,13.4942-23.6457,34.6471-3.2093Z"/><path class="cls-5" d="M209.9682,394.4997s-172.2795.388-172.2795-180.62C37.6887,15.8738,205.8315,24.7738,205.8315,24.7738c0,0,176.4161-11.5117,176.4161,184.8328,0,185.2811-172.2795,184.8931-172.2795,184.8931Z"/><path class="cls-1" d="M213.2229,322.1665s-119.6986-5.6455-137.2495-100.5521c-1.8447-9.9753-2.1384-20.1721-1.1335-30.2667,3.7036-37.2064,24.266-138.456,138.3831-138.456,109.0313,0,130.4284,103.8319,134.5706,139.8392,1.0342,8.9899.6444,18.0805-1.2115,26.9373-6.6105,31.5464-32.6703,102.4983-133.3591,102.4983Z"/><ellipse class="cls-7" cx="180.4498" cy="116.1793" rx="17.9314" ry="11.0226" transform="translate(38.9441 277.5357) rotate(-81.5247)"/><ellipse class="cls-7" cx="239.4866" cy="116.1793" rx="11.0226" ry="17.9314" transform="translate(-14.5075 36.5648) rotate(-8.4753)"/><path class="cls-4" d="M245.9633,192.0879c-11.303-30.5289-30.5046-29.9455-35.0288-29.3303-.6459.0878-1.2869.0878-1.9327,0-4.5242-.6152-23.7258-1.1985-35.0288,29.3303-10.1917,27.5272,18.2901,74.4451,30.6263,92.8517,2.3655,3.5296,8.3722,3.5296,10.7377,0,12.3362-18.4066,40.818-65.3245,30.6263-92.8517Z"/><path class="cls-3" d="M207.1022,166.8242c-1.4648,7.7072-7.9121,13.3406-14.4004,12.5826s-10.5607-7.6205-9.0959-15.3277,7.9121-13.3406,14.4004-12.5826c6.4883.758,10.5607,7.6205,9.0959,15.3277Z"/><path class="cls-3" d="M212.8342,166.8242c1.4648,7.7072,7.9121,13.3406,14.4004,12.5826,6.4883-.758,10.5607-7.6205,9.0959-15.3277s-7.9121-13.3406-14.4004-12.5826c-6.4883.758-10.5607,7.6205-9.0959,15.3277Z"/></svg>