<?xml version="1.0" encoding="UTF-8"?><svg id="_1" xmlns="http://www.w3.org/2000/svg" viewBox="0 0 419.1307 461.9622"><defs><style>.cls-1{fill:#575959;}.cls-2{fill:#f4dbbd;}.cls-3{fill:#bbdba1;stroke:#575959;stroke-miterlimit:10;stroke-width:7px;}</style></defs><path class="cls-2" d="M209.5654,454.4624c-111.4194,0-202.0654-100.2534-202.0654-223.4814S98.146,7.5,209.5654,7.5s202.0654,100.2529,202.0654,223.481-90.646,223.4814-202.0654,223.4814Z"/><path class="cls-1" d="M209.5654,15c26.0851,0,51.3975,5.6345,75.2343,16.7469,23.1369,10.7861,43.9434,26.2577,61.8416,45.985,17.9932,19.8319,32.1295,42.951,42.0165,68.7151,10.2671,26.7547,15.4729,55.1961,15.4729,84.5341s-5.2058,57.7794-15.4729,84.5341c-9.887,25.7641-24.0233,48.8832-42.0165,68.7151-17.8982,19.7273-38.7047,35.1989-61.8416,45.985-23.8368,11.1124-49.1492,16.7469-75.2343,16.7469s-51.3976-5.6345-75.2344-16.7469c-23.1368-10.7861-43.9434-26.2577-61.8416-45.985-17.9932-19.8319-32.1295-42.951-42.0165-68.7151-10.2671-26.7547-15.4729-55.1961-15.4729-84.5341s5.2058-57.7794,15.4729-84.5341c9.887-25.7641,24.0233-48.8832,42.0165-68.7151,17.8982-19.7273,38.7048-35.1989,61.8416-45.985,23.8368-11.1124,49.1493-16.7469,75.2344-16.7469M209.5654,0C93.8256,0,0,103.4138,0,230.9811s93.8256,230.9811,209.5654,230.9811,209.5653-103.4138,209.5653-230.9811S325.3051,0,209.5654,0h0Z"/><path class="cls-3" d="M401.5736,279.8907c-51.9691-38.8088-97.9891,39.8494-204.3919-5.8193-88.1094-24.2989-108.6079,40.034-179.8731-8.2842-3.2688,13.5128,14.1485,64.5487,20.3799,74.8741,30.0732,46.4123,77.429,25.1868,122.4327,25.6236,51.9415,4.364,105.5337,30.9171,155.0668.6006,13.5142-6.3324,26.8765-11.7084,41.1621-15.3527,9.7485-2.4151,19.9996-2.2556,25.9452-12.6014,9.8268-17.0993,14.8574-33.0221,19.2783-59.0406Z"/><path class="cls-3" d="M15.2894,195.2221c102.0015,27.2808,84.8265-51.4941,226.2422-1.3139,56.5798,14.6532,92.2703-20.511,136.9077-6.5905,22.9866,9.9088,26.2442,25.1316,29.1927,19.4459-1.6787-42.111-15.0582-95.0623-60.7925-108.2227-23.0165-6.9216-46.6558,3.5179-70.1096.321-72.3469-6.7952-111.3954-38.963-183.8978,3.3193-14.0108,10.1522-49.2365,8.3198-56.6206,20.725-6.4785,10.8838-21.2051,53.066-20.9222,72.3159ZM14.0397,283.2124"/></svg>