<?xml version="1.0" encoding="UTF-8"?><svg id="_レイヤー_2" xmlns="http://www.w3.org/2000/svg" xmlns:xlink="http://www.w3.org/1999/xlink" viewBox="0 0 311.811 311.811"><defs><style>.cls-1{fill:none;}.cls-2{fill:#845425;}.cls-3,.cls-4{fill:#a36b29;}.cls-4{stroke:#000;stroke-linejoin:round;stroke-width:8px;}.cls-5{fill:#683f1a;}.cls-6{clip-path:url(#clippath);}</style><clipPath id="clippath"><path class="cls-1" d="M43.2467,302.1695l38.8546-32.0012s.9174-61.0933,35.203-64.3834c0,0,24.1582-4.6928,29.8425,32.6593,0,0,1.9427-34.5814,26.603-34.8333,0,0,35.7082-2.1551,35.7082,64.618l87.6508,33.5099s10.7115-161.9081-148.9547-152.718C3.7445,157.3327,43.2467,302.1695,43.2467,302.1695Z"/></clipPath></defs><polygon class="cls-4" points="131.5606 159.1916 127.2434 109.9429 146.4548 109.9429 149.9086 156.0745 131.5606 159.1916"/><path class="cls-4" d="M198.4768,153.7887s-14.2461-39.7894-52.022-43.8458l3.4537,46.1316,48.5682-2.2858Z"/><path class="cls-3" d="M43.2466,306.1695c-.4062,0-.8145-.0615-1.2119-.1875-1.293-.4121-2.29-1.4502-2.6475-2.7598-.7549-2.7686-18.1084-68.3418,15.3096-114.8057,18.9307-26.3193,50.2969-40.918,93.2275-43.3887,4.4209-.2549,8.8164-.3838,13.0635-.3838,43.0693,0,77.1318,13.0586,101.2422,38.8115,43.123,46.0635,39.0645,115.6084,38.8701,118.5469-.084,1.2666-.7637,2.4189-1.833,3.1045-.6523.418-1.4033.6318-2.1582.6318-.4824,0-.9658-.0869-1.4287-.2637l-87.6514-33.5098c-1.5488-.5918-2.5713-2.0781-2.5713-3.7363,0-58.9248-28.123-60.626-31.3301-60.626,0,0-.2939.0068-.3369.0078-20.6016.21-22.6318,30.7539-22.6504,31.0625-.1201,2.043-1.7637,3.6689-3.8086,3.7637-.0625.0029-.125.0039-.1875.0039-1.9658.001-3.6533-1.4336-3.9512-3.3955-4.0459-26.5801-17.6504-29.4502-23.3115-29.4502-1.1416,0-1.8408.1211-1.8486.1221-.1025.0186-.2422.0391-.3467.0488-30.3203,2.9102-31.5762,59.8887-31.585,60.4639-.0195,1.1729-.5518,2.2803-1.457,3.0264l-38.8545,32.001c-.7256.5977-1.6279.9121-2.543.9121Z"/><path d="M160.9878,148.6437c146.2251,0,136.1208,153.095,136.1208,153.095l-87.6508-33.5099c0-62.7262-31.5105-64.626-35.3302-64.626-.2465,0-.3779.0079-.3779.0079-24.6604.252-26.603,34.8334-26.603,34.8334-4.5428-29.8516-20.885-32.8486-27.2651-32.8486-1.603,0-2.5774.1893-2.5774.1893-34.2855,3.2902-35.203,64.3834-35.203,64.3834l-38.8545,32.0012S3.7445,157.3327,148.1541,149.0207c4.4146-.254,8.6758-.377,12.8337-.377M160.9878,140.6437c-4.3234,0-8.7959.1313-13.2935.3903-44.1938,2.5437-76.5752,17.6998-96.2446,45.0475-14.3821,19.9965-21.6823,46.8203-21.1112,77.5718.4253,22.9053,4.9957,39.9086,5.1901,40.6212.7142,2.6188,2.7078,4.6968,5.2946,5.519.7942.2524,1.6116.3761,2.423.3761,1.8314,0,3.6346-.629,5.0865-1.825l38.8545-32.0012c1.8127-1.4929,2.8778-3.7069,2.9132-6.0551.0022-.1378.2915-14.6439,4.5111-29.1343,5.0001-17.1714,12.8922-26.3921,23.4569-27.4059.3295-.0316.4032-.0294.6891-.0936.1538-.0188.5513-.059,1.1241-.059,9.7815,0,16.8365,9.4956,19.3562,26.0521.5972,3.9241,3.973,6.7965,7.9041,6.7965.1276,0,.2556-.0029.3843-.0092,4.0935-.1943,7.3781-3.4507,7.608-7.5422.0035-.0563.5031-7.7039,3.593-15.0352,5.1189-12.1454,12.6346-12.2222,15.1042-12.2473.0262-.0004.0487-.0005.0682-.0005.0596,0,.092.001.1213.001.0352,0,.0659-.0013.1337-.0073,1.0051.012,7.2744.3365,13.427,6.4601,6.3303,6.3004,13.8762,20.118,13.8762,50.1652,0,3.316,2.0458,6.2883,5.1432,7.4725l87.6508,33.5099c.9241.3533,1.8923.5275,2.8562.5275,1.5107,0,3.0112-.4277,4.3168-1.2642,2.1384-1.3704,3.4991-3.6747,3.6665-6.209.0499-.7566,1.1738-18.8035-3.0941-42.7101-5.6964-31.9089-18.4381-59.1692-36.8475-78.8337-24.8965-26.5938-59.9417-40.078-104.1619-40.078h0Z"/><path class="cls-2" d="M148.154,149.0207c-.3391.0195-.6701.045-1.0072.066v89.3572s1.9427-34.5813,26.603-34.8332c0,0,35.7081-2.1551,35.7081,64.618l87.6508,33.51s10.7115-161.9082-148.9548-152.718Z"/><g class="cls-6"><path class="cls-5" d="M53.2446,379.9921c-1.2548-156.374-5.0056-21.1743-3.1253-22.0558-3.8204-106.8326-2.1711-178.1592-1.2632-163.4431-2.667,1.3896,1.3969-86.8092,4.3494-12.3287,1.5891-92.4165-2.1836,204.4205.0391,197.8276Z"/><path class="cls-5" d="M96.5935,323.1885c.669,27.2101-5.3084-96.6832-5.0805-111.2034.4323,49.4924,1.9464-100.416-.0415,11.9811.7295-100.252,4.1888,17.0729,4.4478-130.9698,3.6624,139.6378,1.6306,143.2788.6741,230.1921Z"/><path class="cls-5" d="M144.4144,209.8729c-4.0917,126.4092-7.4278-34.409-6.4896,30.0505.8694,30.9871.6674-123.6043,2.7102-133.7109-3.7215-38.2472,3.5435-1.4202,4.3652-22.9067-4.6397,27.7121-2.883,221.9341-.5858,126.5671Z"/><path class="cls-5" d="M195.7587,330.3598c.9762-135.5609-.5618-155.7986-1.0843-176.1771-2.2974,45.0176-3.6206-53.7946-1.1838-103.3298-2.5026,14.6549,3.1474,54.5978,3.429,3.2444-2.1373,53.9856-.549,246.7997-1.1609,276.2626Z"/><path class="cls-5" d="M226.268,241.2533c.6501,107.3725-.3278,5.8997-.855,132.8846-2.7153,10.6693-1.1983-220.352-2.4938-167.7681-1.0808-105.9583,3.3678,60.8268,3.9348-154.5559,2.0387,174.5496-.4557,245.7948-.586,189.4394Z"/><path class="cls-5" d="M252.0713,322.7602c1.6745-107.2746-3.7614-88.4665-2.8993,19.6261,1.0086-38.2608-2.0158-134.1923-.2363-193.5974.9925,22.5308,3.0534-42.5244,3.4952,49.2004.5485-78.8164-1.1535,83.6192-.3596,124.7709Z"/></g></svg>