<?xml version="1.0" encoding="UTF-8"?><svg id="_レイヤー_2" xmlns="http://www.w3.org/2000/svg" viewBox="0 0 311.811 311.811"><defs><style>.cls-1{fill:#d0d5f4;stroke:#000;stroke-miterlimit:10;stroke-width:8px;}.cls-2{fill:#fff;}.cls-3{fill:#8894bf;}.cls-4{fill:#333;}</style></defs><path class="cls-1" d="M231.2114,217.2058c3.3592-55.6368-63.126-110.3154-63.126-110.3154,0,0-14.38,24.2957-33.2537,26.7665-55.1714,7.2225-66.326,80.9828-66.326,80.9828l162.7057,2.5661Z"/><path class="cls-2" d="M111.8074,230.3692c-22.0698,0-35.8286-2.0586-36.4038-2.1465-3.5732-.5464-6.7778-2.4814-8.7939-5.3091-1.8887-2.6484-2.6128-5.8418-2.0391-8.9907,1.084-5.9521,6.521-10.272,12.9277-10.272.7021,0,1.4116.0537,2.1089.1597.1104.0166,12.4824,1.8218,32.3862,1.8218,5.7778,0,11.6855-.1528,17.5596-.4536,12.3823-.6348,24.583-1.7759,36.2617-3.3911,6.8916-.9531,13.8936-1.4365,20.8105-1.4365,6.125,0,12.292.3794,18.3311,1.1274l18.9248,2.3462c3.5859.4448,6.8506,2.2871,8.957,5.0547,1.9688,2.5879,2.7959,5.7524,2.3301,8.9102-.8975,6.0771-6.4824,10.6602-12.9922,10.6606-.5732,0-1.1533-.0356-1.7246-.1064l-18.9268-2.3462c-4.9023-.6079-9.9141-.916-14.8965-.916-5.6426,0-11.3594.395-16.9922,1.1738-12.4688,1.7246-25.4741,2.9414-38.6543,3.6167-6.4243.3301-12.8755.4971-19.1743.4971Z"/><path class="cls-4" d="M186.6264,204.3511c5.9767,0,11.9337.3656,17.838,1.0973l18.9244,2.3463c4.9966.6195,8.4987,4.8331,7.8226,9.4112-.62,4.1974-4.5314,7.2443-9.0352,7.2443-.4074,0-.8194-.0249-1.2345-.0762l-18.9244-2.3463c-5.0895-.6308-10.2296-.9461-15.3879-.9461-5.839,0-11.7014.4039-17.5414,1.2116-12.3542,1.7087-25.2434,2.9147-38.3105,3.5845-6.8595.3516-13.2097.4915-18.9697.4915-21.7537,0-35.1027-1.9943-35.801-2.1008-4.9729-.7607-8.3307-5.0717-7.501-9.6287.7452-4.0901,4.6135-6.9891,8.9929-6.9891.497,0,.9999.0373,1.5063.1144.2191.0328,12.7162,1.8671,32.9872,1.8671,5.3992,0,11.3482-.13,17.7656-.4589,12.4984-.6406,24.8141-1.7921,36.6052-3.4232,6.7414-.9324,13.5147-1.3989,20.2634-1.3989M186.6264,196.3511c-7.0998,0-14.2861.496-21.3594,1.4743-11.5627,1.5995-23.6475,2.7294-35.9186,3.3583-5.8068.2976-11.6462.4485-17.3561.4485-19.5256,0-31.6895-1.7622-31.8101-1.78-.8684-.1323-1.7805-.2015-2.6836-.2015-8.3401,0-15.4322,5.7007-16.8633,13.555-.7688,4.2222.1965,8.4944,2.7179,12.0305,2.6397,3.7019,6.8108,6.2315,11.4437,6.9403,1.475.2249,15.0137,2.1928,37.0108,2.1928,6.3611,0,12.8812-.1689,19.3793-.502,13.2954-.6816,26.4158-1.9094,38.9969-3.6495,5.4514-.7539,10.9844-1.1362,16.4454-1.1362,4.8179,0,9.6641.2979,14.4039.8854l18.9242,2.3462c.7374.0911,1.4825.137,2.2188.137,8.4776,0,15.7642-6.0511,16.9494-14.0753.6251-4.2327-.4774-8.4649-3.1039-11.9171-2.7539-3.6194-6.9996-6.0259-11.6485-6.6022l-18.9245-2.3463c-6.2007-.7684-12.5333-1.1581-18.8222-1.1581h0Z"/><ellipse class="cls-1" cx="168.1977" cy="111.3171" rx="11.7961" ry="10.8095"/><path class="cls-3" d="M106.2975,177.0132l.3795.6169.3098-.0161c2.197-.1139,3.3762,2.5423,1.8181,4.0955l-.0142.0141.0773.1824c.8404,1.9816-1.1519,3.9819-3.1369,3.1495l-.5357-.2247-.5649.4228c-1.6953,1.2687-4.083-.1204-3.8181-2.2212l.0473-.3748h0c-1.9114-1.1272-1.3996-4.0221.7824-4.4256l.1332-.0246.1726-.6001c.5761-2.0035,3.2574-2.3697,4.3496-.594Z"/><path class="cls-3" d="M199.3379,175.7682l.5011,1.2643.9586.2251c2.0076.4713,2.5246,3.0883.8471,4.2877l-.6684.4778.0761,1.0998c.135,1.9504-1.9942,3.2348-3.6565,2.2059l-1.2477-.7723-1.3026.4733c-1.8677.6787-3.7036-1.0773-3.1088-2.9733l.2902-.9249-.5493-.6078c-1.3706-1.5166-.3382-3.9428,1.7049-4.007l1.1254-.0353.8261-1.1942c1.0904-1.5763,3.4976-1.3009,4.2038.4809Z"/><path class="cls-3" d="M180.447,140.9468l.3645.7205.318-.0305c2.3369-.2241,3.5719,2.6947,1.7838,4.2159l-.0195.0166.1082.2229c1.0049,2.0708-1.1998,4.2312-3.2497,3.1845l-.576-.2941-.5968.492c-1.7545,1.4464-4.3493-.1316-3.8722-2.3549l.0891-.415h0c-2.0876-1.1056-1.4887-4.245.8593-4.5044l.1512-.0167.162-.6969c.5075-2.1835,3.466-2.5402,4.478-.54Z"/><path class="cls-3" d="M139.7744,149.1211l.4183,1.395,1.0397.3671c1.9116.6749,2.1765,3.2695.4408,4.3168l-.8684.524-.0772,1.3183c-.1111,1.8976-2.2796,2.9186-3.8131,1.7954l-1.3257-.971-1.4565.3558c-1.9057.4656-3.5344-1.4283-2.7887-3.2429l.4096-.9967-.5784-.8184c-1.15-1.6272.0697-3.866,2.0606-3.782l1.3633.0575,1.0817-1.221c1.2468-1.4073,3.5542-.8989,4.0942.902Z"/><path class="cls-3" d="M149.2473,178.4239l2.1433,1.3584,2.4068-.4271c1.5998-.2839,2.9244,1.2407,2.4198,2.7852l-.6209,1.9003,1.0085,1.6699c.855,1.4157-.1415,3.2263-1.7949,3.2616l-2.3334.0497-1.789,1.7556c-1.1055,1.0848-2.9607.6805-3.5144-.766l-.8305-2.1693-1.9259-.8244c-1.5507-.6638-1.7682-2.7732-.3856-3.7395l1.6404-1.1465.2936-2.1786c.2094-1.5539,1.9579-2.3685,3.2823-1.5292Z"/></svg>