<?xml version="1.0" encoding="UTF-8"?><svg id="_レイヤー_2" xmlns="http://www.w3.org/2000/svg" viewBox="0 0 311.811 311.811"><defs><style>.cls-1{fill:#fff;stroke:#000;stroke-linecap:round;stroke-miterlimit:10;stroke-width:9px;}.cls-2{fill:#ffe1e1;}</style></defs><path class="cls-1" d="M87.703,221.8454l-11.4049-15.3181c-13.9297-18.7093-20.1471-42.0516-17.3695-65.2111l3.351-27.9396c1.221-10.1805,14.3346-13.5204,20.2767-5.1643l14.489,20.3751c15.4006,21.657,20.5699,48.9619,14.1516,74.7497l-3.6136,14.5191c-2.2867,9.1878-14.226,11.5835-19.8803,3.9892Z"/><path class="cls-2" d="M92.0109,207.4819l-5.0039-7.695c-6.1116-9.3986-9.1647-21.3171-8.5294-33.2966l.7664-14.452c.2793-5.266,5.5783-7.2128,8.1935-3.0103l6.3769,10.2472c6.7781,10.8919,9.4878,24.8699,7.4183,38.2663l-1.1652,7.5425c-.7373,4.7729-5.5758,6.2131-8.0566,2.3981Z"/><path class="cls-1" d="M164.1429,216.3038l-2.7873-18.893c-3.4044-23.0757,2.1779-46.5779,15.5954-65.6579l16.1868-23.0182c5.8981-8.3872,19.029-5.1164,20.3036,5.0576l3.1078,24.8076c3.3033,26.3684-5.0792,52.8639-22.948,72.5339l-10.0605,11.0747c-6.3664,7.0081-18.0159,3.462-19.3978-5.9046Z"/><path class="cls-2" d="M174.7411,205.695l-.7614-9.1473c-.93-11.1724,2.0273-23.1149,8.2618-33.364l7.5213-12.3644c2.7406-4.5053,8.3295-3.7096,8.6419,1.2303l.7616,12.0453c.8095,12.8031-3.4259,26.3969-11.5947,37.2143l-4.5992,6.0904c-2.9104,3.8541-7.8538,2.8303-8.2313-1.7047Z"/></svg>