<?xml version="1.0" encoding="UTF-8"?><svg id="_レイヤー_2" xmlns="http://www.w3.org/2000/svg" viewBox="0 0 311.811 311.811"><defs><style>.cls-1{fill:#262626;}.cls-2{fill:#353535;}</style></defs><path class="cls-1" d="M201.1831,223.447s-144.8747,35.8864-165.2547-18.6078,23.9243-71.3298,23.9243-71.3298c0,0-1.3291,7.0887,15.95,7.9748,30.0749,1.5421,58.138-6.9093,87.8032-9.9943,22.5196-2.3419,45.0752-1.5008,67.477-2.1287,21.2497-.5956,40.2713,10.0588,52.2851,27.4145,9.8463,14.2244,14.5579,31.4949,16.1426,48.722,1.8179,19.7619,4.3074,49.5965-6.6162,67.0557-4.9635,7.9332-56.8218,8.046-66.901,9.3751-40.3168,5.3165-24.8104-58.4815-24.8104-58.4815Z"/><path class="cls-2" d="M293.2227,273.0405c10.9236-17.4592,8.4342-47.2938,6.6162-67.0557-1.5847-17.2271-6.2961-34.4975-16.1426-48.722-12.0138-17.3557-31.0354-28.0101-52.2852-27.4145-22.4017.6279-44.9573-.2133-67.4768,2.1287-29.6653,3.085-57.7284,11.5364-87.8032,9.9944-17.2793-.8862-15.9502-7.9748-15.9502-7.9748,0,0-8.3517,3.1769-16.135,11.2288,11.2,8.0529,24.2206,20.725,29.9727,38.6596,11.0835,34.5573,37.666,4.4304,37.666,4.4304,0,0,16.0452,30.1269,35.0482-.886,0,0,13.5038,25.6964,32.6459-.8861,0,0,12.0535,23.9243,36.8639-5.3165,0,0-12.8784,21.266,9.5104,30.1268,0,0-17.9584,15.0634,0,29.2408,0,0-8.0049,20.3799,6.3059,25.6964,0,0-5.8799,11.2356,3.3872,15.4655,18.2819-.9699,53.7166-2.2264,57.7766-8.7158Z"/></svg>