<?xml version="1.0" encoding="UTF-8"?><svg id="_レイヤー_2" xmlns="http://www.w3.org/2000/svg" viewBox="0 0 311.811 311.811"><defs><style>.cls-1{fill:#f4b392;}.cls-1,.cls-2{stroke:#070707;stroke-miterlimit:10;stroke-width:6px;}.cls-2{fill:#fff91f;}</style></defs><rect class="cls-1" x="29.7887" y="164.7005" width="235.4237" height="55.0739" rx="27.5369" ry="27.5369"/><polygon class="cls-2" points="59.9362 177.5113 64.9747 186.6463 75.2197 188.6154 68.0887 196.2302 69.3819 206.5822 59.9362 202.1533 50.4905 206.5822 51.7837 196.2302 44.6527 188.6154 54.8977 186.6463 59.9362 177.5113"/><polygon class="cls-2" points="141.1159 177.5113 146.1544 186.6463 156.3993 188.6154 149.2684 196.2302 150.5616 206.5822 141.1159 202.1533 131.6702 206.5822 132.9634 196.2302 125.8324 188.6154 136.0774 186.6463 141.1159 177.5113"/><polygon class="cls-2" points="100.526 177.5113 105.5646 186.6463 115.8095 188.6154 108.6785 196.2302 109.9717 206.5822 100.526 202.1533 91.0803 206.5822 92.3735 196.2302 85.2426 188.6154 95.4875 186.6463 100.526 177.5113"/><polygon class="cls-2" points="184.6809 177.5113 189.7194 186.6463 199.9644 188.6154 192.8334 196.2302 194.1266 206.5822 184.6809 202.1533 175.2352 206.5822 176.5284 196.2302 169.3974 188.6154 179.6424 186.6463 184.6809 177.5113"/><polygon class="cls-2" points="228.2459 177.5113 233.2844 186.6463 243.5294 188.6154 236.3984 196.2302 237.6916 206.5822 228.2459 202.1533 218.8002 206.5822 220.0934 196.2302 212.9625 188.6154 223.2074 186.6463 228.2459 177.5113"/></svg>