<?xml version="1.0" encoding="UTF-8"?><svg id="_レイヤー_2" xmlns="http://www.w3.org/2000/svg" viewBox="0 0 311.811 311.811"><defs><style>.cls-1{fill:#725326;}.cls-2{fill:#8eef97;}.cls-3{fill:#4f3e25;}.cls-4{fill:#99ffb3;}.cls-5{fill:#49c162;}</style></defs><path d="M103.4313,101.6708c16.3327,0,32.8282,7.826,42.3199,21.7984.6455.9503,1.666,1.4254,2.6866,1.4254s2.041-.4752,2.6865-1.4254c9.4919-13.9729,25.9879-21.7983,42.3208-21.7983,11.5826,0,23.0837,3.9359,31.9456,12.4058,1.1937,1.1409,1.3077,3.0237.2876,4.3221-4.9221,6.2647-9.2633,10.2379-15.1133,15.0768-11.9635,9.5561-26.0152,14.6569-41.6157,14.6569-.481,0-.9652-.0049-1.4491-.0146-2.6595-.0674-5.2567-.2413-7.8334-.5175-.1196-.0128-.238-.019-.3553-.019-1.7715,0-3.2491,1.4281-3.2497,3.2437-.0039,11.7044-.0077,26.3711-.0073,37.2785.0007.0009.0037.0039.0042.0046v.7268c.3964-.0483.7911-.0867,1.1813-.1028.1557-.0063.3094-.0095.4614-.0095.1129,0,.2248.0017.3356.0051,7.986.1977,10.7913,9.0568,10.8398,9.212.4498-.0562,3.5488-.425,7.2932-.4305.0485-.0001.0963-.0002.145-.0002,5.1663,0,11.522.6994,13.8297,3.8642,4.135,5.6708,3.308,16.3036,3.308,16.3036,0,0,1.8586,10.0532-18.1454,10.0532-5.7439,0-13.2945-.83-23.2041-2.9648-14.6164-3.1487-24.0266-4.1486-30.4408-4.1486-11.165,0-13.25,3.0291-17.9113,3.0291-.7992,0-1.6757-.0893-2.685-.2982-6.0855-1.2591-4.5064-7.9421-.9573-13.652-.0215-.0031-.0416-.0051-.0632-.0082.7586-4.8605,2.0815-3.816,5.8177-6.8127,1.5079-1.2094,2.9389-2.5021,4.2296-3.9412,1.7863-1.9915,4.9967-4.5325,9.9326-4.8851.5286-.0378,1.0642-.0552,1.6033-.0557.0293-.0001.0575-.0002.0868-.0002,7.5874.0004,15.9019,3.4391,16.5245,3.7012.1268-.1043,1.0759-.878,2.5713-1.9354-.0036-7.0767-.0038-20.2625.0051-44.9255.0006-1.8171-1.4778-3.2512-3.2509-3.2512-.1168,0-.2351.0062-.354.019-2.5782.2764-5.1764.45-7.8359.5172-.4848.0098-.9679.0146-1.4498.0146-15.5983,0-29.6538-5.1014-41.6149-14.6572-5.8468-4.8353-10.1919-8.8128-15.1134-15.0765-1.0202-1.2984-.9061-3.1814.2877-4.3223,8.8631-8.4703,20.3635-12.4059,31.946-12.4059M103.4314,94.6708c-.0012,0,.0011,0,0,0-14.0397,0-27.1026,5.0945-36.7823,14.3453-3.8179,3.6488-4.2287,9.5417-.9556,13.7076,5.2253,6.6505,9.8809,10.9562,16.1566,16.1462l.0456.0377.0463.0369c13.4455,10.7417,28.9168,16.1882,45.984,16.1882.5287,0,1.0588-.0053,1.5908-.0161,1.4578-.0368,2.8822-.1015,4.2984-.1956-.0054,15.9014-.0067,26.6335-.0057,33.8868-3.4843-.9562-7.8069-1.8149-12.0934-1.8151l-.1146.0002c-.6978.0007-1.4025.0255-2.0746.0735-5.6446.4032-10.8456,2.9578-14.6446,7.1932-.9225,1.0286-2.0341,2.0604-3.3983,3.1545-.7229.5798-1.2811.9133-1.9275,1.2996-3.1442,1.8788-5.2129,3.9572-6.1996,8.6459-2.5729,4.5479-4.735,10.6354-2.4028,16.0707,1.5102,3.5196,4.5978,5.9247,8.6939,6.7722,1.4419.2983,2.7841.4434,4.1034.4434,2.941,0,5.1883-.7321,7.1711-1.3779,2.4921-.8117,5.069-1.6511,10.7402-1.6511,6.926,0,16.6717,1.343,28.9666,3.9916,9.6155,2.0715,17.9185,3.1218,24.6783,3.1218,10.4008,0,17.7646-2.5121,21.8872-7.4667,3.1249-3.7555,3.3958-7.6646,3.2785-9.6652.1833-3.2178.3218-13.5001-4.6723-20.3491-3.3069-4.5352-9.6807-6.7399-19.4857-6.74l-.1617.0002c-1.0995.0016-2.148.0313-3.1067.0756-2.1198-3.2852-5.4021-6.5653-9.9921-8.0453.0007-8.6565.0031-18.7143.0059-27.6188,1.4103.0939,2.8243.1584,4.2621.1949.5676.0115,1.0989.0168,1.6266.0168,17.0657,0,32.5371-5.4462,45.9844-16.1875l.0468-.0374.0461-.0381c6.2776-5.1927,10.9338-9.4994,16.1559-16.1461,3.2729-4.1658,2.8621-10.0585-.9553-13.7072-9.679-9.2509-22.7418-14.3455-36.7822-14.3455-17.4695,0-34.2618,7.84-45.0073,20.7458-10.7447-12.9049-27.5386-20.7448-45.0063-20.7459h0Z"/><path class="cls-4" d="M145.7512,123.4692c-16.2228-23.8811-52.9048-29.807-74.2659-9.3925-1.1938,1.1409-1.3079,3.0238-.2877,4.3222,4.9215,6.2638,9.2665,10.2413,15.1134,15.0766,12.3306,9.8509,26.8867,14.9679,43.0646,14.6425,2.6595-.0672,5.2578-.2409,7.8359-.5172,1.9257-.2064,3.6056,1.2955,3.6049,3.2322-.0116,32.1464-.0076,44.8067-.001,49.8349.0024,1.847,1.5404,3.318,3.3859,3.2423l4.2428-.1741h0s0,0,0,0l1.6047-.0659,2.798-.0353c1.7812-.0225,3.213-1.4685,3.2114-3.2499-.0077-8.5711-.0022-32.2941.0036-49.5599.0007-1.9359,1.6801-3.431,3.605-3.2247,2.5767.2763,5.1738.45,7.8333.5175,16.1792.3253,30.7324-4.7916,43.0647-14.6423,5.85-4.8389,10.1912-8.8121,15.1133-15.0768,1.0201-1.2984.9061-3.1813-.2876-4.3221-21.3584-20.4137-58.0431-14.4894-74.2664,9.3925-1.291,1.9005-4.082,1.9005-5.3731,0Z"/><path class="cls-2" d="M144.6284,176.2757c-3.1234-4.2531-3.8071-24.5645-3.808-24.58-.0112,31.5024-.0073,43.99-.0008,48.9724.0024,1.8471,1.5405,3.318,3.3859,3.2422l4.2428-.1741,1.6047-.0659,2.798-.0353c1.7813-.0225,3.213-1.4686,3.2114-3.25-.0024-2.76-.0035-7.0961-.0037-12.2769-.1787-.231-9.6-9.3399-11.4304-11.8325Z"/><path class="cls-5" d="M77.0034,116.917c22.1846-2.8316,47.4327,3.0892,64.7356,17.6146,2.4633,2.1791,4.8598,4.4766,6.6989,7.2099-2.7559-1.7606-5.5188-3.3368-8.3557-4.7737-11.1673-5.756-23.0431-10.0627-35.1509-13.3411-9.2352-2.6619-18.5855-4.3439-27.9279-6.7098h0Z"/><path class="cls-5" d="M220.5454,116.917c-8.6035,2.1759-17.1836,3.7648-25.7197,6.0836-12.1647,3.221-24.1037,7.3565-35.4235,12.8963-3.5656,1.7954-7.0886,3.6526-10.5096,5.8447,1.8574-2.7302,4.267-5.0238,6.7423-7.2006,17.3864-14.5084,42.6589-20.4528,64.9105-17.6239h0Z"/><path class="cls-3" d="M105.9247,202.8749c1.5079-1.2095,2.9389-2.5022,4.2296-3.9411,1.7863-1.9915,4.9967-4.5325,9.9326-4.8851,8.2699-.5907,18.1938,3.6624,18.1938,3.6624,0,0,10.3965-8.6243,19.0208-8.9788,8.6243-.3544,11.5779,9.215,11.5779,9.215,0,0,17.1305-2.2447,21.2655,3.4261s3.308,16.3035,3.308,16.3035c0,0,3.0717,16.658-41.3495,7.0885-44.4212-9.5695-40.7588.7088-51.0371-1.4177-8.9935-1.8607-1.2534-15.5707,4.8586-20.4729Z"/><path class="cls-1" d="M193.3914,217.6769s.827-10.6327-3.3079-16.3035c-4.135-5.6708-21.2655-3.4261-21.2655-3.4261,0,0-2.9535-9.5695-11.5779-9.2151s-19.0208,8.9788-19.0208,8.9788c0,0-9.9239-4.2531-18.1938-3.6624-4.9359.3526-8.1463,2.8936-9.9326,4.8851-1.2907,1.439-2.7217,2.7317-4.2296,3.9411-3.7362,2.9967-5.0591,1.9521-5.8177,6.8127,10.466,1.5419,4.1123-10.9808,49.3983,7.6119,28.4911,11.6974,35.7231,10.4307,43.9809,1.4087.0392-.6346-.0334-1.0313-.0334-1.0313Z"/></svg>