<?xml version="1.0" encoding="UTF-8"?><svg id="_レイヤー_2" xmlns="http://www.w3.org/2000/svg" viewBox="0 0 311.811 311.811"><defs><style>.cls-1{stroke:#070707;stroke-miterlimit:10;stroke-width:8px;}.cls-1,.cls-2{fill:#e54a20;}</style></defs><path class="cls-1" d="M119.7489,205.0259c-11.1571-3.4751,12.2956-22.2118,12.8628-11.3943-1.5492,2.9341-9.7615,10.8462-12.8628,11.3943ZM120.3504,229.3032c-3.2642-.9117-3.1877-8.1685.2573-8.7228,3.1301,1.4628,4.8925,9.2336-.2573,8.7228ZM147.5471,228.99c-1.7742-.3999-1.6247-2.4355-.4837-3.4622,5.1503-7.3925-16.7357-4.9541-20.6544-6.5801-.0629-.5055-.3505-1.1838-.8595-1.3749-.4047-4.52-1.498-14.3841,2.1486-17.1876,5.9198-5.2126,21.9282-5.1608,20.0658,6.2735.7558,7.1278-8.3499,4.6028-12.7862,5.0705-1.7158.0891-6.4738-1.4515-6.0765,1.8045,4.898.2363,16.2-2.7815,19.5508,1.0312-4.3507,4.6506-17.2833-2.4073-19.8086,2.4062,6.9215.1721,22.0948-2.9903,22.8173,6.9168-.3132,2.1267-1.273,5.3255-3.9136,5.1021ZM127.1824,227.5845c-1.9298-.8163-2.6786-5.5372.1717-5.5857,2.3612.516,3.2778,6.2021-.1717,5.5857ZM143.0809,203.7368c-.9809-4.0807-11.6242-1.3383-14.3516-2.2344.0651.8938.524,1.7338.5156,2.6641,4.4306-.0538,9.3917-1.41,13.75-.3438l.0859-.0859ZM143.0809,208.0337c-.0392-.4588.1342-2.345.1719-2.8359-3.1642.8496-9.0901.3236-12.4328.7082-1.623.0263-1.7169,1.8544-1.661,3.0731,4.5062-.974,9.3073-1.0614,13.9219-.9453ZM134.0574,226.811c-4.4415-1.2967-.431-7.3081,1.7191-2.5781.3442,1.2257-.2115,2.7181-1.7191,2.5781ZM140.7606,227.0689c-2.656-.1913-2.3636-5.6997.5738-4.3781,1.741.8637,1.3653,3.9619-.5738,4.3781Z"/><path class="cls-2" d="M119.9081,205.0259c-11.1571-3.4751,12.2956-22.2118,12.8628-11.3943-1.5492,2.9341-9.7615,10.8462-12.8628,11.3943ZM120.5097,229.3032c-3.2642-.9117-3.1877-8.1685.2573-8.7228,3.1301,1.4628,4.8925,9.2336-.2573,8.7228ZM147.7064,228.99c-1.7742-.3999-1.6247-2.4355-.4837-3.4622,5.1503-7.3925-16.7357-4.9541-20.6544-6.5801-.0629-.5055-.3505-1.1838-.8595-1.3749-.4047-4.52-1.498-14.3841,2.1486-17.1876,5.9198-5.2126,21.9282-5.1608,20.0658,6.2735.7558,7.1278-8.3499,4.6028-12.7862,5.0705-1.7158.0891-6.4738-1.4515-6.0765,1.8045,4.0117.1936,12.3196-1.7959,17.0359-.4273,1.4452.4194,1.3809,2.5226-.0829,2.8714-5.5429,1.3208-15.0804-3.0675-17.2108.9933,6.9215.1721,22.0948-2.9903,22.8173,6.9168-.3132,2.1267-1.273,5.3255-3.9136,5.1021ZM127.3417,227.5845c-1.9298-.8163-2.6786-5.5372.1717-5.5857,2.3612.516,3.2778,6.2021-.1717,5.5857ZM143.2402,203.7368c-.9809-4.0807-11.6242-1.3383-14.3516-2.2344.0651.8938.524,1.7338.5156,2.6641,4.4306-.0538,9.3917-1.41,13.75-.3438l.0859-.0859ZM143.2402,208.0337c-.0392-.4588.1342-2.345.1719-2.8359-3.1642.8496-9.0901.3236-12.4328.7082-1.623.0263-1.7169,1.8544-1.661,3.0731,4.5062-.974,9.3073-1.0614,13.9219-.9453ZM134.2167,226.811c-4.4415-1.2967-.431-7.3081,1.7191-2.5781.3442,1.2257-.2115,2.7181-1.7191,2.5781ZM140.9198,227.0689c-2.656-.1913-2.3636-5.6997.5738-4.3781,1.741.8637,1.3653,3.9619-.5738,4.3781Z"/></svg>