<?xml version="1.0" encoding="UTF-8"?><svg id="_レイヤー_2" xmlns="http://www.w3.org/2000/svg" viewBox="0 0 311.811 311.811"><defs><style>.cls-1{fill:#a8321e;stroke:#070707;stroke-miterlimit:10;stroke-width:4px;}</style></defs><path class="cls-1" d="M158.9788,172.4525s13.99-3.5312,26.6526,2.2607c0,0-9.1288,27.1416,6.184,31.5588s-5.1534,37.546-5.1534,37.546c0,0,.8834-30.184-13.9877-37.2515s-13.6955,18.5521-13.6955,18.5521c0,0-20.9103-28.6206,0-52.6661Z"/><path class="cls-1" d="M91.5715,192.5958s11.3374-7.6564,16.1227-9.5706c0,0,2.7239,19.8876,9.865,20.9131s18.184,14.4243,17.9632,21.9335c0,0-14.7239-12-23.411-12.7362s2.5767,14.6503-7.6564,15.5337-12.5153-10.0123-12.5153-10.0123c0,0,8.0172,6.0745,9.7178-.5153.589-2.2822-2.0145-26.4294-10.0859-25.546Z"/><path class="cls-1" d="M55.6819,243.9087s-.216-12.0778,3.9755-19.3252,21.5337,15.4601,17.3374,30.589,7.1779,13.9141,7.1779,13.9141c0,0-14.3558,10.2699-19.7669-7.0675s-3.2025-15.9755-8.7239-18.1104Z"/><path class="cls-1" d="M200.2441,248.2982c35.4847,4.1963,46.2474-49.242,46.2474-49.242,8.3986-.1399,9.3285,17.1071,9.3285,17.1071,9.3528,78.8629-52.1258,58.3641-52.1258,58.3641,0,0,31.59-4.1333,23.5583-16.9141-3.1088-4.947-12.2209-6.4969-12.2209-6.4969l-14.7875-2.8182Z"/></svg>