<?xml version="1.0" encoding="UTF-8"?><svg id="_レイヤー_2" xmlns="http://www.w3.org/2000/svg" viewBox="0 0 311.811 311.811"><defs><style>.cls-1,.cls-2,.cls-3{fill:#d84839;}.cls-1,.cls-4,.cls-5,.cls-3,.cls-6{stroke-linecap:round;}.cls-1,.cls-4,.cls-6{stroke-linejoin:round;}.cls-1,.cls-5,.cls-3,.cls-6{stroke:#a01300;stroke-width:4px;}.cls-7{fill:#6d6d6d;}.cls-8{fill:#edf995;}.cls-4{stroke:#c9c4c3;stroke-width:.75px;}.cls-4,.cls-5{fill:none;}.cls-9{fill:#cacc89;}.cls-5,.cls-3{stroke-miterlimit:10;}.cls-6,.cls-10{fill:#fff;}.cls-11{fill:#aa9f13;}.cls-12{fill:#94f7aa;}.cls-13{fill:#efe520;}.cls-14{fill:#f2f2f2;}.cls-15{fill:#424242;}.cls-16{fill:#f492e2;}</style></defs><path class="cls-3" d="M258.7346,181.2126l2.2201-2.6504c5.255-6.2735,3.9878-15.7052-2.7367-20.3692h0c-.5533-.3838-1.2767-.4194-1.8651-.092l-80.6093,44.8656.7091,23.0022c.0203.6571.7293,1.0594,1.3037.7396l79.4037-44.1945c.5999-.3339,1.1336-.775,1.5744-1.3013Z"/><path class="cls-6" d="M60.5473,227.9279h112.1227s12.9755-.5153,12.9755-13.0307-13.638-11.9264-13.638-11.9264H60.5473l2.4479,4.1595-2.4479,4.1595,2.4479,4.1595-2.4479,4.1595,2.4479,4.1595-2.4479,4.1595Z"/><path class="cls-5" d="M58.3939,202.9709h111.4601s13.638-.589,13.638,11.9264-12.9755,13.0307-12.9755,13.0307H58.8357"/><line class="cls-4" x1="69.0136" y1="208.3797" x2="169.8909" y2="208.3797"/><line class="cls-4" x1="69.0136" y1="215.4472" x2="169.8909" y2="215.4472"/><line class="cls-4" x1="69.0136" y1="219.2978" x2="169.8909" y2="219.2978"/><line class="cls-4" x1="69.0136" y1="211.9135" x2="169.8909" y2="211.9135"/><line class="cls-4" x1="69.0136" y1="222.5147" x2="169.8909" y2="222.5147"/><polygon class="cls-1" points="256.8909 157.566 139.9645 157.566 58.3939 202.9665 175.3203 202.9665 256.8909 157.566"/><polygon class="cls-2" points="174.9772 200.9748 66.0872 200.9748 140.4266 159.5176 249.3445 159.5176 174.9772 200.9748"/><path class="cls-10" d="M163.546,198.2502h-75.8729c-5.1944,0-7.0967-1.2874-4.249-2.8755l54.3814-30.3264c2.8489-1.5887,9.3702-2.8766,14.5657-2.8766h75.8898c5.1955,0,7.0971,1.2879,4.2473,2.8766l-54.3992,30.3264c-2.8487,1.5881-9.3688,2.8755-14.5632,2.8755Z"/><path class="cls-15" d="M139.5343,169.5922c-.2485-.0281-.4643-.0673-.6473-.1178-.184-.0505-.3341-.1095-.4526-.1768-.0098-.0615.011-.1254.061-.1914.0497-.0659.1449-.138.286-.2167.3122-.1458.7425-.2664,1.2896-.3618.3672-.0615.7383-.1122,1.1125-.1514.3732-.0393.7341-.07,1.0822-.0926l1.1467-.6395.3584-.1852h-.1026l-1.9099.0421-.2641-.0674c-.0398-.0448.005-.0981.1325-.1599.1247-.0505.291-.0953.4982-.1346.4666-.0505.9212-.0856,1.3619-.1053.4414-.0196.8875-.0406,1.3379-.063.2981-.1374.6551-.2651,1.0715-.3829l.2872-.0169.0589.0674-.3927.2903.113.0084.687-.0252c.2023.0113.3245.0478.3683.1095.0046.0448-.0571.0983-.184.1598l-.5388.1431c-.4327.0506-.8561.0814-1.2688.0926l-.166.0926.0104.0084-.6492.362-.4874.286h.1026c.3954-.0391.7954-.0715,1.2001-.0968.4037-.0252.7945-.0378,1.1705-.0378l.5447.0252.3125-.0169c.5129-.1907,1.0361-.3801,1.5703-.5679.5335-.188,1.0844-.3689,1.6533-.5428l.434-.0421.2045.0505c.0296.0505-.0342.1095-.1882.1768-.3677.1571-.7701.3085-1.2066.4544-.4362.1458-.868.2945-1.2929.4459.3839,0,.7116.0155.9807.0463.2698.0309.4527.0912.5477.181.0543.0841.0516.1738-.0082.2693s-.1902.1992-.3914.3114c-.1986.101-.4405.1928-.7256.2755s-.6036.1607-.957.2336c-.3802.0785-.7278.115-1.0429.1093l-.2745-.0757c-.0451-.056.0122-.1234.1696-.2019.1349-.0561.3128-.1053.5336-.1472l.0924-.0085.03-.0167c.4968-.0674.9705-.1599,1.4212-.2778l.196-.1093c.0661-.0842.0387-.1599-.0798-.2273-.1424-.0448-.3273-.0784-.5564-.101-.2294-.0224-.4758-.0364-.7391-.0421-.3889.1123-.7495.2273-1.0799.3451-.3312.1177-.6704.2355-1.0185.3533-.1807.0337-.3602.0478-.5375.0421-.1407-.0169-.1867-.0533-.1368-.1095l.1358-.0757c.3016-.0729.5641-.1528.7886-.2398.2242-.0869.4636-.1725.717-.2566h-.0518c-.5384.0617-1.0722.1093-1.6025.1431-.5311.0336-1.0586.0729-1.5844.1177l-.6339.3535c-.1928.0983-.4003.1922-.6209.2819s-.478.174-.773.2524h-.0508l-.1123.0337c-.4661.0785-.9126.1178-1.3404.1178ZM140.6452,169.2303l.7319-.4081.2312-.1431h-.0772c-.2589.0393-.539.0898-.842.1514s-.579.1235-.8263.1852l-.0678.0378c.1566.0842.3928.1459.7072.1852l.143-.0084Z"/><path class="cls-15" d="M151.8071,169.0998c-.1394-.1036-.0421-.2342.2914-.3913.4446-.1907.8957-.3829,1.3541-.5764s.9833-.3745,1.5762-.5428l.3933-.0336.1814.0421c-.0189.101-.1683.2131-.4493.3366-.4547.1964-.9056.3928-1.3512.589-.4469.1964-.9981.3774-1.6533.5428-.1187.0281-.2336.0393-.3425.0336ZM154.2705,169.6216l-.1983-.0757c-.0019-.0561.063-.1207.1937-.1935.2258-.0786.454-.1578.6823-.2377.2292-.0799.4273-.162.5957-.2461l2.943-1.6411c.2755-.1346.5587-.2685.8484-.4017.2907-.1332.6543-.2504,1.0922-.3514.2414-.0393.4765-.056.7059-.0505.1508.0112.2497.0421.296.0926.028.1178-.0716.2518-.2978.4019s-.4671.3008-.7211.4522l-.7697.4292.0101.0085-.6489.3618c-.4593.2469-.9918.4888-1.5966.7258s-1.3252.4508-2.1634.6415c-.3435.0673-.6673.0954-.9715.0842ZM160.3674,169.1755l-.1562-.042c.3192-.2161.5134-.4208.5831-.6144.0687-.1935.2518-.3969.548-.61l.4477-.1347c.1692-.0279.339-.0393.5086-.0336l.2022.0588c.0274.1852-.1235.3886-.4526.6102s-.6757.4432-1.0387.6647l-.2487.0674c-.143.0225-.2742.0336-.3933.0336Z"/><path class="cls-15" d="M167.7607,167.5557c-.2256-.0169-.3731-.0588-.4398-.1262-.0276-.0898.0953-.1964.3676-.3199.2291-.0896.4926-.1717.7881-.2461.2953-.0742.6149-.1452.9584-.2125.7185-.1289,1.4314-.2524,2.1389-.3702s1.3766-.1767,2.0096-.1767l.2745.0757c.0501.0674-.0136.1459-.1911.2357-.334.129-.7527.2383-1.2556.3281-.6733.1178-1.3518.2434-2.0351.3766s-1.3604.27-2.0309.4102c-.2114.0226-.4061.0309-.5844.0252ZM163.6769,169.9329c-.1333-.0112-.2206-.0393-.2592-.0842-.036-.0561-.0017-.1205.1029-.1935.1053-.0729.2372-.1486.3947-.2271.2187-.1122.5189-.2131.9029-.303.1577-.0308.3135-.0463.4679-.0463l.239.0884c.0199.0842-.0131.174-.098.2693-.0862.0954-.233.1964-.4408.303-.1346.056-.3141.1038-.5389.1431-.2767.0448-.5335.0617-.7703.0505ZM171.9308,169.9077c-.1432-.0057-.2407-.0281-.2894-.0673-.0053-.0449.0649-.0983.2097-.1599l.4266-.1093.3825-.0842c.179-.0617.3201-.1262.4243-.1935l.0219-.0841c-.8116-.115-1.7429-.1795-2.7951-.1935s-2.0541-.0463-3.0068-.0968l.0889-.0926-.1042-.0421c.0006-.0674.0856-.1431.253-.2271.491-.2357.9587-.4768,1.4014-.7237s.9933-.4825,1.6518-.707c.1261-.0224.2437-.0308.3539-.0252l.197-.0674c.714-.0926,1.4018-.157,2.0662-.1935.6641-.0364,1.3034-.0547,1.9197-.0547.3419,0,.6378.0169.8901.0505.252.0338.4193.0941.5027.181.0684.0953.0393.2019-.086.3197-.1263.1178-.3263.244-.6021.3787-.1585.0786-.326.1556-.5047.2313s-.4036.1417-.6753.1979c-.198.0336-.389.0448-.574.0336l-.1637-.0084c-.3084.0336-.5943.0476-.8576.042h-1.9496l-1.6946-.042-.4187.2188h.2315c.4747-.0169.9531-.0309,1.4352-.0421.4811-.0112.9669-.0196,1.4557-.0252h1.8344c.3384.0112.5844.0505.7371.1178l-.0388.0505c-.3802.0786-.7431.1235-1.0882.1346-.3456.0113-.6965.0142-1.0536.0085-.6569-.0057-1.3001-.0169-1.9282-.0337-.6283-.0167-1.2555-.0363-1.8822-.0588l-.3839.1852h.1543c.3555-.0169.6975-.0267,1.0278-.0296.3301-.0027.6658-.0042,1.0077-.0042.7317.0113,1.4656.0281,2.199.0505.7331.0225,1.2676.1123,1.6012.2694.0331.115-.0982.2454-.394.3913-.185.0841-.3854.1626-.6024.2356-.2157.0729-.4654.1402-.7469.2019-.2238.0393-.4349.0617-.6336.0673ZM166.0182,169.7646c-.1548-.0281-.201-.0785-.1387-.1514l.3353-.2442c.097-.0448.2358-.0841.4162-.1177l.42-.0337c.1256.0057.1968.0281.2123.0673.0241.101-.0847.2188-.3263.3535l-.3041.0841c-.2248.0393-.4297.0533-.6147.0421ZM174.9523,167.4295l.015-.1516c-.1283-.0336-.2983-.0532-.5098-.0588h-3.2585s-.1384-.0084-.1384-.0084l-.0603.0336c-.046.073-.13.1487-.2543.2273h.2823c.4405-.0169.8808-.0309,1.3199-.0421s.8771-.0196,1.3151-.0252h1.052l.1957.0336.0414-.0084ZM174.1978,167.8502l.1208-.0674.4279-.2103h-.0772s-.3829.042-.3829.042h-1.3343s-2.523.0338-2.523.0338l-.5536.2945h.0518c.7225-.0505,1.4234-.0786,2.1004-.0841.6763-.0057,1.3534-.0112,2.0307-.0169l.1393.0084ZM168.2062,169.6889c-.134-.0113-.2204-.0394-.2592-.0842-.0539-.056.0036-.1262.1722-.2104l.3041-.0841c.2072-.0393.4033-.0533.5893-.0421.1612.0337.2148.0899.1592.1683l-.1595.1178-.3608.1009c-.1427.0224-.291.0337-.4454.0337ZM170.1613,169.7142c-.1266-.0057-.2106-.0252-.2527-.059-.0162-.0672.0563-.1458.2172-.2355l.3497-.1095c.1804-.0336.3562-.0505.5271-.0505l.2275.0588c-.0006.0673-.1046.1487-.3097.244l-.3751.1095-.3842.0421Z"/><path class="cls-15" d="M177.8682,169.4575c-.3525-.0224-.5898-.0812-.7087-.1767-.1192-.129-.1043-.2757.0445-.4398.1485-.164.3794-.333.6915-.507.2252-.1065.491-.2046.7978-.2945.3055-.0898.6575-.1738,1.0553-.2524.9059-.1571,1.7732-.2736,2.6015-.3493s1.6279-.1136,2.3967-.1136c.2707.0113.5064.0324.7082.0632.2005.0309.3618.0744.4841.1304l-.0136.0506.2881.1683c.1396.1177.146.2497.0224.3954-.1259.1459-.3471.303-.6666.4713-.2378.1234-.4935.2419-.7654.3554-.2722.1136-.614.2182-1.0242.3135-.2871.0506-.5539.073-.8006.0673l-.0478-.0588c.0323-.0561.1166-.1178.255-.1852.343-.115.6593-.2342.9491-.3577.2896-.1234.5464-.2524.7714-.3871.1972-.129.244-.2412.1417-.3366l-.0622-.0084c-.5774.2076-1.2079.4066-1.8921.5975-.6839.1907-1.4224.3689-2.2154.5343-.5331.1066-1.0521.1907-1.5554.2524-.5045.0618-.9891.0842-1.455.0673ZM179.7454,168.797c.7784-.129,1.5093-.2833,2.1899-.4629.6811-.1794,1.3297-.3645,1.9455-.5554l.3807-.1262-.6267-.0084c-.6112.0167-1.2461.063-1.9035.1387-.6577.0759-1.3297.181-2.0157.3157-.4305.1066-.7543.23-.9716.3702-.1937.1178-.2254.2161-.0916.2945.1654.0505.3973.0786.6948.0842l.3982-.0505Z"/><path class="cls-15" d="M186.395,169.3019l-.1296-.0421c-.0254-.0337-.0033-.07.0674-.1095.2266-.0784.4169-.1655.5715-.2609l.0489-.042c.4548-.1964.9462-.3871,1.4757-.5723.5285-.1852,1.0199-.3759,1.4747-.5723h-.3331l-.6456.0169c-.1367,0-.2266-.0169-.2689-.0505-.0254-.0338.0157-.0757.1238-.1262l.3308-.0842c.3264-.0393.6474-.0729.9635-.101.3151-.0281.6287-.0505.9413-.0674.3187-.1205.6581-.2357,1.0163-.345.3595-.1095.752-.2118,1.18-.3072.1973-.0338.3857-.0533.5668-.059.1266.0057.2065.0281.2387.0674-.0122.045-.0635.0926-.154.1431-.1818.073-.3694.1417-.5623.2062s-.3833.1304-.5725.1977h.1543s.3735-.0084.3735-.0084c.2978.0055.4855.049.5613.1304.0257.0336-.002.073-.0824.1178l-.5086.1262c-.34.0562-.669.0871-.9875.0926-.3179.0057-.6317.014-.9429.0252-.6982.2749-1.4104.5457-2.1364.8121-.7262.2666-1.5069.526-2.3444.7783-.1529.0281-.2931.0393-.42.0337ZM191.2076,169.8866c-.3151-.0057-.5976-.0197-.8485-.0421-.2499-.0224-.4299-.0702-.5385-.1431-.0247-.0336.0166-.0757.1238-.1262l.2081-.0588c.1606-.0225.3134-.0364.4604-.0421h1.2825c.4303-.0112.8699-.033,1.3165-.0653s.8838-.0484,1.3116-.0484l.2744.0757c.0369.0366-.0068.08-.1315.1305-.1512.056-.3443.1065-.5793.1514-.4867.0617-.9705.1038-1.4512.1262s-.9562.0364-1.4283.0421ZM194.5637,168.6875c-.2532-.1066-.5657-.1949-.935-.2651-.3706-.07-.7297-.1416-1.0773-.2146-.0155-.0393.0219-.0841.1124-.1346l.295-.0926c.4451-.0674.8789-.1066,1.3014-.1178.4215-.0112.8429-.0196,1.2633-.0252.2886.0112.5011.0463.6388.1051.1384.059.2578.122.3597.1894.0466.0786-.0423.1711-.2677.2778-.1815.0729-.4086.1374-.6802.1935-.3598.0672-.6964.0953-1.0103.0841Z"/><path class="cls-15" d="M204.6738,169.651l-.2377-.0673c-.0539-.056.0036-.1262.172-.2103.2536-.0842.4932-.1704.7201-.2588s.418-.1802.5716-.2757c.197-.1289.3286-.2524.3944-.3702s.0441-.2245-.0673-.3197c-.0945-.0617-.2504-.1038-.4659-.1263-.2167-.0224-.4701-.0336-.7612-.0336-.4393.1404-.9007.2734-1.3842.3998-.4822.1262-.9885.251-1.5174.3744.1288.0899.0695.1992-.1785.3282-.17.0757-.3909.1417-.6623.1977-.3435.0673-.6673.0954-.9725.0842-.2979-.0337-.4987-.0983-.6013-.1935l.0199-.0252h-.0772c-.3615.0393-.7204.0771-1.0758.1135-.3567.0366-.7058.0575-1.05.0632-.3483-.0057-.5627-.0533-.641-.1431-.0407-.1205.0932-.2567.399-.4081.242-.1066.5243-.2019.8463-.2861.3217-.0841.6816-.1655,1.0794-.244l.4841-.0842.0453-.0252c.0972-.1402.237-.2846.4179-.4334.1815-.1486.4267-.3044.735-.467.1687-.0842.3968-.1543.6851-.2104.2791-.0505.5408-.07.7854-.0588l.2133.0674c-.0097.129-.0779.2651-.2063.408-.1287.1431-.2273.2819-.298.4167h.0508c.334-.0338.6713-.0617,1.0106-.0842.3391-.0224.6742-.0448,1.0055-.0672.4668-.1459.9245-.296,1.3722-.4503s.9362-.303,1.4672-.4461c.2072-.0393.3993-.056.5779-.0505l.2273.059c.0603.0617-.0146.1416-.2251.2398-.2596.1066-.5229.2131-.7913.3197s-.5444.2104-.8281.3114c.3735.0112.6988.0406.9767.0883.2776.0478.4816.1165.6117.2062.1485.1459.173.3087.074.488-.1005.1797-.3312.3704-.6934.5723-.1938.0983-.394.1935-.6031.2861s-.4639.1753-.7656.2482c-.2991.0617-.5789.0842-.8397.0673ZM199.1346,168.9567l.321-.0505.0603-.0336c-.0159-.0674-.0231-.1347-.0224-.2021.0014-.0672.0247-.1374.0695-.2103h-.0762c-.4408.0786-.8283.1683-1.1628.2693l-.3384.1598-.0469.1263c.0624.0224.1712.0309.3269.0252.276-.0112.5657-.0393.869-.0842ZM201.9862,168.3678l.0153-.0085,1.0306-.3029h-.128l-.9055.0757-.0453.0252-.0076.2188.0404-.0084Z"/><path class="cls-15" d="M209.3304,169.4575c-.3525-.0224-.5898-.0812-.7087-.1767-.1192-.129-.1043-.2757.0446-.4398.1486-.164.3795-.333.6916-.507.2252-.1065.491-.2046.7978-.2945.3055-.0898.6576-.1738,1.0554-.2524.9059-.1571,1.7732-.2736,2.6016-.3493s1.628-.1136,2.3967-.1136c.2707.0113.5064.0324.7082.0632.2005.0309.3618.0744.4841.1304l-.0136.0506.2881.1683c.1396.1177.146.2497.0223.3954-.1259.1459-.3472.303-.6666.4713-.2379.1234-.4935.2419-.7655.3554-.2722.1136-.6141.2182-1.0243.3135-.2871.0506-.5539.073-.8006.0673l-.0478-.0588c.0323-.0561.1166-.1178.255-.1852.343-.115.6593-.2342.9492-.3577.2896-.1234.5465-.2524.7715-.3871.1973-.129.2441-.2412.1418-.3366l-.0622-.0084c-.5775.2076-1.208.4066-1.8922.5975-.6839.1907-1.4225.3689-2.2155.5343-.5331.1066-1.0522.1907-1.5554.2524-.5045.0618-.9891.0842-1.4551.0673ZM211.2077,168.797c.7784-.129,1.5093-.2833,2.19-.4629.6812-.1794,1.3298-.3645,1.9456-.5554l.3807-.1262-.6267-.0084c-.6112.0167-1.2461.063-1.9035.1387-.6577.0759-1.3297.181-2.0158.3157-.4306.1066-.7544.23-.9717.3702-.1938.1178-.2255.2161-.0916.2945.1654.0505.3973.0786.6948.0842l.3982-.0505Z"/><path class="cls-15" d="M130.7514,175.6701c-.2672-.0225-.4677-.066-.5991-.1305-.1324-.0645-.2486-.1359-.3468-.2146-.0403-.0729.0218-.1598.1853-.2607.2104-.0983.4661-.1837.768-.2567h.0518l.4379-.1009c.4549-.0729.91-.1431,1.3648-.2104.4538-.0673.9162-.1514,1.3885-.2525.2065-.0672.3892-.1359.5493-.2061.1598-.07.3019-.1444.4252-.2229l.3297-.2694-.0114-.0084h-1.1281c-.6193-.0169-1.2646-.0279-1.9342-.0336s-1.238-.0449-1.706-.1178c-.0638-.0505-.0077-.115.1673-.1935l.3607-.1009c.3301-.0506.6499-.0814.9611-.0926s.6211-.0196.9302-.0252h1.1799l.0104.0084h1.6937l.3481-.0084,1.1394-.6354c.0979-.0448.2279-.0841.391-.1178l.2758-.0252.1664.0505c-.0545.1066-.1708.2216-.3493.3451-.1795.1235-.3504.2455-.5157.366h.1543l2.5034-.0588c.2269.0167.3653.0588.4154.1262.0286.0505-.0302.1121-.1784.185-.1716.0673-.3799.1263-.6247.1768-.531.0673-1.0491.1024-1.554.1051-.5052.0028-1.0132.0127-1.5218.0294l-.1208.0673-.5518.3366c-.2616.1459-.5661.2819-.9116.4081-.3464.1262-.7847.2371-1.314.3324-.4153.0785-.8286.1472-1.242.2062-.4132.0588-.8186.1319-1.2137.2188.0402.0729.1511.1304.3324.1725.1804.0421.2834.0996.306.1725l-.1104.0757c-.0969.0448-.236.0842-.4164.1178-.1695.0281-.3314.0421-.4857.0421Z"/><path class="cls-15" d="M138.0003,175.3757c-.185-.0112-.3015-.0421-.3477-.0926-.0301-.0785.0537-.1683.2523-.2692.4196-.1768.8871-.3493,1.4028-.5176s.9593-.3421,1.3332-.5217c-.0075-.1009.1225-.2159.3881-.3449.4004-.1852.8641-.3675,1.3911-.547s1.1123-.3463,1.7574-.5007c.3323-.0617.6432-.0869.9308-.0757.1506.0113.24.0421.2696.0926.0135.0785-.0994.1698-.336.2734-.6822.247-1.327.4965-1.9332.749-.6069.2524-1.2838.4964-2.0316.732h.0518c.4242-.0841.8388-.1529,1.242-.2062.403-.0532.7965-.0771,1.1802-.0715.2559,0,.4938.0057.713.0169s.3675.0478.4454.1095c.028.1178-.1107.2524-.4167.4039l-.4741.2355-.1295.1011h.5382c.4313-.0112.8842-.059,1.3602-.1431.3118-.0785.592-.1613.8429-.2483.2496-.0869.5472-.1668.8911-.2398.2248-.0393.4474-.0588.6701-.0588l.2793.0588c.04.073-.0248.1571-.196.2525-.2836.1009-.5989.1956-.9459.284-.3458.0883-.7145.1746-1.1045.2586-.546.0899-1.0719.1544-1.5787.1935-.5063.0394-1.0032.0561-1.4885.0506-.2809-.0057-.4853-.0393-.6138-.1011-.0846-.0672-.0676-.1436.0516-.2292s.2727-.1761.4614-.2715l.5701-.2607.0199-.0252h-.1026c-.5022.0224-1.023.0841-1.5634.185s-1.0751.1992-1.6057.2946l-.03.0167-.629.122c-.213.0899-.4864.1683-.8201.2356-.2525.0449-.4839.0645-.6957.059Z"/><path class="cls-15" d="M154.9356,175.544c-.0928-.0337-.1286-.0759-.1065-.1263.0824-.0841.2019-.1725.3601-.265.1572-.0926.2927-.185.408-.2776h-.0518c-.3196.0448-.6208.07-.9054.0757h-1.1535c-.3151-.0057-.609-.0182-.8814-.0379-.2726-.0196-.482-.0602-.628-.122-.0885-.0841-.0267-.185.1846-.3028.242-.1066.5448-.1992.9083-.2777.4067-.0841.8083-.1457,1.2043-.1852.3944-.0391.7777-.0617,1.1461-.0672.2569,0,.48.0112.6713.0336.1901.0225.3714.0478.544.0757l.181-.1009.6257-.4208h-.5636c-.79.0113-1.5822.0239-2.377.0379s-1.5949.0239-2.3998.0294c-.462,0-.7831-.0448-.964-.1345-.0321-.0393.0015-.0869.1022-.1431.1183-.0561.2887-.1038.5134-.1431,1.1724-.1009,2.3093-.1641,3.4114-.1893,1.1011-.0252,2.193-.0491,3.2763-.0715l.0905-.0505.0351-.0337c.1618-.1093.4038-.2061.7257-.2903l.4347-.042c.1268.0055.2056.0281.2379.0672-.027.1011-.1181.2091-.2725.324h.5636s1.0288-.0084,1.0288-.0084c.2802.0055.4578.0448.5323.1177.0536.0561.0049.1263-.1459.2104-.1827.073-.4186.1375-.7065.1935-.364.0505-.7188.08-1.063.0884s-.6867.0125-1.0295.0125l-.166.0926-.2201.1516-.7544.4207-.6007.2777c-.0136.1121-.107.2334-.2805.3639-.1742.1304-.3956.2658-.6647.406-.1912.1066-.4713.1964-.8413.2692-.1462.0336-.2827.0476-.4096.0421ZM155.4194,174.631l.2487-.0673c-.0744-.0729-.2103-.1262-.4057-.1599-.1966-.0336-.4486-.0505-.7563-.0505-.3862.0057-.8068.0588-1.2616.1599l-.0856.0336c.1629.0617.4064.0996.7319.1136s.6735.0182,1.0421.0125l.4865-.042Z"/><path class="cls-15" d="M162.1414,175.5523l-.1804-.0421c-.0155-.0393.0269-.0869.1276-.1431.5852-.1738,1.1957-.347,1.8303-.5195.6339-.1726,1.1076-.3654,1.4213-.5785.2148-.129.2923-.2441.2351-.3451-.1498-.0505-.3554-.0812-.6163-.0926-.2625-.0111-.5523-.0139-.8709-.0084-.4204.0057-.8442.0252-1.2717.0588-.4288.0337-.8498.0561-1.2626.0673l-.0589-.0673.0905-.0505c.4136-.1065.8483-.1822,1.305-.2271.4123-.0393.8133-.0673,1.203-.0842.3894-.0167.7719-.0252,1.148-.0252.3493.0057.6672.0239.9536.0548s.4783.0911.5733.1808c.0481.1066.0077.2244-.1211.3535s-.3186.2637-.5701.4039c-.3698.1964-.8398.3751-1.4113.5364-.5705.1613-1.1811.3176-1.8286.469-.2515.0449-.4829.0645-.6957.059ZM167.1041,172.9143c-.4394-.0224-.8488-.0539-1.2289-.0947-.3804-.0406-.6865-.1057-.9189-.1956-.0843-.0673-.0412-.1486.1299-.244.1483-.0729.3617-.1347.6398-.1852.4119-.0673.799-.0926,1.1623-.0757.3638.0449.7493.0827,1.1558.1136.4056.0309.7492.0827,1.0288.1556.0742.073-.0009.1628-.2263.2694-.1825.0729-.4071.136-.6734.1892-.3844.0618-.741.0842-1.0692.0673Z"/><path class="cls-15" d="M173.7435,175.4261c-.2598-.0169-.4225-.0645-.4867-.1431.22-.2468.4502-.4944.6902-.7426s.5436-.4986.9112-.751l.4871-.1431c.2349-.0449.4525-.0617.6551-.0505.2016.0112.3336.0476.3939.1093.0675.1628.0081.3408-.1759.5343-.185.1935-.3802.3857-.5855.5764h.0645c.6737-.185,1.3209-.3744,1.9425-.5679.6206-.1935,1.2175-.3885,1.7924-.5849.2513-.0448.4779-.0617.6805-.0505l.249.0757c.036.0561-.033.1235-.208.202-.4044.1683-.8734.3296-1.4069.4838-.5326.1543-1.112.296-1.737.425-.4836.0981-.9268.2047-1.3304.3197-.4025.115-.857.2061-1.3616.2734l-.5743.0337Z"/><path class="cls-15" d="M181.0422,175.3757c-.337-.0169-.631-.0463-.8797-.0884-.2497-.0421-.4176-.1108-.5023-.2062-.0899-.1121-.0635-.2391.0803-.3808.1426-.1416.3499-.2882.6215-.4396.2378-.1233.5212-.2383.8492-.3449s.6887-.2076,1.0826-.303h.0508s.519-.1178.519-.1178c.3675-.0617.724-.108,1.0702-.1387.3455-.0309.6894-.0435,1.0301-.0379.2534.0112.4779.0336.6743.0673.1956.0336.3543.0785.4766.1345l-.0199.0252.0723.0169c.0575.073.0498.1514-.0251.2356-.0736.0841-.188.174-.3413.2692-.2014.1123-.4975.2104-.8876.2945-.5673.1066-1.122.1893-1.6634.2483-.5421.0588-1.0735.0883-1.595.0883l-.4893-.042-.03.0167-.0547.202c.1338.0588.3475.0911.641.0968s.5099.0364.6485.0926c.0222.0448-.0253.0953-.1436.1514-.0972.0449-.2309.0814-.4012.1093-.2681.0449-.5299.0618-.7833.0506ZM184.2855,174.1681l.4028-.0672.0455-.0254c.0522-.0672.0008-.1148-.1539-.1429l-.8117-.0337c-.2848.0112-.574.0505-.8657.1178-.3929.0954-.737.1964-1.0308.303h.1543c.3721-.0169.7462-.0337,1.1229-.0505.377-.0169.7559-.0506,1.1366-.1011Z"/><path class="cls-15" d="M185.0764,175.3504l-.1615-.0673.1032-.1431.4054-.1977c.1464-.129.3312-.2609.5561-.3956.3861-.1962.7703-.3941,1.154-.5933.3824-.1991.8856-.3772,1.5092-.5343.2347-.0448.4626-.0673.6853-.0673l.2894.0673c.0374.0842-.0614.1823-.2967.2945l-.2028.0842h.0518c.4162-.0561.8242-.1023,1.2239-.1389.3984-.0364.7856-.0547,1.1617-.0547.3433.0281.5884.0869.7351.1767.0395.0449-.0101.1009-.1475.1683l-.3204.0926c-.2072.0393-.4084.0561-.6033.0505-.1448-.0336-.2554-.0771-.3307-.1304s-.2565-.0715-.5424-.0548c-.3149.0225-.6406.0576-.978.1053s-.6754.0939-1.0119.1389c-.3963.2019-.8128.4003-1.2473.5952-.4357.195-.9249.3823-1.4696.5618-.2072.0393-.3945.0533-.5629.0421Z"/><path class="cls-15" d="M191.5165,175.5859c-.1927-.0167-.3146-.0533-.3685-.1093-.0374-.0842.0664-.1852.3129-.303.1716-.0673.3972-.1262.6753-.1767.3007-.0533.5778-.0744.8322-.0632.2256.0169.3602.066.402.1472.0335.0673-.0529.1487-.2579.244-.1716.0673-.3887.1263-.6502.1768-.3435.0673-.6583.0953-.9458.0841Z"/><path class="cls-15" d="M195.6949,175.4514c-.2189-.0113-.3638-.0449-.4343-.1009-.0589-.0673-.0191-.1445.1202-.2315.1383-.0869.2969-.1753.4754-.2651.5818-.2721,1.1826-.5428,1.8023-.812s1.2809-.5328,1.9833-.791h-.1026c-.273.0281-.5287.0421-.768.0421-.2305,0-.3597-.0309-.3858-.0926-.0046-.0448.0381-.0926.1286-.1431.1282-.0617.3037-.1121.5285-.1514.5881-.0561,1.1835-.1381,1.7873-.2461.6049-.108,1.1853-.1789,1.7408-.2125l.2386.0673c.067.0672-.0123.1501-.2401.2482-.5476.1626-1.0494.3324-1.503.5091s-.8963.3521-1.3282.5259l-.7998.4459-.6245.3199-1.0489.5848c-.1751.0785-.3957.1487-.6597.2104-.3157.0617-.6193.0926-.9103.0926Z"/><path class="cls-8" d="M165.0983,185.6782c-5.6418,3.1455-17.9889,5.6953-27.5783,5.6953-9.5894,0-12.7903-2.5498-7.1492-5.6953s17.989-5.6958,27.579-5.6958c9.5901,0,12.7904,2.5501,7.1484,5.6958Z"/><polygon class="cls-8" points="151.2659 193.3903 116.5401 193.3903 129.2576 186.299 163.9849 186.299 151.2659 193.3903"/><path class="cls-7" d="M146.1241,184.8188c-1.2722.7093-3.4981,1.2844-4.9718,1.2844-1.4737,0-1.6371-.575-.3649-1.2844s3.4981-1.2844,4.9719-1.2844,1.6371.575.3649,1.2844Z"/><path class="cls-7" d="M156.9137,184.8188c-1.2722.7093-3.4982,1.2844-4.9719,1.2844-1.4737,0-1.6371-.575-.3649-1.2844s3.4982-1.2844,4.9719-1.2844c1.4737,0,1.637.575.3648,1.2844Z"/><polygon class="cls-13" points="133.8369 187.6179 141.6018 189.8447 149.5894 185.3911 133.8369 187.6179"/><polygon class="cls-11" points="133.8375 187.6176 141.6024 189.8444 145.5961 187.6176 133.8375 187.6176"/><polygon class="cls-8" points="151.2659 193.3903 116.5401 193.3903 122.989 189.7944 157.7155 189.7944 151.2659 193.3903"/><path class="cls-9" d="M120.9041,190.9569l-4.364,2.4334h34.7258s4.9238-2.7452,4.9238-2.7452c-5.7617.4845-13.1202.7855-20.6669.7855-5.7576,0-10.7742-.1756-14.6187-.4737Z"/><path class="cls-12" d="M89.7233,191.8619l-8.5948,4.793s-2.4934,1.343,1.5943,1.587h10.2241l20.9515-9.2814c.6733-.2983.0915-.5169-.9756-.3666l-23.1996,3.268Z"/><path class="cls-16" d="M204.2974,180.7753l-34.1657,6.8426-10.312,10.6322h8.1914s4.6669.0235,7.8465-1.6203l28.4397-15.8545Z"/><path class="cls-14" d="M245.5963,173.5585c.0172-.2731.046-.5432.0862-.8078.0403-.2653.0895-.5212.1476-.7677.0565-.1381.1162-.2561.1786-.3516.0624-.0955.1323-.1652.2092-.2078.1444-.0338.2689.0892.3729.3672.0674.191.1244.4075.171.6506.0465.2423.0846.4896.1146.7427l.6173-.3436.179-.0772-.0023-.0884-.0833-1.5729.0566-.3748c.0409-.1294.0919-.2035.1524-.222.05.0034.0955.0539.1368.1537.0572.3033.0996.627.1271.9712.0274.3428.0561.6845.0862,1.0261.133-.0294.258.0126.3748.1257l.0208.2106-.061.1893-.2751.2643-.0055.1137.0369.5305c-.0062.1933-.0373.3717-.0928.5341-.0408.0961-.0909.1525-.1498.1714l-.1421-.161c-.0556-.2618-.0932-.5557-.1127-.8841l-.0887.0495-.0075.0263-.3468.1937-.2738.1751.0027.0871c.0461.2539.0856.5259.1188.8147.0331.2877.0543.5886.0636.9016l-.0093.5024.0229.2239c.1842.039.3669.0903.5481.1517.1807.0612.355.1512.5229.2686l.0462.2701-.0415.266c-.0448.1232-.0988.1896-.1623.1971-.1483.0135-.2925-.0114-.4326-.0768-.1404-.0655-.2836-.1202-.4295-.1653.0093.313.0035.6091-.0176.8876-.021.2777-.07.5432-.1474.796-.0732.2084-.1528.3816-.2385.5208-.0857.1391-.1808.2378-.2851.2971-.0944.0402-.1821.0277-.263-.0376-.081-.0654-.1589-.1672-.2337-.3056-.0806-.1502-.1235-.357-.1281-.6211l.0587-.3716c.0485-.1472.1099-.235.1843-.2633.0539-.0018.1026.0448.1463.1398l.0101.0577.0158-.0089c.0738.2674.169.4658.2857.5958l.1021-.058c.0763-.1135.1428-.2833.1996-.512.0363-.2027.0615-.4196.0758-.6498.0143-.2308.0205-.4597.0189-.6859-.1105-.0947-.2231-.1597-.3376-.1949-.1147-.0352-.2298-.0779-.3453-.1281-.0354-.0804-.0532-.1999-.0533-.3588.011-.1503.0424-.2623.0944-.335l.0721-.0405c.0742.1026.1535.1598.2378.1697.0842.0099.1677.0353.2501.0753l-.0013-.0424c-.0696-.3209-.1268-.6688-.1715-1.0442-.0449-.3771-.095-.7411-.1504-1.0941l-.3398.1898c-.095.0387-.1865.0565-.2749.0536-.0885-.0029-.173-.048-.2537-.1367l-.0017-.0437-.0342-.0256c-.0866-.2347-.1372-.5365-.1515-.9039ZM245.9626,173.7603l.3952-.22.1377-.0991-.0022-.0662c-.0436-.1411-.098-.2776-.1636-.4105-.0657-.1333-.1308-.2422-.195-.3281l-.0369.0205c-.0723.3125-.1214.6452-.1474.9978l.0122.1056Z"/><path class="cls-14" d="M242.2544,174.3881c.0861-.3389.2085-.5301.367-.5717.1937-.015.3889-.0276.5853-.0364.1958-.0086.3829.0663.561.2268l.0473.2697-.0303.2438c-.0918.1949-.1994.3-.3229.3155-.197.0189-.3943.0412-.5914.0677-.1978.0268-.3871-.0698-.5683-.2895-.0313-.0434-.0474-.1194-.0476-.2261ZM241.9166,177.5718l.0566-.3212c.0493-.1168.1096-.1952.181-.2351.0807.0297.1625.0576.2446.0863.0821.0287.1644.0271.247-.0047l1.5908-.8898c.1315-.0437.2626-.0805.3931-.1092.1304-.0287.249.0374.3555.198.0439.1216.0674.2839.0705.4869-.0046.1479-.0287.2923-.0721.4332-.104.2618-.2268.4503-.3686.5658s-.2848.2221-.429.3173l-.4109.2312-.007.0256-.3467.1951c-.2378.1197-.4747.1692-.711.1497-.2373-.0194-.4604-.1821-.67-.49-.0767-.148-.1183-.3615-.124-.6391ZM242.6067,181.655l.029-.2065c.2015-.1703.3879-.4187.559-.7457.1715-.3276.3567-.5825.5554-.7662l.1362.0933c.0314.0811.0482.1957.0502.3429l-.0432.2782c-.16.3858-.3429.6652-.5488.8378-.2063.1728-.4133.3324-.6208.4785l-.0696-.0655c-.0263-.0692-.0419-.1519-.0475-.2468Z"/><path class="cls-14" d="M239.9524,175.7099c.0006-.2314.0287-.4472.0842-.6484.0779-.2139.1803-.3322.3073-.3559.0938.0097.1828.065.2669.1657.0835.1007.1657.2284.2457.3835.156.3498.3063.7037.4503,1.0633.1432.3577.2316.803.2656,1.3349l-.0518.3847c-.0564.179-.1288.2861-.217.3211-.1315-.015-.2507-.1403-.3577-.3777-.1419-.3232-.2918-.6361-.4491-.9401-.1585-.3053-.3203-.5982-.4855-.8807-.0333-.1342-.0529-.2844-.0589-.4504ZM237.5841,177.1846c-.0006-.1385.0174-.2725.0538-.4005.0461-.1498.1049-.2556.1768-.3187.0714-.0628.1475-.1084.2279-.1378.1139-.0479.2242.0002.3305.1419.0381.0715.0628.1734.0737.3059l-.0603.3904c-.072.1927-.1528.3523-.2416.4784-.0892.1263-.1876.2108-.2952.2557-.0589.0018-.1134-.0515-.164-.161-.0598-.1426-.0937-.3277-.1016-.5543ZM238.2018,183.9415c-.0054-.1249.0066-.2459.0365-.3623.0371-.0927.0869-.1423.149-.1486l.1212.1237.0966.1372c.0636.0203.1276.0053.1913-.0446l.0724-.1475c.0436-.8734.0367-1.7525-.0213-2.6373-.0589-.8942-.0991-1.7943-.1205-2.6989l.0866-.1163.0295-.1753c.0587-.1384.1305-.2239.2152-.2562.2384-.0725.4796-.1762.7242-.3124.244-.1359.4848-.1567.7218-.0627.0271.0605.0414.1427.0431.2465l.0708.028c.1228.4101.2188.8536.2886,1.332.069.4757.121.9644.1552,1.4675.019.2785.0208.5528.0057.8229-.0151.2693-.0579.5236-.1276.7626-.078.2433-.1706.4298-.2784.5621-.1077.1322-.2268.2209-.3576.2664-.0762.0294-.1517.0467-.2268.0542-.0751.0075-.1449-.0424-.2089-.1478-.0407-.0912-.0621-.2213-.0637-.3917l-.0029-.1486c-.0477-.1806-.0777-.3836-.089-.6075l-.1224-1.5923-.0717-1.4961-.2174.099.0151.1936c.0455.3627.0885.7318.1293,1.1079.0403.3746.0784.7563.1145,1.1438l.1148,1.4808c.0113.293-.0066.5664-.0542.8198l-.0452.0681c-.0904-.1474-.1514-.3471-.1825-.5999-.0316-.2533-.0565-.5295-.0744-.8291-.0376-.5428-.0694-1.0892-.0958-1.6381-.0266-.5525-.0511-1.1143-.0728-1.6849l-.1863.059.0103.1292c.0383.2624.0696.5289.094.7971.024.2676.0476.5422.0701.8242.0382.6228.0714,1.2522.0998,1.8881.0278.6313-.0138,1.2324-.1247,1.8036-.0948.2511-.2128.4024-.3542.4545-.0828.0186-.1621.0152-.2375-.0126-.076-.0276-.1493-.0917-.2199-.1924-.0486-.0997-.0818-.2222-.1001-.3683ZM237.9035,178.8262c.0127-.1884.0529-.3323.1208-.4304l.2355-.2222c.0456-.0106.0898.0261.1317.1084l.0586.2845c.0038.1188-.0106.2239-.0433.3177-.0855.2279-.1948.3789-.3281.4534l-.0944-.0823c-.0504-.1071-.0772-.2502-.0809-.4291ZM240.4971,181.454l.131-.2894c.0216-.1708.0285-.3477.0214-.5312l-.1905-2.6931-.0009-.134-.0331.0185c-.0668.1125-.1381.1972-.214.2541l.0171.2367c.0413.3338.0797.6711.1159,1.0125.0356.3402.0688.6835.0996,1.0299l.0614.8546-.0175.2254.0096.0161ZM240.092,181.6829l.0649-.0366.2056-.0731-.0045-.062-.0587-.2256-.0794-1.0855-.1826-2.024-.2914.1404.0032.0431c.0893.5012.1569,1.0264.2038,1.5738.0462.544.092,1.0844.138,1.621l.0011.1286ZM238.126,180.4948c-.0002-.1331.0178-.2621.0537-.3857.0442-.1585.1087-.2537.1928-.2863l.0936.0813c.048.0922.0734.2257.0768.4012-.0177.2014-.0624.359-.1331.4727l-.1118.1069-.1116-.0918c-.0295-.0718-.0494-.1714-.0603-.2983ZM238.2421,182.1427c-.0043-.114.0067-.2215.0323-.3232.0561-.1484.1277-.2467.2155-.2961l.1171.0651c.0409.0784.0671.1877.0786.3258l-.0347.3016c-.0572.133-.1334.2127-.228.237l-.1186-.0847-.0623-.2254Z"/><path class="cls-14" d="M234.3505,180.7737c-.0136-.343.0145-.6636.0843-.9634.0983-.3695.2245-.6639.3777-.8799.1534-.2162.318-.3736.4945-.4715.1108-.0301.2178-.0083.3213.0651.1029.0735.2048.198.3057.3722.2095.4413.38.93.5113,1.4669.1304.5329.2255,1.1145.2857,1.7441.0115.2432.0121.4765.0019.701-.0106.2242-.0344.4412-.0718.6503l-.0433.0895-.118.5642c-.0872.3433-.1964.6091-.3269.7978-.1308.1887-.2785.3217-.4434.4013-.1216.055-.2402.0859-.3565.0949-.1164.0091-.2315-.0546-.3448-.1917-.0662-.1276-.108-.2954-.1244-.5029l.0445-.1555c.0491-.0853.1076-.1401.175-.1641.1243.046.2496.062.3764.0478.1262-.014.2546-.0649.3847-.1525.1229-.0987.2202-.2836.2916-.555l.0021-.0664c-.2201-.0499-.4377-.1596-.6536-.3302-.2172-.1711-.4289-.4117-.636-.7245-.1364-.2208-.2528-.4752-.3494-.7656-.0974-.2914-.1602-.6479-.1886-1.072ZM235.0754,180.982c.1762.3828.3688.6709.5775.8665.2075.195.4164.3514.6269.4683l.1366.0554-.0428-.5281c-.0632-.4679-.1537-.8977-.2716-1.2891-.1186-.3935-.264-.7394-.4367-1.0392-.1279-.143-.2609-.1608-.3991-.0529-.1173.0802-.2037.2591-.2584.5334-.0281.2441-.0315.4967-.0099.7572l.0776.2284Z"/><path class="cls-14" d="M230.3875,181.269l.02-.1984c.0249-.0924.0579-.1494.0983-.1717.0908.0282.1844.0069.2804-.0616l.0405-.0459c.2136-.0248.426-.0058.6373.0555.2107.0611.422.0796.6331.0551l-.0348-.2824-.0818-.5144c-.0145-.1173-.0098-.2289.014-.336.0256-.0928.0653-.1454.119-.1598l.1052.1061c.0672.197.1287.4001.1844.6103.056.2094.1067.428.1525.6566.1332.0181.2631.0644.3903.1395.127.075.2514.1922.3724.3531.0473.0956.082.2127.104.3515.0077.117-.0033.2285-.0332.3357-.0383.0813-.0831.1369-.1339.1653-.0782-.0015-.1534-.016-.2262-.0432-.0724-.0275-.1462-.0509-.2208-.0694l.0153.1276.0441.2922c.0249.2568.0076.4993-.0524.727-.0252.0892-.0603.1458-.1054.1711l-.1547-.16c-.0803-.1653-.1388-.3727-.1759-.6233-.0368-.2517-.0758-.495-.1172-.731-.3-.0158-.5989-.0523-.8972-.1083-.2989-.0564-.5996-.1752-.902-.3561-.0402-.071-.0654-.1655-.0754-.2851ZM230.4498,186.4265c-.0299-.2628-.05-.5176-.0599-.7646-.0095-.2479.009-.4887.0558-.7246.0244-.0889.0632-.1399.116-.1549l.0707.0501c.036.0841.0641.1803.0846.2884l.1395,1.032c.0556.321.1203.6267.1936.9163.0734.2882.1324.6006.1773.9346l-.0316.362c-.0249.0999-.0643.1513-.1176.1526-.0605-.0085-.1211-.06-.1819-.1545-.1008-.2586-.1865-.5552-.2566-.8882-.07-.3347-.1332-.6849-.1899-1.0494ZM231.7717,186.7104c.0603-.4125.0999-.8358.1185-1.2722.0191-.4387.0405-.8729.0641-1.3026.0308-.0923.0713-.1519.1219-.1804l.106.0525c.1004.2261.1767.4992.2279.8173.0514.3166.1003.6376.1463.962.0196.2508.0118.4892-.0223.7147-.034.225-.0732.4438-.1175.6555-.0583.1912-.1416.303-.2501.3355-.0767.0005-.1513-.0509-.2241-.153-.0908-.1506-.1474-.3601-.1708-.6294Z"/><path class="cls-14" d="M227.0793,190.1178l.022-.3176c.0367-.1519.0987-.2449.1853-.2797.0974.0323.1946.0504.2916.0532.0969.0029.1919-.0292.2854-.0963.1246-.1.2374-.2401.3377-.4201.1004-.1802.1812-.4085.243-.6845.037-.1966.0515-.403.0435-.6191-.0084-.2165-.03-.4405-.0652-.6731-.165-.071-.3269-.1733-.4867-.3075-.1603-.1347-.323-.2912-.4878-.4701-.0548.2874-.1491.4599-.2825.5201-.0818.0154-.1625-.0297-.2418-.1356-.0978-.1412-.1627-.3481-.1937-.6191-.0127-.3131.0118-.6103.0743-.8903l.0227-.0357-.0101-.0635c-.0794-.218-.157-.4366-.2334-.6579-.077-.2218-.1409-.4705-.1916-.7473-.043-.3059-.0338-.5862.0279-.8419.0914-.288.2193-.4623.3829-.5206.1184-.018.2333.0218.3439.1183.1104.0963.2231.231.3384.4026l.1305.2328.0262-.0146c.1258-.2106.2606-.3945.4044-.553.1435-.1583.301-.2762.4722-.3558.0894-.0343.1745.0125.256.1396.0753.1302.1227.3094.1437.5389l-.029.318c-.106.2594-.2244.4837-.3558.6724-.1313.1885-.2555.3926-.3726.6109l.0064.0424c.0685.2062.1324.4267.1925.6589.0594.2317.1182.4596.1767.6833.1727.0835.3477.1506.5244.2007.1759.0502.3523.1455.5282.2841.0552.088.0906.208.1067.3619l-.021.2994c-.0425.1707-.1147.2709-.2169.2989-.115.0065-.2304.0086-.3463.0077-.1165-.0007-.2312-.0135-.3451-.038.0354.3198.0507.6364.046.95-.0051.3127-.035.6078-.0901.886-.0969.4019-.2214.7395-.3731,1.0122-.1519.2725-.3278.466-.5285.5801-.0999.0428-.1983.073-.2957.0928-.0974.0198-.1935-.0161-.2874-.1063-.0855-.1104-.1379-.2822-.1579-.5175ZM226.91,184.2625l.0827.1631.0348-.0194c.0517-.153.1047-.2987.1589-.4371.0542-.1385.1133-.2646.1781-.3788l-.01-.0645c-.1207-.2057-.2437-.3451-.3692-.4166l-.1736.0492-.1077.2246c-.01.0996-.0021.2091.0234.3275.0455.2087.1066.393.1827.5522ZM227.7487,185.4072l.0086-.0048.3707.2249-.0159-.1046-.1735-.5873-.0259.0145-.1759.4413.0119.0162Z"/><path class="cls-14" d="M222.4641,187.4024c-.0375-.337-.0289-.653.0257-.9499.0816-.3667.1974-.6601.3483-.8775.151-.2176.3185-.378.5021-.4798.1181-.0335.2351-.0156.3514.0535.1165.0687.235.1878.3552.356.2565.4268.473.9019.6511,1.4252.1768.5195.3187,1.0879.426,1.7044.0292.2383.0456.4675.0493.6886.0041.2203-.0069.4343-.0336.6411l-.0407.0894-.0893.558c-.0709.34-.1703.6044-.2989.7943-.128.1894-.2787.3251-.4512.4087-.1271.0579-.2534.0923-.3782.1051-.1249.0128-.2531-.0461-.3851-.1768-.0801-.1231-.1361-.2867-.1683-.4896l.0375-.1541c.0476-.0857.1066-.1412.1778-.167.1377.0408.274.0524.4094.0344.1357-.0181.2703-.0722.4048-.1626.1264-.1012.2189-.2861.2772-.5547l-.0023-.0652c-.2404-.042-.4827-.1424-.7276-.3027-.2455-.1611-.4903-.3905-.7355-.6907-.1617-.2127-.3046-.4588-.429-.7408-.1245-.2834-.2168-.6314-.2763-1.0474ZM223.2609,187.5833c.2166.3702.4439.6469.682.8325.2375.1845.4736.3312.7082.4395l.1511.0499-.0819-.5175c-.0998-.4576-.2265-.8771-.3802-1.2578-.1546-.3829-.335-.7181-.5416-1.0072-.1474-.1366-.2921-.1498-.4345-.039-.1212.0827-.2019.2611-.2429.5329-.0138.2409,0,.489.0406.7447l.0992.222Z"/><path class="cls-14" d="M218.3479,191.3813c-.031-.2591-.0346-.5079-.01-.7452.0242-.2376.0567-.477.0976-.718.047-.1817.1227-.3106.2271-.384.1102-.0299.2189.0031.3264.0984l.009.0417.1515.1483c.133.2193.2638.4435.3916.6716.1274.2273.2682.4265.4226.5988.0847.0288.1661.0354.2451.0217.0786-.0134.1574-.051.2367-.1102l.2553-.2798.0046-.0253-.1854-.9029c-.0901-.5349-.1894-1.0815-.2973-1.6416-.1091-.5638-.1761-1.1174-.2002-1.6616.0277-.1591.0864-.248.1766-.2655l.1386.091c.0945.1711.1718.3739.2327.6099.0603.2355.1184.4749.1743.7183l.1944.9671-.0047.0258.2748,1.3664.0623.2614.6603-.3707c.0489-.0127.0994.0124.1503.0746l.062.1691-.0124.2331c-.0892.1709-.1939.3087-.3147.4139-.1212.1054-.2399.2139-.3563.3244l.0244.1213.4348,1.831c.0223.2065.0124.3948-.0299.5639-.033.1201-.088.1949-.1645.2242-.0764-.0002-.1523-.0444-.2277-.1326-.1329-.2751-.2407-.6045-.3225-.9893-.0826-.3865-.1709-.7631-.2653-1.1284l-.0697.0393-.3404.2367c-.1514.0853-.3023.1174-.4531.0976-.1511-.0199-.3069-.1436-.4666-.3714-.1286-.1702-.25-.3611-.3646-.5716-.115-.2113-.2394-.387-.3726-.5285-.0475.1803-.0704.3858-.0699.6158.0005.2294-.0243.4266-.0739.5917l-.075.065c-.0502.0133-.1034-.0186-.1597-.0934-.0506-.0782-.0895-.1792-.1167-.3019Z"/><path class="cls-14" d="M213.8432,190.5183c-.0303-.1758-.0315-.3355-.0046-.4796.0504-.1888.133-.3072.2468-.3544.214-.0217.4342.0049.6606.0807.2258.0756.4406.0799.6455.0142.0724-.2164.1818-.3491.3286-.3981.2137-.055.4372-.0509.6706.0108.2322.0617.4658.1969.7003.4063.107.1446.1831.346.2281.6026.0193.145.0134.2816-.0184.4079-.0554.1709-.1431.2665-.2627.2868-.3078-.0464-.6112-.0561-.9105-.0299-.3001.0263-.6086-.0221-.9258-.1446l.0101.0418c.1442.1715.2746.3664.3917.5831.1162.2162.2091.4829.2786.801.0489.2044.0897.4046.1236.6012.0334.1964.0348.3861.0055.571-.0792.2583-.202.4187-.3687.4816l-.2591.1-.097.1003.1035.4203c.09.3121.2104.5683.3601.7685.1141.0848.2258.1382.3344.1585.108.0205.2199.0912.3358.2117.069.0943.1242.2263.1648.3949l.0091.3262c-.0447.1719-.1162.2862-.2147.3421-.1235-.0179-.2484-.0716-.3751-.162-.127-.0906-.2566-.2012-.3895-.3338-.1668-.2401-.3124-.5162-.4369-.8282-.1256-.3132-.2335-.6644-.3238-1.0549-.0511-.2312-.067-.4587-.0482-.6845.0314-.2022.0892-.342.1739-.4207.0843-.0784.1791-.1386.2841-.1824l.2973-.0743.0219-.0354-.0197-.0813c-.1132-.3535-.2584-.6446-.4366-.8721-.1789-.2284-.3559-.4593-.53-.6932l-.0182.0101-.2143-.2605c-.1079.0124-.2195-.0482-.3361-.1827-.0838-.1125-.1457-.2626-.1849-.4487Z"/><path class="cls-14" d="M210.851,198.0774c.0027-.1377.0235-.2482.0627-.3306.0752-.1027.1613-.1854.2582-.248.0969-.0626.1894-.1409.2772-.236l-.0109-.0394c-.0993-.1573-.1813-.3398-.2458-.5477l-.25-.899c-.0649-.258-.1206-.5152-.1668-.7704-.0463-.2561-.0646-.505-.054-.7473.0387-.2431.1225-.4001.251-.4718.1273-.0236.2582.0302.3921.16.147.1538.2769.3481.3889.582.1116.2331.209.4893.291.7681.0542.2008.0934.398.118.5912.0246.1928.0452.3839.0616.5724l.1077-.0606.4217-.3517-.1167-.4382c-.1725-.5949-.3478-1.194-.5258-1.7972-.1795-.6082-.3592-1.2341-.5381-1.8786-.1011-.3787-.1398-.737-.1163-1.0751.0206-.109.0623-.1809.1241-.2151.0659-.0206.1368.022.2141.1255.326.7558.6143,1.5533.8648,2.3896.2477.8269.4903,1.6412.7268,2.4416l.0537-.0302.0306-.0401c.1093-.0924.2261-.0964.3496-.0144l.1163.2528c.0215.1092.0217.2145.0003.3171-.0761.1785-.1694.3215-.2809.4296l.1126.4313.2094.7631c.0515.2225.0592.4316.023.6287-.0282.1482-.0863.2473-.1741.2972-.086.0049-.1772-.0458-.2731-.1535-.1072-.1748-.1983-.3838-.2733-.6273-.0752-.2444-.1473-.496-.2167-.7569l-.0978.0553-.1497.1297-.4453.2517-.3157.0882c-.0797.2108-.1824.377-.308.5009-.1256.1239-.2649.2207-.417.2922-.113.0639-.234.0277-.3628-.1105-.0543-.045-.0928-.1206-.1166-.2284ZM211.5787,196.6416l.0992.0585c.0343-.2024.0424-.4135.024-.6331-.0185-.2201-.0607-.4507-.1265-.692-.0866-.2923-.2147-.5171-.3833-.6723h-.0421c-.0075.2539.0195.5238.0804.8076.0607.2828.1326.5626.2155.8386l.1327.2926Z"/><path class="cls-14" d="M206.3065,199.0885l-.0165-.2234c.0218-.0903.064-.1525.1252-.1869.256.1042.5171.2289.7821.3724.2639.1429.5026.1233.7175-.0586.1358-.0914.2302-.2595.2837-.5049-.001-.2152-.0282-.4347-.0816-.6598-.0536-.2258-.1199-.4568-.1983-.6937-.1028-.3182-.2167-.6118-.3413-.8819-.1252-.2712-.2411-.5597-.3488-.8675l.0311-.1855.0559-.0311c.1714.1123.3271.3058.4665.5776.1244.2479.2382.5077.3411.7804.1026.2717.1977.5545.2851.8474.0772.2821.138.5641.1836.8466.0454.2815.0485.5469.0107.797-.0597.247-.1472.4479-.2625.604-.1152.156-.2481.2765-.3987.3617-.2152.1069-.4429.1024-.6831-.0129-.2411-.1157-.4894-.2707-.7443-.4647-.0903-.1029-.1592-.2424-.2072-.4162ZM209.2255,197.6555c-.0845-.3838-.1567-.7662-.2159-1.145-.0595-.3806-.0858-.7545-.0787-1.1215.0263-.2045.0917-.3359.1964-.3944.0836-.0312.1749.0128.2733.1321.1399.1902.2448.4449.3155.7657.0513.3768.1119.7535.1819,1.1311.0697.3758.1103.7431.1229,1.1017-.0327.2007-.1101.3207-.2318.3586-.0894.0049-.1819-.042-.2774-.14-.1278-.1716-.2232-.4014-.2862-.6883Z"/></svg>