<?xml version="1.0" encoding="UTF-8"?><svg id="_レイヤー_2" xmlns="http://www.w3.org/2000/svg" viewBox="0 0 311.811 311.811"><defs><style>.cls-1,.cls-2{fill:#e2e2e2;}.cls-3{fill:#bcbcbc;}.cls-2{stroke:#000;stroke-linejoin:round;stroke-width:8px;}</style></defs><polygon class="cls-2" points="130.2035 159.1916 125.8863 109.9429 145.0978 109.9429 148.5515 156.0745 130.2035 159.1916"/><path class="cls-2" d="M197.1197,153.7887s-14.2461-39.7894-52.022-43.8458l3.4537,46.1316,48.5682-2.2858Z"/><path class="cls-1" d="M41.8896,306.1695c-.4062,0-.8145-.0615-1.2119-.1875-1.293-.4121-2.29-1.4502-2.6475-2.7598-.7549-2.7686-18.1084-68.3418,15.3096-114.8057,18.9307-26.3193,50.2969-40.918,93.2275-43.3887,4.4209-.2549,8.8164-.3838,13.0635-.3838,43.0693,0,77.1318,13.0586,101.2422,38.8115,43.123,46.0635,39.0645,115.6084,38.8701,118.5469-.084,1.2666-.7637,2.4189-1.833,3.1045-.6523.418-1.4033.6318-2.1582.6318-.4824,0-.9658-.0869-1.4287-.2637l-87.6514-33.5098c-1.5488-.5918-2.5713-2.0781-2.5713-3.7363,0-58.9248-28.123-60.626-31.3301-60.626,0,0-.2939.0068-.3369.0078-20.6016.21-22.6318,30.7539-22.6504,31.0625-.1201,2.043-1.7637,3.6689-3.8086,3.7637-.0625.0029-.125.0039-.1875.0039-1.9658.001-3.6533-1.4336-3.9512-3.3955-4.0459-26.5801-17.6504-29.4502-23.3115-29.4502-1.1416,0-1.8408.1211-1.8486.1221-.1025.0186-.2422.0391-.3467.0488-30.3203,2.9102-31.5762,59.8887-31.585,60.4639-.0195,1.1729-.5518,2.2803-1.457,3.0264l-38.8545,32.001c-.7256.5977-1.6279.9121-2.543.9121Z"/><path d="M159.6308,148.6437c146.2251,0,136.1208,153.095,136.1208,153.095l-87.6508-33.5099c0-62.7262-31.5105-64.626-35.3302-64.626-.2465,0-.3779.0079-.3779.0079-24.6604.252-26.603,34.8334-26.603,34.8334-4.5428-29.8516-20.885-32.8486-27.2651-32.8486-1.603,0-2.5774.1893-2.5774.1893-34.2855,3.2902-35.203,64.3834-35.203,64.3834l-38.8545,32.0012S2.3875,157.3327,146.7971,149.0207c4.4146-.254,8.6758-.377,12.8337-.377M159.6308,140.6437c-4.3234,0-8.7959.1313-13.2935.3903-44.1938,2.5437-76.5752,17.6998-96.2446,45.0475-14.3821,19.9965-21.6823,46.8203-21.1112,77.5718.4253,22.9053,4.9957,39.9086,5.1901,40.6212.7142,2.6188,2.7078,4.6968,5.2946,5.519.7942.2524,1.6116.3761,2.423.3761,1.8314,0,3.6346-.629,5.0865-1.825l38.8545-32.0012c1.8127-1.4929,2.8778-3.7069,2.9132-6.0551.0022-.1378.2915-14.6439,4.5111-29.1343,5.0001-17.1714,12.8922-26.3921,23.4569-27.4059.3295-.0316.4032-.0294.6891-.0936.1538-.0188.5513-.059,1.1241-.059,9.7815,0,16.8365,9.4956,19.3562,26.0521.5972,3.9241,3.973,6.7965,7.9041,6.7965.1276,0,.2556-.0029.3843-.0092,4.0935-.1943,7.3781-3.4507,7.608-7.5422.0154-.2512,1.8574-27.1105,18.6973-27.2825.0262-.0004.0487-.0005.0682-.0005.0596,0,.092.001.1213.001.0352,0,.0659-.0013.1337-.0073,1.0051.012,7.2744.3365,13.427,6.4601,6.3303,6.3004,13.8762,20.118,13.8762,50.1652,0,3.316,2.0458,6.2883,5.1432,7.4725l87.6508,33.5099c.9241.3533,1.8923.5275,2.8562.5275,1.5107,0,3.0112-.4277,4.3168-1.2642,2.1384-1.3704,3.4991-3.6747,3.6665-6.209.0499-.7566,1.1738-18.8035-3.0941-42.7101-5.6964-31.9089-18.4381-59.1692-36.8475-78.8337-24.8965-26.5938-59.9417-40.078-104.1619-40.078h0Z"/><path class="cls-3" d="M146.7969,149.0207c-.3391.0195-.6701.045-1.0072.066v89.3572s1.9427-34.5813,26.603-34.8332c0,0,35.7081-2.1551,35.7081,64.618l87.6508,33.51s10.7115-161.9082-148.9548-152.718Z"/></svg>