<?xml version="1.0" encoding="UTF-8"?><svg id="_レイヤー_2" xmlns="http://www.w3.org/2000/svg" viewBox="0 0 311.811 311.811"><defs><style>.cls-1{fill:#ddff80;}.cls-1,.cls-2{stroke:#000;stroke-miterlimit:10;stroke-width:8px;}.cls-2{fill:#4ab1e5;}</style></defs><path class="cls-2" d="M136.5273,227.2364s-40.5276.2209-45.0552-34.8957,40.638-48.3681,37.6564-66.589,15.7914-25.6196,15.7914-25.6196c0,0-9.3497,31.3252,15.6626,38.9448,0,0,21.8834,5.227,28.3988,25.6564,0,0,5.411,16.454,4.4172,23.9632s-15.0184,39.9755-56.8712,38.5399Z"/><path class="cls-1" d="M162.5518,183.9226c-8.6304,3.1991-9.9271,6.0953-5.9209,14.2944-8.1991-4.0061-11.0953-2.7095-14.2944,5.9209-3.1991-8.6304-6.0953-9.9271-14.2944-5.9209,4.0061-8.1991,2.7095-11.0953-5.9209-14.2944,8.6304-3.1991,9.9271-6.0953,5.9209-14.2944,8.1991,4.0061,11.0953,2.7095,14.2944-5.9209,3.1991,8.6304,6.0953,9.9271,14.2944,5.9209-4.0061,8.1991-2.7095,11.0953,5.9209,14.2944Z"/></svg>