<?xml version="1.0" encoding="UTF-8"?><svg id="_レイヤー_2" xmlns="http://www.w3.org/2000/svg" viewBox="0 0 311.811 311.811"><defs><style>.cls-1{stroke:#000;stroke-linejoin:round;stroke-width:8px;}.cls-1,.cls-2{fill:#f7e96d;}</style></defs><path class="cls-2" d="M42.3203,281.3501c-7.2676-.001-14.1719-1.0703-20.5215-3.1787-2.3882-.793-3.9067-3.0996-3.6924-5.6104.2144-2.5146,2.106-4.5352,4.5991-4.9131,9.4043-1.4258,17.7817-14.1865,23.5889-35.9316,13.8149-51.7266,90.7549-71.834,99.4824-73.9561.4175-.1025.853-.1553,1.2876-.1553.6362,0,1.2622.1113,1.8604.332,2.2607.8281,13.6807,5.6123,16.1846,18.3037,3.2334,16.3896-9.8281,38.1504-38.8218,64.6758-36.5269,33.418-65.8208,40.4336-83.9644,40.4336h-.0029Z"/><path d="M147.0634,161.6051c.1627,0,.3246.0284.4809.0857,4.3574,1.5981,40.5638,17.2449-23.957,76.2749-34.4951,31.5594-62.2334,39.3839-81.2664,39.3839-8.0104,0-14.4817-1.3871-19.2611-2.9741-1.4233-.4727-1.238-2.5477.2448-2.7725,7.8966-1.197,18.872-8.9642,26.8547-38.8544,13.3267-49.9005,90.2622-69.5698,96.563-71.1022.1131-.0275.2274-.0414.3412-.0414M147.0634,153.6051c-.7485,0-1.4981.09-2.2282.2671-8.9673,2.1809-87.9956,22.8575-102.4051,76.8123-7.5182,28.1515-16.7181,32.4623-20.3245,33.0089-4.3289.6561-7.6124,4.1631-7.9847,8.5281-.3719,4.3602,2.2671,8.368,6.4176,9.7463,6.7578,2.2441,14.0865,3.3818,21.7824,3.3818,12.1766,0,24.9664-2.8651,38.0143-8.516,15.9017-6.8868,32.2708-17.978,48.6523-32.9655,15.9504-14.593,27.324-27.9658,33.8048-39.7467,5.8089-10.5594,7.9088-20.2,6.2415-28.6538-2.2599-11.4581-11.1595-18.5094-18.7347-21.2876-1.0397-.3813-2.1285-.575-3.2355-.575h0Z"/><path class="cls-1" d="M125.7092,165.2295s30.0368-13.6933,54.3313-11.0429,90.7787,41.6904,96.7362,70.8957,30.2577,6.4049,30.2577,6.4049c0,0-16.9881,24.0921-44.2757,40.5031-47.2269,28.4026-108.5073,2.5094-121.8224-50.9676-5.1674-20.7537-11.2371-44.0389-15.2271-55.7931Z"/></svg>