<?xml version="1.0" encoding="UTF-8"?><svg id="_レイヤー_2" xmlns="http://www.w3.org/2000/svg" viewBox="0 0 311.811 311.811"><defs><style>.cls-1{fill:#fcbe5b;stroke:#000;stroke-linejoin:round;stroke-width:8px;}.cls-2{fill:#c18b33;}</style></defs><path class="cls-1" d="M116.0836,202.3212c5.8684-9.6205,6.8689-21.9354,1.5764-32.8231-8.2657-17.0039-28.7507-24.0875-45.7546-15.8218-17.0039,8.2657-24.0875,28.7507-15.8218,45.7546,5.5474,11.412,16.5988,18.3556,28.4079,19.1897l31.5922-16.2993Z"/><path class="cls-2" d="M91.1178,210.5474s-10.2156,3.6642-21.6435-13.5666c-7.4928-11.2975-3.3042-24.7958,8.4177-30.9893,11.1371-5.8845,23.4436-1.5188,28.2829,9.9685,6.4539,15.32,1.7027,25.9405,1.7027,25.9405l-16.7597,8.6468Z"/><path class="cls-1" d="M197.1512,211.7593c10.7172-3.4832,19.4931-12.1805,22.5625-23.8909,4.7938-18.2886-6.146-37.0006-24.4346-41.7943-18.2886-4.7938-37.0006,6.146-41.7943,24.4346-3.2173,12.2742.6523,24.7391,9.074,33.0593l34.5924,8.1913Z"/><path class="cls-2" d="M172.8441,201.7528s-10.1401-3.8682-7.5992-24.3874c1.666-13.4537,13.6323-20.9741,26.5623-18.0455,12.2849,2.7825,18.7853,14.1074,14.9814,25.9779-5.073,15.8309-15.5932,20.8006-15.5932,20.8006l-18.3513-4.3455Z"/></svg>