<?xml version="1.0" encoding="UTF-8"?><svg id="_レイヤー_2" xmlns="http://www.w3.org/2000/svg" viewBox="0 0 311.811 311.811"><defs><style>.cls-1{fill:#fff;}.cls-2{stroke:#000;stroke-miterlimit:10;stroke-width:4px;}</style></defs><path class="cls-1" d="M254.3968,236.9678c-12.2845,0-18.085,2.2053-24.7999,4.7586-6.8685,2.6115-14.6533,5.5717-29.5365,5.5717s-22.666-2.9602-29.5335-5.5717c-6.7149-2.5533-12.5133-4.7586-24.7958-4.7586s-18.082,2.2053-24.7963,4.7586c-6.868,2.6115-14.6518,5.5717-29.5345,5.5717s-22.6655-2.9602-29.5329-5.5717c-5.4689-2.0797-10.3322-3.9278-18.5846-4.5422v31.7696c10.9641.6907,17.483,3.1564,23.3222,5.3768,6.7144,2.5533,12.5128,4.7586,24.7953,4.7586s18.0825-2.2053,24.7968-4.7586c6.868-2.6115,14.6518-5.5717,29.534-5.5717s22.666,2.9602,29.5335,5.5717c6.7149,2.5533,12.5133,4.7586,24.7958,4.7586s18.084-2.2053,24.7989-4.7586c6.8685-2.6115,14.6533-5.5717,29.5375-5.5717s22.668,2.9602,29.5365,5.5717c5.3128,2.0203,10.0662,3.8179,17.8989,4.4825v-31.7552c-10.5521-.7487-16.9197-3.1578-22.6365-5.3316-6.7149-2.5533-12.5144-4.7586-24.7989-4.7586Z"/><path class="cls-2" d="M308.7691,247.2969c-14.8842,0-22.6691-2.9602-29.5375-5.5717-6.7149-2.5533-12.5144-4.7586-24.7989-4.7586s-18.085,2.2053-24.7999,4.7586c-6.8685,2.6115-14.6533,5.5717-29.5365,5.5717s-22.666-2.9602-29.5335-5.5717c-6.7149-2.5533-12.5133-4.7586-24.7958-4.7586s-18.082,2.2053-24.7963,4.7586c-6.868,2.6115-14.6518,5.5717-29.5345,5.5717s-22.6655-2.9602-29.5329-5.5717c-6.7144-2.5533-12.5128-4.7586-24.7953-4.7586v-4.5841c14.8817,0,22.6655,2.9602,29.5329,5.5717,6.7144,2.5533,12.5128,4.7586,24.7953,4.7586s18.0825-2.2053,24.7968-4.7586c6.868-2.6115,14.6518-5.5717,29.534-5.5717s22.666,2.9602,29.5335,5.5717c6.7149,2.5533,12.5133,4.7586,24.7958,4.7586s18.084-2.2053,24.7989-4.7586c6.8685-2.6115,14.6533-5.5717,29.5375-5.5717s22.668,2.9602,29.5365,5.5717c6.7149,2.5533,12.5154,4.7586,24.7999,4.7586v4.5841Z"/><path class="cls-2" d="M308.7691,283.6722c-14.8842,0-22.6691-2.9602-29.5375-5.5717-6.7149-2.5533-12.5144-4.7586-24.7989-4.7586s-18.085,2.2053-24.7999,4.7586c-6.8685,2.6115-14.6533,5.5717-29.5365,5.5717s-22.666-2.9602-29.5335-5.5717c-6.7149-2.5533-12.5133-4.7586-24.7958-4.7586s-18.082,2.2053-24.7963,4.7586c-6.868,2.6115-14.6518,5.5717-29.5345,5.5717s-22.6655-2.9602-29.5329-5.5717c-6.7144-2.5533-12.5128-4.7586-24.7953-4.7586v-4.5841c14.8817,0,22.6655,2.9602,29.5329,5.5717,6.7144,2.5533,12.5128,4.7586,24.7953,4.7586s18.0825-2.2053,24.7968-4.7586c6.868-2.6115,14.6518-5.5717,29.534-5.5717s22.666,2.9602,29.5335,5.5717c6.7149,2.5533,12.5133,4.7586,24.7958,4.7586s18.084-2.2053,24.7989-4.7586c6.8685-2.6115,14.6533-5.5717,29.5375-5.5717s22.668,2.9602,29.5365,5.5717c6.7149,2.5533,12.5154,4.7586,24.7999,4.7586v4.5841Z"/></svg>