<?xml version="1.0" encoding="UTF-8"?><svg id="_レイヤー_2" xmlns="http://www.w3.org/2000/svg" viewBox="0 0 311.811 311.811"><defs><style>.cls-1{fill:#0e5fc1;}.cls-2{fill:#f4f4f4;}</style></defs><path class="cls-1" d="M249.7046,305.2124c-18.6992,0-32.627-9.6626-40.2764-27.9429-3.5137-8.395-4.8789-16.7212-5.4092-21.8027H39.8697l-.5811-4.3364c-.2207-1.6509-5.0918-40.791,22.7217-72.5762,22.4609-25.6685,59.2666-38.6831,109.3936-38.6831,38.0986,0,68.0039,11.1445,88.8838,33.124,17.7168,18.6499,25.0801,41.2642,28.1357,56.9507,2.7178,13.9414,1.5791,28.3125-3.292,41.5586-8.1094,22.0522-20.3594,33.708-35.4268,33.708ZM232.2222,255.3223c1.0996,6.9565,4.8584,18.6406,17.6885,18.8237l.1221.001c6.3154,0,10.5742-7.6118,13.0361-13.9971.5811-1.5088,1.0605-3.0532,1.4355-4.623l-32.2822-.2046Z"/><path d="M171.4036,144.871c83.8225,0,106.1638,55.5038,112.1125,86.031,2.53,12.9839,1.5046,26.4153-3.0776,38.8766-5.1411,13.9815-14.6155,30.434-30.7341,30.434-40.4092,0-41.0215-49.7458-41.0215-49.7458H44.2446s-14.1371-105.5958,127.1591-105.5958M250.0325,279.1468c9.1257,0,14.6499-9.2809,17.7017-17.199,1.4167-3.6757,2.2903-7.5078,2.6189-11.384l-43.5862-.2761s-.0962,28.5268,23.0725,28.8578c.0649.0009.1287.0014.1931.0014M171.4036,134.871c-51.6328,0-89.7041,13.5893-113.1561,40.3903-29.2909,33.4736-24.1477,74.79-23.9144,76.5324l1.161,8.673h164.1466c.821,5.2374,2.3455,11.9722,5.1746,18.7332,8.3689,19.9988,24.3108,31.0126,44.8892,31.0126,12.0986,0,28.8801-6.4162,40.1196-36.9828,5.186-14.1033,6.3989-29.4014,3.5076-44.2404-3.1841-16.3395-10.8726-39.9149-29.4189-59.438-21.8608-23.0122-52.9856-34.6804-92.509-34.6804h0ZM250.0325,269.1468l-.0476-.0003c-3.7844-.054-8.0398-1.0333-10.9285-7.8866-.1257-.298-.2444-.597-.3564-.8964l18.8196.1192c-2.377,5.3304-5.2185,8.6642-7.4871,8.6642h0Z"/><path class="cls-2" d="M62.8129,206.1351s11.1657-27.5983,44.1634-40.9568c0,0,9.5958-4.2666,13.1333,1.1885s-3.5375,5.9747-8.1635,8.8321-18.5038,6.754-36.1913,33.5101c0,0-5.4423,10.5856-12.2452,7.2735,0,0-5.1702-2.1431-.6967-9.8475Z"/><rect class="cls-2" x="53.4611" y="219.1973" width="11.4969" height="10.9752" rx="5.4876" ry="5.4876"/></svg>