<?xml version="1.0" encoding="UTF-8"?><svg id="_レイヤー_2" xmlns="http://www.w3.org/2000/svg" viewBox="0 0 311.811 311.811"><defs><style>.cls-1,.cls-2{fill:#f4e23d;}.cls-3{fill:#f2b844;}.cls-3,.cls-2{stroke:#000;stroke-linejoin:round;stroke-width:8px;}.cls-4{fill:#f2ae40;}</style></defs><polygon class="cls-2" points="133.1752 156.8889 128.858 107.6402 148.0695 107.6402 151.5232 153.7719 133.1752 156.8889"/><path class="cls-3" d="M200.0914,151.4861s-14.2461-39.7894-52.022-43.8458l3.4537,46.1316,48.5682-2.2858Z"/><path class="cls-1" d="M44.8608,303.8672c-.4058,0-.814-.0615-1.2114-.1875-1.2935-.4121-2.29-1.4502-2.647-2.7598-.7554-2.7686-18.1094-68.3418,15.3096-114.8057,18.9302-26.3203,50.2964-40.9189,93.2266-43.3896,4.4219-.2549,8.8174-.3838,13.064-.3838,43.0693,0,77.1323,13.0586,101.2422,38.8115,43.123,46.0635,39.0635,115.6084,38.8696,118.5469-.0835,1.2666-.7637,2.4189-1.833,3.1045-.6528.418-1.4033.6318-2.1582.6318-.4824,0-.9663-.0869-1.4282-.2637l-87.6504-33.5098c-1.5488-.5918-2.5718-2.0781-2.5718-3.7363,0-58.9248-28.124-60.626-31.3306-60.626,0,0-.2935.0068-.3369.0078-20.6021.21-22.6323,30.7549-22.6509,31.0635-.1196,2.043-1.7632,3.6689-3.8081,3.7637-.063.0029-.1255.0039-.1875.0039-1.9658.001-3.6533-1.4336-3.9521-3.3955-4.0449-26.5801-17.6489-29.4502-23.3101-29.4502-1.1416,0-1.8413.1211-1.8481.1221-.1035.0186-.2432.0391-.3472.0488-30.3213,2.9102-31.5767,59.8877-31.5859,60.4629-.0186,1.1729-.5513,2.2803-1.4565,3.0264l-38.8545,32.002c-.7261.5977-1.6274.9121-2.5435.9121Z"/><path d="M162.6024,146.3411c146.2252,0,136.121,153.0948,136.121,153.0948l-87.6508-33.5099c0-62.7261-31.5106-64.626-35.3303-64.626-.2464,0-.3779.0079-.3779.0079-24.6603.252-26.6031,34.8334-26.6031,34.8334-4.5428-29.8516-20.885-32.8485-27.2651-32.8485-1.6031,0-2.5773.1892-2.5773.1892-34.2855,3.2902-35.2029,64.3834-35.2029,64.3834l-38.8546,32.0012S5.3592,155.0301,149.7687,146.7181c4.4146-.254,8.6758-.377,12.8337-.377M162.6024,138.3411c-4.3233,0-8.7959.1313-13.2935.3903-44.1938,2.5437-76.5751,17.6998-96.2446,45.0475-14.3821,19.9963-21.6823,46.8203-21.1112,77.5718.4254,22.9052,4.9958,39.9084,5.1901,40.6211.7142,2.6188,2.7077,4.6968,5.2946,5.519.7942.2524,1.6115.3761,2.4228.3761,1.8315,0,3.6346-.629,5.0866-1.825l38.8546-32.0012c1.8127-1.4929,2.8779-3.7069,2.9132-6.0551.0023-.1378.2916-14.6439,4.5111-29.1343,5.0002-17.1714,12.8922-26.3921,23.4569-27.4059.3295-.0316.4033-.0294.6892-.0936.1538-.0188.5512-.059,1.124-.059,9.7815,0,16.8366,9.4956,19.3562,26.0521.5972,3.9241,3.9731,6.7965,7.9042,6.7965.1276,0,.2555-.0029.3842-.0092,4.0935-.1943,7.3781-3.4506,7.6079-7.5422.0035-.0563.5031-7.7037,3.5931-15.0352,5.1189-12.1454,12.6346-12.2222,15.1043-12.2473.0262-.0004.0487-.0005.0682-.0005.0596,0,.0921.001.1214.001.0352,0,.0659-.0013.1336-.0073,1.0058.0121,7.2747.3369,13.427,6.4602,6.3303,6.3004,13.8762,20.1179,13.8762,50.165,0,3.316,2.0458,6.2883,5.1432,7.4725l87.6508,33.5099c.9241.3533,1.8923.5275,2.8563.5275,1.5107,0,3.0112-.4277,4.3167-1.2642,2.1385-1.3704,3.4992-3.6747,3.6665-6.209.05-.7566,1.1738-18.8035-3.0941-42.71-5.6964-31.9089-18.438-59.1692-36.8475-78.8336-24.8965-26.5939-59.9417-40.0781-104.1621-40.0781h0Z"/><path class="cls-4" d="M149.7686,146.718c-.3391.0195-.6701.045-1.0072.066v89.3572s1.9427-34.5813,26.603-34.8332c0,0,35.7081-2.1551,35.7081,64.618l87.6508,33.51s10.7115-161.9082-148.9548-152.718Z"/></svg>