<?xml version="1.0" encoding="UTF-8"?><svg id="_レイヤー_2" xmlns="http://www.w3.org/2000/svg" viewBox="0 0 311.811 311.811"><defs><style>.cls-1{fill:#c68930;}.cls-1,.cls-2{stroke:#282828;stroke-linejoin:round;stroke-width:8px;}.cls-2{fill:#72c431;}</style></defs><g id="_きれいな棒"><rect class="cls-1" x="63.2989" y="196.565" width="154.2117" height="22.4054" transform="translate(-60.0031 57.0441) rotate(-19.0038)"/><path class="cls-2" d="M145.5521,155.9055c6.0029,9.7026,5.3978,22.2145-.3182,31.8514-2.0761,3.4135-4.8708,6.6005-8.3517,8.8612-2.2578-3.4802-3.5123-7.5332-4.0168-11.4951-1.2947-11.1283,3.2522-22.8039,12.6866-29.2175h0Z"/><path class="cls-2" d="M207.1723,223.4147c-9.9819,5.5261-22.4498,4.3161-31.7986-1.8597-3.309-2.2389-6.357-5.1846-8.4465-8.7709,3.5854-2.0867,7.6944-3.1435,11.6761-3.4556,11.1779-.7544,22.6197,4.3523,28.5691,14.0862h0Z"/></g></svg>