<?xml version="1.0" encoding="UTF-8"?><svg id="_レイヤー_2" xmlns="http://www.w3.org/2000/svg" viewBox="0 0 311.811 311.811"><defs><style>.cls-1{fill:#efefef;stroke-miterlimit:10;stroke-width:9.1926px;}.cls-1,.cls-2,.cls-3{stroke:#000;}.cls-2{fill:#ff85a8;}.cls-2,.cls-3{stroke-linejoin:round;stroke-width:8.3671px;}.cls-3{fill:none;}</style></defs><g id="_ストリート"><path class="cls-2" d="M49.7248,254.2086h240.9096s-16.9623-108.0667-124.0669-108.0667c-79.0933,0-104.7722,46.8914-116.8427,108.0667Z"/><path class="cls-3" d="M166.5676,146.1419c-43.667,24.9211-65.9509,108.0667-65.9509,108.0667"/><path class="cls-3" d="M166.5676,146.1419c-23.1065,54.0334-12.6409,105.9978-12.6409,105.9978"/><path class="cls-3" d="M247.4614,254.2086s-30.5321-81.8165-80.8939-108.0667"/><path class="cls-1" d="M54.4557,254.2086S1.8149,210.1686,28.9454,178.362c12.3139-14.4362,30.9847-17.5986,48.8475-13.8767,21.4935,4.4784,37.1069,21.1975,48.4887,35.69,17.1793,21.8745,20.1858,54.0334,20.1858,54.0334H54.4557Z"/><ellipse class="cls-2" cx="166.5676" cy="148.0248" rx="12.0755" ry="11.0391"/></g></svg>