<?xml version="1.0" encoding="UTF-8"?><svg id="_レイヤー_2" xmlns="http://www.w3.org/2000/svg" viewBox="0 0 311.811 311.811"><defs><style>.cls-1{stroke-width:8px;}.cls-1,.cls-2{fill:#4f4f4f;}.cls-1,.cls-2,.cls-3{stroke:#141414;stroke-miterlimit:10;}.cls-2,.cls-3{stroke-width:8.983px;}.cls-3{fill:#b7b7b7;}</style></defs><g id="_シルクハット"><ellipse class="cls-1" cx="162.3247" cy="236.2218" rx="128.9079" ry="35.4434"/><path class="cls-2" d="M181.7103,241.3383h-50.5171c-19.1566,0-38.2872-1.7832-57.2355-5.3351l-20.042-3.7569c0-45.5029,29.256-82.3903,65.3451-82.3903h74.3818c36.0891,0,65.3451,36.8874,65.3451,82.3903l-20.042,3.7569c-18.9484,3.5519-38.0789,5.3351-57.2355,5.3351Z"/><path class="cls-3" d="M238.9458,209.3194c-18.9484,3.5519-38.0789,5.3351-57.2356,5.3351h-50.517c-19.1567,0-38.2872-1.7832-57.2356-5.3351l-16.687-3.128c-2.165,8.1918-3.355,16.9457-3.355,26.0549l20.0419,3.7568c18.9484,3.552,38.0789,5.3352,57.2356,5.3352h50.517c19.1567,0,38.2872-1.7832,57.2356-5.3352l20.0419-3.7568c0-9.1092-1.1899-17.8631-3.355-26.0549l-16.687,3.128Z"/></g></svg>