<?xml version="1.0" encoding="UTF-8"?><svg id="_レイヤー_2" xmlns="http://www.w3.org/2000/svg" viewBox="0 0 311.811 311.811"><defs><style>.cls-1{stroke:#000;stroke-miterlimit:10;stroke-width:3.3389px;}.cls-1,.cls-2{fill:#ffffb6;}.cls-3{fill:#666;}</style></defs><g id="kakubou"><path class="cls-3" d="M85.0743,188.6209v42.9402s32.6856,10.5795,60.8388,9.9572,64.5448-11.2018,64.5448-11.2018v-41.6956h-125.3836Z"/><path d="M143.4692,246.0447c-27.9287,0-58.457-9.7734-59.7808-10.2021l-3.1143-1.0078v-50.7139h134.3838v49.5732l-3.2437.9434c-1.5093.4385-37.2852,10.752-65.7017,11.3799-.8447.0186-1.6934.0273-2.5435.0273ZM89.5742,228.2205c8.7139,2.5361,34.1377,9.2891,56.2393,8.7988,22.4302-.4951,50.6899-7.5889,60.1445-10.1289v-33.7695h-116.3838v35.0996Z"/><polygon class="cls-3" points="40.2671 166.8396 145.9131 208.5352 269.9039 164.3503 145.9131 115.6023 40.2671 166.8396"/><path d="M145.8325,213.3406l-116.7505-46.0771,116.6421-56.5703,137.0049,53.8643-136.8965,48.7832ZM51.4521,166.4158l94.5415,37.3135,111.085-39.5859-110.9766-43.6318-94.6499,45.9043Z"/><path class="cls-2" d="M200.5027,275.4204c-.4551,0-.8828-.2173-1.1509-.585s-.3442-.8413-.2051-1.2744c.189-.5894.7393-.9961,1.3584-.9961.6187,0,1.1689.3931,1.3579.9824.1392.4331.0649.9136-.2031,1.2812s-.6934.5918-1.1484.5918h-.0088Z"/><path d="M200.507,273.9823l.0045.0138h-.0091l.0046-.0138M200.5092,271.1405c-1.2273,0-2.3191.7792-2.7058,1.9445l-.0046.0138c-.2882.8684-.1417,1.8224.3938,2.5644.5355.742,1.3949,1.1815,2.3099,1.1815.9131,0,1.7753-.4376,2.3111-1.1769s.6893-1.6907.4051-2.5583c-.3827-1.1685-1.4742-1.9665-2.7038-1.9689h-.0057Z"/><path class="cls-2" d="M200.507,274.0918c-.875,0-1.6519-.5747-1.9331-1.4297l-9.3325-28.4116c-.1265-.3843-.1426-.7959-.0479-1.1899l7.4429-30.6187v-23.4966l-45.4209-20.4263c-1.0073-.4531-1.4849-1.6377-1.0874-2.6968l.6841-1.8193c.3071-.8164,1.0542-1.3442,1.9033-1.3442.2822,0,.5566.0591.8159.1753l49.6221,22.3628c.7432.334,1.2241,1.0923,1.2241,1.9321v23.9648l7.4478,31.98c.0908.3901.0728.7964-.0522,1.1748l-9.3335,28.4131c-.2803.855-1.0571,1.4302-1.9326,1.4302Z"/><path d="M152.7152,164.083c.0774,0,.156.0163.2321.0505l49.6211,22.3614c.2327.1049.3848.3556.3848.6341v24.0412c0,.0577.0066.1153.0196.1712l7.4655,32.0557c.0312.134.0251.2754-.0177.4055l-9.3338,28.4146c-.0986.3001-.3392.4501-.5798.4501s-.4813-.15-.5798-.4501l-9.3326-28.4108c-.0435-.1324-.0491-.2764-.016-.4125l7.4609-30.6932c.0141-.0581.0213-.118.0213-.1782v-24.0372c0-.2787-.1523-.5295-.3852-.6343l-45.8759-20.6309c-.3181-.1431-.4698-.5464-.3377-.8977l.6836-1.8181c.0987-.2626.328-.4212.5698-.4212M152.7152,161.2344c-1.4258,0-2.7263.9112-3.2362,2.2673l-.6835,1.8181c-.6623,1.7615.144,3.7373,1.8356,4.4982l44.5811,20.0486v22.4052l-7.4016,30.4492c-.1588.6531-.132,1.3358.0776,1.9741l9.3327,28.4111c.4735,1.4413,1.7941,2.4097,3.2862,2.4097s2.8127-.9684,3.2862-2.4097l9.3338-28.4147c.2058-.6266.2354-1.2977.0856-1.9407l-7.4108-31.8209v-23.8009c0-1.3981-.8098-2.6663-2.063-3.2311l-49.6212-22.3615c-.4447-.2004-.9166-.3021-1.4025-.3021h0Z"/><ellipse class="cls-1" cx="147.7661" cy="162.0687" rx="9.9554" ry="6.9366"/></g></svg>