<?xml version="1.0" encoding="UTF-8"?><svg id="_1" xmlns="http://www.w3.org/2000/svg" viewBox="0 0 419.1307 461.9622"><defs><style>.cls-1{fill:#575959;}.cls-2{fill:#fbe7f0;}.cls-3{fill:#fff;}.cls-4{fill:#585959;}</style></defs><path class="cls-3" d="M209.5654,454.4575c-111.4165,0-202.0605-100.251-202.0605-223.4766S98.1489,7.5049,209.5654,7.5049s202.0605,100.251,202.0605,223.4761-90.644,223.4766-202.0605,223.4766Z"/><path class="cls-4" d="M209.5654,15.0106c26.0835,0,51.3945,5.6341,75.2299,16.7459,23.1356,10.7855,43.941,26.2562,61.8383,45.9825,17.9923,19.8309,32.128,42.9488,42.0145,68.7117,10.2666,26.7535,15.4722,55.1936,15.4722,84.5304s-5.2056,57.7769-15.4722,84.5304c-9.8865,25.7629-24.0222,48.8808-42.0145,68.7117-17.8973,19.7263-38.7027,35.197-61.8383,45.9825-23.8354,11.1118-49.1464,16.7459-75.2299,16.7459s-51.3945-5.6341-75.2299-16.7459c-23.1356-10.7855-43.941-26.2562-61.8383-45.9825-17.9923-19.8309-32.128-42.9488-42.0145-68.7117-10.2666-26.7535-15.4722-55.1936-15.4722-84.5304s5.2056-57.7769,15.4722-84.5304c9.8865-25.7629,24.0222-48.8808,42.0145-68.7117,17.8973-19.7263,38.7027-35.197,61.8383-45.9825,23.8354-11.1118,49.1464-16.7459,75.2299-16.7459M209.5654-.001C93.825-.001-.0011,103.4132-.0011,230.9811s93.8261,230.9821,209.5665,230.9821,209.5665-103.4142,209.5665-230.9821S325.3058-.001,209.5654-.001h0Z"/><path class="cls-1" d="M200.9168,353.285c.0968-.5599.0121-.5309-.0145.0063l.0145-.0063Z"/><path class="cls-1" d="M159.5009,426.8479c-.0809-22.9784-71.7975-58.2273-63.4206-18.8321,6.8903,17.8742,58.7436,48.8101,63.4206,18.8321ZM151.1887,417.1888c-.0457-.0304-.0636-.0491-.0537-.056l.0537.056ZM98.2177,391.8422c-.1807.0449-.1682.0225.0375-.0673l-.0375.0673ZM96.2858,393.4198c-.1534-.0297-.167-.0708-.0406-.1233l.0406.1233ZM94.6642,396.223c.0771.1332.0696.1745-.0224.124l.0224-.124ZM128.0597,431.1328c-18.1571-3.9599-41.9249-40.4516-7.1747-31.28,22.34,3.2017,46.4095,45.1045,7.1747,31.28Z"/><path class="cls-1" d="M134.3167,275.543c-.2291.551-.1395.6314.016.011l-.016-.011Z"/><path class="cls-1" d="M106.9945,298.8437c64.5335-8.0104,9.2012-135.8329-29.5021-63.1028-9.8971,23.1204,1.708,62.0201,29.5021,63.1028ZM102.5232,298.0326c-.0527-.0733.6223.0292.6226.103.0256.0385-.4722.0116-.6226-.103ZM136.4126,252.4102c-.1526-.543-.0008-.3422-.0017-.0117l.0017.0117ZM136.0892,250.3158c-.045-.3402-.0453-.3456.0245-.0062l-.0245.0062ZM135.6366,248.1358c.0008-.0666.0092-.0584.0252.0246l-.0252-.0246ZM133.8962,240.6924c-.0874-.1664-.2256-.5684-.1558-.4104.0373.0857.2648.602.1558.4104ZM74.387,250.4574c.0446.2013-.034.9868-.0668.7579-.0096-.0926-.0153-.8425.0668-.7579ZM76.5432,270.6797c.0128.007.0152.0187.0072.0353l-.0072-.0353ZM80.4931,280.2778c.0824-.0532-.1553-.5774.0909-.181-.0255.0599.0136.2442-.0909.181ZM82.1148,261.042c-4.6451-63.5143,63.7742-31.6262,41.5319,14.9339-11.4365,25.2288-40.4703,8.2828-41.5319-14.9339Z"/><path class="cls-1" d="M119.8627,178.3278c108.0536,58.2403,187.9877-159.4317,44.0214-143.2282-65.2408,8.0849-109.324,105.6017-44.0214,143.2282ZM101.3952,82.6975h0ZM111.0452,89.0805c18.3644-55.3082,115.4806-61.3446,111.1605,8.4594-2.8654,86.5251-146.6877,91.2185-111.1605-8.4594ZM107.2128,74.344c.0574-.0483-.6601.9231-.6594.8452.0292-.0925.6793-.9693.6594-.8452ZM87.9659,120.9783h0Z"/><path class="cls-1" d="M91.8043,102.2887c.1104-.3921.1025-.3665-.0146.005l.0146-.005Z"/><path class="cls-1" d="M322.2625,318.8314c-35.539-94.0673-165.4322.3889-108.5942,71.7951,44.9485,54.2316,131.3122-11.5061,108.5942-71.7951ZM202.9852,338.0515c-.0153.061-.0156.0494-.001-.0347l.001.0347ZM230.0626,405.4157c.0176-.004.0244-.0015.0204.0075l-.0204-.0075ZM259.1311,398.5048c-76.2383-5.5162-31.7319-134.7734,31.846-94.5664,38.4869,28.1613,14.8461,94.3878-31.846,94.5664Z"/><path class="cls-1" d="M401.854,255.2149c-22.9231-3.1013-27.1605,48.7859-25.6302,66.7032,16.7075,44.8195,42.1257-55.8592,25.6302-66.7032ZM386.2098,272.1215c.0046.0683-.3532,1.0295-.3808,1.0803-.1886-.0211.1649-.9921.3808-1.0803ZM382.3621,282.2769c.3849-.4063-.2841,1.3512-.0796.1855.0001,0,.0796-.1855.0796-.1855ZM376.6268,329.5036c.013.0035.0165.0245.0106.063l-.0106-.063ZM404.0841,278.5728c.3483,11.0351-4.0701,30.1587-9.5101,39.3117-31.9062,34.5272,1.1257-95.3904,9.5101-39.3117Z"/><path class="cls-1" d="M389.971,263.6764c.0055.0948.0305.0618.075-.099l-.075.099Z"/><path class="cls-1" d="M355.7143,196.5568c1.7637-40.6677-48.8669-83.51-78.2805-41.1018-47.5695,72.4417,74.0171,149.1035,78.2805,41.1018ZM268.4774,194.94h0ZM289.655,239.5292c.0007.0009.0005.0009-.0006.0001h.0006ZM314.2849,251.0288h0ZM322.2472,250.7193c.0918-.0002.0877.0048-.0123.0149l.0123-.0149ZM301.5695,232.966c-37.9158-20.1241-19.3513-109.306,27.8017-74.4575,29.2819,22.1306,17.0358,97.2496-27.8017,74.4575Z"/><path class="cls-1" d="M313.3604,39.2993c-28.0594,3.8039,19.2562,47.7838,32.0516,51.9567,46.0113,13.7243-13.9929-52.7298-32.0516-51.9567ZM305.8012,46.6221c.1274.1287.436.8202.3891.827-.0002.0278-.4474-.7533-.3891-.827Z"/><path class="cls-1" d="M43.4894,221.1452C11.482,120.7456,3.3457,293.6338,26.1626,319.7408c32.2703,44.8137,23.5597-83.3696,17.3268-98.5955ZM32.433,315.6298c-20.6643-16.0875-17.7795-58.1976-18.3698-82.131,12.1818-86.4954,40.9928,66.1207,18.3698,82.131ZM48.4224,312.9569c.0153-.4072.0614-.2438.0092.009l-.0092-.009ZM49.1338,303.7813c-.1068,1.3994-.0154-.7628.0265-1.165.065-.5666-.0149,1.0481-.0265,1.165Z"/><path class="cls-2" d="M120.6007,399.0998c-14.2006-4.3663-23.5954,1.1421-14.6546,14.8674,6.4385,9.4006,17.67,16.3257,28.8817,19.3819,24.3724,6.1007,15.9748-14.8521,2.8955-24.9824-5.0749-4.1656-11.3137-7.5302-16.8854-9.1953l-.2372-.0716Z"/><path class="cls-2" d="M111.3748,287.7781c18.754-7.3251,20.5215-39.2225,9.1105-54.1242-15.2163-20.0735-35.6006-6.4618-38.2794,14.5903-1.7083,11.9547,1.1826,24.77,9.1402,33.5565,5.0214,5.5667,12.7158,8.6782,19.8809,6.0306l.1478-.0532Z"/><path class="cls-2" d="M222.2238,103.8946c5.2782-29.4144-14.0728-57.6213-44.683-58.885-19.7001-1.2201-39.3782,8.0135-52.8393,22.4108-24.0697,24.5762-28.1418,69.4299,2.1035,90.0051,38.5097,25.2148,89.7438-11.7443,95.3875-53.3306l.0313-.2003Z"/><path class="cls-2" d="M402.5722,268.5227c-4.4246-12.1512-12.5283,1.9866-14.7388,7.8877-4.6386,11.3488-7.8168,27.6031-6.1688,40.5821,1.0563,9.0605,5.7354,12.9714,11.8383,3.794,8.1491-12.5438,13.3597-37.7392,9.1171-52.1257l-.0478-.138Z"/><path class="cls-2" d="M306.2213,322.1365c-14.885-33.4789-55.782-34.0347-76.3766-5.4819-9.103,12.2453-13.2432,28.6181-10.9725,43.6747,2.6521,21.8608,21.7358,40.2578,44.2753,37.9437,34.8515-2.805,57.1411-44.9007,43.1514-75.9578l-.0775-.1788ZM230.2966,319.3475c-.0895.1732-.2021.3799-.319.5359.0289-.2067.1672-.3938.3006-.5473l.0184.0114Z"/><path class="cls-2" d="M338.8287,169.6088c-14.0266-26.0217-43.9628-26.0757-55.0726,1.342-8.3034,21.7313-.3266,52.8841,21.2004,64.0579,21.8177,10.3974,39.9412-10.4837,41.0518-32.5945.8796-11.0413-1.9069-23.311-7.0723-32.6111l-.1073-.1943Z"/><path class="cls-2" d="M317.6728,44.3799c-10.2888-1.5902-1.5856,12.5838.961,16.4528,5.1462,7.7037,13.4964,16.016,21.6582,21.0546,7.2537,4.6798,20.0172,9.1302,13.9777-5.1688-5.6571-13.2005-22.7271-29.1783-36.4667-32.3156l-.1302-.0231Z"/><path class="cls-2" d="M29.2912,209.3175c-6.8264-11.912-12.2317-1.8087-14.5849,14.9319-1.0192,7.3273-1.3504,14.8134-1.2623,22.4684.1793,15.5151,2.2586,33.7893,6.342,48.138,1.8625,6.7519,9.7101,30.6072,16.4221,16.9912,8.9935-23.2512,4.2223-80.2023-6.8555-102.4167l-.0614-.1128Z"/><path class="cls-4" d="M209.5654,15.0106c26.0835,0,51.3945,5.6341,75.2299,16.7459,23.1356,10.7855,43.941,26.2562,61.8383,45.9825,17.9923,19.8309,32.128,42.9488,42.0145,68.7117,10.2666,26.7535,15.4722,55.1936,15.4722,84.5304s-5.2056,57.7769-15.4722,84.5304c-9.8865,25.7629-24.0222,48.8808-42.0145,68.7117-17.8973,19.7263-38.7027,35.197-61.8383,45.9825-23.8354,11.1118-49.1464,16.7459-75.2299,16.7459s-51.3945-5.6341-75.2299-16.7459c-23.1356-10.7855-43.941-26.2562-61.8383-45.9825-17.9923-19.8309-32.128-42.9488-42.0145-68.7117-10.2666-26.7535-15.4722-55.1936-15.4722-84.5304s5.2056-57.7769,15.4722-84.5304c9.8865-25.7629,24.0222-48.8808,42.0145-68.7117,17.8973-19.7263,38.7027-35.197,61.8383-45.9825,23.8354-11.1118,49.1464-16.7459,75.2299-16.7459M209.5654-.001C93.825-.001-.0011,103.4132-.0011,230.9811s93.8261,230.9821,209.5665,230.9821,209.5665-103.4142,209.5665-230.9821S325.3058-.001,209.5654-.001h0Z"/></svg>