<?xml version="1.0" encoding="UTF-8"?><svg id="_6" xmlns="http://www.w3.org/2000/svg" viewBox="0 0 419.1307 461.9622"><defs><style>.cls-1{fill:none;}.cls-2{stroke-width:10px;}.cls-2,.cls-3{fill:#f9e9a4;}.cls-2,.cls-3,.cls-4{stroke:#565959;stroke-miterlimit:10;}.cls-3,.cls-4{stroke-width:7px;}.cls-4{fill:#a09861;}.cls-5{fill:#575959;}.cls-6{fill:#fbe7f0;}.cls-7{fill:#d9d5a3;}.cls-8{fill:#f0c6c6;}.cls-9{fill:#fff;}.cls-10{fill:#585959;}</style></defs><path class="cls-3" d="M217.4981,407.5135v-47.1022h17.2665v47.1022l16.4991,10.9283s8.7009,4.0023,4.9931,11.418-13.2093,2.4333-13.2093,2.4333l-10.776-7.8792v15.6426s-.6952,4.4031-6.7205,4.2872c-6.0253-.1159-7.0681-4.519-7.0681-4.519v-16.5696l-12.5141,10.0808s-8.3249.785-11.2217-4.4292,7.6581-12.8688,7.6581-12.8688l15.0929-8.5245Z"/><polygon class="cls-3" points="162.8021 372.2431 172.9021 339.1263 185.9317 344.7699 171.8647 391.9572 158.346 375.7507 162.8021 372.2431"/><path class="cls-2" d="M67.3957,192.095s-.6051-27.22-21.7849-45.9792-33.8876-23.9027-33.8876-23.9027c0,0-13.9181,18.7486,0,77.6032,13.9181,58.8547,53.2759,45.021,53.2759,45.021,0,0,15.7096-.7119,2.3966-52.7424Z"/><path class="cls-2" d="M394.0066,215.6966c9.2246-13.0024,16.2069-28.6607,18.5426-44.7989,1.5961-10.1766,1.1715-20.9199.0023-29.2306-1.1241-5.7519-2.1495-19.9941-9.165-19.7624-2.2955.2258-4.4913,1.5439-6.5285,2.8142-5.687,3.7026-13.4645,10.0232-21.1367,17.7173-16.8815,17.5747-33.7382,39.6184-36.6318,64.4547-1.1714,11.797,1.3792,23.7888,7.7807,33.5282,6.646,10.2404,15.1251,8.0394,25.3329-.8336,7.9464-6.715,15.1709-14.6068,21.672-23.7029l.1316-.1859Z"/><path class="cls-2" d="M89.1371,118.0085s-22.0984,29.9193-23.9604,90.4367c-1.8621,60.5174,22.885,91.6179,22.885,91.6179,0,0,33.5049,61.2231,122.5408,61.2231s145.842-117.7613,145.842-117.7613c0,0,7.4182-30.3193,4.647-59.2923-4.5707-47.7867-39.4495-88.0794-39.4495-88.0794,0,0-31.3625-38.0138-106.3302-38.0138s-126.1747,59.8691-126.1747,59.8691Z"/><path class="cls-1" d="M67.3554,122.4446c4.1105-6.1316,8.494-12.05,13.1543-17.7226,36.1785-44.0369,84.3319-68.29,135.5901-68.29s99.4115,24.2531,135.5901,68.29c.2901.3531.57.7152.858,1.0702l4.551-10.7832L221.6793,2.2776,48.8975,62.9866l18.4579,59.458Z"/><path class="cls-8" d="M125.2516,116.9756c-.0006.0759.6322-.8703.5816-.8232.0175-.1209-.5558.7332-.5816.8232Z"/><path class="cls-8" d="M301.3155,89.9575c.0413-.0065-.2309-.68-.3432-.8054-.0515.0718.343.8325.3432.8054Z"/><path class="cls-9" d="M114.5075,133.2953c10.4325-27.7909,33.7199-51.5904,61.3052-55.3657,50.4356-6.2691,69.7095,23.4065,68.6506,57.9024l9.326,7.5626,34.4328-42.3815,46.0039,48.1922,6.4472-15.2766c-1.4228-.2978-3.0011-.7227-4.7673-1.3046-11.2822-4.0635-52.9942-46.8802-28.2826-50.6014-26.7682-19.6516-58.0825-30.9699-91.5236-30.9699-58.7371,0-110.9199,34.8968-143.4025,88.5997l5.9082,19.0316,35.9021-25.3889Z"/><path class="cls-8" d="M141.2567,109.409c2.3409-2.7649,4.8976-5.3305,7.6229-7.6648-6.0514,4.757-11.3028,10.7828-15.1879,17.9846l.2894-.2046c2.1181-3.635,4.5486-7.0401,7.2756-10.1152Z"/><path class="cls-8" d="M215.3564,100.7434c4.0921,4.5336,7.313,10.0037,9.4795,16.0623-2.0843-6.5453-5.3656-11.8752-9.4795-16.0623Z"/><path class="cls-5" d="M175.8127,77.9297c-27.5853,3.7753-50.8727,27.5748-61.3052,55.3657l19.1841-13.5665c3.8851-7.2019,9.1366-13.2277,15.1879-17.9846,11.0961-9.5045,25.029-15.1165,38.9772-14.1625,11.1335.5076,20.5712,5.4858,27.4996,13.1618,4.1139,4.1872,7.3951,9.517,9.4795,16.0623.4842,1.3545.9063,2.7427,1.2839,4.1514l18.3436,14.875c1.0589-34.496-18.215-64.1715-68.6506-57.9024ZM125.2516,116.9756c.0257-.0901.5991-.9441.5816-.8232.0506-.0471-.5822.8991-.5816.8232Z"/><path class="cls-5" d="M345.0593,123.5364l1.3291-3.1493c-1.3784-1.8051-2.7739-3.5903-4.2012-5.3374.5794,1.1521,1.0954,2.2944,1.5304,3.4155.7957,2.0805,1.2146,3.7457,1.3416,5.0712Z"/><path class="cls-6" d="M141.2567,109.409c-2.727,3.0751-5.1575,6.4802-7.2756,10.1152l3.3685-2.3821,18.9338,32.0632,53.4688-41.5209,16.1571,13.1018c-.3135-1.3705-.6664-2.7026-1.0733-3.9805-2.1665-6.0586-5.3873-11.5287-9.4795-16.0623-16.3688-16.6607-45.9786-15.113-66.4768,1.0008-2.7253,2.3343-5.282,4.8999-7.6229,7.6648Z"/><path class="cls-6" d="M215.3564,100.7434c-6.9284-7.676-16.3661-12.6542-27.4996-13.1618-13.9482-.954-27.881,4.658-38.9772,14.1625,20.4982-16.1138,50.108-17.6615,66.4768-1.0008Z"/><path class="cls-6" d="M226.1198,120.9571c-.3777-1.4086-.7997-2.7969-1.2839-4.1514.4069,1.2779.7598,2.61,1.0733,3.9805l.2106.1708Z"/><path class="cls-6" d="M343.7177,118.4652c-.435-1.1211-.951-2.2634-1.5304-3.4155-7.9821-9.7711-16.7198-18.6195-26.0928-26.4093-1.5403-.7163-3.061-1.2772-4.5376-1.6496l-.1148-.0225c-9.0739-1.5488-1.3985,12.2562.8475,16.0245,4.5386,7.5032,11.9028,15.5991,19.1008,20.5065,3.7492,2.6713,9.1635,5.2602,11.9343,4.1468l1.7346-4.1098c-.127-1.3255-.5459-2.9907-1.3416-5.0712Z"/><path class="cls-10" d="M342.1872,115.0497c1.4273,1.7471,2.8227,3.5323,4.2012,5.3374l.7463-1.7685c-8.724-15.5916-30.2897-37.0337-39.4958-36.5985-.0055.0008-.0102.002-.0156.0029,2.8768,2.1119,5.7026,4.3166,8.4712,6.6176,9.9975,4.6489,20.8366,15.9587,26.0928,26.4093Z"/><path class="cls-10" d="M342.1872,115.0497c-5.2562-10.4506-16.0953-21.7603-26.0928-26.4093,9.373,7.7897,18.1107,16.6381,26.0928,26.4093Z"/><path class="cls-7" d="M133.9811,119.5242l-.2894.2046c-.7112,1.3183-1.3786,2.6735-1.9943,4.0701.716-1.4545,1.4731-2.8836,2.2837-4.2747Z"/><path class="cls-7" d="M112.2442,143.3696c.0973-.3819.0903-.3569-.0129.0048l.0129-.0048Z"/><path class="cls-7" d="M345.0593,123.5364l-1.7346,4.1098c1.2508-.5025,1.9593-1.7625,1.7346-4.1098Z"/><path class="cls-10" d="M353.7885,107.1125l.0023-.0032c-.288-.355-1.8108-2.0342-2.1009-2.3873-36.1785-44.0369-84.3319-68.29-135.5901-68.29s-99.4115,24.2531-135.5901,68.29c-4.6603,5.6726-9.0438,11.591-13.1543,17.7226l.0061.0199c-2.279,3.2577-2.7574,8.4956-1.518,12.4882l9.4711,34.154,60.2083-42.5769,19.2679,32.6289,48.6279-42.0861,51.5191,35.1171,33.6404-41.406,47.6211,49.8854,18.7564-44.4443c1.3355-3.1647.8112-6.7269-1.1673-9.1122ZM287.8652,91.2434l-35.2251,43.3559-50.0619-34.1222-44.8022,38.7742-18.5996-31.497-57.28,40.5072-3.9544-16.8293c32.7022-49.009,82.4791-80.3793,138.1579-80.3793,33.4411,0,64.7554,11.3183,91.5236,30.9699.0054-.0008.0101-.002.0156-.0029,8.0341-.3798,25.4791,15.9015,35.5896,30.416l-6.1907,14.2732c-1.9587-.838-3.9695-2.0142-5.6474-3.2097-7.198-4.9075-14.5622-13.0033-19.1008-20.5065-2.2459-3.7683-9.9214-17.5733-.8475-16.0245l.1148.0225c1.4766.3724,2.9973.9333,4.5376,1.6496-2.7686-2.301-5.5944-4.5056-8.4712-6.6176-23.9014,3.5992,14.3349,43.77,27.0764,50.0771l-2.4466,5.6409-44.388-46.4975ZM301.3155,89.9575c-.0002.0271-.3947-.7336-.3432-.8054.1123.1254.3845.7989.3432.8054Z"/><path class="cls-8" d="M143.9245,343.0435c.5123.1884,1.0069.3607,1.4909.5232-5.1229-1.9879-10.0569-5.0492-13.9755-8.9442,3.6127,4.0422,8.2504,7.4569,12.4846,8.4209Z"/><path class="cls-8" d="M143.9132,320.1951c.8844.4656,1.7662.9644,2.633,1.5091-.8614-.5603-1.7411-1.0677-2.633-1.5091Z"/><path class="cls-8" d="M242.2706,317.3231c.1557.0133.3083.0299.4655.0418.4362-.0017.8676-.0176,1.2985-.0352l.0186-.0214c-.5984.0262-1.1921.0281-1.7825.0147Z"/><path class="cls-8" d="M205.3695,364.9576v2.3497h.0002l.0187-.0216v-2.3284c-.0063,0-.0126.0001-.0189.0003Z"/><path class="cls-8" d="M219.3348,305.9548c3.3146,4.2544,7.9017,7.6162,13.9257,9.5916-4.0517-1.5438-7.7296-4.016-10.8369-7.1605l-3.0888-2.431Z"/><path class="cls-8" d="M271.0273,302.9547c-5.5426,6.9127-12.9973,12.0131-21.6549,13.7215l-.0212.0243c8.8028-1.7523,16.2159-6.8608,21.676-13.7459Z"/><path class="cls-8" d="M271.6996,302.0935c-.0403.0528-.0813.105-.1218.1576.0401-.0529.0817-.1045.1218-.1576Z"/><path class="cls-8" d="M245.7639,317.1825c-.5736.0615-1.1435.101-1.7108.1259l-.0186.0214c1.8223-.0743,3.5962-.2867,5.3167-.6292l.0212-.0243c-1.1812.2331-2.3845.4034-3.6085.5062Z"/><path class="cls-9" d="M305.7488,289.9012l-5.9588-15.6941-7.1297,3.3588c-3.6873,26.3446-28.0929,48.9037-52.2814,49.4586-1.5452.0355-3.0891-.0157-4.6269-.1647-9.8337-.9524-19.4065-5.7666-27.2892-15.6954-5.3401-7.0038-8.4929-14.2895-9.8702-21.5346l-5.1349-4.0413-58.768,25.4401-30.9992-14.6585-10.8483,7.5725c27.8778,35.2836,68.001,57.4578,112.5274,57.4578v.4185l.0189-.0217v-.3968c.1167,0,.2326-.0049.3493-.0052,1.6282-.0043,3.2488-.046,4.8648-.1092,53.3531-2.0834,99.8308-35.9926,125.6139-85.7728l-30.4676,14.3879ZM121.4558,312.0684l-.0283.0529c-.1362.0354-.1268.0177.0283-.0529ZM119.9404,313.2659l.0307.097c-.1157-.0235-.1259-.0558-.0307-.097ZM118.7317,315.6667l.0169-.0976c.058.1047.0524.1373-.0169.0976ZM119.8161,324.8501c-6.3152-31.0045,47.7502-3.2632,47.8113,14.821-3.526,23.593-42.6169-.7539-47.8113-14.821Z"/><path class="cls-8" d="M205.3695,364.9576c.0063-.0001.0125-.0002.0189-.0003v-3.1601l-.0189.0217v3.1387Z"/><path class="cls-10" d="M205.3884,361.7972l.3493-.402c-.1168.0003-.2325.0051-.3493.0051v.3968Z"/><path class="cls-10" d="M205.3884,367.2858l2.0694-2.3811c-.6884.0239-1.3787.039-2.0694.0527v2.3284Z"/><path class="cls-5" d="M119.9404,313.2659c-.0952.0413-.085.0736.0306.097l-.0306-.097Z"/><path class="cls-5" d="M121.4274,312.1213l.0283-.0529c-.1552.0707-.1645.0883-.0283.0529Z"/><path class="cls-5" d="M167.6273,339.6712c-.0611-18.0843-54.1264-45.8256-47.8113-14.821,5.1943,14.0672,44.2853,38.4141,47.8113,14.821ZM161.3609,332.0693c-.0344-.0239-.0479-.0386-.0405-.044-.0074.0054.0061.0201.0405.044ZM138.3015,317.8331l.1787.0563c1.757.5482,3.6011,1.3413,5.433,2.3057.8919.4413,1.7717.9488,2.633,1.5091,1.6305,1.0245,3.2106,2.177,4.6635,3.422,9.8602,7.9727,16.1908,24.4628-2.1829,19.6615-1.2076-.3436-2.414-.7562-3.6115-1.2209-.484-.1625-.9786-.3348-1.4909-.5232-4.2342-.964-8.8719-4.3787-12.4846-8.4209-1.5774-1.5679-2.9922-3.2686-4.1863-5.0886-6.7402-10.802.3423-15.1371,11.0479-11.7008Z"/><path class="cls-5" d="M118.7486,315.5691l-.0169.0976c.0694.0397.0749.0072.0169-.0976Z"/><path class="cls-6" d="M131.4399,334.6226c3.9186,3.895,8.8526,6.9563,13.9755,8.9442,22.9573,7.7098,14.2699-13.3162,1.1308-21.8625-.8669-.5447-1.7487-1.0435-2.633-1.5091-1.7741-.8778-3.5931-1.4994-5.3975-1.7694-18.0937-4.9853-15.1421,7.1715-7.0758,16.1968Z"/><path class="cls-6" d="M145.4154,343.5668c1.1974.4647,2.4039.8773,3.6115,1.2209,18.3737,4.8014,12.043-11.6887,2.1829-19.6615-1.4529-1.245-3.033-2.3975-4.6635-3.422,13.1391,8.5464,21.8265,29.5724-1.1308,21.8625Z"/><path class="cls-6" d="M131.4399,334.6226c-8.0663-9.0253-11.0179-21.1821,7.0758-16.1968,1.8044.27,3.6234.8916,5.3975,1.7694-1.832-.9645-3.676-1.7576-5.433-2.3057l-.1787-.0563c-10.7055-3.4363-17.788.8988-11.0479,11.7008,1.1941,1.8201,2.6089,3.5207,4.1863,5.0886Z"/><path class="cls-6" d="M244.0531,317.3083l24.7868-28.5206-44.6132,21.0172-1.8031-1.4191c3.1073,3.1445,6.7852,5.6167,10.8369,7.1605,2.7077.8879,5.7067,1.4942,9.0101,1.7767.5904.0134,1.1842.0115,1.7825-.0147Z"/><path class="cls-6" d="M276.9167,284.9827l-27.5443,31.6935c8.6576-1.7084,16.1122-6.8089,21.6549-13.7215.185-.2332.37-.4663.5506-.7036.0405-.0526.0814-.1048.1218-.1576,4.0958-5.4352,7.0039-11.8937,8.471-18.6437l-3.2538,1.5329Z"/><path class="cls-6" d="M268.8399,288.7877l-24.7868,28.5206c.5672-.0248,1.1372-.0644,1.7108-.1259,1.224-.1028,2.4274-.2732,3.6085-.5062l27.5443-31.6935-8.0768,3.805Z"/><path class="cls-6" d="M242.2706,317.3231c-3.3034-.2825-6.3024-.8888-9.0101-1.7767,2.8414,1.0826,5.8659,1.7057,9.0101,1.7767Z"/><path class="cls-6" d="M271.5778,302.2511c-.1806.2372-.3656.4704-.5506.7036.1862-.2322.3687-.4674.5506-.7036Z"/><path class="cls-7" d="M220.758,255.4889c.0881-.1227.1729-.2855.2405-.4218l-.0139-.009c-.1005.1208-.2048.2681-.2266.4307Z"/><path class="cls-7" d="M200.409,269.7874l-.0007-.0273c-.011.0662-.0108.0754.0007.0273Z"/><path class="cls-7" d="M198.8388,281.7813l.0109-.005c.073-.4406.0092-.4178-.0109.005Z"/><path class="cls-7" d="M83.8879,250.0376l.007.0071c.0394-.199.0046-.3276-.007-.0071Z"/><path class="cls-10" d="M351.1825,264.7739l-1.2917-2.9812-41.275,20.7083-5.9574-15.6887-77.7522,36.6283-30.6822-24.1484-59.4413,25.7324-31.5869-14.9356-22.9538,15.8397,2.8524,4.4539c.2809.4386.6231.8023.9882,1.1309,1.7477,2.2111,3.5336,4.3919,5.383,6.5199,30.9258,35.5838,72.0878,55.1814,115.904,55.1814v-11.8143c-42.7442,0-81.4236-20.4426-109.1145-53.2926l7.9303-5.4558,23.6145,11.1663c4.3365,2.0506,9.293,2.134,13.6905.2303l51.2009-22.1643,8.578,6.7513c1.7096,4.2294,4.0668,8.428,7.1935,12.5288,7.8828,9.9288,17.4556,14.7429,27.2892,15.6954,1.5378.1489,3.0817.2001,4.6269.1647,22.105-.5071,44.381-19.3937,50.8705-42.7496l5.6725-2.6723,5.9604,15.6994,29.3601-14.5607c-26.4196,45.8042-70.9153,76.5641-121.6399,78.5448-1.6161.0631-3.2366.1049-4.8648.1092l-.3493.402v3.1601c.6907-.0137,1.381-.0288,2.0694-.0527l-2.0694,2.3811v5.9291c43.816,0,84.9781-19.5977,115.9046-55.1822,12.7587-14.6807,21.965-28.421,29.7158-46.395.1076-.2184.205-.4414.2927-.6691.0185-.0434.0377-.085.0562-.1284l-.0049.0013c.6947-1.8988.6939-4.0727-.1703-6.0674ZM271.6996,302.0935c-.0401.0531-.0816.1047-.1218.1576-.1819.2362-.3644.4714-.5506.7036-5.4602,6.885-12.8732,11.9936-21.6761,13.7459-1.7205.3425-3.4944.5549-5.3167.6292-.4309.0175-.8622.0334-1.2984.0351-.1572-.0119-.3098-.0285-.4655-.0417-3.1442-.0711-6.1687-.6942-9.0101-1.7768-1.5893-.5212-3.0722-1.1445-4.4644-1.8496l49.2729-23.2126c-1.5858,4.1638-3.7259,8.1014-6.3694,11.6093ZM275.486,296.2422c1.0278-1.8742,1.943-3.8195,2.7217-5.8234-.7789,2.0043-1.6914,3.9496-2.7217,5.8234Z"/><ellipse class="cls-10" cx="166.574" cy="200.3397" rx="16.2912" ry="21.7794" transform="translate(-18.7569 17.2131) rotate(-5.6007)"/><ellipse class="cls-10" cx="250.9186" cy="207.9337" rx="21.7794" ry="16.2912" transform="translate(-10.3624 402.687) rotate(-76.3483)"/><path class="cls-4" d="M232.064,242.2245c-4.0335-7.6991-6.9899-12.3983-13.4618-15.7606-6.153-3.1967-13.1079-3.7457-19.6863-1.5542-6.9194,2.3052-12.7093,7.1196-15.5373,14.8396,0,0-7.6392,14.7596,22.9146,17.1717,30.5537,2.4121,25.7708-14.6965,25.7708-14.6965Z"/><path class="cls-3" d="M167.1472,343.4803c-6.6533-2.833-10.1451,7.4834-10.2063,7.666l-.0016.0127-.8513,10.5555c-.0068.0841-.1208.1046-.1564.0281l-8.4263-18.0876-.0021-.0046c-.0232-.0716-2.7198-8.328-9.4077-5.538-6.5577,3.0837-2.2488,10.6251-2.2114,10.6904l.002.0047,7.7487,18.388c.0328.0778-.0589.1485-.1258.0971l-8.3947-6.4554-.0105-.0073c-.1764-.0772-10.1666-4.4151-12.5335,2.4179-2.3768,6.8617,5.7446,12.3277,5.8205,12.3786l.0048.0026,20.2093,10.5284c.0165.0086.0276.0181.0352.0352.3658.8241,11.0375,24.6427,20.4706,20.2069,9.6071-4.0077-2.0203-27.3231-2.457-28.1906-.009-.0179-.0098-.0355-.0047-.0549l5.4562-20.8681.4388-3.1845c.03-3.0143-.6026-8.5794-5.3968-10.6208Z"/></svg>