<?xml version="1.0" encoding="UTF-8"?><svg id="_レイヤー_2" xmlns="http://www.w3.org/2000/svg" xmlns:xlink="http://www.w3.org/1999/xlink" viewBox="0 0 419.1 462"><defs><style>.cls-1,.cls-2{fill:#141923;}.cls-2{opacity:.7;}.cls-3{fill:#fff;}.cls-4{fill:none;}.cls-4,.cls-5{stroke:#141923;}.cls-4,.cls-5,.cls-6{stroke-miterlimit:10;}.cls-4,.cls-6{stroke-width:15px;}.cls-5{fill:#f4f5d4;stroke-width:15px;}.cls-6{fill:#feffe6;stroke:#000;}.cls-7{fill:#a8a8a8;}.cls-8{clip-path:url(#clippath);}</style><clipPath id="clippath"><polygon class="cls-4" points="90 202.9 171.3 246 208.9 288.3 265.9 239 329.2 245.6 288.7 178.8 225.4 197.4 135.5 155.8 90 202.9"/></clipPath></defs><g id="home"><g id="egg"><g id="egg-2"><path class="cls-3" d="M209.6,454.5c-111.4,0-202.1-100.3-202.1-223.5S98.1,7.5,209.6,7.5s202.1,100.3,202.1,223.5-90.6,223.5-202.1,223.5Z"/><path d="M209.6,15c26.1,0,51.4,5.6,75.2,16.7,23.1,10.8,43.9,26.3,61.8,46,18,19.8,32.1,42.9,42,68.7,10.3,26.8,15.5,55.2,15.5,84.5s-5.2,57.8-15.5,84.5c-9.9,25.8-24,48.9-42,68.7-17.9,19.7-38.7,35.2-61.8,46-23.8,11.1-49.1,16.7-75.2,16.7s-51.4-5.6-75.2-16.7c-23.1-10.8-43.9-26.3-61.8-46-18-19.8-32.1-42.9-42-68.7-10.3-26.8-15.5-55.2-15.5-84.5s5.2-57.8,15.5-84.5c9.9-25.8,24-48.9,42-68.7,17.9-19.7,38.7-35.2,61.8-46,23.8-11.1,49.1-16.7,75.2-16.7M209.6,0C93.8,0,0,103.4,0,231s93.8,231,209.6,231,209.6-103.4,209.6-231S325.3,0,209.6,0h0Z"/><g class="cls-8"><path class="cls-1" d="M187.3,217.4c0,14.1-14.6,18.2-24.3,18.2s-17.6-11.4-17.6-25.6,1.4-11.5,3.8-15.9,8.2-9.7,13.8-9.7,16.3,3.8,19.4,8.4,4.9,17.5,4.9,24.6Z"/><path class="cls-1" d="M273,213.4c0,12.2-10.4,22.2-20.1,22.2s-21.7-13.6-20-25.8c2.1-15.2,12.9-18.6,22.6-18.6s17.6,6.2,17.6,22.2Z"/><path class="cls-5" d="M201.4,213.4s40.1,22.5,0,113.3c0,0-128.2,58.8-178,50.8,0,0,56.2-145.6,178-164Z"/></g><polygon class="cls-4" points="90 202.9 171.3 246 208.9 288.3 265.9 239 329.2 245.6 288.7 178.8 225.4 197.4 135.5 155.8 90 202.9"/><polygon class="cls-2" points="90 202.9 171.3 246 208.9 288.3 265.9 239 329.2 245.6 288.7 178.8 225.4 197.4 135.5 155.8 90 202.9"/></g><polyline class="cls-6" points="90 202.9 71.3 195.1 37.6 222 8.2 206.9"/><polyline class="cls-6" points="329.2 245.6 365.4 250.9 377.2 222 411.1 226"/><path id="egg_shadow" class="cls-7" d="M400.9,270.9s-58,149.4-199.3,175.9c0,0,160.9,12.8,199.3-175.9Z"/></g></g></svg>