<?xml version="1.0" encoding="UTF-8"?>
<svg id="_レイヤー_2" data-name="レイヤー 2" xmlns="http://www.w3.org/2000/svg" viewBox="0 0 474.65 523.16">
  <defs>
    <style>
      .cls-1 {
        fill: none;
      }

      .cls-2 {
        fill: #6d6d6d;
      }
    </style>
  </defs>
  <g id="home">
    <rect class="cls-1" width="474.65" height="523.16"/>
    <g id="first_damage">
      <path d="M111.67,42.91l-6.65,7.14c-2.87,1.23-31.07,10.53-65.22,75.79l-3.34,6.38,28.84,27.14,18.09-18.33,19.33,12.16,39.85-38.51-30.9-71.77ZM101.47,141.18l-19.48-12.26-16.94,17.16-16.84-15.85c33.58-64.15,58.49-74.86,58.49-74.86l24.55,57.02-29.78,28.77Z"/>
      <g id="first_damage-2" data-name="first_damage">
        <path class="cls-2" d="M102.57,69.82c-9.85,8.67-25.25,26.77-42.55,58.49l4.79,4.5,15.78-15.99,19.64,12.35,19.7-19.04-17.36-40.32Z"/>
        <path d="M107.98,134.9l23.27-22.49-24.55-57.02s-24.91,10.71-58.49,74.86l16.84,15.85,16.94-17.16,19.48,12.26-4.97,7.33,52.02,35.25,9.93-14.66-50.48-34.2ZM80.59,116.82l-15.78,15.99-4.79-4.5c17.31-31.72,32.71-49.81,42.55-58.49l17.36,40.32-19.7,19.04-19.64-12.35Z"/>
      </g>
    </g>
  </g>
</svg>