<?xml version="1.0" encoding="UTF-8"?>
<svg id="_レイヤー_2" data-name="レイヤー 2" xmlns="http://www.w3.org/2000/svg" viewBox="0 0 719.53 266.09">
  <defs>
    <style>
      .cls-1 {
        fill: #fff;
        stroke: #7c7c7c;
        stroke-miterlimit: 10;
        stroke-width: 10px;
      }
    </style>
  </defs>
  <g id="start_button">
    <g>
      <path class="cls-1" d="M713.67,16.69c2.68-5.38-1.23-11.69-7.24-11.69H13.1c-6.01,0-9.92,6.32-7.24,11.69l30.24,60.71c2.98,5.98,11.5,5.98,14.48,0l17.17-34.46c2.98-5.98,11.5-5.98,14.48,0l17.17,34.46c2.98,5.98,11.5,5.98,14.48,0l17.17-34.46c2.98-5.98,11.5-5.98,14.48,0l17.17,34.46c2.98,5.98,11.5,5.98,14.48,0l17.17-34.46c2.98-5.98,11.5-5.98,14.48,0l17.17,34.46c2.98,5.98,11.5,5.98,14.48,0l17.17-34.46c2.98-5.98,11.5-5.98,14.48,0l17.17,34.46c2.98,5.98,11.5,5.98,14.48,0l17.17-34.46c2.98-5.98,11.5-5.98,14.48,0l17.17,34.46c2.98,5.98,11.5,5.98,14.48,0l17.17-34.46c2.98-5.98,11.5-5.98,14.48,0l17.17,34.46c2.98,5.98,11.5,5.98,14.48,0l17.17-34.46c2.98-5.98,11.5-5.98,14.48,0l17.17,34.46c2.98,5.98,11.5,5.98,14.48,0l17.17-34.46c2.98-5.98,11.5-5.98,14.48,0l17.17,34.46c2.98,5.98,11.5,5.98,14.48,0l17.17-34.46c2.98-5.98,11.5-5.98,14.48,0l17.17,34.46c2.98,5.98,11.5,5.98,14.48,0l17.17-34.46c2.98-5.98,11.5-5.98,14.48,0l17.17,34.46c2.98,5.98,11.5,5.98,14.48,0l30.24-60.71Z"/>
      <path class="cls-1" d="M668.96,188.69l-17.17,34.46c-2.98,5.98-11.5,5.98-14.48,0l-17.17-34.46c-2.98-5.98-11.5-5.98-14.48,0l-17.17,34.46c-2.98,5.98-11.5,5.98-14.48,0l-17.17-34.46c-2.98-5.98-11.5-5.98-14.48,0l-17.17,34.46c-2.98,5.98-11.5,5.98-14.48,0l-17.17-34.46c-2.98-5.98-11.5-5.98-14.48,0l-17.17,34.46c-2.98,5.98-11.5,5.98-14.48,0l-17.17-34.46c-2.98-5.98-11.5-5.98-14.48,0l-17.17,34.46c-2.98,5.98-11.5,5.98-14.48,0l-17.17-34.46c-2.98-5.98-11.5-5.98-14.48,0l-17.17,34.46c-2.98,5.98-11.5,5.98-14.48,0l-17.17-34.46c-2.98-5.98-11.5-5.98-14.48,0l-17.17,34.46c-2.98,5.98-11.5,5.98-14.48,0l-17.17-34.46c-2.98-5.98-11.5-5.98-14.48,0l-17.17,34.46c-2.98,5.98-11.5,5.98-14.48,0l-17.17-34.46c-2.98-5.98-11.5-5.98-14.48,0l-17.17,34.46c-2.98,5.98-11.5,5.98-14.48,0l-17.17-34.46c-2.98-5.98-11.5-5.98-14.48,0l-17.17,34.46c-2.98,5.98-11.5,5.98-14.48,0l-17.17-34.46c-2.98-5.98-11.5-5.98-14.48,0l-30.24,60.71c-2.68,5.38,1.23,11.69,7.24,11.69h693.34c6.01,0,9.92-6.32,7.24-11.69l-30.24-60.71c-2.98-5.98-11.5-5.98-14.48,0Z"/>
    </g>
  </g>
</svg>