<?xml version="1.0" encoding="UTF-8"?><svg id="_レイヤー_2" xmlns="http://www.w3.org/2000/svg" viewBox="0 0 170.3 222.5"><defs><style>.cls-1{fill:#fff;}.cls-2{fill:#565656;}</style></defs><g id="footer_menu"><path class="cls-1" d="M6,218.5h157.8l-41.2-78.6h-2.6C180.9,102.6,152.5,2.6,79.9,4,7.2,2.6-21.2,102.6,39.7,140h-1.3L6,218.5Z"/><path class="cls-2" d="M170.3,222.5H0l33.8-81.8C-26.4,99.4,6.5-2.3,79.9,0c72.7-2.3,106.1,97.9,47.2,139.9l43.3,82.6ZM12,214.5h145.2l-37-70.6h-13.7C175.3,111.2,157.2,9.9,79.9,8,2.5,9.9-15.6,111.2,53.3,144h-12.2l-29.1,70.6Z"/></g></svg>