<?xml version="1.0" encoding="UTF-8"?><svg id="_レイヤー_2" xmlns="http://www.w3.org/2000/svg" viewBox="0 0 311.811 311.811"><defs><style>.cls-1{fill:none;stroke-linecap:round;stroke-width:8px;}.cls-1,.cls-2{stroke:#000;stroke-linejoin:round;}.cls-3{fill:#fff;}.cls-2{fill:#def7ff;stroke-width:6px;}</style></defs><polyline class="cls-1" points="40.3496 164.6347 33.5172 179.7772 206.5375 179.7772 290.2169 122.174"/><circle class="cls-2" cx="88.8826" cy="178.4523" r="22.2343"/><circle class="cls-2" cx="148.8018" cy="179.7772" r="22.2343"/><path class="cls-3" d="M78.1292,172.8912c-1.9105,4.5235-1.5137,8.7133-3.8546,8.195-1.4841-.3286-2.0063-5.1852-.0958-9.7086s5.8369-7.6334,7.0144-6.6722c2.068,1.688-1.1534,3.6624-3.0639,8.1858Z"/><circle class="cls-3" cx="84.0549" cy="163.4044" r="1.5322"/><path class="cls-3" d="M138.2597,173.888c-1.9105,4.5235-1.5137,8.7133-3.8546,8.195-1.4841-.3286-2.0063-5.1852-.0958-9.7086s5.8369-7.6334,7.0144-6.6722c2.068,1.688-1.1534,3.6624-3.0639,8.1858Z"/><circle class="cls-3" cx="144.1854" cy="164.4013" r="1.5322"/></svg>