<?xml version="1.0" encoding="UTF-8"?><svg id="_レイヤー_2" xmlns="http://www.w3.org/2000/svg" viewBox="0 0 311.811 311.811"><defs><style>.cls-1{fill:#fff;}</style></defs><rect x="111.4923" y="160.4357" width="6.2569" height="6.2569"/><rect x="111.4923" y="154.2022" width="6.2569" height="6.2334"/><rect x="105.2354" y="166.6925" width="6.2569" height="6.2569"/><rect x="105.2354" y="160.4357" width="6.2569" height="6.2569"/><rect x="105.2354" y="154.2022" width="6.2569" height="6.2334"/><rect x="98.9785" y="179.2063" width="6.2569" height="6.2569"/><rect x="98.9785" y="172.9494" width="6.2569" height="6.2569"/><rect x="98.9785" y="166.6925" width="6.2569" height="6.2569"/><rect x="98.9785" y="160.4357" width="6.2569" height="6.2569"/><rect x="98.9785" y="154.2022" width="6.2569" height="6.2334"/><rect x="92.745" y="185.4632" width="6.2334" height="6.2334"/><rect x="92.745" y="179.2063" width="6.2334" height="6.2569"/><rect x="92.745" y="172.9494" width="6.2334" height="6.2569"/><rect x="92.745" y="166.6925" width="6.2334" height="6.2569"/><rect x="92.745" y="160.4357" width="6.2334" height="6.2569"/><rect x="92.745" y="154.2022" width="6.2334" height="6.2334"/><rect x="86.4882" y="191.6966" width="6.2569" height="6.2569"/><rect x="86.4882" y="185.4632" width="6.2569" height="6.2334"/><rect x="86.4882" y="179.2063" width="6.2569" height="6.2569"/><rect x="86.4882" y="172.9494" width="6.2569" height="6.2569"/><rect x="86.4882" y="166.6925" width="6.2569" height="6.2569"/><rect x="86.4882" y="160.4357" width="6.2569" height="6.2569"/><rect x="86.4882" y="154.2022" width="6.2569" height="6.2334"/><rect x="80.2313" y="191.6966" width="6.2569" height="6.2569"/><rect x="80.2313" y="185.4632" width="6.2569" height="6.2334"/><rect x="80.2313" y="179.2063" width="6.2569" height="6.2569"/><rect x="80.2313" y="172.9494" width="6.2569" height="6.2569"/><rect x="80.2313" y="166.6925" width="6.2569" height="6.2569"/><rect x="80.2313" y="160.4357" width="6.2569" height="6.2569"/><rect x="80.2313" y="154.2022" width="6.2569" height="6.2334"/><rect x="73.9744" y="191.6966" width="6.2569" height="6.2569"/><rect x="73.9744" y="185.4632" width="6.2569" height="6.2334"/><rect x="73.9744" y="179.2063" width="6.2569" height="6.2569"/><rect x="73.9744" y="172.9494" width="6.2569" height="6.2569"/><rect x="73.9744" y="166.6925" width="6.2569" height="6.2569"/><rect x="73.9744" y="160.4357" width="6.2569" height="6.2569"/><rect x="73.9744" y="154.2022" width="6.2569" height="6.2334"/><rect x="67.7175" y="191.6966" width="6.2569" height="6.2569"/><rect x="67.7175" y="185.4632" width="6.2569" height="6.2334"/><rect x="67.7175" y="179.2063" width="6.2569" height="6.2569"/><rect x="67.7175" y="172.9494" width="6.2569" height="6.2569"/><rect x="67.7175" y="166.6925" width="6.2569" height="6.2569"/><rect x="67.7175" y="160.4357" width="6.2569" height="6.2569"/><rect x="67.7175" y="154.2022" width="6.2569" height="6.2334"/><rect x="61.4841" y="191.6966" width="6.2334" height="6.2569"/><rect x="61.4841" y="185.4632" width="6.2334" height="6.2334"/><rect x="61.4841" y="179.2063" width="6.2334" height="6.2569"/><rect x="61.4841" y="172.9494" width="6.2334" height="6.2569"/><rect x="61.4841" y="166.6925" width="6.2334" height="6.2569"/><rect x="61.4841" y="160.4357" width="6.2334" height="6.2569"/><rect x="61.4841" y="154.2022" width="6.2334" height="6.2334"/><rect x="55.2272" y="191.6966" width="6.2569" height="6.2569"/><rect x="55.2272" y="185.4632" width="6.2569" height="6.2334"/><rect x="55.2272" y="179.2063" width="6.2569" height="6.2569"/><rect x="55.2272" y="172.9494" width="6.2569" height="6.2569"/><rect x="55.2272" y="166.6925" width="6.2569" height="6.2569"/><rect x="55.2272" y="160.4357" width="6.2569" height="6.2569"/><rect x="55.2272" y="154.2022" width="6.2569" height="6.2334"/><rect x="48.9703" y="191.6966" width="6.2569" height="6.2569"/><rect x="48.9703" y="185.4632" width="6.2569" height="6.2334"/><rect class="cls-1" x="48.9703" y="179.2063" width="6.2569" height="6.2569"/><rect x="48.9703" y="172.9494" width="6.2569" height="6.2569"/><rect x="48.9703" y="166.6925" width="6.2569" height="6.2569"/><rect x="48.9703" y="160.4357" width="6.2569" height="6.2569"/><rect x="48.9703" y="154.2022" width="6.2569" height="6.2334"/><rect x="42.7134" y="191.6966" width="6.2569" height="6.2569"/><rect x="42.7134" y="185.4632" width="6.2569" height="6.2334"/><rect x="42.7134" y="179.2063" width="6.2569" height="6.2569"/><rect class="cls-1" x="42.7134" y="172.9494" width="6.2569" height="6.2569"/><rect x="42.7134" y="166.6925" width="6.2569" height="6.2569"/><rect x="42.7134" y="160.4357" width="6.2569" height="6.2569"/><rect x="42.7134" y="154.2022" width="6.2569" height="6.2334"/><rect x="36.48" y="191.6966" width="6.2334" height="6.2569"/><rect x="36.48" y="185.4632" width="6.2334" height="6.2334"/><rect class="cls-1" x="36.48" y="179.2063" width="6.2334" height="6.2569"/><rect x="36.48" y="172.9494" width="6.2334" height="6.2569"/><rect class="cls-1" x="36.48" y="166.6925" width="6.2334" height="6.2569"/><rect x="36.48" y="160.4357" width="6.2334" height="6.2569"/><rect x="36.48" y="154.2022" width="6.2334" height="6.2334"/><rect x="30.2231" y="185.4632" width="6.2569" height="6.2334"/><rect x="30.2231" y="179.2063" width="6.2569" height="6.2569"/><rect class="cls-1" x="30.2231" y="172.9494" width="6.2569" height="6.2569"/><rect x="30.2231" y="166.6925" width="6.2569" height="6.2569"/><rect x="30.2231" y="160.4357" width="6.2569" height="6.2569"/><rect x="30.2231" y="154.2022" width="6.2569" height="6.2334"/><rect x="23.9662" y="179.2063" width="6.2569" height="6.2569"/><rect x="23.9662" y="172.9494" width="6.2569" height="6.2569"/><rect class="cls-1" x="23.9662" y="166.6925" width="6.2569" height="6.2569"/><rect x="23.9662" y="160.4357" width="6.2569" height="6.2569"/><rect x="23.9662" y="154.2022" width="6.2569" height="6.2334"/><rect x="17.7093" y="166.6925" width="6.2569" height="6.2569"/><rect x="17.7093" y="160.4357" width="6.2569" height="6.2569"/><rect x="17.7093" y="154.2022" width="6.2569" height="6.2334"/><rect x="11.4525" y="160.4357" width="6.2569" height="6.2569"/><rect x="11.4525" y="154.2022" width="6.2569" height="6.2334"/><rect x="215.2404" y="160.4357" width="6.2569" height="6.2569"/><rect x="215.2404" y="154.2022" width="6.2569" height="6.2334"/><rect x="208.9835" y="166.6925" width="6.2569" height="6.2569"/><rect x="208.9835" y="160.4357" width="6.2569" height="6.2569"/><rect x="208.9835" y="154.2022" width="6.2569" height="6.2334"/><rect x="202.7267" y="179.2063" width="6.2569" height="6.2569"/><rect x="202.7267" y="172.9494" width="6.2569" height="6.2569"/><rect x="202.7267" y="166.6925" width="6.2569" height="6.2569"/><rect x="202.7267" y="160.4357" width="6.2569" height="6.2569"/><rect x="202.7267" y="154.2022" width="6.2569" height="6.2334"/><rect x="196.4932" y="185.4632" width="6.2334" height="6.2334"/><rect x="196.4932" y="179.2063" width="6.2334" height="6.2569"/><rect x="196.4932" y="172.9494" width="6.2334" height="6.2569"/><rect x="196.4932" y="166.6925" width="6.2334" height="6.2569"/><rect x="196.4932" y="160.4357" width="6.2334" height="6.2569"/><rect x="196.4932" y="154.2022" width="6.2334" height="6.2334"/><rect x="190.2363" y="191.6966" width="6.2569" height="6.2569"/><rect x="190.2363" y="185.4632" width="6.2569" height="6.2334"/><rect x="190.2363" y="179.2063" width="6.2569" height="6.2569"/><rect x="190.2363" y="172.9494" width="6.2569" height="6.2569"/><rect x="190.2363" y="166.6925" width="6.2569" height="6.2569"/><rect x="190.2363" y="160.4357" width="6.2569" height="6.2569"/><rect x="190.2363" y="154.2022" width="6.2569" height="6.2334"/><rect x="183.9795" y="191.6966" width="6.2569" height="6.2569"/><rect x="183.9795" y="185.4632" width="6.2569" height="6.2334"/><rect x="183.9795" y="179.2063" width="6.2569" height="6.2569"/><rect x="183.9795" y="172.9494" width="6.2569" height="6.2569"/><rect x="183.9795" y="166.6925" width="6.2569" height="6.2569"/><rect x="183.9795" y="160.4357" width="6.2569" height="6.2569"/><rect x="183.9795" y="154.2022" width="6.2569" height="6.2334"/><rect x="177.7226" y="191.6966" width="6.2569" height="6.2569"/><rect x="177.7226" y="185.4632" width="6.2569" height="6.2334"/><rect x="177.7226" y="179.2063" width="6.2569" height="6.2569"/><rect x="177.7226" y="172.9494" width="6.2569" height="6.2569"/><rect x="177.7226" y="166.6925" width="6.2569" height="6.2569"/><rect x="177.7226" y="160.4357" width="6.2569" height="6.2569"/><rect x="177.7226" y="154.2022" width="6.2569" height="6.2334"/><rect x="171.4657" y="191.6966" width="6.2569" height="6.2569"/><rect x="171.4657" y="185.4632" width="6.2569" height="6.2334"/><rect x="171.4657" y="179.2063" width="6.2569" height="6.2569"/><rect x="171.4657" y="172.9494" width="6.2569" height="6.2569"/><rect x="171.4657" y="166.6925" width="6.2569" height="6.2569"/><rect x="171.4657" y="160.4357" width="6.2569" height="6.2569"/><rect x="171.4657" y="154.2022" width="6.2569" height="6.2334"/><rect x="165.2322" y="191.6966" width="6.2334" height="6.2569"/><rect x="165.2322" y="185.4632" width="6.2334" height="6.2334"/><rect x="165.2322" y="179.2063" width="6.2334" height="6.2569"/><rect x="165.2322" y="172.9494" width="6.2334" height="6.2569"/><rect x="165.2322" y="166.6925" width="6.2334" height="6.2569"/><rect x="165.2322" y="160.4357" width="6.2334" height="6.2569"/><rect x="165.2322" y="154.2022" width="6.2334" height="6.2334"/><rect x="158.9754" y="191.6966" width="6.2569" height="6.2569"/><rect x="158.9754" y="185.4632" width="6.2569" height="6.2334"/><rect x="158.9754" y="179.2063" width="6.2569" height="6.2569"/><rect x="158.9754" y="172.9494" width="6.2569" height="6.2569"/><rect x="158.9754" y="166.6925" width="6.2569" height="6.2569"/><rect x="158.9754" y="160.4357" width="6.2569" height="6.2569"/><rect x="158.9754" y="154.2022" width="6.2569" height="6.2334"/><rect x="152.7185" y="191.6966" width="6.2569" height="6.2569"/><rect x="152.7185" y="185.4632" width="6.2569" height="6.2334"/><rect class="cls-1" x="152.7185" y="179.2063" width="6.2569" height="6.2569"/><rect x="152.7185" y="172.9494" width="6.2569" height="6.2569"/><rect x="152.7185" y="166.6925" width="6.2569" height="6.2569"/><rect x="152.7185" y="160.4357" width="6.2569" height="6.2569"/><rect x="152.7185" y="154.2022" width="6.2569" height="6.2334"/><rect x="146.4616" y="191.6966" width="6.2569" height="6.2569"/><rect x="146.4616" y="185.4632" width="6.2569" height="6.2334"/><rect x="146.4616" y="179.2063" width="6.2569" height="6.2569"/><rect class="cls-1" x="146.4616" y="172.9494" width="6.2569" height="6.2569"/><rect x="146.4616" y="166.6925" width="6.2569" height="6.2569"/><rect x="146.4616" y="160.4357" width="6.2569" height="6.2569"/><rect x="146.4616" y="154.2022" width="6.2569" height="6.2334"/><rect x="140.2282" y="191.6966" width="6.2334" height="6.2569"/><rect x="140.2282" y="185.4632" width="6.2334" height="6.2334"/><rect class="cls-1" x="140.2282" y="179.2063" width="6.2334" height="6.2569"/><rect x="140.2282" y="172.9494" width="6.2334" height="6.2569"/><rect class="cls-1" x="140.2282" y="166.6925" width="6.2334" height="6.2569"/><rect x="140.2282" y="160.4357" width="6.2334" height="6.2569"/><rect x="140.2282" y="154.2022" width="6.2334" height="6.2334"/><rect x="133.9713" y="185.4632" width="6.2569" height="6.2334"/><rect x="133.9713" y="179.2063" width="6.2569" height="6.2569"/><rect class="cls-1" x="133.9713" y="172.9494" width="6.2569" height="6.2569"/><rect x="133.9713" y="166.6925" width="6.2569" height="6.2569"/><rect x="133.9713" y="160.4357" width="6.2569" height="6.2569"/><rect x="133.9713" y="154.2022" width="6.2569" height="6.2334"/><rect x="127.7144" y="179.2063" width="6.2569" height="6.2569"/><rect x="127.7144" y="172.9494" width="6.2569" height="6.2569"/><rect class="cls-1" x="127.7144" y="166.6925" width="6.2569" height="6.2569"/><rect x="127.7144" y="160.4357" width="6.2569" height="6.2569"/><rect x="127.7144" y="154.2022" width="6.2569" height="6.2334"/><rect x="121.4575" y="166.6925" width="6.2569" height="6.2569"/><rect x="121.4575" y="160.4357" width="6.2569" height="6.2569"/><rect x="121.4575" y="154.2022" width="6.2569" height="6.2334"/><rect x="115.2006" y="160.4357" width="6.2569" height="6.2569"/><rect x="115.2006" y="154.2022" width="6.2569" height="6.2334"/></svg>