<?xml version="1.0" encoding="UTF-8"?><svg id="_レイヤー_2" xmlns="http://www.w3.org/2000/svg" viewBox="0 0 311.811 311.811"><defs><style>.cls-1{stroke:#d3d3d3;}.cls-1,.cls-2{fill:#fff;}.cls-1,.cls-3,.cls-4{stroke-miterlimit:10;}.cls-3{stroke:#303030;stroke-width:12px;}.cls-3,.cls-4,.cls-5{fill:#d3d3d3;}.cls-4{stroke:#fff;stroke-linecap:round;stroke-width:6px;}</style></defs><path class="cls-3" d="M289.5676,174.7842c-.4741-1.5879-2.145-2.4912-3.7334-2.0156l-86.2179,25.7585,8.6909-23.5035,72.2394-48.4825c1.3755-.9238,1.7427-2.7871.8193-4.1631-.9238-1.375-2.7866-1.7412-4.1631-.8193l-69.1176,46.3873c-.704-1.0186-1.7136-1.8408-2.9632-2.3028l-57.6179-21.3052c-3.2327-1.1954-6.8224.4562-8.0177,3.689l-.5256,1.4213-103.1785-16.3182c-1.6279-.2568-3.1729.8574-3.4321,2.4941-.2588,1.6367.8584,3.1729,2.4946,3.4316l101.9941,16.1309-8.9708,24.2607-87.8377,11.041c-1.644.207-2.8091,1.707-2.6025,3.3506.1904,1.5176,1.4824,2.626,2.9727,2.626.125,0,.251-.0078.3779-.0234l85.2473-10.7153c.0665,2.4746,1.6072,4.777,4.071,5.688l57.6179,21.3053c3.2327,1.1953,6.8224-.4563,8.0177-3.689l1.2811-3.4645,90.5384-27.0493c1.5874-.4736,2.4897-2.1455,2.0156-3.7324Z"/><line class="cls-4" x1="143.0875" y1="153.0706" x2="35.2589" y2="136.0166"/><line class="cls-4" x1="132.4605" y1="181.8102" x2="40.3496" y2="193.3883"/><line class="cls-4" x1="202.6487" y1="175.0944" x2="278.8197" y2="123.9739"/><line class="cls-4" x1="192.0217" y1="203.834" x2="286.638" y2="175.5661"/><rect class="cls-2" x="130.5986" y="153.3566" width="73.9121" height="50.1915" rx="6.2407" ry="6.2407" transform="translate(72.29 -47.0348) rotate(20.2928)"/><rect class="cls-1" x="138.1775" y="157.2351" width="59.6082" height="42.5472" rx="6.2407" ry="6.2407" transform="translate(72.336 -47.1794) rotate(20.2928)"/><circle class="cls-5" cx="154.3697" cy="164.0244" r="2.6643"/><circle class="cls-5" cx="151.2623" cy="172.428" r="2.6643"/><circle class="cls-5" cx="148.155" cy="180.8316" r="2.6643"/><circle class="cls-5" cx="165.4939" cy="168.1377" r="2.6643"/><circle class="cls-5" cx="162.3865" cy="176.5413" r="2.6643"/><circle class="cls-5" cx="159.2791" cy="184.9449" r="2.6643"/><circle class="cls-5" cx="176.6181" cy="172.2511" r="2.6643"/><circle class="cls-5" cx="173.5107" cy="180.6547" r="2.6643"/><circle class="cls-5" cx="170.4033" cy="189.0583" r="2.6643"/><circle class="cls-5" cx="187.7422" cy="176.3645" r="2.6643"/><circle class="cls-5" cx="184.6349" cy="184.7681" r="2.6643"/><circle class="cls-5" cx="181.5275" cy="193.1716" r="2.6643"/></svg>