<?xml version="1.0" encoding="UTF-8"?><svg id="_レイヤー_2" xmlns="http://www.w3.org/2000/svg" viewBox="0 0 311.811 311.811"><defs><style>.cls-1{fill:#79badb;}.cls-2{fill:#231815;}.cls-3{fill:#85ffff;}</style></defs><path class="cls-1" d="M293.0037,145.8336c-78.9766,6.8664-133.8728,9.6257-172.0375,10.1213v26.361s11.1125,17.4569,34.9396,17.4569,121.5176-25.6532,140.3469-40.4951l-3.249-13.4441Z"/><path class="cls-2" d="M293.0035,145.6879l3.249,13.4441c-18.8292,14.8419-116.52,40.4951-140.3469,40.4951s-34.9396-17.4569-34.9396-17.4569c0,0-10.5696,13.9558-37.1211,17.3871-1.9091.2467-3.7836.3611-5.6195.3611-23.6992,0-40.897-19.0774-40.897-19.0774-4.187-15.6121-3.4095-33.3721-3.3259-35.0277.0463,1.167,2.7405,10.0807,74.4631,10.0807,38.3696,0,96.4999-2.552,184.5378-10.2062M34.0091,145.6879s-.0024.0427-.0066.1254c-.0033-.0817.0066-.1254.0066-.1254M293.0085,138.6876c-.2024,0-.4064.0088-.6113.0266-77.6941,6.7549-139.5776,10.1799-183.9315,10.1799-52.3268,0-65.3536-4.7744-68.1787-6.2999-.9957-2.0151-2.939-3.5054-5.3093-3.8366-.3278-.0458-.6537-.0681-.9762-.0681-3.225,0-6.0931,2.2297-6.821,5.4591-.1078.4781-.167.9731-.177,1.477-.1289,2.7361-.7795,20.8329,3.564,37.0286.2864,1.0678.8217,2.0526,1.5619,2.8738.7874.8734,19.5876,21.3904,46.0962,21.3904,2.1732,0,4.3658-.1409,6.5167-.4189,17.8971-2.3129,29.3932-9.1219,35.7144-14.1831,6.2037,6.087,17.8434,14.3107,35.4491,14.3107,13.9325,0,47.1661-7.5023,73.9218-14.9374,16.917-4.701,57.6765-16.7485,70.7585-27.0602,2.1482-1.6934,3.1134-4.483,2.4707-7.1418l-3.249-13.4441c-.7646-3.1642-3.5962-5.356-6.7991-5.356h0Z"/><path class="cls-3" d="M34.003,145.7492c-.0793,1.5568-.8749,19.3682,3.3257,35.0306,0,0,19.9651,22.1475,46.5166,18.7162,26.5513-3.4313,37.121-17.3871,37.121-17.3871v-26.361c-83.9918,1.0909-86.9205-8.7844-86.9633-9.9988Z"/></svg>