<?xml version="1.0" encoding="UTF-8"?><svg id="_レイヤー_2" xmlns="http://www.w3.org/2000/svg" viewBox="0 0 311.811 311.811"><defs><style>.cls-1{fill:#348c33;}.cls-1,.cls-2,.cls-3{stroke:#282828;stroke-linecap:round;stroke-linejoin:round;}.cls-1,.cls-3{stroke-width:8.2548px;}.cls-4{fill:#0c540a;}.cls-2{stroke-width:5.3589px;}.cls-2,.cls-3{fill:#d8d8d8;}</style></defs><path class="cls-3" d="M44.5877,132.4226s-14.4365.1232-16.5158,15.5443c-1.9194,14.2356-1.4807,25.1694-1.911,34.5596-.2043,4.4574,3.3534,8.1761,7.8155,8.1761h13.1297v-7.5053c0-12.5084-.6235-21.0089-3.7765-33.1134l1.2582-17.6613Z"/><rect class="cls-1" x="39.7181" y="166.9046" width="66.0322" height="32.4157" rx="6.3732" ry="6.3732"/><rect class="cls-2" x="39.7181" y="157.5274" width="66.0322" height="13.6613" rx="6.3732" ry="6.3732"/><path class="cls-4" d="M49.0806,178.2329l-1.1191,2.7583h-1.1201v-.5996h.6797l.1201-.2397-.7998-1.9189v-.52h.6396v.3999l.4805,1.2393.4795-1.2393v-.3999h.6396v.52Z"/><path class="cls-4" d="M49.8091,177.7129h2.1592v1.8394h-1.5596s0,.3198,0,.3198h1.5596v.6396h-2.1592v-2.7988ZM51.3286,178.3125h-.9199s0,.6396,0,.6396h.9199s0-.6396,0-.6396Z"/><path class="cls-4" d="M53.3765,178.6724h1.5195v1.8394h-2.1592v-.5996h1.5596v-.6396h-1.5596v-1.5596h2.1592v.6396h-1.5195v.3198Z"/><path class="cls-4" d="M57.1841,178.3125h-1.5195s0-.5996,0-.5996h2.1592s0,2.7988,0,2.7988h-2.1592s0-1.8789,0-1.8789h1.5195v-.3203ZM57.1841,179.2324h-.9199v.6396h.9199v-.6396Z"/><path class="cls-4" d="M59.2329,177.2334v.5996h-.6396v-.5996h.6396ZM59.2329,178.1128v2.3989h-.6396v-2.3989h.6396Z"/><path class="cls-4" d="M59.9615,177.7129h.5996v2.1592h.9199v-2.1592h.6396v2.7988h-2.1592v-2.7988Z"/><path class="cls-4" d="M65.0484,180.5117h-2.1592v-2.7988h2.1592v2.7988ZM63.5288,179.9121h.9199v-1.5596h-.9199v1.5596Z"/><path class="cls-4" d="M66.857,177.833h-1.04v-.5996h1.6797v3.2783h-.6396v-.4795h-1.04v-.6396h1.04v-1.5596Z"/><path class="cls-4" d="M70.4244,180.5117h-2.1592v-2.7988h2.1592v2.7988ZM68.9048,179.9121h.9199v-1.5596h-.9199v1.5596Z"/><path class="cls-4" d="M72.3931,179.8721v-2.1592h.6396v2.7988h-1.8398v-.6396h1.2002Z"/><path class="cls-4" d="M74.441,177.2334v.5996h-.6396v-.5996h.6396ZM74.441,178.1128v2.3989h-.6396v-2.3989h.6396Z"/><path class="cls-4" d="M47.481,182.6724h1.5195v1.8394h-2.1592v-.5996h1.5596v-.6396h-1.5596v-1.5596h2.1592v.6396h-1.5195v.3198Z"/><path class="cls-4" d="M51.2886,182.3125h-1.5195v-.5996h2.1592v2.7988h-2.1592v-1.8789h1.5195v-.3203ZM51.2886,183.2324h-.9199v.6396h.9199v-.6396Z"/><path class="cls-4" d="M54.856,184.5117h-.5996v-2.1592h-.9199v2.1592h-.6396v-2.7988h2.1592v2.7988Z"/><path class="cls-4" d="M56.6646,181.833h-1.04v-.5996h1.6797v3.2783h-.6396v-.4795h-1.04v-.6396h1.04v-1.5596Z"/><path class="cls-4" d="M60.2329,184.5117h-2.1592v-2.7988h2.1592v2.7988ZM58.7134,183.9121h.9199v-1.5596h-.9199v1.5596Z"/><path class="cls-4" d="M61.0015,181.7129h2.1592v2.7988h-.6396v-2.1992h-.9199v2.1992h-.5996v-2.7988Z"/><path class="cls-4" d="M64.5689,182.3526v2.1592h-.6396v-2.7988h1.8398v.6396h-1.2002Z"/><path class="cls-4" d="M66.5367,184.4712l1.1191-2.7583h1.1201v.5996h-.6797l-.1201.2397.7998,1.9189v.52h-.6396v-.3999l-.4805-1.2393-.4795,1.2393v.3999h-.6396v-.52Z"/><path class="cls-4" d="M71.6636,184.5117h-2.1592v-2.7988h2.1592v2.7988ZM70.1441,183.9121h.9199v-1.5596h-.9199v1.5596Z"/><path class="cls-4" d="M72.4322,181.2334h.6797l.5596,1.3193.3203-.2397v-1.0796h.6396v3.2783h-.6396v-1.439l-.9199.7192v.2402h-.5996v-.5601l.7197-.5195-.4795-1.1196h-.2803v-.5996Z"/><path class="cls-4" d="M77.5201,184.5117h-2.1592v-2.7988h.6396v2.1992h.9199v-2.1992h.5996v2.7988Z"/><path class="cls-4" d="M81.5869,181.9531h-1.959v-.7197h2.6787v1.7993h-1.959v.7593h1.959v.7197h-2.6787v-2.1987h1.959v-.3599Z"/><path class="cls-4" d="M84.3555,184.5117h-.7188v-2.5586h-.5605v-.7197h1.2793v3.2783Z"/><path class="cls-4" d="M57.1682,192.5112h1.7148v.63h-2.3448v-1.575h1.7148v-.6646h-1.7148v-.63h2.3448v1.9246h-1.7148v.315Z"/><path class="cls-4" d="M61.9364,193.1412h-2.3798v-2.8697h2.3798v2.8697ZM60.1866,190.9016v1.6096h1.1198v-1.6096h-1.1198Z"/><path class="cls-4" d="M63.24,192.5112h1.7148v.63h-2.3448v-1.575h1.7148v-.6646h-1.7148v-.63h2.3448v1.9246h-1.7148v.315Z"/><path class="cls-4" d="M68.0082,193.1412h-2.3798v-.63h1.7498v-.3146h-1.7498v-1.9251h2.3798v2.8697ZM66.2584,190.9016v.6651h1.1198v-.6651h-1.1198Z"/><path class="cls-4" d="M70.8172,190.9366l-1.6447,1.7845v.4201h-.4907v-.6651l1.6455-1.7849v-.4197h.4898v.6651Z"/><path class="cls-4" d="M71.49,190.2716h2.2747v.63h-1.6447v.6651h1.6447v.63h-1.6447v.3146h1.6447v.63h-2.2747v-2.8697Z"/><path class="cls-4" d="M76.5736,190.9366l-1.6447,1.7845v.4201h-.4907v-.6651l1.6455-1.7849v-.4197h.4898v.6651Z"/><path class="cls-4" d="M78.3662,193.1412h-.6292v-2.2396h-.4907v-.63h1.1198v2.8697Z"/><path class="cls-4" d="M79.0389,190.2716h.6292v2.2396h.4907v.63h-1.1198v-2.8697Z"/><path class="cls-4" d="M83.1849,191.5312h1.3301v1.6101h-1.89v-.5249h1.3652v-.5599h-1.3652v-1.3652h1.89v.5599h-1.3301v.28Z"/><path class="cls-4" d="M86.5178,191.2162h-1.3301v-.5249h1.89v2.4499h-1.89v-1.6447h1.3301v-.2804ZM86.5178,192.0214h-.8052v.5599h.8052v-.5599Z"/><path class="cls-4" d="M88.3104,190.2716v.5249h-.5599v-.5249h.5599ZM88.3104,191.0414v2.0999h-.5599v-2.0999h.5599Z"/><path class="cls-4" d="M90.2782,192.3014h-1.3301v-1.6101h1.89v.5249h-1.3652v.5599h1.3652v1.3652h-1.89v-.5599h1.3301v-.28Z"/><path class="cls-4" d="M93.4009,193.1412h-1.89v-1.6101h1.3652v-.28h-1.3652v-.5599h1.89v2.4499ZM92.0708,192.6164h.8052v-.5599h-.8052v.5599Z"/><path class="cls-4" d="M94.0737,190.2716h.595l.4898,1.1549.2804-.2099v-.945h.5599v2.8697h-.5599v-1.2596l-.8052.6296v.2103h-.5249v-.4902l.63-.4548-.4197-.9801h-.2453v-.5249Z"/><path class="cls-4" d="M98.5264,193.1412h-1.89v-2.4499h.5599v1.9251h.8052v-1.9251h.5249v2.4499Z"/></svg>