<?xml version="1.0" encoding="UTF-8"?><svg id="_レイヤー_2" xmlns="http://www.w3.org/2000/svg" viewBox="0 0 311.811 311.811"><defs><style>.cls-1{fill:#a8321e;stroke:#070707;stroke-miterlimit:10;stroke-width:4px;}</style></defs><path class="cls-1" d="M70.3271,189.0124s-3.9874-14.4727,4.7258-21.1183c1.0287-1.2603-11.0455-3.1318-20.5616-1.0338,0,0,5.2541,6.941,5.7453,13.882s10.0905,8.2701,10.0905,8.2701Z"/><path class="cls-1" d="M100.4122,161.632s7.6104,2.8285,11.1547,8.588c0,0,8.6024.6504,10.0792,4.9473,0,0,13.8068-6.0549,19.6778-3.3967,0,0,4.0308-9.0576,8.5292-11.8893,0,0-16.5122-3.5775-26.6748,3.4715,0,0-9.5069-10.6342-22.7661-1.7209Z"/><path class="cls-1" d="M157.1633,200.9376s16.8356-2.6583,20.2323-18.6078c0,0,13.0697-12.8862,43.7873-15.7101s31.2748,25.2917,31.2748,25.2917c0,0-3.4127,21.8005-28.2722,18.5515s-17.18-18.5515-17.18-18.5515c0,0,12.202,12.3957,21.0639,5.7324,4.4003-3.3086,5.9874-6.9095,6.148-10.24.3373-6.9943-5.7962-12.5901-12.7832-12.1262-10.354.6875-28.6543,3.8815-39.2391,17.316,0,0-7.8271,19.7892-25.0319,8.344Z"/></svg>