<?xml version="1.0" encoding="UTF-8"?><svg id="_レイヤー_2" xmlns="http://www.w3.org/2000/svg" viewBox="0 0 311.811 311.811"><defs><style>.cls-1{fill:#f4d0ed;}.cls-2{fill:#fff;}.cls-3{fill:none;stroke:#000;stroke-linecap:round;stroke-miterlimit:10;stroke-width:3px;}</style></defs><path class="cls-1" d="M295.6245,182.8648c-63.3574-.0566-118.1421-.0859-162.832-.0859-69.1079,0-92.5835.0703-96.5874.084-1.8818,0-3.4131-1.5264-3.4224-3.4023l-.0488-11.166c-.0034-.918.3496-1.7793.9941-2.4277.6416-.6455,1.4971-1.002,2.4082-1.0039,3.9854-.0137,27.3892-.083,96.5776-.083,44.707,0,99.5229.0283,162.9253.085,1.8867.0039,3.4194,1.5371,3.4194,3.4189l-.0103,11.166c-.002,1.8828-1.5366,3.415-3.4214,3.415h-.0024Z"/><path d="M132.5971,167.2798c38.5529,0,91.3445.0212,163.0397.0851.5069.0005.922.4117.9216.9186l-.0099,11.1646c-.0004.5066-.4158.9169-.9222.9169h-.0009c-71.6644-.0641-124.4559-.0856-162.9978-.0856-68.1796,0-91.7764.067-96.4312.083h-.0031c-.5051,0-.908-.4082-.9102-.9137l-.0489-11.1646c-.0022-.5072.3998-.9199.907-.9218,4.6588-.0159,28.2751-.0825,96.4561-.0825M132.5971,162.2798c-68.8071,0-92.4352.0687-96.4731.0825-1.5926.0057-3.0827.6343-4.1967,1.7699-1.0987,1.12-1.7,2.6023-1.6931,4.1738l.0489,11.1646c.0143,3.2488,2.6656,5.8917,5.9102,5.8917,4.0489-.0139,27.6305-.083,96.4343-.083,44.7181,0,99.5571.0288,162.9933.0856,3.2679,0,5.925-2.6525,5.9276-5.9128l.0099-11.1642c.0026-3.2629-2.6516-5.9198-5.9166-5.923-63.4333-.0565-118.2892-.0851-163.0446-.0851h0Z"/><path class="cls-2" d="M84.3232,200.2251c-13.8701,0-25.1543-11.2842-25.1543-25.1543s11.2842-25.1533,25.1543-25.1533,25.1538,11.2842,25.1538,25.1533-11.2842,25.1543-25.1538,25.1543Z"/><path d="M84.323,153.4172c11.9591,0,21.6539,9.6947,21.6539,21.6538s-9.6948,21.6539-21.6539,21.6539-21.6539-9.6948-21.6539-21.6539,9.6948-21.6538,21.6539-21.6538M84.323,146.4172c-15.7998,0-28.6539,12.854-28.6539,28.6538s12.8541,28.6539,28.6539,28.6539,28.6539-12.8541,28.6539-28.6539-12.8541-28.6538-28.6539-28.6538h0Z"/><ellipse cx="84.323" cy="178.6523" rx="11.5264" ry="15.5843"/><line class="cls-3" x1="84.323" y1="164.078" x2="84.323" y2="157.8016"/><path class="cls-3" d="M78.6862,167.3439s.6028-3.1903-2.3241-5.8303"/><path class="cls-3" d="M89.8823,166.9611s.001-3.1677,2.4792-5.766"/><circle class="cls-2" cx="82.972" cy="170.583" r="3.2391"/><circle class="cls-2" cx="82.972" cy="181.6523" r="3.1215"/><circle class="cls-2" cx="77.5242" cy="175.964" r="1.9149"/><path class="cls-2" d="M154.8388,200.2251c-13.8701,0-25.1543-11.2842-25.1543-25.1543s11.2842-25.1533,25.1543-25.1533,25.1538,11.2842,25.1538,25.1533-11.2842,25.1543-25.1538,25.1543Z"/><path d="M154.8386,153.4172c11.9591,0,21.6539,9.6947,21.6539,21.6538s-9.6948,21.6539-21.6539,21.6539-21.6539-9.6948-21.6539-21.6539,9.6948-21.6538,21.6539-21.6538M154.8386,146.4172c-15.7998,0-28.6539,12.854-28.6539,28.6538s12.8541,28.6539,28.6539,28.6539,28.6539-12.8541,28.6539-28.6539-12.8541-28.6538-28.6539-28.6538h0Z"/><ellipse cx="154.8386" cy="178.6523" rx="11.5264" ry="15.5843"/><line class="cls-3" x1="154.8386" y1="164.078" x2="154.8386" y2="157.8016"/><path class="cls-3" d="M149.2018,167.3439s.6028-3.1903-2.3241-5.8303"/><path class="cls-3" d="M160.3978,166.9611s.001-3.1677,2.4792-5.766"/><circle class="cls-2" cx="153.4876" cy="170.583" r="3.2391"/><circle class="cls-2" cx="153.4876" cy="181.6523" r="3.1215"/><circle class="cls-2" cx="148.0397" cy="175.964" r="1.9149"/></svg>