<?xml version="1.0" encoding="UTF-8"?><svg id="_レイヤー_2" xmlns="http://www.w3.org/2000/svg" viewBox="0 0 311.811 311.811"><defs><style>.cls-1{fill:#fff;stroke:#000;stroke-linecap:round;stroke-miterlimit:10;stroke-width:7px;}.cls-2{fill:#d4d1f2;}</style></defs><path class="cls-2" d="M297.4453,182.8648c-63.3906-.0566-118.2158-.0859-162.9556-.0859-66.6035,0-90.6724.0635-96.4629.083-1.8848,0-3.4141-1.5264-3.4214-3.4033l-.0493-11.1641c-.0034-.9092.3438-1.7646.9775-2.4111.6426-.6553,1.502-1.0176,2.4199-1.0215,5.7681-.0195,29.7666-.082,96.4546-.082,44.7568,0,99.6162.0283,163.0527.085,1.8848,0,3.4199,1.5342,3.4199,3.4189l-.0098,11.166c-.0039,1.8848-1.5391,3.415-3.4238,3.415h-.002Z"/><path d="M134.4195,167.2796c38.553,0,91.3445.0212,163.0397.0851.5068.0005.922.4117.9215.9186l-.01,11.1646c-.0004.5066-.4158.9169-.9221.9169h-.001c-71.6644-.0641-124.4559-.0856-162.9978-.0856-68.1796,0-91.7764.067-96.4312.083h-.0034c-.5049,0-.9078-.4083-.91-.9137l-.0489-11.1646c-.0023-.5072.3998-.9199.907-.9218,4.6588-.0159,28.2751-.0825,96.4561-.0825M134.4195,162.2796c-68.8069,0-92.4352.0687-96.4732.0825-1.5926.0057-3.0828.6343-4.1968,1.77-1.0987,1.12-1.7,2.6022-1.6931,4.1737l.049,11.1646c.014,3.2485,2.6652,5.8917,5.9099,5.8917,4.0491-.0139,27.6307-.083,96.4346-.083,44.7181,0,99.5571.0288,162.9934.0856,3.2681,0,5.9252-2.6527,5.9275-5.9133l.01-11.1636c.0016-1.5867-.6178-3.0778-1.744-4.1982-1.1165-1.1107-2.5983-1.7233-4.1725-1.7249-63.4333-.0565-118.2894-.0851-163.0447-.0851h0Z"/><circle class="cls-1" cx="80.8129" cy="173.8221" r="22.4172"/><circle class="cls-1" cx="149.0376" cy="173.8221" r="22.4172"/><circle cx="79.539" cy="173.8221" r="5.6657"/><circle cx="149.6279" cy="173.8221" r="5.6657"/></svg>