<?xml version="1.0" encoding="UTF-8"?><svg id="_レイヤー_2" xmlns="http://www.w3.org/2000/svg" viewBox="0 0 311.811 311.811"><defs><style>.cls-1{fill:#fff;stroke:#000;stroke-linecap:round;stroke-miterlimit:10;stroke-width:7px;}.cls-2{fill:#020202;}.cls-3{fill:#ededd1;}</style></defs><path class="cls-3" d="M292.2613,181.6997c-63.3896-.0566-118.2148-.0859-162.9531-.0859-66.6367,0-90.6826.0635-96.4648.083-1.8848,0-3.415-1.5264-3.4219-3.4033l-.0488-11.1641c-.0039-.9092.3438-1.7646.9775-2.4111.6416-.6553,1.501-1.0176,2.4199-1.0215,5.7617-.0195,29.7412-.082,96.459-.082,44.7549,0,99.6123.0283,163.0479.085,1.8848,0,3.4199,1.5332,3.4199,3.418l-.0098,11.167c-.0039,1.8848-1.5391,3.415-3.4238,3.415h-.002Z"/><path d="M129.1925,166.1144c38.5564,0,91.3632.0214,163.0826.0852.5068.0004.922.4116.9216.9185l-.01,11.1646c-.0005.5067-.4159.917-.9225.917h-.0007c-71.6886-.0642-124.4951-.0856-163.0404-.0856-68.1495,0-91.7346.0669-96.3885.083h-.0032c-.505,0-.908-.4083-.9102-.9138l-.0488-11.1646c-.0023-.5071.3998-.9199.907-.9216,4.6578-.016,28.2622-.0826,96.4131-.0826M129.1925,161.1144c-68.8236,0-92.4023.0688-96.4302.0826-1.5795.0054-3.0616.6256-4.1735,1.7462-1.1141,1.123-1.7236,2.614-1.7164,4.1982l.049,11.1636c.014,3.2488,2.6652,5.892,5.91,5.892,4.0391-.0139,27.5718-.083,96.3917-.083,44.7476,0,99.6007.0288,163.036.0856,3.2672,0,5.9244-2.6521,5.9276-5.912l.01-11.165c.0023-3.264-2.6525-5.9207-5.9181-5.923-63.4758-.0565-118.3463-.0852-163.0862-.0852h0Z"/><circle class="cls-1" cx="75.6289" cy="172.657" r="22.4172"/><circle class="cls-1" cx="150.2039" cy="172.657" r="22.4172"/><circle class="cls-2" cx="67.6549" cy="167.212" r="11.2404"/><circle class="cls-2" cx="156.6422" cy="180.6712" r="11.2404"/></svg>