<?xml version="1.0" encoding="UTF-8"?><svg id="_レイヤー_2" xmlns="http://www.w3.org/2000/svg" viewBox="0 0 311.811 311.811"><defs><style>.cls-1{stroke:#000;stroke-linecap:round;stroke-miterlimit:10;stroke-width:7px;}.cls-1,.cls-2{fill:#fff;}.cls-3{fill:#020202;}.cls-4{fill:#efd0d0;}</style></defs><path class="cls-4" d="M293.6573,181.6997c-63.3896-.0566-118.2148-.0859-162.9531-.0859-66.6338,0-90.6826.0635-96.4658.083-1.8848,0-3.415-1.5264-3.4219-3.4033l-.0488-11.1641c-.0039-.9092.3438-1.7656.9785-2.4121.6416-.6543,1.501-1.0166,2.4189-1.0205,5.7617-.0195,29.7412-.082,96.46-.082,44.7549,0,99.6123.0283,163.0479.085.9131,0,1.7734.3574,2.4209,1.0049.6455.6465,1,1.5059.998,2.418l-.0098,11.1621c0,1.8818-1.5352,3.415-3.4229,3.415h-.002Z"/><path d="M130.5879,166.1144c38.5564,0,91.3632.0214,163.0826.0852.5068.0004.922.4116.9215.9185l-.0099,11.1646c-.0005.5067-.416.917-.9225.917h-.0007c-71.6886-.0642-124.4951-.0856-163.0405-.0856-68.1495,0-91.7346.0669-96.3885.083h-.0032c-.505,0-.9078-.4083-.91-.9138l-.049-11.1646c-.0022-.5071.3998-.9199.907-.9216,4.6578-.016,28.2623-.0826,96.4132-.0826M130.5879,161.1144c-68.8232,0-92.4025.0688-96.4303.0826-1.592.0055-3.0825.634-4.1968,1.77-1.0986,1.1199-1.6998,2.6019-1.6931,4.1731l.049,11.1649c.0144,3.2489,2.6655,5.892,5.91,5.892,4.0391-.0139,27.5718-.083,96.3917-.083,44.7476,0,99.6008.0288,163.0361.0856,3.2676,0,5.9247-2.6523,5.9276-5.9125l.0099-11.1646c.0016-1.5868-.6179-3.078-1.7443-4.1985-1.1168-1.111-2.599-1.7234-4.1736-1.7245-63.476-.0565-118.3464-.0852-163.0863-.0852h0Z"/><circle class="cls-1" cx="77.0243" cy="172.657" r="22.4172"/><circle class="cls-1" cx="151.5992" cy="172.657" r="22.4172"/><path class="cls-2" d="M78.0987,181.752c-8.6338,0-14.2812-4.5498-16.3311-13.1582-.2578-1.084-.0107-2.2061.6787-3.0791.6924-.877,1.7676-1.4004,2.875-1.4004.4541,0,.9014.085,1.3291.252l22.1426,8.6318c1.4512.5654,2.3633,1.9385,2.3262,3.4961-.0381,1.5508-1.0107,2.8701-2.4795,3.3613-2.584.8652-6.5107,1.8965-10.541,1.8965Z"/><path class="cls-3" d="M65.3216,166.1144c.1975,0,.4009.0364.6027.115l22.1426,8.6321c1.4326.5585,1.3959,2.6095-.0621,3.0975-2.6187.8766-6.235,1.7928-9.9066,1.7928-6.0262,0-12.2041-2.4658-14.3848-11.6219-.2557-1.0737.6016-2.0154,1.6083-2.0155M65.3216,162.1144h-.0001c-1.7146.0001-3.3761.8077-4.4445,2.1604-1.0712,1.3562-1.4556,3.0992-1.0548,4.7819,2.2568,9.4763,8.7474,14.6951,18.2759,14.6951,4.2998,0,8.451-1.0874,11.1763-1.9996,2.2766-.762,3.7855-2.8068,3.844-5.2092.0587-2.4103-1.3539-4.5332-3.5988-5.4082l-22.1425-8.6321c-.6608-.2576-1.3523-.3882-2.0555-.3882h0Z"/><rect x="73.6037" y="168.6519" width="9.131" height="9.131" rx="4.5655" ry="4.5655"/><path class="cls-2" d="M149.8946,181.7515c-4.0303,0-7.957-1.0303-10.541-1.8955-1.4697-.4922-2.4424-1.8125-2.4795-3.3633-.0381-1.5586.876-2.9297,2.3262-3.4951l22.1416-8.6318c.4287-.167.876-.252,1.3291-.252,1.1084,0,2.1836.5244,2.876,1.4014.6895.873.9365,1.9951.6777,3.0791-2.0498,8.6074-7.6963,13.1572-16.3281,13.1572h-.002Z"/><path class="cls-3" d="M162.6714,166.1144c1.0067,0,1.864.9418,1.6083,2.0155-2.1807,9.1561-8.3585,11.6219-14.3848,11.6219-3.6716,0-7.288-.9163-9.9066-1.7928-1.458-.488-1.4948-2.5391-.0621-3.0975l22.1426-8.6321c.2018-.0786.4052-.115.6027-.115M162.6714,162.1144c-.7032,0-1.3948.1306-2.0554.3881l-22.1427,8.6322c-2.2448.875-3.6573,2.9979-3.5986,5.4082.0585,2.4025,1.5674,4.4473,3.844,5.2092,2.7252.9122,6.8765,1.9996,11.1763,1.9996,9.5284,0,16.019-5.2188,18.2759-14.6951.4008-1.6827.0164-3.4257-1.0548-4.7819-1.0684-1.3528-2.7299-2.1604-4.4446-2.1604h0Z"/><rect x="145.2583" y="168.6519" width="9.131" height="9.131" rx="4.5655" ry="4.5655" transform="translate(299.6477 346.4349) rotate(180)"/></svg>