<?xml version="1.0" encoding="UTF-8"?><svg id="_レイヤー_2" xmlns="http://www.w3.org/2000/svg" viewBox="0 0 311.811 311.811"><defs><style>.cls-1{fill:#fff;stroke:#000;stroke-width:7px;}.cls-1,.cls-2{stroke-linecap:round;stroke-miterlimit:10;}.cls-2{fill:none;stroke:#020202;stroke-width:5px;}.cls-3{fill:#e8dfd1;}</style></defs><path class="cls-3" d="M294.4858,181.6946c-63.3911-.0566-118.2168-.0859-162.9546-.0859-66.6367,0-90.6831.0635-96.4658.083-1.8848,0-3.4141-1.5264-3.4214-3.4033l-.0493-11.1641c-.0034-.918.3496-1.7793.9937-2.4277.6421-.6455,1.4976-1.002,2.4087-1.0039,3.9854-.0137,27.3887-.083,96.5776-.083,44.707,0,99.5229.0283,162.9253.085,1.8882.0039,3.4214,1.5381,3.4194,3.4219l-.0103,11.1631c-.002,1.8828-1.5366,3.415-3.4209,3.415h-.0024Z"/><path d="M131.458,166.1097c38.5529,0,91.3444.0212,163.0397.0851.5069.0005.922.4117.9216.9186l-.0099,11.1646c-.0005.5066-.4159.9169-.9223.9169h-.0009c-71.6523-.0641-124.4529-.0856-162.9931-.0856-68.1946,0-91.7807.067-96.4359.083h-.0031c-.5051,0-.908-.4082-.9102-.9137l-.0489-11.1646c-.0022-.5072.3998-.92.907-.9218,4.6588-.0159,28.2751-.0825,96.4561-.0825M131.458,161.1097c-68.8069,0-92.4352.0687-96.4732.0825-1.5789.0052-3.061.6252-4.1729,1.7456-1.1142,1.1228-1.724,2.6138-1.717,4.1981l.0489,11.1646c.0143,3.2488,2.6656,5.8917,5.9102,5.8917,4.0515-.0139,27.6456-.083,96.439-.083,44.737,0,99.5743.0288,162.9886.0856,3.2676,0,5.9247-2.6523,5.9276-5.9124l.0099-11.1647c.0027-3.2629-2.6516-5.9198-5.9166-5.923-63.4333-.0565-118.2892-.0851-163.0446-.0851h0Z"/><circle class="cls-1" cx="77.8514" cy="172.6522" r="22.4172"/><circle class="cls-1" cx="148.8207" cy="172.6522" r="22.4172"/><path class="cls-2" d="M65.23,173.8867s13.5546-11.8164,25.2429,0"/><path class="cls-2" d="M136.7183,173.8867s13.5546-11.8164,25.2429,0"/></svg>