<?xml version="1.0" encoding="UTF-8"?><svg id="_レイヤー_2" xmlns="http://www.w3.org/2000/svg" viewBox="0 0 311.811 311.811"><defs><style>.cls-1{fill:#fff;stroke:#000;stroke-width:7px;}.cls-1,.cls-2{stroke-linecap:round;stroke-miterlimit:10;}.cls-2{fill:none;stroke:#020202;stroke-width:5px;}.cls-3{fill:#ddd1e5;}</style></defs><path class="cls-3" d="M292.6055,181.6944c-63.3853-.0566-118.1865-.085-162.8813-.085-69.1772,0-92.5542.0693-96.5381.083-1.8833,0-3.4131-1.5264-3.4224-3.4023l-.0488-11.165c-.0073-1.8857,1.5171-3.4258,3.3975-3.4326,3.9902-.0137,27.3936-.083,96.5825-.083,44.707,0,99.5229.0283,162.9253.085,1.8882.0039,3.4209,1.5381,3.4189,3.4209l-.0098,11.1641c-.002,1.8828-1.5366,3.415-3.4214,3.415h-.0024Z"/><path d="M129.578,166.1097c38.5529,0,91.3445.0212,163.0397.0851.5068.0005.922.4117.9216.9186l-.0099,11.1646c-.0005.5066-.4158.9169-.9223.9169h-.0009c-71.6523-.0641-124.4528-.0856-162.993-.0856-68.1946,0-91.7807.067-96.4359.083h-.0031c-.5051,0-.9081-.4082-.9102-.9137l-.0489-11.1646c-.0022-.5072.3998-.92.907-.9218,4.6588-.0159,28.2751-.0825,96.4561-.0825M129.578,161.1097c-68.8069,0-92.4352.0687-96.4732.0825-1.5789.0052-3.061.6252-4.1729,1.7456-1.1142,1.1228-1.724,2.6138-1.717,4.1981l.0489,11.1646c.014,3.2485,2.6653,5.8917,5.9102,5.8917,4.0515-.0139,27.6456-.083,96.439-.083,44.737,0,99.5743.0288,162.9886.0856,3.2673,0,5.9244-2.6521,5.9277-5.9119l.0099-11.1652c.0026-3.2629-2.6516-5.9198-5.9166-5.923-63.4333-.0565-118.2892-.0851-163.0446-.0851h0Z"/><circle class="cls-1" cx="75.9714" cy="172.6522" r="22.4172"/><circle class="cls-1" cx="150.5463" cy="172.6522" r="22.4172"/><path class="cls-2" d="M63.35,171.4177s12.6214,16.7232,25.2429,0"/><path class="cls-2" d="M137.9249,171.4177s12.6214,16.7232,25.2429,0"/></svg>