<?xml version="1.0" encoding="UTF-8"?><svg id="_レイヤー_2" xmlns="http://www.w3.org/2000/svg" viewBox="0 0 311.811 311.811"><defs><style>.cls-1{stroke-width:7px;}.cls-1,.cls-2,.cls-3{stroke-linecap:round;stroke-miterlimit:10;}.cls-1,.cls-4{fill:#fff;}.cls-1,.cls-3{stroke:#000;}.cls-2{stroke:#020202;stroke-width:5px;}.cls-2,.cls-3{fill:none;}.cls-3{stroke-width:3px;}.cls-5{fill:#e2e2d0;}</style></defs><path class="cls-5" d="M298.4473,181.6944c-63.3857-.0566-118.1865-.085-162.8818-.085-69.1772,0-92.5542.0693-96.5381.083-1.8853,0-3.4146-1.5273-3.4219-3.4043l-.0488-11.1631c-.0044-.9082.3428-1.7646.9775-2.4121.6421-.6543,1.5015-1.0166,2.4194-1.0205,3.9902-.0137,27.3936-.083,96.5825-.083,44.707,0,99.5225.0283,162.9248.085,1.8867.0039,3.4199,1.5371,3.4199,3.4189l-.0098,11.166c-.0039,1.8848-1.5391,3.415-3.4219,3.415h-.002Z"/><path d="M135.4196,166.1097c38.5529,0,91.3444.0212,163.0397.0851.5068.0005.922.4117.9215.9186l-.0099,11.1646c-.0005.5066-.4159.9169-.9224.9169h-.0009c-71.6523-.0641-124.4528-.0856-162.993-.0856-68.1946,0-91.7806.067-96.4359.083h-.0031c-.5051,0-.908-.4082-.9102-.9137l-.0489-11.1646c-.0023-.5072.3998-.92.907-.9218,4.6588-.0159,28.2751-.0825,96.4561-.0825M135.4196,161.1097c-68.8069,0-92.4352.0687-96.4732.0825-1.5789.0052-3.061.6252-4.1729,1.7456-1.1142,1.1228-1.7239,2.6138-1.717,4.1981l.049,11.1646c.014,3.2485,2.6653,5.8917,5.9102,5.8917,4.0515-.0139,27.6456-.083,96.439-.083,44.737,0,99.5743.0288,162.9885.0856,3.2673,0,5.9246-2.6521,5.9277-5.9119l.0099-11.1652c.0029-3.2627-2.6512-5.9198-5.9166-5.923-63.4332-.0565-118.2892-.0851-163.0446-.0851h0Z"/><circle class="cls-1" cx="81.813" cy="172.6522" r="22.4172"/><circle class="cls-1" cx="147.4272" cy="172.6522" r="22.4172"/><path class="cls-2" d="M134.8058,171.4177s12.6214,16.7232,25.2429,0"/><ellipse cx="81.5717" cy="175.2706" rx="9.7824" ry="13.2264"/><line class="cls-3" x1="81.5717" y1="162.9014" x2="81.5717" y2="157.5746"/><path class="cls-3" d="M76.7877,165.6732s.5116-2.7076-1.9725-4.9482"/><path class="cls-3" d="M86.2898,165.3482s.0009-2.6884,2.1041-4.8936"/><circle class="cls-4" cx="80.4251" cy="168.4222" r="2.749"/><circle class="cls-4" cx="80.4251" cy="177.8167" r="2.6492"/><circle class="cls-4" cx="75.8015" cy="172.989" r="1.6252"/></svg>