<?xml version="1.0" encoding="UTF-8"?><svg id="_レイヤー_2" xmlns="http://www.w3.org/2000/svg" viewBox="0 0 311.811 311.811"><defs><style>.cls-1{stroke-width:7px;}.cls-1,.cls-2{fill:#fff;stroke:#000;stroke-linecap:round;stroke-miterlimit:10;}.cls-2{stroke-width:4px;}.cls-3{fill:#d4d1f2;}</style></defs><path class="cls-3" d="M297.6119,181.6944c-63.3857-.0566-118.1865-.085-162.8818-.085-69.1748,0-92.5547.0693-96.5391.083-1.8848,0-3.415-1.5273-3.4219-3.4043l-.0488-11.1631c-.0068-1.8857,1.5166-3.4258,3.3975-3.4326,3.9902-.0137,27.3936-.083,96.582-.083,44.707,0,99.5234.0283,162.9258.085.9121.002,1.7686.3564,2.4131.998.6504.6475,1.0078,1.5098,1.0059,2.4258l-.0098,11.1611c0,1.8818-1.5342,3.415-3.4209,3.415h-.002Z"/><path d="M134.5835,166.1097c38.5529,0,91.3445.0212,163.0397.0851.5068.0005.922.4117.9215.9186l-.0099,11.1646c-.0005.5066-.4159.9169-.9222.9169h-.001c-71.6523-.0641-124.4529-.0856-162.993-.0856-68.1946,0-91.7808.067-96.436.083h-.0031c-.5051,0-.908-.4082-.9102-.9137l-.049-11.1646c-.0022-.5072.3998-.92.907-.9218,4.6588-.0159,28.2751-.0825,96.4562-.0825M134.5835,161.1097c-68.807,0-92.4353.0687-96.4733.0825-1.5919.0054-3.0826.6339-4.197,1.7701-1.0984,1.1199-1.6996,2.6019-1.6929,4.1731l.049,11.165c.0144,3.2488,2.6656,5.8917,5.9102,5.8917,4.0515-.0139,27.6455-.083,96.4391-.083,44.7369,0,99.5743.0288,162.9886.0856,3.2676,0,5.9247-2.6523,5.9276-5.9124l.0099-11.1647c.0016-1.5865-.6178-3.0776-1.744-4.1981-1.1165-1.1107-2.5983-1.7233-4.1725-1.7249-63.4333-.0565-118.2893-.0851-163.0447-.0851h0Z"/><circle class="cls-1" cx="80.9769" cy="172.6522" r="22.4172"/><circle class="cls-1" cx="155.5518" cy="172.6522" r="22.4172"/><line class="cls-2" x1="68.7195" y1="172.6522" x2="93.2343" y2="172.6522"/><line class="cls-2" x1="143.2944" y1="172.6522" x2="167.8092" y2="172.6522"/></svg>