<?xml version="1.0" encoding="UTF-8"?><svg id="_レイヤー_2" xmlns="http://www.w3.org/2000/svg" viewBox="0 0 311.811 311.811"><defs><style>.cls-1{stroke:#000;stroke-linecap:round;stroke-miterlimit:10;stroke-width:7px;}.cls-1,.cls-2{fill:#fff;}.cls-3{fill:#fc4262;}</style></defs><path class="cls-2" d="M296.7754,181.6944c-63.3857-.0566-118.1865-.085-162.8818-.085-69.1768,0-92.5547.0693-96.5381.083-1.8848,0-3.415-1.5273-3.4219-3.4043l-.0498-11.1631c-.0068-1.8857,1.5166-3.4258,3.3975-3.4326,3.9902-.0137,27.3936-.083,96.583-.083,44.707,0,99.5225.0283,162.9248.085,1.8867.0039,3.4199,1.5371,3.4199,3.4189l-.0107,11.166c0,1.8818-1.5342,3.415-3.4209,3.415h-.002Z"/><path d="M133.7474,166.1097c38.553,0,91.3445.0212,163.0397.0851.5068.0005.922.4117.9216.9186l-.01,11.1646c-.0005.5066-.4158.9169-.9222.9169h-.001c-71.6523-.0641-124.4528-.0856-162.993-.0856-68.1945,0-91.7806.067-96.4359.083h-.0031c-.5051,0-.9081-.4082-.9103-.9137l-.0488-11.1646c-.0023-.5072.3998-.92.907-.9218,4.6587-.0159,28.275-.0825,96.4561-.0825M133.7474,161.1097c-68.8074,0-92.4353.0687-96.4731.0825-1.5791.0052-3.0614.6254-4.1732,1.7461-1.1143,1.1229-1.7239,2.614-1.7167,4.1985l.0488,11.1636c.0144,3.2489,2.6656,5.8918,5.9103,5.8918,4.0515-.0139,27.6456-.083,96.4391-.083,44.7369,0,99.5742.0288,162.9885.0856,3.2676,0,5.9247-2.6523,5.9276-5.9124l.01-11.1646c.0023-3.2632-2.6519-5.9199-5.9166-5.9231-63.4333-.0565-118.2893-.0851-163.0447-.0851h0Z"/><circle class="cls-1" cx="80.1408" cy="172.6522" r="22.4172"/><circle class="cls-3" cx="80.1408" cy="172.6522" r="8.4305"/><circle cx="80.1408" cy="172.6522" r="3.7132"/><circle class="cls-2" cx="83.858" cy="177.2077" r="1.2446"/><circle class="cls-1" cx="149.1651" cy="172.6522" r="22.4172"/><circle class="cls-3" cx="149.1651" cy="172.6522" r="8.4305"/><circle cx="149.1651" cy="172.6522" r="3.7132"/><circle class="cls-2" cx="152.8823" cy="177.2077" r="1.2446"/></svg>