<?xml version="1.0" encoding="UTF-8"?><svg id="_レイヤー_2" xmlns="http://www.w3.org/2000/svg" viewBox="0 0 311.811 311.811"><defs><style>.cls-1{fill:#fff;}.cls-2{fill:#0c0c0c;}.cls-3{fill:none;stroke:#282828;stroke-linecap:round;stroke-linejoin:round;stroke-width:5px;}</style></defs><polyline class="cls-3" points="40.5136 140.5067 27.8375 166.1124 195.4734 166.1124 289.3983 119.1109"/><path class="cls-1" d="M60.4535,163.2826h46.6091v21.7292c0,7.0231-5.7019,12.725-12.725,12.725h-21.1591c-7.0231,0-12.725-5.7019-12.725-12.725v-21.7292h0Z"/><path class="cls-2" d="M62.5137,161.8177h42.4888c1.137,0,2.0601.9231,2.0601,2.0601v1.3376c0,2.8653-2.3263,5.1916-5.1916,5.1916h-36.2258c-2.8653,0-5.1916-2.3263-5.1916-5.1916v-1.3376c0-1.137.9231-2.0601,2.0601-2.0601Z"/><path class="cls-2" d="M66.0553,170.407h-3.9307s-1.0756-.1075-1.0756.9857v4.8103s.0398,2.0991-1.1951,2.0991-1.3146-1.9241-1.3146-1.9241c0,0,0-12.9005,0-12.7693s-.1195-1.7911,1.3943-1.7911h3.904l2.2177,8.5894Z"/><path class="cls-2" d="M101.3864,170.407h3.9307s1.0756-.1075,1.0756.9857v4.8103s-.0398,2.0991,1.1951,2.0991,1.3146-1.9241,1.3146-1.9241c0,0,0-12.9005,0-12.7693,0,.1312.1195-1.7911-1.3943-1.7911h-3.904s-2.2177,8.5894-2.2177,8.5894Z"/><path class="cls-1" d="M127.5308,163.2826h46.6091v21.7292c0,7.0231-5.7019,12.725-12.725,12.725h-21.1591c-7.0231,0-12.725-5.7019-12.725-12.725v-21.7292h0Z"/><path class="cls-2" d="M129.5909,161.8177h42.4888c1.137,0,2.0601.9231,2.0601,2.0601v1.3376c0,2.8653-2.3263,5.1916-5.1916,5.1916h-36.2258c-2.8653,0-5.1916-2.3263-5.1916-5.1916v-1.3376c0-1.137.9231-2.0601,2.0601-2.0601Z"/><path class="cls-2" d="M133.1326,170.407h-3.9307s-1.0756-.1075-1.0756.9857v4.8103s.0398,2.0991-1.1951,2.0991-1.3146-1.9241-1.3146-1.9241c0,0,0-12.9005,0-12.7693s-.1195-1.7911,1.3943-1.7911h3.904l2.2177,8.5894Z"/><path class="cls-2" d="M168.4636,170.407h3.9307s1.0756-.1075,1.0756.9857c0,1.0933,0,4.8103,0,4.8103,0,0-.0398,2.0991,1.1951,2.0991s1.3146-1.9241,1.3146-1.9241c0,0,0-12.9005,0-12.7693,0,.1312.1195-1.7911-1.3943-1.7911h-3.904s-2.2177,8.5894-2.2177,8.5894Z"/></svg>