<?xml version="1.0" encoding="UTF-8"?><svg id="_レイヤー_2" xmlns="http://www.w3.org/2000/svg" viewBox="0 0 311.811 311.811"><defs><style>.cls-1{fill:none;stroke-width:8px;}.cls-1,.cls-2{stroke-linecap:round;}.cls-1,.cls-2,.cls-3{stroke:#000;stroke-linejoin:round;}.cls-2{stroke-width:3px;}.cls-2,.cls-3{fill:#fff;}.cls-3{stroke-width:6px;}</style></defs><polyline class="cls-1" points="40.6775 144.0197 29.8605 178.4523 215.4635 178.4523 287.6794 114.779"/><circle class="cls-3" cx="90.1522" cy="179.7772" r="22.8556"/><circle class="cls-3" cx="156.2334" cy="179.7772" r="22.8556"/><path class="cls-2" d="M85.9802,192.7913s-12.9802-4.4304-9.6468-16.0603,11.862-10.8595,11.862-10.8595c0,0,15.2849-.7613,16.0603,12.5809s-12.959,10.0193-12.959,10.0193c0,0-10.4115-1.9937-7.421-11.076,0,0,1.6614-4.8735,7.6425-3.1013s2.6583,5.0318,2.6583,5.0318"/><path class="cls-2" d="M142.5512,175.8403c11.6442-28.2577,45.908,8.8379,14.3393,18.2773-16.5725.9203-11.9901-24.4618,1.0555-20.382,4.4363-.5529,4.5733,15.0103-1.9296,10.3009"/></svg>