<?xml version="1.0" encoding="UTF-8"?><svg id="_レイヤー_2" xmlns="http://www.w3.org/2000/svg" viewBox="0 0 311.811 311.811"><defs><style>.cls-1{fill:#fffb7d;stroke:#000;stroke-linecap:round;stroke-linejoin:round;stroke-width:8px;}</style></defs><path class="cls-1" d="M103.7776,161.0303l-.8837,9.3958,8.0214,4.9718c1.4677.9097,1.4938,3.0359.0489,3.9814l-7.8969,5.1673,1.1142,9.3712c.2039,1.7147-1.4422,3.0608-3.0823,2.5206l-8.9636-2.9523-6.632,6.714c-1.2135,1.2285-3.2922.7808-3.8924-.8383l-3.2805-8.8487-9.3842-.999c-1.7171-.1828-2.6631-2.0871-1.7715-3.5659l4.8729-8.0819-5.0699-7.9598c-.9277-1.4564-.0287-3.3834,1.6834-3.6083l9.3568-1.2292,3.0622-8.9266c.5603-1.6334,2.6274-2.1319,3.8707-.9336l6.7949,6.5491,8.8883-3.1716c1.6264-.5803,3.305.7249,3.1433,2.4441Z"/><path class="cls-1" d="M143.6685,155.9286l7.6678,5.5014,8.3385-4.4194c1.5257-.8086,3.3749.241,3.4627,1.9656l.4796,9.425,8.6542,3.7638c1.5835.6887,1.9158,2.7889.6222,3.9328l-7.0698,6.2514,2.4531,9.1128c.4489,1.6674-.986,3.2367-2.6868,2.9385l-9.2955-1.6297-5.5952,7.5997c-1.0238,1.3906-3.1453,1.2472-3.9726-.2685l-4.5215-8.2836-9.4302.3638c-1.7255.0666-2.9361-1.6815-2.2669-3.2733l3.6572-8.6998-6.1641-7.146c-1.1279-1.3075-.516-3.3439,1.1458-3.8133l9.082-2.5649,1.7437-9.2748c.3191-1.6971,2.2927-2.4883,3.6957-1.4817Z"/></svg>