<?xml version="1.0" encoding="UTF-8"?><svg id="_レイヤー_2" xmlns="http://www.w3.org/2000/svg" viewBox="0 0 311.811 311.811"><defs><style>.cls-1{fill:#f4e46c;}</style></defs><path class="cls-1" d="M95.1162,200.9436c-1.6167,0-3.1831-.5166-4.5298-1.4951l-4.6113-3.3516c-.1587-.1143-.3213-.1387-.4297-.1387-.1089,0-.2715.0244-.4302.1396l-4.6113,3.3496c-1.3467.9785-2.9126,1.4961-4.5288,1.4961-2.4736,0-4.8291-1.21-6.3018-3.2363-1.4531-2-1.8418-4.5166-1.0659-6.9033l1.7612-5.4209c.0981-.3027-.0093-.6309-.2666-.8184l-4.6104-3.3486c-2.7607-2.0059-3.8628-5.3994-2.8086-8.6445s3.9404-5.3418,7.3525-5.3418h5.7002c.3174,0,.5972-.2031.6953-.5059l1.7617-5.4209c1.0537-3.2451,3.9399-5.3418,7.3525-5.3418s6.2983,2.0967,7.3525,5.3428l1.7612,5.4209c.0981.3018.3779.5049.6953.5049h5.7002c3.4121,0,6.2983,2.0967,7.3525,5.3418s-.0479,6.6387-2.8086,8.6445l-4.6113,3.3496c-.2563.1865-.3638.5146-.2656.8164l1.7617,5.4219c.7754,2.3867.3872,4.9023-1.0659,6.9023-1.4722,2.0264-3.8281,3.2373-6.3013,3.2373Z"/><path d="M85.5452,159.4612c1.6953,0,3.3906.9746,4.0239,2.9236l1.7615,5.4213c.5664,1.7433,2.191,2.9236,4.0239,2.9236h5.7002c4.0987,0,5.8028,5.2448,2.4869,7.6539l-4.6116,3.3506c-1.4829,1.0774-2.1034,2.9871-1.537,4.7303l1.7615,5.4213c.9648,2.9692-1.3942,5.5576-4.0386,5.5576-.8272,0-1.6821-.2532-2.4722-.8271l-4.6116-3.3506c-.7415-.5387-1.6142-.8081-2.4869-.8081s-1.7455.2694-2.4869.8081l-4.6116,3.3506c-.7899.5739-1.6452.8271-2.4722.8271-2.6446,0-5.0035-2.5881-4.0386-5.5576l1.7615-5.4213c.5664-1.7433-.0541-3.653-1.537-4.7303l-4.6116-3.3506c-3.3159-2.4092-1.6118-7.6539,2.4869-7.6539h5.7002c1.833,0,3.4575-1.1803,4.0239-2.9236l1.7615-5.4213c.6333-1.949,2.3286-2.9236,4.0239-2.9236M85.5452,152.4612c-4.8806,0-9.1731,3.1187-10.6813,7.7604l-1.1398,3.5081h-3.6884c-4.8806,0-9.1731,3.1187-10.6813,7.7604-1.5082,4.6417.1314,9.6879,4.0799,12.5566l2.984,2.1681-1.1398,3.5078c-1.1258,3.465-.556,7.1251,1.5633,10.042,2.1286,2.9298,5.5427,4.6788,9.1328,4.6788,2.3604,0,4.638-.7483,6.5867-2.1639l2.9841-2.1682,2.984,2.1681c1.9487,1.4158,4.2263,2.1641,6.5868,2.1641,3.5899,0,7.004-1.7491,9.1327-4.679,2.1193-2.917,2.6891-6.577,1.5633-10.0419l-1.1398-3.5078,2.9841-2.1681c3.9485-2.8688,5.588-7.9149,4.0798-12.5566-1.5082-4.6417-5.8007-7.7604-10.6813-7.7604h-3.6885l-1.1398-3.5079c-1.5082-4.6417-5.8007-7.7605-10.6813-7.7605h0Z"/><path class="cls-1" d="M160.4857,200.9436c-1.6167,0-3.1831-.5166-4.5298-1.4951l-4.6118-3.3506c-.1587-.1152-.3213-.1396-.4297-.1396s-.271.0244-.4297.1396l-4.6118,3.3506c-1.3467.9775-2.9126,1.4951-4.5288,1.4951-2.4736,0-4.8291-1.21-6.3018-3.2363-1.4531-2-1.8418-4.5166-1.0659-6.9033l1.7617-5.4219c.0981-.3018-.0093-.6299-.2666-.8174l-4.6104-3.3486c-2.7612-2.0059-3.8633-5.3994-2.8091-8.6445s3.9404-5.3418,7.3525-5.3418h5.7007c.3174,0,.5972-.2031.6953-.5059l1.7612-5.4199c1.0542-3.2461,3.9404-5.3428,7.3525-5.3428s6.2983,2.0967,7.3525,5.3428l1.7617,5.4199c.0981.3027.3779.5059.6953.5059h5.7002c3.4121,0,6.2983,2.0967,7.3525,5.3418s-.0479,6.6387-2.8086,8.6445l-4.6123,3.3496c-.2559.1855-.3628.5146-.2646.8164l1.7612,5.4229c.7754,2.3857.3872,4.9014-1.0659,6.9014-1.4722,2.0273-3.8276,3.2373-6.3008,3.2373Z"/><path d="M150.9144,159.4612c1.6953,0,3.3907.9746,4.0239,2.9236l1.7615,5.4213c.5664,1.7433,2.1909,2.9236,4.0239,2.9236h5.7002c4.0987,0,5.8028,5.2448,2.4869,7.6539l-4.6116,3.3506c-1.4829,1.0774-2.1034,2.9871-1.537,4.7303l1.7615,5.4213c.9648,2.9692-1.3943,5.5576-4.0386,5.5576-.8272,0-1.6821-.2532-2.4723-.8271l-4.6116-3.3506c-.7415-.5387-1.6142-.8081-2.487-.8081s-1.7455.2694-2.4869.8081l-4.6116,3.3506c-.7899.5739-1.6452.8271-2.4722.8271-2.6446,0-5.0035-2.5881-4.0386-5.5576l1.7615-5.4213c.5664-1.7433-.0541-3.653-1.537-4.7303l-4.6116-3.3506c-3.3159-2.4092-1.6118-7.6539,2.4869-7.6539h5.7002c1.833,0,3.4575-1.1803,4.0239-2.9236l1.7615-5.4213c.6333-1.949,2.3286-2.9236,4.0239-2.9236M150.9145,152.4612c-4.8807,0-9.1732,3.1188-10.6813,7.7605l-1.1398,3.5079h-3.6885c-4.8806,0-9.1731,3.1187-10.6813,7.7604-1.5082,4.6417.1314,9.6879,4.0798,12.5566l2.9841,2.1681-1.1398,3.5078c-1.1258,3.465-.556,7.125,1.5632,10.042,2.1286,2.9298,5.5427,4.6788,9.1328,4.6788,2.3604,0,4.638-.7483,6.5867-2.1639l2.9841-2.1682,2.9839,2.1681c1.9487,1.4158,4.2264,2.1641,6.5868,2.1641,3.5899,0,7.004-1.7491,9.1327-4.679,2.1193-2.917,2.6891-6.577,1.5633-10.0419l-1.1398-3.5078,2.9841-2.1681c3.9485-2.8688,5.5881-7.9149,4.0798-12.5566s-5.8007-7.7604-10.6813-7.7604h-3.6884l-1.1398-3.5079c-1.5082-4.6417-5.8007-7.7605-10.6813-7.7605h0Z"/></svg>