<?xml version="1.0" encoding="UTF-8"?><svg id="_レイヤー_2" xmlns="http://www.w3.org/2000/svg" xmlns:xlink="http://www.w3.org/1999/xlink" viewBox="0 0 311.811 311.811"><defs><style>.cls-1{fill:none;}.cls-2{fill:#845425;}.cls-3{fill:#a36b29;}.cls-4{fill:#303030;}.cls-5{fill:#683f1a;}.cls-6{clip-path:url(#clippath);}</style><clipPath id="clippath"><path class="cls-1" d="M282.2997,182.1684l-1.0349-29.3399-108.2334.4373-34.702-.1161v.0234l-95.0605-.3181c-.2522-.0009-.5-.0417-.7402-.1086l-.1447-.0005-.0406-.0574c-.2402-.0854-.5466-.8401-.7571-.9893l-6.259-8.8618-8.5748,5.212,1.5679,31.2224s11.3744,29.2681,20.3642,35.5212c.1156.0483.2336.0881.3547.1206h89.29v.1704h37.1779c.0349-.0098.0873-.0244.1223-.0342l47.6531-28.9113,59.0497-3.2395c-.0476-1.152.0125.5422-.0327-.7306ZM89.8727,184.9425h0c1.0919,1.0919,1.0919,2.8622,0,3.954l-3.3912,3.3911c-1.0919,1.092-2.8621,1.0918-3.9539,0l-3.3912-3.3911c-1.0919-1.0919-1.0919-2.8621,0-3.954h0c1.0919-1.0919,1.0919-2.8622,0-3.954h-.0001c-1.0919-1.0919-1.0919-2.8622,0-3.954h.0001c1.0919-1.0919,1.0919-2.8622,0-3.954h-.0001c-1.0919-1.0919-1.0919-2.8622,0-3.954l3.3912-3.3912c1.0919-1.0919,2.8621-1.0919,3.9539,0l3.3912,3.3912c1.0919,1.0919,1.0919,2.8621,0,3.954h0c-1.0919,1.0919-1.0919,2.8622,0,3.954h.0001c1.0919,1.0919,1.0919,2.8622,0,3.954h-.0001c-1.0919,1.0919-1.0919,2.8622,0,3.954ZM124.739,189.058h0c1.0919,1.0919,1.0919,2.8622,0,3.954h0c-1.0919,1.092-1.0919,2.8623,0,3.9541h0c1.0919,1.0918,1.0919,2.8621,0,3.9541l-3.3912,3.3911c-1.0919,1.0918-2.8621,1.0918-3.9539,0l-3.3912-3.3911c-1.0919-1.092-1.0919-2.8623,0-3.9541h0c1.0919-1.0918,1.0919-2.8621,0-3.9541-1.0919-1.0918-1.0919-2.8621,0-3.9539h0c1.0919-1.0919,1.0919-2.8622,0-3.954h-.0001c-1.0919-1.0919-1.0919-2.8622,0-3.954l3.3912-3.3912c1.0919-1.0919,2.8621-1.0919,3.9539,0l3.3912,3.3912c1.0919,1.0919,1.0919,2.8621,0,3.954h0c-1.0919,1.0919-1.0919,2.8622,0,3.954ZM160.3035,180.8098c-1.8339.9169-2.1481,2.8533-.6983,4.3031h0c1.0919,1.0919,1.0919,2.8622,0,3.9541l-3.3912,3.391c-1.0919,1.0919-2.8621,1.0919-3.954,0l-3.3912-3.3911c-1.0919-1.0919-1.0919-2.8621,0-3.9539h0c1.0919-1.092,1.0919-2.8622,0-3.9541h0c-1.0919-1.0919-1.0919-2.8622,0-3.954h0c1.0919-1.0919,1.0919-2.8622,0-3.954h0c-1.0919-1.0919-1.0919-2.8622,0-3.954l3.3912-3.3912c1.0919-1.0919,2.8621-1.0919,3.954,0l3.3912,3.3912c1.0919,1.0919,1.0919,2.8621,0,3.954l-.552.5521c-1.1462,1.1462-.8978,2.6771.5521,3.402l.204.1021c1.3415.6707,1.3969,3.09.0554,3.7607l.4388-.2579Z"/></clipPath></defs><path class="cls-4" d="M35.4229,142.9225l7.0568,9.9912,130.6473.4373,108.2334-.4373,1.0676,30.0673-59.0497,3.1551-47.7097,28.9454H48.9431c-9.0145-6.0101-20.5271-35.6417-20.5271-35.6417l-1.5679-31.2224,8.5748-5.2949M37.6187,132.1643l-6.399,3.9514-8.5748,5.2948-4.024,2.4847.2372,4.7234,1.568,31.2224.0648,1.291.4681,1.205c.1226.3155,3.0497,7.824,7.1586,16.1949,8.0311,16.3613,13.1991,21.0799,16.3877,23.2057l2.0155,1.3438h131.3849l1.9125-1.1603,45.9925-27.9036,57.0441-3.0479,7.8469-.4193-.2789-7.8532-1.0675-30.0673-.275-7.7474-7.7523.0313-108.2066.4371-126.4882-.4233-4.6759-6.6204-4.3387-6.1429h0Z"/><path class="cls-3" d="M35.4229,142.9225l-8.5748,5.212,1.5679,31.2224s11.3744,29.2681,20.3642,35.5212c.1156.0485.2336.0881.3547.1206h89.29v-61.7405l-95.0605-.3181c-.2522-.0009-.5-.0417-.7402-.1086l-.1447-.0005-.0406-.0574c-.2402-.0854-.5466-.8402-.7571-.9893M89.9683,185.0277h0c1.0919,1.0919,1.0919,2.8622,0,3.954l-3.3912,3.3912c-1.0919,1.0919-2.8621,1.0918-3.9539,0l-3.3912-3.3912c-1.0919-1.0919-1.0919-2.8621,0-3.954h0c1.0919-1.0919,1.0919-2.8622,0-3.954h-.0001c-1.0919-1.0919-1.0919-2.8622,0-3.954h.0001c1.0919-1.0919,1.0919-2.8622,0-3.954h-.0001c-1.0919-1.0919-1.0919-2.8622,0-3.954l3.3912-3.3912c1.0919-1.0919,2.8621-1.0919,3.9539,0l3.3912,3.3912c1.0919,1.0919,1.0919,2.8621,0,3.954h0c-1.0919,1.0919-1.0919,2.8622,0,3.954h.0001c1.0919,1.0919,1.0919,2.8622,0,3.954h-.0001c-1.0919,1.0919-1.0919,2.8622,0,3.954ZM124.8346,189.1432h0c1.0919,1.0919,1.0919,2.8622,0,3.954h0c-1.0919,1.0919-1.0919,2.8622,0,3.954h0c1.0919,1.0919,1.0919,2.8622,0,3.9541l-3.3912,3.3911c-1.0919,1.0918-2.8621,1.0918-3.9539,0l-3.3912-3.3911c-1.0919-1.0919-1.0919-2.8622,0-3.9541h0c1.0919-1.0918,1.0919-2.8621,0-3.954-1.0919-1.0919-1.0919-2.8621,0-3.954h0c1.0919-1.0919,1.0919-2.8622,0-3.954h-.0001c-1.0919-1.0919-1.0919-2.8622,0-3.954l3.3912-3.3912c1.0919-1.0919,2.8621-1.0919,3.9539,0l3.3912,3.3912c1.0919,1.0919,1.0919,2.8621,0,3.954h0c-1.0919,1.0919-1.0919,2.8622,0,3.954Z"/><path class="cls-2" d="M282.428,182.9842c-.0476-1.152.0125.5421-.0327-.7306l-1.0349-29.3399-108.2334.4373-34.702-.1161v61.9344h37.1779l.1222-.0342,47.6531-28.9113,59.0497-3.2395ZM159.7008,185.1982h0c1.0919,1.0919,1.0919,2.8622,0,3.9541l-3.3912,3.3911c-1.0919,1.0918-2.8621,1.0918-3.954,0l-3.3912-3.3911c-1.0919-1.0918-1.0919-2.8621,0-3.954h0c1.0919-1.0919,1.0919-2.8622,0-3.9541h0c-1.0919-1.0919-1.0919-2.8622,0-3.954h0c1.0919-1.0919,1.0919-2.8622,0-3.954h0c-1.0919-1.0919-1.0919-2.8622,0-3.954l3.3912-3.3912c1.0919-1.0919,2.8621-1.0919,3.954,0l3.3912,3.3912c1.0919,1.0919,1.0919,2.8621,0,3.954l-.552.552c-1.1462,1.1462-.8978,2.6771.5521,3.4021l.2041.102c1.3415.6707,1.3968,3.09.0554,3.7608l.4388-.2579c-1.8339.9169-2.1481,2.8533-.6983,4.3031Z"/><g class="cls-6"><path class="cls-5" d="M46.8247,349.4672c-1.2548-156.374-5.0056-21.1743-3.1253-22.0558-3.8204-106.8326-2.1711-178.1592-1.2632-163.4431-2.667,1.3896,1.3969-86.8092,4.3494-12.3287,1.5891-92.4165-2.1836,204.4205.0391,197.8276Z"/><path class="cls-5" d="M90.1736,292.6635c.669,27.2101-5.3084-96.6832-5.0805-111.2034.4323,49.4924,1.9464-100.416-.0415,11.9811.7295-100.252,4.1888,17.0729,4.4478-130.9698,3.6624,139.6378,1.6306,143.2788.6741,230.1921Z"/><path class="cls-5" d="M137.9945,179.348c-4.0917,126.4092-7.4278-34.409-6.4896,30.0505.8694,30.9871.6674-123.6043,2.7102-133.7109-3.7215-38.2472,3.5435-1.4202,4.3652-22.9067-4.6397,27.7121-2.883,221.9341-.5858,126.5671Z"/><path class="cls-5" d="M189.3388,299.8349c.9762-135.5609-.5618-155.7986-1.0843-176.1771-2.2974,45.0176-3.6206-53.7946-1.1838-103.3298-2.5026,14.6549,3.1474,54.5978,3.429,3.2444-2.1373,53.9856-.549,246.7997-1.1609,276.2626Z"/><path class="cls-5" d="M219.8481,210.7284c.6501,107.3725-.3278,5.8997-.855,132.8846-2.7153,10.6693-1.1983-220.352-2.4938-167.7681-1.0808-105.9583,3.3678,60.8268,3.9348-154.5559,2.0387,174.5496-.4557,245.7948-.586,189.4394Z"/><path class="cls-5" d="M245.6513,292.2352c1.6745-107.2746-3.7614-88.4665-2.8993,19.6261,1.0086-38.2608-2.0158-134.1923-.2363-193.5974.9925,22.5308,3.0534-42.5244,3.4952,49.2004.5485-78.8164-1.1535,83.6192-.3596,124.7709Z"/></g></svg>