<?xml version="1.0" encoding="UTF-8"?><svg id="_レイヤー_2" xmlns="http://www.w3.org/2000/svg" viewBox="0 0 311.811 311.811"><defs><style>.cls-1{fill:#303030;}.cls-2{fill:#bcbcbc;}.cls-3{fill:#ededed;}</style></defs><g id="_甲冑グラス鉄"><path class="cls-1" d="M37.0182,142.9225l7.0569,9.9912,130.6472.4373,108.2335-.4373,1.0675,30.0673-59.0497,3.1551-47.7096,28.9454H50.5385c-9.0144-6.0101-20.5271-35.6417-20.5271-35.6417l-1.5679-31.2224,8.5747-5.2949M39.2139,132.1643l-6.3989,3.9514-8.5747,5.2948-4.0238,2.4847.2372,4.7233,1.5677,31.2224.0648,1.2911.4683,1.205c.1226.3155,3.0497,7.824,7.1586,16.1949,8.0311,16.3613,13.199,21.0799,16.3876,23.2057l2.0155,1.3438h131.385l1.9126-1.1603,45.9924-27.9036,57.0441-3.0479,7.8469-.4193-.2789-7.8532-1.0674-30.0673-.2751-7.7474-7.7522.0313-108.2067.4371-126.4882-.4233-4.676-6.6204-4.3387-6.1429h0Z"/><path class="cls-3" d="M37.0183,142.9225l-8.5748,5.212,1.5679,31.2224s11.3744,29.2681,20.3642,35.5212c.1156.0485.2336.0881.3547.1206h89.29v-61.7405l-95.0605-.3181c-.2522-.0009-.5-.0417-.7402-.1086l-.1447-.0005-.0406-.0574c-.2402-.0854-.5466-.8402-.7571-.9893M91.5637,185.0277h0c1.0919,1.0919,1.0919,2.8622,0,3.954l-3.3912,3.3912c-1.0919,1.0919-2.8621,1.0918-3.9539,0l-3.3912-3.3912c-1.0919-1.0919-1.0919-2.8621,0-3.954h0c1.0919-1.0919,1.0919-2.8622,0-3.954h-.0001c-1.0919-1.0919-1.0919-2.8622,0-3.954h.0001c1.0919-1.0919,1.0919-2.8622,0-3.954h-.0001c-1.0919-1.0919-1.0919-2.8622,0-3.954l3.3912-3.3912c1.0919-1.0919,2.8621-1.0919,3.9539,0l3.3912,3.3912c1.0919,1.0919,1.0919,2.8621,0,3.954h0c-1.0919,1.0919-1.0919,2.8622,0,3.954h.0001c1.0919,1.0919,1.0919,2.8622,0,3.954h-.0001c-1.0919,1.0919-1.0919,2.8622,0,3.954ZM126.43,189.1432h0c1.0919,1.0919,1.0919,2.8622,0,3.954h0c-1.0919,1.0919-1.0919,2.8622,0,3.954h0c1.0919,1.0919,1.0919,2.8622,0,3.9541l-3.3912,3.3911c-1.0919,1.0918-2.8621,1.0918-3.9539,0l-3.3912-3.3911c-1.0919-1.0919-1.0919-2.8622,0-3.9541h0c1.0919-1.0918,1.0919-2.8621,0-3.954-1.0919-1.0919-1.0919-2.8621,0-3.954h0c1.0919-1.0919,1.0919-2.8622,0-3.954h-.0001c-1.0919-1.0919-1.0919-2.8622,0-3.954l3.3912-3.3912c1.0919-1.0919,2.8621-1.0919,3.9539,0l3.3912,3.3912c1.0919,1.0919,1.0919,2.8621,0,3.954h0c-1.0919,1.0919-1.0919,2.8622,0,3.954Z"/><path class="cls-2" d="M284.0234,182.9842c-.0476-1.152.0125.5421-.0327-.7306l-1.0349-29.3399-108.2334.4373-34.702-.1161v61.9344h37.1779l.1222-.0342,47.6531-28.9113,59.0497-3.2395ZM161.2962,185.1982h0c1.0919,1.0919,1.0919,2.8622,0,3.9541l-3.3912,3.3911c-1.0919,1.0918-2.8621,1.0918-3.954,0l-3.3912-3.3911c-1.0919-1.0918-1.0919-2.8621,0-3.954h0c1.0919-1.0919,1.0919-2.8622,0-3.9541h0c-1.0919-1.0919-1.0919-2.8622,0-3.954h0c1.0919-1.0919,1.0919-2.8622,0-3.954h0c-1.0919-1.0919-1.0919-2.8622,0-3.954l3.3912-3.3912c1.0919-1.0919,2.8621-1.0919,3.954,0l3.3912,3.3912c1.0919,1.0919,1.0919,2.8621,0,3.954l-.552.552c-1.1462,1.1462-.8978,2.6771.5521,3.4021l.2041.102c1.3415.6707,1.3968,3.09.0554,3.7608l.4388-.2579c-1.8339.9169-2.1481,2.8533-.6983,4.3031Z"/></g></svg>